<svg width="472" height="572" viewBox="0 0 472 572" fill="none" xmlns="http://www.w3.org/2000/svg">
<path d="M380.749 280L324.847 324.167V235.833L380.749 280Z" fill="#BA1E71"/>
<path fill-rule="evenodd" clip-rule="evenodd" d="M0 324L55.6901 280L0 236H324.847V324H0Z" fill="#BA1E71"/>
<path d="M127.026 294V291.443L136.628 280.932C137.755 279.701 138.683 278.631 139.412 277.722C140.141 276.803 140.681 275.941 141.032 275.136C141.391 274.322 141.571 273.47 141.571 272.58C141.571 271.557 141.325 270.671 140.833 269.923C140.35 269.175 139.687 268.598 138.844 268.19C138.001 267.783 137.054 267.58 136.003 267.58C134.886 267.58 133.91 267.812 133.077 268.276C132.253 268.73 131.614 269.369 131.159 270.193C130.714 271.017 130.492 271.983 130.492 273.091H127.14C127.14 271.386 127.533 269.89 128.319 268.602C129.104 267.314 130.175 266.311 131.529 265.591C132.892 264.871 134.422 264.511 136.117 264.511C137.821 264.511 139.332 264.871 140.648 265.591C141.964 266.311 142.997 267.281 143.745 268.503C144.493 269.724 144.867 271.083 144.867 272.58C144.867 273.65 144.673 274.696 144.284 275.719C143.906 276.732 143.243 277.864 142.296 279.114C141.358 280.354 140.056 281.869 138.39 283.659L131.855 290.648V290.875H145.378V294H127.026ZM160.733 294.398C158.593 294.398 156.77 293.815 155.265 292.651C153.759 291.476 152.608 289.777 151.813 287.551C151.017 285.316 150.62 282.617 150.62 279.455C150.62 276.311 151.017 273.626 151.813 271.401C152.618 269.166 153.773 267.461 155.279 266.287C156.794 265.103 158.612 264.511 160.733 264.511C162.854 264.511 164.668 265.103 166.174 266.287C167.689 267.461 168.844 269.166 169.64 271.401C170.444 273.626 170.847 276.311 170.847 279.455C170.847 282.617 170.449 285.316 169.654 287.551C168.858 289.777 167.708 291.476 166.202 292.651C164.696 293.815 162.873 294.398 160.733 294.398ZM160.733 291.273C162.854 291.273 164.502 290.25 165.676 288.205C166.851 286.159 167.438 283.242 167.438 279.455C167.438 276.936 167.168 274.791 166.628 273.02C166.098 271.249 165.331 269.9 164.327 268.972C163.333 268.044 162.135 267.58 160.733 267.58C158.631 267.58 156.988 268.616 155.804 270.69C154.621 272.755 154.029 275.676 154.029 279.455C154.029 281.973 154.294 284.114 154.824 285.875C155.354 287.636 156.117 288.976 157.111 289.895C158.115 290.813 159.322 291.273 160.733 291.273ZM176.245 294V291.443L185.847 280.932C186.974 279.701 187.902 278.631 188.631 277.722C189.36 276.803 189.9 275.941 190.25 275.136C190.61 274.322 190.79 273.47 190.79 272.58C190.79 271.557 190.544 270.671 190.051 269.923C189.569 269.175 188.906 268.598 188.063 268.19C187.22 267.783 186.273 267.58 185.222 267.58C184.104 267.58 183.129 267.812 182.296 268.276C181.472 268.73 180.833 269.369 180.378 270.193C179.933 271.017 179.711 271.983 179.711 273.091H176.358C176.358 271.386 176.751 269.89 177.537 268.602C178.323 267.314 179.393 266.311 180.747 265.591C182.111 264.871 183.64 264.511 185.336 264.511C187.04 264.511 188.551 264.871 189.867 265.591C191.183 266.311 192.215 267.281 192.963 268.503C193.711 269.724 194.086 271.083 194.086 272.58C194.086 273.65 193.891 274.696 193.503 275.719C193.124 276.732 192.461 277.864 191.515 279.114C190.577 280.354 189.275 281.869 187.608 283.659L181.074 290.648V290.875H194.597V294H176.245ZM199.157 288.034V285.136L211.941 264.909H214.043V269.398H212.622L202.963 284.682V284.909H220.179V288.034H199.157ZM212.85 294V287.153V285.804V264.909H216.202V294H212.85ZM247.832 284.909H251.696L254.934 289.17L255.787 290.307L260.616 296.727H256.752L253.571 292.466L252.775 291.386L247.832 284.909ZM261.809 279.455C261.809 282.523 261.255 285.174 260.147 287.409C259.039 289.644 257.519 291.367 255.588 292.58C253.656 293.792 251.449 294.398 248.968 294.398C246.487 294.398 244.281 293.792 242.349 292.58C240.417 291.367 238.897 289.644 237.789 287.409C236.681 285.174 236.127 282.523 236.127 279.455C236.127 276.386 236.681 273.735 237.789 271.5C238.897 269.265 240.417 267.542 242.349 266.33C244.281 265.117 246.487 264.511 248.968 264.511C251.449 264.511 253.656 265.117 255.588 266.33C257.519 267.542 259.039 269.265 260.147 271.5C261.255 273.735 261.809 276.386 261.809 279.455ZM258.4 279.455C258.4 276.936 257.979 274.81 257.136 273.077C256.303 271.344 255.171 270.032 253.741 269.142C252.321 268.252 250.73 267.807 248.968 267.807C247.207 267.807 245.611 268.252 244.181 269.142C242.761 270.032 241.629 271.344 240.787 273.077C239.953 274.81 239.537 276.936 239.537 279.455C239.537 281.973 239.953 284.099 240.787 285.832C241.629 287.565 242.761 288.877 244.181 289.767C245.611 290.657 247.207 291.102 248.968 291.102C250.73 291.102 252.321 290.657 253.741 289.767C255.171 288.877 256.303 287.565 257.136 285.832C257.979 284.099 258.4 281.973 258.4 279.455ZM267.221 294V291.443L276.823 280.932C277.95 279.701 278.878 278.631 279.608 277.722C280.337 276.803 280.877 275.941 281.227 275.136C281.587 274.322 281.767 273.47 281.767 272.58C281.767 271.557 281.52 270.671 281.028 269.923C280.545 269.175 279.882 268.598 279.039 268.19C278.197 267.783 277.25 267.58 276.198 267.58C275.081 267.58 274.106 267.812 273.272 268.276C272.448 268.73 271.809 269.369 271.355 270.193C270.91 271.017 270.687 271.983 270.687 273.091H267.335C267.335 271.386 267.728 269.89 268.514 268.602C269.3 267.314 270.37 266.311 271.724 265.591C273.088 264.871 274.617 264.511 276.312 264.511C278.017 264.511 279.527 264.871 280.843 265.591C282.16 266.311 283.192 267.281 283.94 268.503C284.688 269.724 285.062 271.083 285.062 272.58C285.062 273.65 284.868 274.696 284.48 275.719C284.101 276.732 283.438 277.864 282.491 279.114C281.554 280.354 280.252 281.869 278.585 283.659L272.051 290.648V290.875H285.573V294H267.221Z" fill="black"/>
<ellipse cx="78.9825" cy="280.5" rx="8.79936" ry="8.5" fill="#D9D9D9"/>
<path d="M79.7576 384.876C79.0701 384.872 78.443 384.702 77.8765 384.364C77.3099 384.021 76.8575 383.564 76.5193 382.995C76.1868 382.425 76.0222 381.796 76.0255 381.109C76.0288 380.416 76.1994 379.789 76.5374 379.228C76.881 378.661 77.3377 378.211 77.9075 377.879C78.4773 377.54 79.1059 377.373 79.7934 377.376C80.4866 377.379 81.1136 377.552 81.6745 377.895C82.241 378.233 82.6906 378.687 83.0231 379.257C83.3613 379.821 83.5288 380.449 83.5254 381.142C83.5222 381.83 83.3487 382.457 83.0051 383.024C82.6671 383.59 82.2133 384.043 81.6435 384.381C81.0794 384.714 80.4507 384.879 79.7576 384.876ZM114.207 376.455L111.548 376.443C111.448 375.875 111.26 375.374 110.984 374.941C110.707 374.508 110.368 374.14 109.966 373.837C109.564 373.534 109.114 373.305 108.614 373.149C108.121 372.993 107.596 372.914 107.039 372.912C106.033 372.907 105.131 373.156 104.333 373.658C103.541 374.16 102.913 374.899 102.448 375.874C101.989 376.85 101.756 378.042 101.749 379.451C101.742 380.871 101.964 382.071 102.414 383.05C102.869 384.03 103.493 384.771 104.286 385.275C105.08 385.778 105.973 386.032 106.968 386.037C107.519 386.039 108.042 385.968 108.537 385.822C109.037 385.671 109.49 385.448 109.895 385.155C110.3 384.861 110.643 384.502 110.923 384.077C111.209 383.646 111.407 383.153 111.518 382.597L114.177 382.617C114.031 383.474 113.752 384.263 113.339 384.983C112.932 385.697 112.409 386.314 111.771 386.834C111.137 387.348 110.414 387.745 109.6 388.026C108.786 388.306 107.899 388.444 106.939 388.44C105.428 388.433 104.083 388.069 102.904 387.348C101.726 386.621 100.799 385.586 100.124 384.242C99.454 382.898 99.1236 381.297 99.1325 379.439C99.1414 377.576 99.4899 375.978 100.178 374.645C100.866 373.308 101.803 372.283 102.988 371.573C104.174 370.856 105.519 370.502 107.025 370.508C107.951 370.512 108.814 370.65 109.614 370.92C110.419 371.185 111.142 371.575 111.781 372.089C112.421 372.598 112.949 373.219 113.366 373.954C113.783 374.683 114.063 375.517 114.207 376.455ZM117.097 388.247L117.16 375.156L119.623 375.167L119.613 377.246L119.749 377.247C119.991 376.544 120.414 375.991 121.018 375.591C121.628 375.184 122.317 374.983 123.084 374.986C123.243 374.987 123.43 374.993 123.646 375.006C123.868 375.018 124.041 375.033 124.166 375.051L124.154 377.488C124.052 377.459 123.87 377.427 123.609 377.392C123.348 377.351 123.087 377.33 122.825 377.329C122.223 377.326 121.686 377.452 121.213 377.705C120.746 377.953 120.375 378.301 120.1 378.749C119.825 379.191 119.686 379.696 119.683 380.264L119.645 388.258L117.097 388.247ZM131.352 388.574C130.125 388.569 129.055 388.283 128.143 387.716C127.231 387.15 126.524 386.36 126.024 385.346C125.523 384.332 125.276 383.15 125.282 381.797C125.289 380.439 125.547 379.253 126.058 378.238C126.568 377.223 127.282 376.437 128.2 375.878C129.117 375.32 130.189 375.044 131.417 375.049C132.644 375.054 133.714 375.34 134.626 375.907C135.538 376.474 136.244 377.267 136.745 378.286C137.246 379.305 137.493 380.494 137.486 381.852C137.48 383.204 137.221 384.385 136.711 385.394C136.2 386.403 135.486 387.187 134.569 387.745C133.652 388.303 132.579 388.58 131.352 388.574ZM131.371 386.435C132.166 386.439 132.826 386.232 133.351 385.813C133.876 385.395 134.265 384.837 134.518 384.14C134.777 383.442 134.909 382.673 134.913 381.832C134.917 380.996 134.792 380.229 134.54 379.529C134.293 378.823 133.91 378.256 133.389 377.828C132.868 377.399 132.21 377.183 131.415 377.18C130.614 377.176 129.948 377.386 129.418 377.81C128.893 378.234 128.501 378.797 128.242 379.501C127.989 380.199 127.86 380.965 127.856 381.8C127.852 382.641 127.973 383.412 128.22 384.112C128.472 384.812 128.859 385.373 129.379 385.796C129.906 386.218 130.57 386.432 131.371 386.435ZM150.157 378.499L147.845 378.898C147.75 378.602 147.598 378.32 147.389 378.052C147.186 377.784 146.908 377.564 146.557 377.392C146.205 377.22 145.765 377.133 145.237 377.131C144.515 377.127 143.912 377.287 143.428 377.608C142.943 377.924 142.7 378.335 142.698 378.841C142.696 379.278 142.856 379.631 143.178 379.9C143.501 380.168 144.023 380.389 144.743 380.563L146.821 381.05C148.024 381.333 148.92 381.766 149.508 382.348C150.096 382.931 150.388 383.685 150.383 384.611C150.379 385.395 150.149 386.093 149.691 386.704C149.24 387.31 148.609 387.785 147.801 388.128C146.998 388.471 146.068 388.64 145.012 388.635C143.546 388.629 142.351 388.311 141.428 387.682C140.505 387.047 139.941 386.15 139.736 384.99L142.201 384.626C142.352 385.268 142.665 385.756 143.14 386.087C143.616 386.413 144.237 386.578 145.004 386.581C145.84 386.585 146.508 386.415 147.01 386.07C147.511 385.72 147.763 385.292 147.766 384.787C147.768 384.378 147.616 384.033 147.311 383.753C147.011 383.474 146.549 383.261 145.924 383.117L143.711 382.621C142.491 382.337 141.589 381.89 141.007 381.279C140.43 380.669 140.144 379.898 140.149 378.966C140.152 378.193 140.372 377.518 140.806 376.94C141.241 376.363 141.839 375.914 142.602 375.593C143.365 375.267 144.238 375.106 145.221 375.111C146.636 375.117 147.748 375.429 148.558 376.046C149.367 376.657 149.9 377.475 150.157 378.499ZM163.024 378.556L160.712 378.955C160.617 378.659 160.465 378.377 160.256 378.109C160.053 377.841 159.775 377.622 159.424 377.449C159.072 377.277 158.633 377.19 158.104 377.188C157.383 377.185 156.78 377.344 156.295 377.666C155.811 377.982 155.567 378.393 155.565 378.898C155.563 379.336 155.723 379.689 156.045 379.957C156.368 380.226 156.89 380.447 157.61 380.62L159.688 381.107C160.891 381.391 161.787 381.824 162.375 382.406C162.963 382.988 163.255 383.742 163.25 384.668C163.247 385.452 163.016 386.15 162.558 386.762C162.107 387.368 161.477 387.842 160.668 388.185C159.865 388.528 158.936 388.697 157.879 388.693C156.413 388.686 155.218 388.368 154.295 387.739C153.372 387.104 152.808 386.207 152.603 385.047L155.068 384.683C155.219 385.326 155.532 385.813 156.007 386.145C156.483 386.471 157.104 386.635 157.871 386.639C158.707 386.642 159.375 386.472 159.877 386.128C160.378 385.778 160.63 385.35 160.633 384.844C160.635 384.435 160.483 384.091 160.178 383.811C159.878 383.531 159.416 383.319 158.791 383.174L156.578 382.678C155.358 382.394 154.456 381.947 153.874 381.337C153.297 380.726 153.011 379.955 153.016 379.023C153.019 378.25 153.239 377.575 153.673 376.998C154.108 376.42 154.707 375.971 155.469 375.651C156.232 375.324 157.105 375.164 158.088 375.168C159.503 375.174 160.615 375.486 161.425 376.103C162.234 376.715 162.767 377.533 163.024 378.556ZM171.547 388.754C170.28 388.748 169.19 388.456 168.278 387.878C167.372 387.295 166.677 386.493 166.193 385.474C165.709 384.455 165.471 383.289 165.477 381.977C165.483 380.647 165.739 379.475 166.244 378.46C166.749 377.44 167.457 376.644 168.369 376.075C169.281 375.505 170.353 375.223 171.586 375.228C172.58 375.233 173.466 375.421 174.242 375.794C175.019 376.161 175.644 376.675 176.119 377.336C176.598 377.998 176.882 378.769 176.968 379.65L174.488 379.639C174.355 379.025 174.045 378.495 173.558 378.049C173.077 377.604 172.431 377.38 171.618 377.376C170.908 377.373 170.285 377.558 169.749 377.93C169.219 378.297 168.805 378.824 168.506 379.51C168.207 380.19 168.056 380.997 168.051 381.928C168.046 382.883 168.187 383.707 168.474 384.402C168.76 385.096 169.167 385.635 169.693 386.018C170.226 386.401 170.853 386.594 171.574 386.598C172.057 386.6 172.495 386.514 172.888 386.339C173.287 386.159 173.62 385.902 173.889 385.568C174.163 385.234 174.355 384.831 174.466 384.36L176.946 384.371C176.851 385.218 176.572 385.972 176.108 386.635C175.645 387.297 175.026 387.817 174.251 388.195C173.482 388.572 172.581 388.758 171.547 388.754ZM182.236 380.764L182.199 388.537L179.651 388.526L179.734 371.071L182.249 371.082L182.218 377.577L182.38 377.577C182.69 376.874 183.161 376.317 183.794 375.905C184.426 375.493 185.251 375.289 186.268 375.294C187.166 375.298 187.949 375.486 188.618 375.858C189.292 376.23 189.812 376.784 190.178 377.518C190.55 378.247 190.733 379.157 190.728 380.248L190.688 388.575L188.14 388.563L188.178 380.544C188.183 379.583 187.939 378.838 187.447 378.307C186.955 377.771 186.269 377.501 185.388 377.497C184.786 377.494 184.246 377.62 183.767 377.873C183.295 378.127 182.921 378.5 182.645 378.993C182.376 379.481 182.24 380.071 182.236 380.764ZM197.897 388.897C197.067 388.893 196.318 388.736 195.649 388.426C194.98 388.111 194.451 387.657 194.062 387.064C193.678 386.472 193.488 385.746 193.492 384.888C193.496 384.15 193.641 383.542 193.927 383.066C194.214 382.59 194.599 382.214 195.083 381.938C195.568 381.662 196.108 381.454 196.706 381.315C197.303 381.175 197.911 381.07 198.531 380.999C199.315 380.911 199.952 380.84 200.441 380.786C200.93 380.726 201.286 380.628 201.508 380.492C201.73 380.357 201.842 380.136 201.843 379.829L201.844 379.769C201.847 379.025 201.64 378.447 201.221 378.036C200.808 377.626 200.19 377.418 199.366 377.415C198.508 377.411 197.831 377.598 197.335 377.977C196.845 378.349 196.505 378.765 196.315 379.225L193.923 378.669C194.211 377.874 194.628 377.234 195.176 376.748C195.73 376.256 196.365 375.901 197.082 375.683C197.799 375.459 198.552 375.348 199.342 375.352C199.865 375.354 200.418 375.419 201.003 375.547C201.593 375.669 202.143 375.893 202.653 376.219C203.169 376.545 203.59 377.01 203.917 377.614C204.243 378.212 204.404 378.988 204.4 379.943L204.358 388.636L201.87 388.625L201.878 386.835L201.776 386.834C201.61 387.163 201.361 387.486 201.03 387.803C200.699 388.119 200.274 388.382 199.756 388.59C199.238 388.798 198.618 388.9 197.897 388.897ZM198.46 386.854C199.165 386.857 199.768 386.72 200.269 386.444C200.776 386.168 201.161 385.806 201.425 385.358C201.694 384.905 201.83 384.42 201.832 383.903L201.841 382.215C201.749 382.306 201.573 382.39 201.311 382.469C201.055 382.541 200.762 382.605 200.432 382.661C200.102 382.71 199.781 382.757 199.468 382.801C199.156 382.84 198.894 382.873 198.684 382.9C198.189 382.96 197.737 383.064 197.327 383.209C196.923 383.355 196.598 383.567 196.353 383.844C196.113 384.116 195.992 384.479 195.989 384.934C195.986 385.564 196.217 386.043 196.681 386.369C197.146 386.689 197.739 386.851 198.46 386.854ZM207.752 388.651L207.815 375.56L210.363 375.572L210.301 388.662L207.752 388.651ZM209.111 373.546C208.668 373.544 208.288 373.395 207.972 373.098C207.66 372.795 207.506 372.437 207.508 372.022C207.51 371.601 207.668 371.244 207.982 370.95C208.301 370.65 208.683 370.501 209.126 370.503C209.569 370.505 209.946 370.658 210.257 370.96C210.574 371.257 210.732 371.616 210.729 372.036C210.728 372.451 210.567 372.808 210.247 373.108C209.933 373.402 209.555 373.548 209.111 373.546ZM216.314 380.916L216.277 388.689L213.729 388.678L213.791 375.587L216.237 375.598L216.227 377.728L216.389 377.729C216.694 377.037 217.168 376.483 217.812 376.065C218.462 375.647 219.278 375.441 220.261 375.445C221.153 375.449 221.933 375.64 222.602 376.018C223.271 376.39 223.788 376.944 224.154 377.678C224.519 378.413 224.7 379.32 224.695 380.4L224.655 388.726L222.107 388.715L222.145 380.695C222.149 379.746 221.906 379.004 221.414 378.467C220.922 377.925 220.245 377.653 219.381 377.649C218.79 377.646 218.264 377.772 217.803 378.025C217.347 378.279 216.984 378.652 216.715 379.145C216.451 379.633 216.318 380.223 216.314 380.916ZM237.345 371.328L237.262 388.783L234.628 388.771L234.712 371.316L237.345 371.328ZM240.893 388.799L240.955 375.708L243.401 375.719L243.391 377.85L243.553 377.85C243.829 377.13 244.278 376.569 244.899 376.169C245.52 375.762 246.263 375.561 247.126 375.565C248.001 375.569 248.733 375.777 249.322 376.188C249.917 376.6 250.355 377.165 250.635 377.882L250.772 377.882C251.087 377.185 251.587 376.63 252.271 376.219C252.955 375.801 253.768 375.595 254.712 375.599C255.899 375.604 256.866 375.981 257.612 376.728C258.365 377.476 258.737 378.6 258.73 380.1L258.688 388.878L256.14 388.867L256.18 380.327C256.185 379.441 255.946 378.798 255.465 378.398C254.984 377.998 254.408 377.796 253.738 377.793C252.908 377.79 252.262 378.042 251.8 378.552C251.337 379.055 251.104 379.705 251.1 380.5L251.06 388.844L248.52 388.833L248.562 380.131C248.565 379.421 248.347 378.849 247.905 378.415C247.464 377.981 246.889 377.763 246.178 377.76C245.695 377.758 245.249 377.883 244.839 378.137C244.434 378.385 244.106 378.733 243.853 379.181C243.607 379.629 243.482 380.148 243.479 380.739L243.441 388.81L240.893 388.799ZM262.08 393.802L262.166 375.803L264.655 375.814L264.644 377.936L264.857 377.937C265.006 377.665 265.221 377.35 265.501 376.994C265.781 376.637 266.169 376.326 266.665 376.061C267.16 375.791 267.814 375.657 268.627 375.661C269.684 375.666 270.626 375.937 271.453 376.475C272.28 377.012 272.926 377.785 273.393 378.793C273.866 379.801 274.099 381.012 274.092 382.427C274.085 383.842 273.843 385.054 273.367 386.063C272.891 387.066 272.239 387.839 271.413 388.381C270.586 388.917 269.645 389.183 268.588 389.178C267.792 389.174 267.142 389.038 266.638 388.769C266.139 388.499 265.749 388.185 265.466 387.826C265.184 387.467 264.967 387.148 264.815 386.868L264.661 386.868L264.628 393.814L262.08 393.802ZM264.632 382.359C264.627 383.279 264.757 384.087 265.021 384.781C265.284 385.476 265.668 386.02 266.172 386.414C266.676 386.803 267.294 386.999 268.027 387.002C268.789 387.005 269.426 386.807 269.939 386.405C270.453 385.999 270.842 385.446 271.106 384.749C271.377 384.051 271.514 383.265 271.518 382.39C271.522 381.526 271.395 380.75 271.137 380.061C270.885 379.373 270.501 378.828 269.986 378.428C269.476 378.028 268.838 377.827 268.071 377.823C267.332 377.82 266.707 378.007 266.193 378.386C265.686 378.764 265.3 379.294 265.035 379.974C264.771 380.655 264.636 381.45 264.632 382.359ZM279.547 371.516L279.464 388.971L276.916 388.959L276.999 371.505L279.547 371.516ZM288.533 389.275C287.243 389.27 286.134 388.989 285.205 388.434C284.281 387.873 283.569 387.088 283.068 386.08C282.573 385.067 282.329 383.881 282.335 382.523C282.341 381.182 282.597 380.002 283.102 378.981C283.613 377.961 284.321 377.166 285.227 376.596C286.139 376.026 287.203 375.744 288.419 375.749C289.157 375.752 289.873 375.878 290.565 376.125C291.257 376.373 291.877 376.759 292.426 377.284C292.974 377.809 293.406 378.49 293.72 379.327C294.034 380.158 294.188 381.167 294.183 382.354L294.178 383.258L283.772 383.211L283.781 381.302L291.69 381.338C291.693 380.667 291.56 380.073 291.29 379.555C291.019 379.031 290.638 378.617 290.145 378.314C289.658 378.01 289.085 377.857 288.426 377.854C287.71 377.851 287.084 378.024 286.548 378.374C286.018 378.719 285.607 379.171 285.314 379.732C285.028 380.288 284.883 380.893 284.879 381.546L284.872 383.037C284.868 383.912 285.018 384.657 285.322 385.272C285.631 385.887 286.064 386.358 286.619 386.684C287.174 387.005 287.824 387.167 288.569 387.17C289.052 387.173 289.492 387.106 289.891 386.972C290.289 386.831 290.634 386.623 290.925 386.346C291.216 386.069 291.439 385.726 291.594 385.317L294.004 385.763C293.808 386.472 293.458 387.093 292.956 387.625C292.459 388.151 291.835 388.56 291.083 388.852C290.338 389.139 289.487 389.28 288.533 389.275ZM296.978 389.049L297.041 375.958L299.487 375.969L299.476 378.1L299.638 378.1C299.914 377.38 300.363 376.819 300.984 376.419C301.606 376.013 302.348 375.811 303.212 375.815C304.087 375.819 304.819 376.027 305.408 376.439C306.002 376.85 306.44 377.415 306.721 378.132L306.857 378.133C307.173 377.435 307.673 376.88 308.356 376.469C309.04 376.051 309.854 375.845 310.797 375.849C311.984 375.854 312.951 376.231 313.698 376.978C314.45 377.726 314.822 378.85 314.815 380.35L314.773 389.128L312.225 389.117L312.266 380.577C312.27 379.691 312.032 379.048 311.551 378.648C311.07 378.248 310.494 378.046 309.823 378.043C308.994 378.04 308.348 378.293 307.885 378.802C307.422 379.306 307.189 379.955 307.185 380.75L307.146 389.094L304.606 389.083L304.647 380.381C304.651 379.671 304.432 379.099 303.991 378.665C303.55 378.231 302.974 378.013 302.264 378.01C301.781 378.008 301.334 378.133 300.924 378.387C300.519 378.636 300.191 378.983 299.939 379.431C299.692 379.879 299.568 380.398 299.565 380.989L299.526 389.06L296.978 389.049ZM323.829 389.433C322.54 389.427 321.43 389.146 320.501 388.591C319.578 388.03 318.865 387.246 318.365 386.238C317.869 385.224 317.625 384.039 317.632 382.681C317.638 381.34 317.894 380.159 318.398 379.139C318.909 378.118 319.617 377.323 320.524 376.753C321.435 376.183 322.499 375.901 323.715 375.907C324.454 375.91 325.169 376.035 325.861 376.283C326.553 376.53 327.173 376.916 327.722 377.441C328.271 377.967 328.702 378.648 329.016 379.484C329.33 380.315 329.485 381.324 329.479 382.512L329.475 383.415L319.069 383.369L319.078 381.46L326.987 381.495C326.99 380.825 326.856 380.23 326.586 379.712C326.316 379.188 325.934 378.774 325.442 378.471C324.954 378.168 324.381 378.015 323.722 378.012C323.006 378.009 322.38 378.182 321.845 378.532C321.315 378.876 320.903 379.329 320.611 379.89C320.324 380.445 320.179 381.05 320.176 381.703L320.169 383.195C320.165 384.07 320.315 384.815 320.618 385.43C320.928 386.045 321.36 386.515 321.916 386.842C322.471 387.162 323.121 387.324 323.865 387.328C324.348 387.33 324.789 387.264 325.187 387.129C325.585 386.989 325.93 386.78 326.221 386.503C326.512 386.226 326.736 385.883 326.891 385.475L329.301 385.92C329.104 386.63 328.755 387.25 328.252 387.782C327.755 388.308 327.131 388.717 326.38 389.009C325.634 389.296 324.784 389.437 323.829 389.433ZM334.86 381.445L334.823 389.218L332.275 389.206L332.337 376.115L334.783 376.126L334.773 378.257L334.935 378.258C335.239 377.566 335.714 377.011 336.358 376.594C337.007 376.176 337.824 375.969 338.807 375.974C339.699 375.978 340.479 376.169 341.148 376.547C341.816 376.919 342.334 377.473 342.699 378.207C343.065 378.942 343.246 379.849 343.24 380.928L343.201 389.255L340.652 389.244L340.691 381.224C340.695 380.275 340.452 379.532 339.96 378.996C339.468 378.454 338.79 378.181 337.927 378.177C337.336 378.175 336.81 378.3 336.348 378.554C335.892 378.807 335.53 379.181 335.26 379.674C334.997 380.161 334.863 380.752 334.86 381.445ZM352.791 376.207L352.782 378.252L345.631 378.22L345.641 376.175L352.791 376.207ZM347.574 373.047L350.122 373.058L350.063 385.442C350.06 385.936 350.132 386.309 350.279 386.559C350.425 386.804 350.615 386.973 350.847 387.065C351.086 387.151 351.344 387.195 351.622 387.196C351.827 387.197 352.006 387.183 352.16 387.156C352.313 387.128 352.433 387.106 352.518 387.089L352.968 389.196C352.82 389.252 352.609 389.308 352.337 389.364C352.063 389.425 351.722 389.458 351.313 389.462C350.643 389.47 350.018 389.348 349.44 389.095C348.862 388.843 348.395 388.454 348.039 387.93C347.684 387.406 347.508 386.749 347.512 385.959L347.574 373.047ZM359.356 389.617C358.526 389.613 357.777 389.456 357.108 389.147C356.439 388.831 355.91 388.377 355.521 387.784C355.137 387.192 354.948 386.466 354.952 385.608C354.955 384.87 355.1 384.263 355.387 383.787C355.673 383.311 356.058 382.934 356.543 382.658C357.027 382.382 357.568 382.174 358.165 382.035C358.762 381.895 359.371 381.79 359.99 381.719C360.775 381.632 361.412 381.561 361.9 381.506C362.389 381.446 362.745 381.348 362.967 381.212C363.189 381.077 363.301 380.856 363.303 380.549L363.303 380.489C363.307 379.745 363.099 379.167 362.681 378.756C362.268 378.346 361.649 378.138 360.826 378.135C359.968 378.131 359.291 378.318 358.795 378.697C358.304 379.069 357.964 379.485 357.774 379.945L355.382 379.389C355.67 378.595 356.088 377.954 356.636 377.468C357.189 376.976 357.824 376.621 358.541 376.403C359.258 376.179 360.012 376.068 360.801 376.072C361.324 376.074 361.878 376.139 362.462 376.267C363.053 376.389 363.603 376.613 364.113 376.939C364.628 377.265 365.049 377.73 365.376 378.334C365.703 378.932 365.864 379.708 365.859 380.663L365.818 389.356L363.329 389.345L363.337 387.555L363.235 387.554C363.069 387.883 362.82 388.206 362.489 388.523C362.158 388.839 361.733 389.102 361.215 389.31C360.697 389.518 360.078 389.62 359.356 389.617ZM359.92 387.574C360.624 387.577 361.227 387.44 361.729 387.164C362.236 386.888 362.621 386.526 362.884 386.078C363.153 385.625 363.289 385.14 363.292 384.623L363.3 382.935C363.209 383.026 363.032 383.11 362.77 383.189C362.514 383.261 362.221 383.326 361.891 383.381C361.562 383.431 361.24 383.477 360.928 383.521C360.615 383.56 360.354 383.593 360.143 383.62C359.649 383.681 359.196 383.784 358.787 383.93C358.382 384.075 358.058 384.287 357.812 384.564C357.572 384.836 357.451 385.199 357.449 385.654C357.446 386.284 357.676 386.763 358.141 387.089C358.605 387.409 359.198 387.571 359.92 387.574ZM375.385 376.307L375.375 378.353L368.225 378.321L368.234 376.276L375.385 376.307ZM370.167 373.148L372.715 373.159L372.656 385.543C372.654 386.037 372.726 386.409 372.872 386.66C373.019 386.905 373.208 387.073 373.441 387.165C373.679 387.252 373.938 387.295 374.216 387.297C374.42 387.298 374.6 387.284 374.753 387.256C374.907 387.229 375.026 387.207 375.111 387.19L375.562 389.297C375.414 389.353 375.203 389.409 374.93 389.465C374.657 389.526 374.316 389.558 373.907 389.562C373.236 389.571 372.612 389.449 372.034 389.196C371.455 388.943 370.988 388.555 370.633 388.031C370.277 387.506 370.102 386.849 370.105 386.06L370.167 373.148ZM378.141 389.411L378.204 376.32L380.752 376.331L380.69 389.422L378.141 389.411ZM379.5 374.306C379.057 374.304 378.677 374.154 378.36 373.858C378.049 373.555 377.895 373.196 377.897 372.782C377.899 372.361 378.057 372.004 378.371 371.71C378.69 371.41 379.072 371.261 379.515 371.263C379.958 371.265 380.335 371.418 380.646 371.72C380.963 372.017 381.12 372.376 381.118 372.796C381.116 373.211 380.956 373.568 380.636 373.868C380.322 374.162 379.944 374.308 379.5 374.306ZM389.631 389.726C388.403 389.721 387.334 389.435 386.422 388.868C385.51 388.302 384.803 387.511 384.302 386.498C383.801 385.484 383.554 384.301 383.561 382.949C383.567 381.591 383.826 380.405 384.336 379.39C384.847 378.375 385.561 377.589 386.478 377.03C387.396 376.472 388.468 376.195 389.695 376.201C390.923 376.206 391.992 376.492 392.904 377.059C393.816 377.625 394.523 378.418 395.024 379.438C395.524 380.457 395.772 381.646 395.765 383.003C395.759 384.356 395.5 385.536 394.99 386.546C394.479 387.555 393.765 388.338 392.848 388.897C391.93 389.455 390.858 389.732 389.631 389.726ZM389.649 387.587C390.445 387.591 391.105 387.383 391.63 386.965C392.154 386.547 392.543 385.989 392.797 385.291C393.056 384.594 393.187 383.824 393.191 382.983C393.195 382.148 393.071 381.381 392.819 380.681C392.572 379.975 392.189 379.408 391.668 378.98C391.147 378.551 390.489 378.335 389.694 378.331C388.893 378.328 388.227 378.538 387.696 378.962C387.172 379.386 386.78 379.949 386.521 380.653C386.267 381.35 386.139 382.117 386.135 382.952C386.131 383.793 386.252 384.563 386.499 385.263C386.751 385.963 387.137 386.525 387.658 386.947C388.185 387.37 388.848 387.583 389.649 387.587ZM401.164 381.741L401.127 389.513L398.579 389.502L398.641 376.411L401.087 376.422L401.077 378.553L401.239 378.553C401.543 377.862 402.018 377.307 402.662 376.889C403.311 376.472 404.128 376.265 405.111 376.27C406.003 376.274 406.783 376.464 407.452 376.842C408.12 377.215 408.638 377.768 409.003 378.503C409.369 379.237 409.55 380.144 409.544 381.224L409.505 389.551L406.956 389.539L406.995 381.519C406.999 380.571 406.756 379.828 406.264 379.292C405.772 378.75 405.094 378.477 404.231 378.473C403.64 378.47 403.114 378.596 402.652 378.85C402.196 379.103 401.834 379.477 401.564 379.97C401.301 380.457 401.167 381.047 401.164 381.741ZM422.112 389.607L418.322 376.499L420.956 376.511L423.475 386.136L423.603 386.136L426.223 376.534L428.856 376.546L431.367 386.128L431.495 386.129L434.089 376.569L436.722 376.581L432.816 389.655L430.217 389.643L427.603 380.18L427.407 380.179L424.703 389.618L422.112 389.607ZM439.078 389.683L439.141 376.592L441.689 376.603L441.626 389.694L439.078 389.683ZM440.437 374.578C439.994 374.576 439.614 374.426 439.297 374.129C438.986 373.827 438.832 373.468 438.834 373.053C438.836 372.633 438.994 372.276 439.308 371.982C439.627 371.682 440.009 371.533 440.452 371.535C440.895 371.537 441.272 371.689 441.583 371.992C441.9 372.289 442.057 372.647 442.055 373.068C442.053 373.483 441.893 373.84 441.573 374.14C441.259 374.434 440.88 374.58 440.437 374.578ZM451.228 376.646L451.218 378.691L444.068 378.659L444.077 376.614L451.228 376.646ZM446.01 373.486L448.558 373.497L448.499 385.881C448.497 386.375 448.569 386.748 448.715 386.998C448.862 387.243 449.051 387.412 449.284 387.504C449.522 387.59 449.781 387.634 450.059 387.635C450.263 387.636 450.443 387.622 450.596 387.595C450.75 387.567 450.869 387.545 450.954 387.528L451.405 389.635C451.257 389.691 451.046 389.747 450.773 389.803C450.5 389.864 450.159 389.897 449.75 389.901C449.079 389.909 448.455 389.787 447.877 389.534C447.298 389.282 446.831 388.893 446.476 388.369C446.12 387.845 445.945 387.188 445.948 386.398L446.01 373.486ZM456.851 381.989L456.814 389.762L454.266 389.75L454.349 372.296L456.863 372.307L456.832 378.801L456.994 378.802C457.304 378.099 457.776 377.541 458.408 377.129C459.041 376.717 459.866 376.514 460.883 376.518C461.781 376.522 462.564 376.71 463.232 377.083C463.907 377.455 464.427 378.009 464.793 378.743C465.164 379.472 465.347 380.382 465.342 381.473L465.302 389.799L462.754 389.788L462.792 381.768C462.797 380.808 462.553 380.063 462.062 379.532C461.57 378.996 460.884 378.726 460.003 378.722C459.401 378.719 458.86 378.844 458.382 379.098C457.909 379.352 457.535 379.725 457.26 380.218C456.991 380.705 456.854 381.296 456.851 381.989ZM99.5147 417.168L99.5981 399.714L110.541 399.763L110.53 402.03L102.221 401.993L102.195 407.311L109.934 407.346L109.923 409.604L102.185 409.57L102.159 414.913L110.571 414.951L110.56 417.218L99.5147 417.168ZM117.579 417.539C116.75 417.535 116 417.378 115.331 417.069C114.662 416.753 114.133 416.299 113.744 415.706C113.361 415.114 113.171 414.388 113.175 413.531C113.178 412.792 113.323 412.185 113.61 411.709C113.896 411.233 114.282 410.856 114.766 410.58C115.25 410.304 115.791 410.096 116.388 409.957C116.985 409.817 117.594 409.712 118.213 409.641C118.998 409.554 119.635 409.483 120.124 409.428C120.613 409.368 120.968 409.27 121.19 409.134C121.413 408.999 121.524 408.778 121.526 408.471L121.526 408.411C121.53 407.667 121.322 407.09 120.904 406.679C120.491 406.268 119.873 406.06 119.049 406.057C118.191 406.053 117.514 406.24 117.018 406.619C116.527 406.991 116.187 407.408 115.998 407.867L113.605 407.311C113.893 406.517 114.311 405.876 114.859 405.39C115.412 404.898 116.047 404.543 116.764 404.325C117.481 404.101 118.235 403.99 119.025 403.994C119.547 403.996 120.101 404.061 120.686 404.189C121.276 404.311 121.826 404.535 122.336 404.861C122.851 405.187 123.272 405.652 123.599 406.256C123.926 406.854 124.087 407.63 124.082 408.585L124.041 417.278L121.552 417.267L121.561 415.477L121.458 415.477C121.292 415.805 121.043 416.128 120.712 416.445C120.381 416.762 119.957 417.024 119.439 417.232C118.921 417.44 118.301 417.542 117.579 417.539ZM118.143 415.496C118.847 415.499 119.45 415.362 119.952 415.086C120.459 414.81 120.844 414.448 121.107 414.001C121.377 413.547 121.513 413.062 121.515 412.545L121.523 410.857C121.432 410.948 121.255 411.032 120.993 411.111C120.737 411.184 120.444 411.248 120.115 411.303C119.785 411.353 119.464 411.399 119.151 411.444C118.838 411.482 118.577 411.515 118.366 411.542C117.872 411.603 117.42 411.706 117.01 411.852C116.606 411.998 116.281 412.209 116.035 412.486C115.795 412.758 115.674 413.121 115.672 413.576C115.669 414.206 115.9 414.685 116.364 415.011C116.828 415.331 117.421 415.493 118.143 415.496ZM133.608 404.23L133.598 406.275L126.448 406.243L126.458 404.198L133.608 404.23ZM128.39 401.07L130.938 401.081L130.879 413.465C130.877 413.959 130.949 414.331 131.096 414.582C131.242 414.827 131.432 414.995 131.664 415.087C131.902 415.174 132.161 415.217 132.439 415.219C132.644 415.22 132.823 415.206 132.976 415.178C133.13 415.151 133.249 415.129 133.335 415.112L133.785 417.219C133.637 417.275 133.426 417.331 133.153 417.387C132.88 417.448 132.539 417.481 132.13 417.484C131.46 417.493 130.835 417.371 130.257 417.118C129.678 416.866 129.211 416.477 128.856 415.953C128.501 415.428 128.325 414.771 128.329 413.982L128.39 401.07ZM139.231 409.573L139.194 417.345L136.646 417.334L136.729 399.88L139.243 399.891L139.212 406.385L139.374 406.386C139.684 405.683 140.156 405.125 140.788 404.713C141.421 404.301 142.246 404.098 143.263 404.102C144.161 404.106 144.944 404.294 145.613 404.667C146.287 405.039 146.807 405.592 147.173 406.327C147.544 407.056 147.728 407.966 147.722 409.057L147.683 417.383L145.134 417.372L145.173 409.352C145.177 408.392 144.934 407.647 144.442 407.116C143.95 406.58 143.264 406.31 142.383 406.306C141.781 406.303 141.24 406.428 140.762 406.682C140.289 406.935 139.915 407.309 139.64 407.802C139.371 408.289 139.234 408.88 139.231 409.573ZM151.083 417.398L151.146 404.308L153.694 404.319L153.631 417.41L151.083 417.398ZM152.442 402.294C151.999 402.292 151.619 402.142 151.302 401.845C150.991 401.543 150.837 401.184 150.839 400.769C150.841 400.349 150.999 399.992 151.313 399.698C151.632 399.398 152.014 399.249 152.457 399.251C152.9 399.253 153.277 399.405 153.588 399.708C153.905 400.005 154.062 400.363 154.06 400.784C154.058 401.199 153.897 401.556 153.578 401.855C153.264 402.15 152.885 402.296 152.442 402.294ZM157.06 417.425L157.122 404.334L159.585 404.345L159.575 406.425L159.712 406.425C159.954 405.722 160.377 405.17 160.981 404.769C161.591 404.363 162.279 404.161 163.046 404.165C163.205 404.165 163.393 404.172 163.609 404.184C163.83 404.197 164.003 404.212 164.128 404.229L164.117 406.667C164.015 406.638 163.833 406.606 163.572 406.571C163.311 406.53 163.049 406.509 162.788 406.507C162.186 406.505 161.648 406.63 161.175 406.884C160.708 407.132 160.337 407.479 160.062 407.927C159.788 408.369 159.649 408.874 159.646 409.442L159.608 417.436L157.06 417.425ZM166.27 417.466L166.333 404.375L168.881 404.387L168.819 417.478L166.27 417.466ZM167.63 402.361C167.186 402.359 166.806 402.21 166.49 401.913C166.179 401.611 166.024 401.252 166.026 400.837C166.028 400.417 166.186 400.059 166.5 399.765C166.819 399.466 167.201 399.317 167.644 399.319C168.087 399.321 168.464 399.473 168.775 399.775C169.092 400.072 169.25 400.431 169.248 400.851C169.246 401.266 169.085 401.623 168.765 401.923C168.451 402.217 168.073 402.363 167.63 402.361ZM180.565 412.101L180.602 404.439L183.159 404.45L183.096 417.541L180.591 417.53L180.601 415.263L180.465 415.262C180.161 415.96 179.675 416.54 179.008 417.003C178.347 417.46 177.524 417.687 176.541 417.682C175.701 417.679 174.957 417.491 174.311 417.119C173.671 416.741 173.168 416.184 172.802 415.45C172.442 414.715 172.265 413.808 172.27 412.729L172.309 404.402L174.858 404.413L174.819 412.433C174.815 413.325 175.059 414.037 175.551 414.567C176.042 415.098 176.683 415.365 177.473 415.368C177.95 415.371 178.425 415.253 178.898 415.017C179.376 414.78 179.773 414.421 180.088 413.94C180.408 413.458 180.568 412.845 180.565 412.101ZM186.52 417.557L186.583 404.466L189.029 404.477L189.019 406.607L189.181 406.608C189.457 405.888 189.905 405.327 190.527 404.927C191.148 404.52 191.89 404.319 192.754 404.323C193.629 404.327 194.361 404.535 194.95 404.946C195.545 405.358 195.982 405.922 196.263 406.64L196.399 406.64C196.715 405.943 197.215 405.388 197.899 404.976C198.582 404.559 199.396 404.352 200.339 404.357C201.527 404.362 202.494 404.738 203.24 405.486C203.992 406.234 204.365 407.358 204.357 408.858L204.315 417.636L201.767 417.624L201.808 409.085C201.812 408.198 201.574 407.555 201.093 407.155C200.612 406.756 200.036 406.554 199.366 406.551C198.536 406.547 197.89 406.8 197.427 407.31C196.965 407.813 196.731 408.463 196.728 409.258L196.688 417.602L194.148 417.591L194.19 408.889C194.193 408.179 193.974 407.607 193.533 407.173C193.092 406.739 192.516 406.521 191.806 406.517C191.323 406.515 190.876 406.641 190.466 406.895C190.061 407.143 189.733 407.491 189.481 407.939C189.235 408.387 189.11 408.906 189.107 409.497L189.068 417.568L186.52 417.557ZM79.4804 442.875C78.7929 442.872 78.1658 442.701 77.5993 442.364C77.0327 442.02 76.5803 441.564 76.2422 440.994C75.9096 440.424 75.745 439.796 75.7483 439.108C75.7516 438.415 75.9222 437.788 76.2602 437.227C76.6038 436.66 77.0605 436.211 77.6303 435.878C78.2001 435.54 78.8287 435.372 79.5162 435.375C80.2094 435.378 80.8364 435.551 81.3973 435.895C81.9638 436.232 82.4134 436.686 82.7459 437.256C83.0841 437.82 83.2516 438.448 83.2482 439.142C83.245 439.829 83.0715 440.456 82.7279 441.023C82.3899 441.59 81.9361 442.042 81.3663 442.38C80.8022 442.713 80.1735 442.878 79.4804 442.875ZM99.4595 428.714L102.655 428.728L108.147 442.321L108.352 442.322L113.974 428.779L117.17 428.793L117.086 446.247L114.58 446.236L114.641 433.605L114.479 433.605L109.271 446.187L107.191 446.177L102.104 433.541L101.942 433.54L101.882 446.179L99.3761 446.168L99.4595 428.714ZM129.029 440.871L129.065 433.21L131.622 433.221L131.56 446.312L129.054 446.301L129.065 444.033L128.929 444.033C128.624 444.73 128.138 445.311 127.471 445.774C126.81 446.231 125.988 446.457 125.005 446.453C124.164 446.449 123.421 446.261 122.775 445.889C122.134 445.511 121.631 444.955 121.266 444.22C120.905 443.486 120.728 442.579 120.733 441.499L120.773 433.173L123.321 433.184L123.283 441.204C123.279 442.096 123.522 442.807 124.014 443.338C124.506 443.868 125.147 444.135 125.936 444.139C126.414 444.141 126.889 444.024 127.361 443.787C127.84 443.551 128.237 443.192 128.551 442.71C128.872 442.229 129.031 441.616 129.029 440.871ZM144.841 436.476L142.529 436.875C142.434 436.579 142.282 436.297 142.073 436.029C141.869 435.761 141.592 435.541 141.241 435.369C140.889 435.197 140.449 435.11 139.921 435.107C139.199 435.104 138.596 435.263 138.112 435.585C137.627 435.901 137.384 436.312 137.381 436.818C137.379 437.255 137.54 437.608 137.862 437.877C138.185 438.145 138.706 438.366 139.427 438.54L141.504 439.026C142.708 439.31 143.603 439.743 144.191 440.325C144.78 440.908 145.071 441.662 145.067 442.588C145.063 443.372 144.833 444.07 144.375 444.681C143.923 445.287 143.293 445.762 142.485 446.105C141.682 446.448 140.752 446.617 139.695 446.612C138.23 446.606 137.035 446.288 136.112 445.659C135.189 445.024 134.625 444.126 134.42 442.966L136.885 442.602C137.035 443.245 137.348 443.732 137.824 444.064C138.3 444.39 138.921 444.555 139.688 444.558C140.523 444.562 141.192 444.392 141.694 444.047C142.195 443.697 142.447 443.269 142.45 442.764C142.452 442.355 142.3 442.01 141.994 441.73C141.695 441.451 141.232 441.238 140.608 441.093L138.395 440.598C137.174 440.314 136.273 439.867 135.691 439.256C135.114 438.646 134.828 437.874 134.832 436.943C134.836 436.17 135.055 435.495 135.49 434.917C135.924 434.34 136.523 433.891 137.286 433.57C138.049 433.244 138.922 433.083 139.905 433.087C141.32 433.094 142.432 433.406 143.241 434.023C144.051 434.634 144.584 435.452 144.841 436.476ZM147.851 446.384L147.913 433.294L150.462 433.305L150.399 446.396L147.851 446.384ZM149.21 431.279C148.767 431.277 148.387 431.128 148.07 430.831C147.759 430.529 147.604 430.17 147.606 429.755C147.608 429.335 147.766 428.978 148.08 428.683C148.4 428.384 148.781 428.235 149.224 428.237C149.668 428.239 150.045 428.391 150.356 428.694C150.673 428.991 150.83 429.349 150.828 429.77C150.826 430.184 150.665 430.542 150.345 430.841C150.032 431.135 149.653 431.281 149.21 431.279ZM159.34 446.7C158.073 446.694 156.984 446.402 156.072 445.824C155.165 445.241 154.47 444.439 153.986 443.42C153.503 442.401 153.264 441.235 153.27 439.923C153.277 438.593 153.532 437.421 154.037 436.406C154.542 435.386 155.25 434.591 156.162 434.021C157.074 433.451 158.146 433.169 159.379 433.174C160.374 433.179 161.259 433.367 162.036 433.74C162.812 434.107 163.438 434.621 163.912 435.283C164.392 435.944 164.675 436.715 164.762 437.596L162.281 437.585C162.148 436.971 161.838 436.441 161.352 435.996C160.871 435.55 160.224 435.326 159.412 435.322C158.701 435.319 158.078 435.504 157.542 435.876C157.012 436.243 156.598 436.77 156.299 437.456C156 438.137 155.849 438.943 155.844 439.874C155.84 440.829 155.981 441.654 156.267 442.348C156.554 443.042 156.96 443.581 157.487 443.964C158.019 444.347 158.646 444.54 159.367 444.544C159.85 444.546 160.288 444.46 160.681 444.285C161.08 444.105 161.413 443.848 161.682 443.514C161.956 443.18 162.149 442.778 162.259 442.307L164.739 442.318C164.644 443.164 164.365 443.918 163.901 444.581C163.438 445.244 162.819 445.764 162.045 446.141C161.276 446.518 160.374 446.704 159.34 446.7ZM188.172 429.109L188.088 446.564L185.668 446.553L176.857 433.712L176.695 433.712L176.634 446.513L174 446.501L174.084 429.047L176.521 429.057L185.341 441.915L185.502 441.916L185.564 429.098L188.172 429.109ZM191.93 446.581L192.013 429.127L202.837 429.175L202.826 431.442L194.636 431.405L194.611 436.723L202.025 436.757L202.014 439.015L194.6 438.982L194.563 446.593L191.93 446.581ZM205.204 431.452L205.215 429.185L218.723 429.246L218.712 431.513L213.266 431.488L213.194 446.676L210.569 446.664L210.641 431.477L205.204 431.452ZM227.976 446.742L228.06 429.287L230.693 429.299L230.621 444.486L238.53 444.522L238.519 446.789L227.976 446.742ZM245.127 447.108C244.297 447.104 243.548 446.947 242.879 446.638C242.21 446.322 241.681 445.868 241.292 445.275C240.908 444.683 240.718 443.958 240.723 443.1C240.726 442.361 240.871 441.754 241.157 441.278C241.444 440.802 241.829 440.426 242.313 440.149C242.798 439.873 243.338 439.665 243.936 439.526C244.533 439.386 245.141 439.281 245.761 439.21C246.546 439.123 247.182 439.052 247.671 438.997C248.16 438.937 248.516 438.839 248.738 438.703C248.96 438.568 249.072 438.347 249.074 438.04L249.074 437.981C249.077 437.236 248.87 436.659 248.451 436.248C248.039 435.837 247.42 435.629 246.596 435.626C245.739 435.622 245.061 435.809 244.565 436.188C244.075 436.561 243.735 436.977 243.545 437.436L241.153 436.88C241.441 436.086 241.859 435.446 242.406 434.959C242.96 434.467 243.595 434.112 244.312 433.894C245.029 433.67 245.782 433.56 246.572 433.563C247.095 433.565 247.649 433.63 248.233 433.758C248.824 433.88 249.374 434.104 249.883 434.43C250.399 434.756 250.82 435.221 251.147 435.825C251.473 436.423 251.634 437.199 251.63 438.154L251.588 446.847L249.1 446.836L249.108 445.046L249.006 445.046C248.84 445.374 248.591 445.697 248.26 446.014C247.929 446.331 247.504 446.593 246.986 446.801C246.468 447.009 245.848 447.111 245.127 447.108ZM245.691 445.065C246.395 445.068 246.998 444.932 247.499 444.655C248.006 444.379 248.392 444.017 248.655 443.57C248.924 443.116 249.06 442.631 249.063 442.114L249.071 440.427C248.979 440.517 248.803 440.602 248.541 440.68C248.285 440.753 247.992 440.817 247.662 440.872C247.333 440.922 247.011 440.969 246.699 441.013C246.386 441.051 246.124 441.084 245.914 441.111C245.419 441.172 244.967 441.275 244.557 441.421C244.153 441.567 243.828 441.778 243.583 442.056C243.343 442.327 243.222 442.69 243.22 443.145C243.217 443.776 243.447 444.254 243.912 444.58C244.376 444.9 244.969 445.062 245.691 445.065ZM263.301 441.47L263.338 433.808L265.894 433.82L265.832 446.91L263.326 446.899L263.337 444.632L263.201 444.632C262.896 445.329 262.41 445.909 261.743 446.372C261.082 446.83 260.26 447.056 259.277 447.052C258.436 447.048 257.693 446.86 257.047 446.488C256.407 446.11 255.904 445.554 255.538 444.819C255.178 444.085 255 443.177 255.005 442.098L255.045 433.771L257.593 433.783L257.555 441.803C257.551 442.695 257.794 443.406 258.286 443.936C258.778 444.467 259.419 444.734 260.209 444.738C260.686 444.74 261.161 444.623 261.634 444.386C262.112 444.15 262.509 443.791 262.823 443.309C263.144 442.827 263.303 442.215 263.301 441.47ZM271.841 439.164L271.804 446.937L269.256 446.926L269.318 433.835L271.764 433.846L271.754 435.977L271.916 435.977C272.221 435.285 272.695 434.731 273.339 434.313C273.989 433.896 274.805 433.689 275.788 433.693C276.68 433.697 277.46 433.888 278.129 434.266C278.798 434.639 279.315 435.192 279.681 435.927C280.046 436.661 280.227 437.568 280.222 438.648L280.182 446.974L277.634 446.963L277.672 438.943C277.676 437.994 277.433 437.252 276.941 436.716C276.449 436.174 275.772 435.901 274.908 435.897C274.317 435.894 273.791 436.02 273.329 436.273C272.874 436.527 272.511 436.9 272.242 437.394C271.978 437.881 271.845 438.471 271.841 439.164ZM289.112 447.279C287.845 447.273 286.756 446.981 285.844 446.403C284.937 445.82 284.242 445.018 283.759 443.999C283.275 442.98 283.036 441.814 283.042 440.501C283.049 439.172 283.304 438 283.809 436.985C284.314 435.964 285.022 435.169 285.934 434.599C286.846 434.03 287.918 433.747 289.151 433.753C290.146 433.757 291.031 433.946 291.808 434.319C292.584 434.686 293.21 435.2 293.684 435.861C294.164 436.523 294.447 437.294 294.534 438.175L292.054 438.164C291.92 437.549 291.61 437.02 291.124 436.574C290.643 436.129 289.996 435.905 289.184 435.901C288.473 435.898 287.85 436.082 287.315 436.455C286.784 436.822 286.37 437.349 286.071 438.035C285.772 438.715 285.621 439.521 285.616 440.453C285.612 441.408 285.753 442.232 286.039 442.927C286.326 443.621 286.732 444.16 287.259 444.543C287.791 444.926 288.418 445.119 289.14 445.122C289.623 445.125 290.06 445.038 290.453 444.864C290.852 444.684 291.186 444.427 291.454 444.093C291.729 443.759 291.921 443.356 292.031 442.885L294.511 442.896C294.416 443.742 294.137 444.497 293.674 445.16C293.21 445.822 292.591 446.342 291.817 446.72C291.048 447.097 290.146 447.283 289.112 447.279ZM299.802 439.289L299.765 447.062L297.216 447.05L297.3 429.596L299.814 429.607L299.783 436.102L299.945 436.102C300.255 435.399 300.727 434.842 301.359 434.43C301.992 434.018 302.817 433.814 303.834 433.818C304.731 433.822 305.515 434.011 306.183 434.383C306.858 434.755 307.378 435.309 307.744 436.043C308.115 436.772 308.298 437.682 308.293 438.773L308.253 447.1L305.705 447.088L305.743 439.069C305.748 438.108 305.504 437.363 305.013 436.832C304.521 436.296 303.835 436.026 302.954 436.022C302.352 436.019 301.811 436.145 301.333 436.398C300.86 436.652 300.486 437.025 300.211 437.518C299.942 438.006 299.805 438.596 299.802 439.289ZM311.63 452.024L311.716 434.024L314.205 434.035L314.195 436.157L314.408 436.158C314.557 435.886 314.771 435.572 315.052 435.215C315.332 434.858 315.72 434.548 316.215 434.283C316.711 434.012 317.365 433.879 318.177 433.882C319.234 433.887 320.176 434.158 321.003 434.696C321.83 435.234 322.477 436.007 322.944 437.015C323.416 438.022 323.649 439.234 323.642 440.648C323.635 442.063 323.394 443.275 322.917 444.284C322.441 445.288 321.79 446.061 320.963 446.602C320.137 447.138 319.195 447.404 318.138 447.399C317.343 447.396 316.693 447.259 316.189 446.99C315.69 446.721 315.299 446.407 315.017 446.047C314.735 445.688 314.517 445.369 314.365 445.09L314.212 445.089L314.179 452.035L311.63 452.024ZM314.182 440.581C314.178 441.501 314.307 442.308 314.571 443.003C314.835 443.697 315.219 444.241 315.723 444.636C316.226 445.024 316.845 445.22 317.578 445.224C318.339 445.227 318.976 445.028 319.49 444.627C320.003 444.22 320.392 443.668 320.657 442.97C320.927 442.273 321.064 441.486 321.069 440.611C321.073 439.748 320.946 438.972 320.688 438.283C320.435 437.594 320.051 437.05 319.536 436.65C319.027 436.25 318.389 436.048 317.622 436.045C316.883 436.041 316.257 436.229 315.744 436.607C315.236 436.986 314.85 437.515 314.586 438.196C314.321 438.877 314.187 439.672 314.182 440.581ZM330.274 447.488C329.445 447.484 328.696 447.327 328.027 447.017C327.358 446.702 326.829 446.248 326.439 445.655C326.056 445.063 325.866 444.337 325.87 443.479C325.874 442.741 326.019 442.133 326.305 441.657C326.591 441.181 326.977 440.805 327.461 440.529C327.945 440.253 328.486 440.045 329.083 439.906C329.681 439.766 330.289 439.661 330.909 439.59C331.693 439.502 332.33 439.431 332.819 439.377C333.308 439.316 333.663 439.219 333.886 439.083C334.108 438.948 334.22 438.727 334.221 438.42L334.221 438.36C334.225 437.616 334.018 437.038 333.599 436.627C333.186 436.216 332.568 436.009 331.744 436.005C330.886 436.002 330.209 436.189 329.713 436.567C329.223 436.94 328.882 437.356 328.693 437.816L326.3 437.26C326.588 436.465 327.006 435.825 327.554 435.339C328.107 434.847 328.743 434.492 329.46 434.274C330.177 434.05 330.93 433.939 331.72 433.943C332.243 433.945 332.796 434.01 333.381 434.138C333.971 434.26 334.521 434.484 335.031 434.81C335.547 435.136 335.968 435.601 336.294 436.205C336.621 436.803 336.782 437.579 336.777 438.534L336.736 447.227L334.247 447.216L334.256 445.426L334.154 445.425C333.987 445.754 333.739 446.077 333.407 446.394C333.076 446.71 332.652 446.973 332.134 447.181C331.616 447.389 330.996 447.491 330.274 447.488ZM330.838 445.445C331.543 445.448 332.146 445.311 332.647 445.035C333.154 444.759 333.539 444.397 333.803 443.949C334.072 443.496 334.208 443.011 334.21 442.494L334.218 440.806C334.127 440.897 333.95 440.981 333.689 441.06C333.433 441.132 333.14 441.196 332.81 441.252C332.48 441.301 332.159 441.348 331.846 441.392C331.533 441.431 331.272 441.464 331.062 441.491C330.567 441.551 330.115 441.654 329.705 441.8C329.301 441.946 328.976 442.158 328.73 442.435C328.49 442.707 328.369 443.07 328.367 443.525C328.364 444.155 328.595 444.634 329.059 444.959C329.524 445.28 330.117 445.441 330.838 445.445ZM345.029 447.519C343.973 447.515 343.031 447.241 342.204 446.697C341.382 446.148 340.738 445.37 340.272 444.362C339.811 443.348 339.583 442.134 339.59 440.719C339.597 439.305 339.839 438.096 340.315 437.092C340.797 436.088 341.454 435.321 342.286 434.791C343.118 434.261 344.06 433.998 345.111 434.003C345.924 434.006 346.576 434.145 347.069 434.42C347.568 434.69 347.953 435.004 348.224 435.363C348.501 435.722 348.715 436.039 348.867 436.312L349.02 436.313L349.051 429.827L351.6 429.838L351.516 447.293L349.028 447.282L349.037 445.245L348.824 445.244C348.67 445.521 348.447 445.839 348.155 446.195C347.869 446.552 347.476 446.863 346.974 447.127C346.473 447.392 345.825 447.523 345.029 447.519ZM345.602 445.349C346.335 445.352 346.955 445.161 347.463 444.777C347.976 444.388 348.365 443.847 348.63 443.155C348.9 442.463 349.038 441.656 349.042 440.736C349.046 439.827 348.919 439.031 348.661 438.348C348.403 437.665 348.022 437.132 347.518 436.749C347.015 436.366 346.39 436.173 345.646 436.17C344.879 436.166 344.239 436.362 343.726 436.758C343.212 437.153 342.823 437.694 342.559 438.38C342.3 439.067 342.168 439.842 342.164 440.705C342.16 441.58 342.287 442.368 342.545 443.068C342.803 443.768 343.187 444.324 343.696 444.735C344.211 445.141 344.847 445.345 345.602 445.349ZM79.3418 471.875C78.6543 471.871 78.0272 471.701 77.4607 471.363C76.8941 471.02 76.4418 470.563 76.1036 469.994C75.7711 469.424 75.6064 468.795 75.6097 468.108C75.613 467.415 75.7837 466.788 76.1216 466.227C76.4652 465.66 76.9219 465.21 77.4917 464.878C78.0615 464.539 78.6901 464.372 79.3776 464.375C80.0708 464.378 80.6978 464.551 81.2587 464.894C81.8252 465.232 82.2748 465.686 82.6073 466.256C82.9455 466.82 83.113 467.448 83.1097 468.141C83.1064 468.829 82.9329 469.456 82.5893 470.023C82.2514 470.589 81.7975 471.042 81.2277 471.38C80.6636 471.713 80.0349 471.878 79.3418 471.875ZM113.409 457.776L113.325 475.231L110.905 475.22L102.094 462.379L101.932 462.379L101.871 475.18L99.2375 475.168L99.3209 457.713L101.758 457.724L110.578 470.582L110.74 470.583L110.801 457.765L113.409 457.776ZM117.167 475.248L117.25 457.793L128.074 457.842L128.063 460.109L119.873 460.072L119.848 465.39L127.262 465.423L127.252 467.682L119.837 467.649L119.8 475.26L117.167 475.248ZM130.441 460.119L130.452 457.852L143.96 457.913L143.95 460.18L138.504 460.155L138.431 475.343L135.806 475.331L135.879 460.144L130.441 460.119ZM153.214 475.409L153.297 457.954L155.93 457.966L155.858 473.153L163.767 473.189L163.756 475.456L153.214 475.409ZM170.364 475.775C169.534 475.771 168.785 475.614 168.116 475.305C167.447 474.989 166.918 474.535 166.529 473.942C166.145 473.35 165.956 472.624 165.96 471.766C165.963 471.028 166.108 470.421 166.395 469.945C166.681 469.469 167.066 469.092 167.551 468.816C168.035 468.54 168.576 468.332 169.173 468.193C169.77 468.053 170.379 467.948 170.998 467.877C171.783 467.79 172.42 467.719 172.908 467.664C173.397 467.604 173.753 467.506 173.975 467.37C174.197 467.235 174.309 467.014 174.311 466.707L174.311 466.647C174.315 465.903 174.107 465.325 173.689 464.915C173.276 464.504 172.657 464.296 171.834 464.293C170.976 464.289 170.299 464.476 169.802 464.855C169.312 465.227 168.972 465.643 168.782 466.103L166.39 465.547C166.678 464.753 167.096 464.112 167.644 463.626C168.197 463.134 168.832 462.779 169.549 462.561C170.266 462.337 171.02 462.226 171.809 462.23C172.332 462.232 172.886 462.297 173.47 462.425C174.061 462.547 174.611 462.771 175.121 463.097C175.636 463.423 176.057 463.888 176.384 464.492C176.711 465.09 176.872 465.866 176.867 466.821L176.825 475.514L174.337 475.503L174.345 473.713L174.243 473.713C174.077 474.041 173.828 474.364 173.497 474.681C173.166 474.998 172.741 475.26 172.223 475.468C171.705 475.676 171.086 475.778 170.364 475.775ZM170.928 473.732C171.632 473.735 172.235 473.598 172.736 473.322C173.243 473.046 173.629 472.684 173.892 472.237C174.161 471.783 174.297 471.298 174.3 470.781L174.308 469.093C174.217 469.184 174.04 469.268 173.778 469.347C173.522 469.42 173.229 469.484 172.899 469.539C172.57 469.589 172.248 469.635 171.936 469.679C171.623 469.718 171.361 469.751 171.151 469.778C170.657 469.839 170.204 469.942 169.795 470.088C169.39 470.233 169.066 470.445 168.82 470.722C168.58 470.994 168.459 471.357 168.457 471.812C168.454 472.442 168.684 472.921 169.149 473.247C169.613 473.567 170.206 473.729 170.928 473.732ZM182.805 467.768L182.768 475.54L180.22 475.529L180.282 462.438L182.728 462.449L182.718 464.58L182.88 464.581C183.184 463.889 183.659 463.334 184.303 462.916C184.952 462.499 185.769 462.292 186.752 462.297C187.644 462.301 188.424 462.492 189.093 462.87C189.761 463.242 190.279 463.795 190.644 464.53C191.01 465.264 191.191 466.172 191.185 467.251L191.146 475.578L188.597 475.566L188.636 467.547C188.64 466.598 188.397 465.855 187.905 465.319C187.413 464.777 186.735 464.504 185.872 464.5C185.281 464.497 184.755 464.623 184.293 464.877C183.838 465.13 183.475 465.504 183.206 465.997C182.942 466.484 182.808 467.075 182.805 467.768ZM199.463 475.87C198.406 475.866 197.464 475.592 196.637 475.048C195.816 474.499 195.172 473.721 194.705 472.713C194.244 471.699 194.017 470.485 194.023 469.071C194.03 467.656 194.272 466.447 194.748 465.443C195.23 464.44 195.887 463.673 196.719 463.142C197.551 462.612 198.493 462.349 199.544 462.354C200.357 462.357 201.009 462.497 201.502 462.771C202.001 463.041 202.386 463.355 202.657 463.714C202.934 464.073 203.148 464.39 203.3 464.663L203.454 464.664L203.485 458.178L206.033 458.189L205.949 475.644L203.461 475.633L203.471 473.596L203.258 473.595C203.103 473.872 202.88 474.19 202.588 474.546C202.302 474.903 201.909 475.214 201.408 475.479C200.906 475.743 200.258 475.874 199.463 475.87ZM200.035 473.7C200.768 473.703 201.389 473.513 201.896 473.128C202.409 472.739 202.798 472.198 203.063 471.506C203.333 470.814 203.471 470.008 203.475 469.087C203.479 468.178 203.353 467.382 203.094 466.699C202.836 466.016 202.455 465.483 201.952 465.1C201.448 464.717 200.824 464.524 200.079 464.521C199.312 464.517 198.672 464.713 198.159 465.109C197.646 465.504 197.257 466.045 196.992 466.732C196.733 467.418 196.601 468.193 196.597 469.056C196.593 469.931 196.72 470.719 196.978 471.419C197.236 472.119 197.62 472.675 198.129 473.086C198.644 473.492 199.28 473.696 200.035 473.7ZM209.587 475.66L209.649 462.569L212.197 462.581L212.135 475.671L209.587 475.66ZM210.946 460.555C210.502 460.553 210.123 460.404 209.806 460.107C209.495 459.804 209.34 459.446 209.342 459.031C209.344 458.61 209.502 458.253 209.816 457.959C210.136 457.659 210.517 457.511 210.96 457.512C211.403 457.514 211.78 457.667 212.092 457.969C212.408 458.266 212.566 458.625 212.564 459.045C212.562 459.46 212.401 459.817 212.081 460.117C211.767 460.411 211.389 460.557 210.946 460.555ZM218.148 467.925L218.111 475.698L215.563 475.687L215.626 462.596L218.072 462.607L218.061 464.737L218.223 464.738C218.528 464.046 219.002 463.492 219.646 463.074C220.296 462.656 221.112 462.45 222.095 462.454C222.987 462.458 223.767 462.649 224.436 463.027C225.105 463.399 225.622 463.953 225.988 464.688C226.354 465.422 226.534 466.329 226.529 467.409L226.489 475.735L223.941 475.724L223.979 467.704C223.984 466.755 223.74 466.013 223.248 465.476C222.757 464.934 222.079 464.662 221.215 464.658C220.624 464.655 220.098 464.781 219.637 465.034C219.181 465.288 218.818 465.661 218.549 466.154C218.285 466.642 218.152 467.232 218.148 467.925ZM235.37 480.957C234.331 480.952 233.436 480.812 232.688 480.536C231.945 480.26 231.339 479.896 230.869 479.445C230.4 478.994 230.05 478.501 229.819 477.966L232.014 477.072C232.166 477.323 232.369 477.588 232.624 477.868C232.884 478.153 233.235 478.396 233.677 478.597C234.125 478.798 234.701 478.9 235.406 478.903C236.372 478.907 237.171 478.675 237.804 478.206C238.437 477.743 238.756 477 238.761 475.978L238.773 473.404L238.611 473.403C238.456 473.681 238.233 473.989 237.942 474.329C237.656 474.669 237.263 474.962 236.762 475.21C236.26 475.458 235.609 475.58 234.808 475.576C233.774 475.572 232.843 475.326 232.016 474.84C231.195 474.347 230.545 473.626 230.066 472.675C229.594 471.718 229.36 470.544 229.367 469.151C229.374 467.759 229.615 466.567 230.092 465.575C230.574 464.583 231.231 463.825 232.063 463.3C232.895 462.769 233.836 462.507 234.888 462.511C235.7 462.515 236.356 462.654 236.854 462.929C237.353 463.198 237.741 463.513 238.017 463.872C238.3 464.231 238.517 464.547 238.669 464.821L238.857 464.822L238.867 462.699L241.364 462.711L241.3 476.091C241.295 477.216 241.029 478.138 240.503 478.858C239.977 479.577 239.267 480.108 238.373 480.45C237.485 480.793 236.484 480.962 235.37 480.957ZM235.381 473.465C236.114 473.469 236.734 473.301 237.241 472.962C237.754 472.618 238.143 472.125 238.407 471.484C238.677 470.838 238.815 470.063 238.819 469.16C238.823 468.279 238.696 467.503 238.438 466.831C238.18 466.16 237.799 465.635 237.295 465.258C236.791 464.875 236.167 464.682 235.423 464.678C234.656 464.675 234.015 464.871 233.502 465.266C232.989 465.656 232.6 466.189 232.335 466.864C232.077 467.539 231.945 468.294 231.941 469.129C231.937 469.987 232.064 470.74 232.322 471.389C232.581 472.038 232.965 472.545 233.474 472.911C233.99 473.277 234.625 473.462 235.381 473.465ZM251.275 475.846L251.358 458.392L257.75 458.42C258.989 458.426 260.014 458.635 260.824 459.047C261.635 459.454 262.24 460.005 262.64 460.7C263.04 461.39 263.238 462.166 263.234 463.03C263.231 463.757 263.094 464.37 262.825 464.869C262.555 465.362 262.196 465.758 261.745 466.057C261.301 466.351 260.811 466.564 260.276 466.698L260.275 466.869C260.855 466.9 261.419 467.09 261.969 467.439C262.524 467.782 262.982 468.27 263.342 468.902C263.703 469.535 263.881 470.303 263.877 471.206C263.873 472.098 263.659 472.898 263.235 473.607C262.817 474.309 262.172 474.866 261.301 475.277C260.429 475.682 259.318 475.882 257.965 475.876L251.275 475.846ZM253.919 473.599L257.72 473.616C258.982 473.622 259.886 473.381 260.434 472.895C260.982 472.409 261.258 471.799 261.261 471.066C261.264 470.515 261.127 470.009 260.851 469.548C260.574 469.086 260.179 468.718 259.663 468.443C259.153 468.168 258.545 468.029 257.841 468.026L253.946 468.008L253.919 473.599ZM253.956 465.954L257.484 465.97C258.075 465.973 258.607 465.861 259.08 465.636C259.558 465.411 259.937 465.095 260.218 464.687C260.504 464.273 260.648 463.785 260.651 463.223C260.654 462.501 260.404 461.895 259.901 461.404C259.398 460.913 258.623 460.665 257.578 460.661L253.981 460.645L253.956 465.954ZM272.286 476.204C271.059 476.198 269.989 475.912 269.077 475.346C268.165 474.779 267.459 473.989 266.958 472.975C266.457 471.962 266.21 470.779 266.216 469.427C266.223 468.069 266.481 466.882 266.992 465.868C267.502 464.853 268.216 464.066 269.134 463.508C270.051 462.949 271.124 462.673 272.351 462.678C273.578 462.684 274.648 462.97 275.56 463.536C276.472 464.103 277.179 464.896 277.679 465.915C278.18 466.934 278.427 468.123 278.421 469.481C278.414 470.833 278.156 472.014 277.645 473.023C277.135 474.032 276.421 474.816 275.503 475.374C274.586 475.933 273.514 476.209 272.286 476.204ZM272.305 474.065C273.101 474.068 273.761 473.861 274.285 473.443C274.81 473.025 275.199 472.467 275.452 471.769C275.711 471.071 275.843 470.302 275.847 469.461C275.851 468.626 275.727 467.858 275.474 467.158C275.228 466.453 274.844 465.886 274.324 465.457C273.803 465.029 273.145 464.813 272.349 464.809C271.548 464.805 270.882 465.016 270.352 465.439C269.827 465.863 269.435 466.427 269.176 467.13C268.923 467.828 268.794 468.594 268.79 469.43C268.786 470.27 268.908 471.041 269.154 471.741C269.407 472.441 269.793 473.002 270.314 473.425C270.84 473.848 271.504 474.061 272.305 474.065ZM281.234 475.979L281.297 462.889L283.76 462.9L283.75 464.979L283.886 464.98C284.128 464.276 284.551 463.724 285.156 463.324C285.765 462.917 286.454 462.716 287.221 462.719C287.38 462.72 287.568 462.726 287.783 462.739C288.005 462.751 288.178 462.766 288.303 462.784L288.291 465.221C288.189 465.192 288.008 465.16 287.746 465.125C287.485 465.084 287.224 465.063 286.963 465.062C286.36 465.059 285.823 465.184 285.35 465.438C284.883 465.686 284.512 466.034 284.237 466.481C283.962 466.923 283.823 467.428 283.821 467.997L283.783 475.991L281.234 475.979ZM290.445 476.021L290.508 462.93L292.971 462.941L292.961 465.02L293.097 465.021C293.339 464.317 293.762 463.765 294.366 463.365C294.976 462.958 295.665 462.757 296.432 462.76C296.591 462.761 296.778 462.767 296.994 462.78C297.216 462.792 297.389 462.807 297.514 462.825L297.502 465.262C297.4 465.233 297.218 465.201 296.957 465.166C296.696 465.125 296.435 465.104 296.173 465.103C295.571 465.1 295.034 465.226 294.561 465.479C294.094 465.727 293.723 466.075 293.448 466.522C293.173 466.964 293.034 467.469 293.032 468.038L292.993 476.032L290.445 476.021ZM304.7 476.348C303.473 476.343 302.403 476.057 301.491 475.49C300.579 474.924 299.873 474.134 299.372 473.12C298.871 472.106 298.624 470.923 298.63 469.571C298.637 468.213 298.895 467.027 299.406 466.012C299.916 464.997 300.63 464.211 301.548 463.652C302.465 463.094 303.537 462.817 304.765 462.823C305.992 462.828 307.062 463.114 307.974 463.681C308.886 464.248 309.592 465.04 310.093 466.06C310.594 467.079 310.841 468.268 310.835 469.626C310.828 470.978 310.57 472.159 310.059 473.168C309.549 474.177 308.835 474.96 307.917 475.519C307 476.077 305.927 476.354 304.7 476.348ZM304.719 474.209C305.514 474.213 306.174 474.005 306.699 473.587C307.224 473.169 307.613 472.611 307.866 471.914C308.125 471.216 308.257 470.447 308.261 469.606C308.265 468.77 308.141 468.003 307.888 467.303C307.642 466.597 307.258 466.03 306.737 465.602C306.217 465.173 305.559 464.957 304.763 464.954C303.962 464.95 303.296 465.16 302.766 465.584C302.241 466.008 301.849 466.571 301.59 467.275C301.337 467.972 301.208 468.739 301.204 469.574C301.2 470.415 301.321 471.185 301.568 471.885C301.82 472.585 302.207 473.147 302.728 473.57C303.254 473.992 303.918 474.206 304.719 474.209ZM316.088 476.135L312.298 463.027L314.931 463.039L317.451 472.664L317.579 472.664L320.198 463.062L322.832 463.074L325.343 472.656L325.471 472.657L328.065 463.097L330.698 463.109L326.792 476.183L324.193 476.171L321.579 466.708L321.383 466.707L318.678 476.146L316.088 476.135ZM333.054 476.211L333.117 463.12L335.665 463.131L335.602 476.222L333.054 476.211ZM334.413 461.106C333.97 461.104 333.59 460.954 333.273 460.657C332.962 460.355 332.808 459.996 332.81 459.581C332.812 459.161 332.97 458.804 333.284 458.51C333.603 458.21 333.985 458.061 334.428 458.063C334.871 458.065 335.248 458.217 335.559 458.52C335.876 458.817 336.033 459.175 336.031 459.596C336.029 460.011 335.868 460.368 335.549 460.668C335.235 460.962 334.856 461.108 334.413 461.106ZM341.616 468.476L341.579 476.249L339.031 476.237L339.093 463.146L341.539 463.157L341.529 465.288L341.691 465.289C341.995 464.597 342.47 464.042 343.114 463.625C343.763 463.207 344.58 463 345.563 463.005C346.455 463.009 347.235 463.2 347.904 463.578C348.572 463.95 349.09 464.504 349.455 465.238C349.821 465.973 350.002 466.88 349.996 467.959L349.957 476.286L347.408 476.275L347.447 468.255C347.451 467.306 347.208 466.563 346.716 466.027C346.224 465.485 345.546 465.212 344.683 465.208C344.092 465.206 343.566 465.331 343.104 465.585C342.648 465.838 342.286 466.212 342.016 466.705C341.753 467.192 341.619 467.783 341.616 468.476ZM358.838 481.507C357.798 481.503 356.904 481.362 356.155 481.086C355.412 480.81 354.806 480.447 354.337 479.996C353.867 479.545 353.517 479.052 353.287 478.517L355.481 477.623C355.634 477.874 355.837 478.139 356.091 478.418C356.351 478.704 356.702 478.947 357.145 479.148C357.593 479.348 358.169 479.45 358.873 479.454C359.839 479.458 360.639 479.226 361.272 478.757C361.904 478.294 362.223 477.551 362.228 476.528L362.241 473.954L362.079 473.954C361.924 474.231 361.701 474.54 361.409 474.88C361.124 475.219 360.73 475.513 360.229 475.761C359.728 476.008 359.077 476.131 358.276 476.127C357.242 476.122 356.311 475.877 355.484 475.39C354.662 474.898 354.012 474.176 353.534 473.225C353.061 472.268 352.828 471.094 352.835 469.702C352.841 468.31 353.083 467.118 353.559 466.126C354.041 465.134 354.698 464.375 355.53 463.85C356.362 463.32 357.304 463.057 358.355 463.062C359.168 463.066 359.823 463.205 360.322 463.48C360.821 463.749 361.208 464.063 361.485 464.422C361.767 464.782 361.985 465.098 362.137 465.371L362.324 465.372L362.334 463.25L364.831 463.261L364.768 476.642C364.762 477.767 364.496 478.689 363.97 479.408C363.444 480.127 362.734 480.658 361.84 481.001C360.952 481.344 359.952 481.512 358.838 481.507ZM358.848 474.016C359.581 474.019 360.201 473.851 360.709 473.513C361.222 473.169 361.61 472.676 361.875 472.035C362.145 471.389 362.282 470.614 362.286 469.71C362.291 468.829 362.164 468.053 361.906 467.382C361.647 466.71 361.266 466.186 360.762 465.808C360.259 465.426 359.635 465.232 358.89 465.229C358.123 465.226 357.483 465.422 356.97 465.817C356.457 466.207 356.068 466.739 355.803 467.414C355.544 468.089 355.413 468.844 355.409 469.679C355.405 470.537 355.532 471.291 355.79 471.94C356.048 472.589 356.432 473.096 356.942 473.462C357.457 473.828 358.093 474.013 358.848 474.016Z" fill="#BA1E71"/>
<line x1="79.7439" y1="279" x2="79.7439" y2="468" stroke="#0FA9D9"/>
</svg>
