<svg width="473" height="572" viewBox="0 0 473 572" fill="none" xmlns="http://www.w3.org/2000/svg">
<path d="M367.799 280L313.799 324.167V235.833L367.799 280Z" fill="#4CC9F0"/>
<path fill-rule="evenodd" clip-rule="evenodd" d="M0 324L53.796 280L0 236H313.799V324H0Z" fill="#4CC9F0"/>
<path d="M128.013 294V291.443L137.615 280.932C138.742 279.701 139.67 278.631 140.399 277.722C141.128 276.803 141.668 275.941 142.018 275.136C142.378 274.322 142.558 273.47 142.558 272.58C142.558 271.557 142.312 270.671 141.819 269.923C141.336 269.175 140.674 268.598 139.831 268.19C138.988 267.783 138.041 267.58 136.99 267.58C135.872 267.58 134.897 267.812 134.064 268.276C133.24 268.73 132.601 269.369 132.146 270.193C131.701 271.017 131.478 271.983 131.478 273.091H128.126C128.126 271.386 128.519 269.89 129.305 268.602C130.091 267.314 131.161 266.311 132.515 265.591C133.879 264.871 135.408 264.511 137.103 264.511C138.808 264.511 140.318 264.871 141.635 265.591C142.951 266.311 143.983 267.281 144.731 268.503C145.479 269.724 145.853 271.083 145.853 272.58C145.853 273.65 145.659 274.696 145.271 275.719C144.892 276.732 144.229 277.864 143.282 279.114C142.345 280.354 141.043 281.869 139.376 283.659L132.842 290.648V290.875H146.365V294H128.013ZM161.72 294.398C159.58 294.398 157.757 293.815 156.251 292.651C154.746 291.476 153.595 289.777 152.8 287.551C152.004 285.316 151.606 282.617 151.606 279.455C151.606 276.311 152.004 273.626 152.8 271.401C153.604 269.166 154.76 267.461 156.265 266.287C157.781 265.103 159.599 264.511 161.72 264.511C163.841 264.511 165.655 265.103 167.16 266.287C168.675 267.461 169.831 269.166 170.626 271.401C171.431 273.626 171.834 276.311 171.834 279.455C171.834 282.617 171.436 285.316 170.64 287.551C169.845 289.777 168.694 291.476 167.189 292.651C165.683 293.815 163.86 294.398 161.72 294.398ZM161.72 291.273C163.841 291.273 165.489 290.25 166.663 288.205C167.837 286.159 168.425 283.242 168.425 279.455C168.425 276.936 168.155 274.791 167.615 273.02C167.085 271.249 166.318 269.9 165.314 268.972C164.319 268.044 163.121 267.58 161.72 267.58C159.618 267.58 157.975 268.616 156.791 270.69C155.607 272.755 155.015 275.676 155.015 279.455C155.015 281.973 155.281 284.114 155.811 285.875C156.341 287.636 157.103 288.976 158.098 289.895C159.102 290.813 160.309 291.273 161.72 291.273ZM177.231 294V291.443L186.834 280.932C187.961 279.701 188.889 278.631 189.618 277.722C190.347 276.803 190.887 275.941 191.237 275.136C191.597 274.322 191.777 273.47 191.777 272.58C191.777 271.557 191.531 270.671 191.038 269.923C190.555 269.175 189.892 268.598 189.05 268.19C188.207 267.783 187.26 267.58 186.209 267.58C185.091 267.58 184.116 267.812 183.282 268.276C182.459 268.73 181.819 269.369 181.365 270.193C180.92 271.017 180.697 271.983 180.697 273.091H177.345C177.345 271.386 177.738 269.89 178.524 268.602C179.31 267.314 180.38 266.311 181.734 265.591C183.098 264.871 184.627 264.511 186.322 264.511C188.027 264.511 189.537 264.871 190.853 265.591C192.17 266.311 193.202 267.281 193.95 268.503C194.698 269.724 195.072 271.083 195.072 272.58C195.072 273.65 194.878 274.696 194.49 275.719C194.111 276.732 193.448 277.864 192.501 279.114C191.564 280.354 190.262 281.869 188.595 283.659L182.061 290.648V290.875H195.584V294H177.231ZM210.541 294.398C208.874 294.398 207.373 294.066 206.038 293.403C204.703 292.741 203.633 291.831 202.828 290.676C202.023 289.521 201.583 288.205 201.507 286.727H204.916C205.049 288.044 205.645 289.133 206.706 289.994C207.776 290.847 209.054 291.273 210.541 291.273C211.734 291.273 212.795 290.993 213.723 290.435C214.66 289.876 215.394 289.109 215.925 288.134C216.464 287.149 216.734 286.036 216.734 284.795C216.734 283.527 216.455 282.395 215.896 281.401C215.347 280.397 214.589 279.606 213.623 279.028C212.657 278.451 211.554 278.157 210.314 278.148C209.424 278.138 208.51 278.276 207.572 278.56C206.635 278.834 205.863 279.189 205.257 279.625L201.961 279.227L203.723 264.909H218.836V268.034H206.677L205.655 276.614H205.825C206.422 276.14 207.17 275.747 208.069 275.435C208.969 275.122 209.907 274.966 210.882 274.966C212.662 274.966 214.248 275.392 215.64 276.244C217.042 277.087 218.14 278.242 218.936 279.71C219.741 281.178 220.143 282.854 220.143 284.739C220.143 286.595 219.727 288.252 218.893 289.71C218.069 291.159 216.933 292.305 215.484 293.148C214.035 293.981 212.388 294.398 210.541 294.398ZM248.116 284.909H251.979L255.218 289.17L256.07 290.307L260.9 296.727H257.036L253.854 292.466L253.059 291.386L248.116 284.909ZM262.093 279.455C262.093 282.523 261.539 285.174 260.431 287.409C259.323 289.644 257.803 291.367 255.871 292.58C253.939 293.792 251.733 294.398 249.252 294.398C246.771 294.398 244.564 293.792 242.633 292.58C240.701 291.367 239.181 289.644 238.073 287.409C236.965 285.174 236.411 282.523 236.411 279.455C236.411 276.386 236.965 273.735 238.073 271.5C239.181 269.265 240.701 267.542 242.633 266.33C244.564 265.117 246.771 264.511 249.252 264.511C251.733 264.511 253.939 265.117 255.871 266.33C257.803 267.542 259.323 269.265 260.431 271.5C261.539 273.735 262.093 276.386 262.093 279.455ZM258.684 279.455C258.684 276.936 258.262 274.81 257.42 273.077C256.586 271.344 255.455 270.032 254.025 269.142C252.604 268.252 251.013 267.807 249.252 267.807C247.491 267.807 245.895 268.252 244.465 269.142C243.045 270.032 241.913 271.344 241.07 273.077C240.237 274.81 239.82 276.936 239.82 279.455C239.82 281.973 240.237 284.099 241.07 285.832C241.913 287.565 243.045 288.877 244.465 289.767C245.895 290.657 247.491 291.102 249.252 291.102C251.013 291.102 252.604 290.657 254.025 289.767C255.455 288.877 256.586 287.565 257.42 285.832C258.262 284.099 258.684 281.973 258.684 279.455ZM277.334 294.398C275.459 294.398 273.788 294.076 272.32 293.432C270.862 292.788 269.702 291.893 268.84 290.747C267.988 289.592 267.524 288.252 267.448 286.727H271.027C271.103 287.665 271.425 288.474 271.993 289.156C272.562 289.829 273.305 290.349 274.224 290.719C275.142 291.088 276.16 291.273 277.277 291.273C278.527 291.273 279.635 291.055 280.601 290.619C281.567 290.184 282.325 289.578 282.874 288.801C283.423 288.025 283.698 287.125 283.698 286.102C283.698 285.032 283.433 284.09 282.902 283.276C282.372 282.452 281.596 281.808 280.573 281.344C279.55 280.88 278.3 280.648 276.823 280.648H274.493V277.523H276.823C277.978 277.523 278.992 277.314 279.863 276.898C280.743 276.481 281.43 275.894 281.922 275.136C282.424 274.379 282.675 273.489 282.675 272.466C282.675 271.481 282.457 270.624 282.022 269.895C281.586 269.166 280.971 268.598 280.175 268.19C279.389 267.783 278.461 267.58 277.391 267.58C276.387 267.58 275.44 267.764 274.55 268.134C273.67 268.493 272.95 269.019 272.391 269.71C271.832 270.392 271.529 271.216 271.482 272.182H268.073C268.13 270.657 268.589 269.322 269.451 268.176C270.313 267.021 271.439 266.121 272.831 265.477C274.233 264.833 275.772 264.511 277.448 264.511C279.247 264.511 280.791 264.876 282.079 265.605C283.367 266.325 284.356 267.277 285.047 268.46C285.739 269.644 286.084 270.922 286.084 272.295C286.084 273.934 285.653 275.33 284.792 276.486C283.939 277.641 282.779 278.441 281.312 278.886V279.114C283.149 279.417 284.583 280.198 285.616 281.457C286.648 282.707 287.164 284.256 287.164 286.102C287.164 287.684 286.733 289.104 285.871 290.364C285.019 291.614 283.854 292.598 282.377 293.318C280.9 294.038 279.219 294.398 277.334 294.398Z" fill="black"/>
<ellipse cx="93.2963" cy="280.5" rx="8.50008" ry="8.5" fill="#D9D9D9"/>
<path d="M94.8025 19.7955C94.115 19.7955 93.4872 19.6278 92.919 19.2926C92.3508 18.9517 91.8963 18.4972 91.5554 17.929C91.2201 17.3608 91.0525 16.733 91.0525 16.0455C91.0525 15.3523 91.2201 14.7244 91.5554 14.1619C91.8963 13.5937 92.3508 13.142 92.919 12.8068C93.4872 12.4659 94.115 12.2955 94.8025 12.2955C95.4957 12.2955 96.1236 12.4659 96.6861 12.8068C97.2542 13.142 97.7059 13.5937 98.0412 14.1619C98.3821 14.7244 98.5525 15.3523 98.5525 16.0455C98.5525 16.733 98.3821 17.3608 98.0412 17.929C97.7059 18.4972 97.2542 18.9517 96.6861 19.2926C96.1236 19.6278 95.4957 19.7955 94.8025 19.7955ZM114.714 5.54545H117.91L123.467 19.1136H123.671L129.228 5.54545H132.424V23H129.918V10.3693H129.756L124.609 22.9744H122.529L117.381 10.3608H117.219V23H114.714V5.54545ZM141.69 23.2642C140.401 23.2642 139.29 22.9886 138.358 22.4375C137.432 21.8807 136.716 21.0994 136.21 20.0938C135.71 19.0824 135.46 17.8977 135.46 16.5398C135.46 15.1989 135.71 14.017 136.21 12.9943C136.716 11.9716 137.42 11.1733 138.324 10.5994C139.233 10.0256 140.295 9.73864 141.511 9.73864C142.25 9.73864 142.966 9.8608 143.659 10.1051C144.352 10.3494 144.974 10.733 145.526 11.2557C146.077 11.7784 146.511 12.4574 146.83 13.2926C147.148 14.1222 147.307 15.1307 147.307 16.3182V17.2216H136.901V15.3125H144.81C144.81 14.642 144.673 14.0483 144.401 13.5312C144.128 13.0085 143.744 12.5966 143.25 12.2955C142.761 11.9943 142.187 11.8438 141.528 11.8438C140.812 11.8438 140.187 12.0199 139.653 12.3722C139.125 12.7187 138.716 13.1733 138.426 13.7358C138.142 14.2926 138 14.8977 138 15.5511V17.0426C138 17.9176 138.153 18.6619 138.46 19.2756C138.773 19.8892 139.207 20.358 139.764 20.6818C140.321 21 140.972 21.1591 141.716 21.1591C142.199 21.1591 142.639 21.0909 143.037 20.9545C143.435 20.8125 143.778 20.6023 144.068 20.3239C144.358 20.0455 144.58 19.7017 144.733 19.2926L147.145 19.7273C146.952 20.4375 146.605 21.0597 146.105 21.5938C145.611 22.1222 144.989 22.5341 144.239 22.8295C143.494 23.1193 142.645 23.2642 141.69 23.2642ZM156.245 9.90909V11.9545H149.094V9.90909H156.245ZM151.012 6.77273H153.56V19.1562C153.56 19.6506 153.634 20.0227 153.782 20.2727C153.93 20.517 154.12 20.6847 154.353 20.7756C154.592 20.8608 154.85 20.9034 155.129 20.9034C155.333 20.9034 155.512 20.8892 155.665 20.8608C155.819 20.8324 155.938 20.8097 156.023 20.7926L156.484 22.8977C156.336 22.9545 156.126 23.0114 155.853 23.0682C155.58 23.1307 155.239 23.1648 154.83 23.1705C154.16 23.1818 153.535 23.0625 152.955 22.8125C152.376 22.5625 151.907 22.1761 151.549 21.6534C151.191 21.1307 151.012 20.4744 151.012 19.6847V6.77273ZM162.874 23.2898C162.044 23.2898 161.294 23.1364 160.624 22.8295C159.953 22.517 159.422 22.0653 159.03 21.4744C158.643 20.8835 158.45 20.1591 158.45 19.3011C158.45 18.5625 158.592 17.9545 158.876 17.4773C159.16 17 159.544 16.6222 160.027 16.3438C160.51 16.0653 161.05 15.8551 161.646 15.7131C162.243 15.571 162.851 15.4631 163.47 15.3892C164.254 15.2983 164.891 15.2244 165.379 15.1676C165.868 15.1051 166.223 15.0057 166.445 14.8693C166.666 14.733 166.777 14.5114 166.777 14.2045V14.1449C166.777 13.4006 166.567 12.8239 166.146 12.4148C165.732 12.0057 165.112 11.8011 164.288 11.8011C163.43 11.8011 162.754 11.9915 162.26 12.3722C161.771 12.7472 161.433 13.1648 161.246 13.625L158.851 13.0795C159.135 12.2841 159.55 11.642 160.095 11.1534C160.646 10.6591 161.28 10.3011 161.996 10.0795C162.712 9.85227 163.464 9.73864 164.254 9.73864C164.777 9.73864 165.331 9.80114 165.916 9.92614C166.507 10.0455 167.058 10.267 167.57 10.5909C168.087 10.9148 168.51 11.3778 168.839 11.9801C169.169 12.5767 169.334 13.3523 169.334 14.3068V23H166.845V21.2102H166.743C166.578 21.5398 166.331 21.8636 166.001 22.1818C165.672 22.5 165.249 22.7642 164.732 22.9744C164.214 23.1847 163.595 23.2898 162.874 23.2898ZM163.428 21.2443C164.132 21.2443 164.734 21.1051 165.234 20.8267C165.74 20.5483 166.124 20.1847 166.385 19.7358C166.652 19.2812 166.785 18.7955 166.785 18.2784V16.5909C166.695 16.6818 166.518 16.767 166.257 16.8466C166.001 16.9205 165.709 16.9858 165.379 17.0426C165.05 17.0937 164.729 17.142 164.416 17.1875C164.104 17.2273 163.842 17.2614 163.632 17.2898C163.138 17.3523 162.686 17.4574 162.277 17.6051C161.874 17.7528 161.55 17.9659 161.305 18.2443C161.067 18.517 160.947 18.8807 160.947 19.3352C160.947 19.9659 161.18 20.4432 161.646 20.767C162.112 21.0852 162.706 21.2443 163.428 21.2443ZM183.458 9.90909L178.711 23H175.984L171.228 9.90909H173.964L177.279 19.983H177.415L180.722 9.90909H183.458ZM191.05 23.2642C189.76 23.2642 188.649 22.9886 187.717 22.4375C186.791 21.8807 186.075 21.0994 185.57 20.0938C185.07 19.0824 184.82 17.8977 184.82 16.5398C184.82 15.1989 185.07 14.017 185.57 12.9943C186.075 11.9716 186.78 11.1733 187.683 10.5994C188.592 10.0256 189.655 9.73864 190.871 9.73864C191.609 9.73864 192.325 9.8608 193.018 10.1051C193.712 10.3494 194.334 10.733 194.885 11.2557C195.436 11.7784 195.871 12.4574 196.189 13.2926C196.507 14.1222 196.666 15.1307 196.666 16.3182V17.2216H186.26V15.3125H194.169C194.169 14.642 194.033 14.0483 193.76 13.5312C193.487 13.0085 193.104 12.5966 192.609 12.2955C192.121 11.9943 191.547 11.8438 190.888 11.8438C190.172 11.8438 189.547 12.0199 189.013 12.3722C188.484 12.7187 188.075 13.1733 187.785 13.7358C187.501 14.2926 187.359 14.8977 187.359 15.5511V17.0426C187.359 17.9176 187.513 18.6619 187.82 19.2756C188.132 19.8892 188.567 20.358 189.124 20.6818C189.68 21 190.331 21.1591 191.075 21.1591C191.558 21.1591 191.999 21.0909 192.396 20.9545C192.794 20.8125 193.138 20.6023 193.428 20.3239C193.717 20.0455 193.939 19.7017 194.092 19.2926L196.504 19.7273C196.311 20.4375 195.964 21.0597 195.464 21.5938C194.97 22.1222 194.348 22.5341 193.598 22.8295C192.854 23.1193 192.004 23.2642 191.05 23.2642ZM199.494 23V9.90909H201.957V11.9886H202.093C202.332 11.2841 202.752 10.7301 203.354 10.3267C203.962 9.91761 204.65 9.71307 205.417 9.71307C205.576 9.71307 205.763 9.71875 205.979 9.73011C206.201 9.74148 206.374 9.75568 206.499 9.77273V12.2102C206.397 12.1818 206.215 12.1506 205.954 12.1165C205.692 12.0767 205.431 12.0568 205.17 12.0568C204.567 12.0568 204.031 12.1847 203.559 12.4403C203.093 12.6903 202.724 13.0398 202.451 13.4886C202.178 13.9318 202.042 14.4375 202.042 15.0057V23H199.494ZM218.514 13.1051L216.205 13.5142C216.108 13.2187 215.955 12.9375 215.744 12.6705C215.54 12.4034 215.261 12.1847 214.909 12.0142C214.557 11.8437 214.116 11.7585 213.588 11.7585C212.866 11.7585 212.264 11.9205 211.781 12.2443C211.298 12.5625 211.057 12.9744 211.057 13.4801C211.057 13.9176 211.219 14.2699 211.543 14.5369C211.866 14.804 212.389 15.0227 213.111 15.1932L215.19 15.6705C216.395 15.9489 217.293 16.3778 217.884 16.9574C218.474 17.5369 218.77 18.2898 218.77 19.2159C218.77 20 218.543 20.6989 218.088 21.3125C217.639 21.9205 217.011 22.3977 216.205 22.7443C215.403 23.0909 214.474 23.2642 213.418 23.2642C211.952 23.2642 210.756 22.9517 209.83 22.3267C208.903 21.696 208.335 20.8011 208.125 19.642L210.588 19.267C210.741 19.9091 211.057 20.3949 211.534 20.7244C212.011 21.0483 212.634 21.2102 213.401 21.2102C214.236 21.2102 214.903 21.0369 215.403 20.6903C215.903 20.3381 216.153 19.9091 216.153 19.4034C216.153 18.9943 216 18.6506 215.693 18.3722C215.392 18.0937 214.929 17.8835 214.304 17.7415L212.088 17.2557C210.866 16.9773 209.963 16.5341 209.378 15.9261C208.798 15.3182 208.509 14.5483 208.509 13.6165C208.509 12.8437 208.724 12.1676 209.156 11.5881C209.588 11.0085 210.185 10.5568 210.946 10.233C211.707 9.90341 212.58 9.73864 213.562 9.73864C214.977 9.73864 216.091 10.0455 216.903 10.6591C217.716 11.267 218.253 12.0824 218.514 13.1051ZM227.214 23.2642C225.924 23.2642 224.813 22.9886 223.881 22.4375C222.955 21.8807 222.239 21.0994 221.734 20.0938C221.234 19.0824 220.984 17.8977 220.984 16.5398C220.984 15.1989 221.234 14.017 221.734 12.9943C222.239 11.9716 222.944 11.1733 223.847 10.5994C224.756 10.0256 225.819 9.73864 227.035 9.73864C227.773 9.73864 228.489 9.8608 229.183 10.1051C229.876 10.3494 230.498 10.733 231.049 11.2557C231.6 11.7784 232.035 12.4574 232.353 13.2926C232.671 14.1222 232.83 15.1307 232.83 16.3182V17.2216H222.424V15.3125H230.333C230.333 14.642 230.197 14.0483 229.924 13.5312C229.651 13.0085 229.268 12.5966 228.773 12.2955C228.285 11.9943 227.711 11.8438 227.052 11.8438C226.336 11.8438 225.711 12.0199 225.177 12.3722C224.648 12.7187 224.239 13.1733 223.95 13.7358C223.665 14.2926 223.523 14.8977 223.523 15.5511V17.0426C223.523 17.9176 223.677 18.6619 223.984 19.2756C224.296 19.8892 224.731 20.358 225.288 20.6818C225.844 21 226.495 21.1591 227.239 21.1591C227.722 21.1591 228.163 21.0909 228.56 20.9545C228.958 20.8125 229.302 20.6023 229.592 20.3239C229.881 20.0455 230.103 19.7017 230.256 19.2926L232.668 19.7273C232.475 20.4375 232.129 21.0597 231.629 21.5938C231.134 22.1222 230.512 22.5341 229.762 22.8295C229.018 23.1193 228.168 23.2642 227.214 23.2642ZM241.353 7.8125V5.54545H254.861V7.8125H249.415V23H246.79V7.8125H241.353ZM261.386 23.2642C260.096 23.2642 258.985 22.9886 258.053 22.4375C257.127 21.8807 256.411 21.0994 255.906 20.0938C255.406 19.0824 255.156 17.8977 255.156 16.5398C255.156 15.1989 255.406 14.017 255.906 12.9943C256.411 11.9716 257.116 11.1733 258.019 10.5994C258.928 10.0256 259.991 9.73864 261.207 9.73864C261.945 9.73864 262.661 9.8608 263.354 10.1051C264.048 10.3494 264.67 10.733 265.221 11.2557C265.772 11.7784 266.207 12.4574 266.525 13.2926C266.843 14.1222 267.002 15.1307 267.002 16.3182V17.2216H256.596V15.3125H264.505C264.505 14.642 264.369 14.0483 264.096 13.5312C263.823 13.0085 263.44 12.5966 262.945 12.2955C262.457 11.9943 261.883 11.8438 261.224 11.8438C260.508 11.8438 259.883 12.0199 259.349 12.3722C258.82 12.7187 258.411 13.1733 258.121 13.7358C257.837 14.2926 257.695 14.8977 257.695 15.5511V17.0426C257.695 17.9176 257.849 18.6619 258.156 19.2756C258.468 19.8892 258.903 20.358 259.459 20.6818C260.016 21 260.667 21.1591 261.411 21.1591C261.894 21.1591 262.334 21.0909 262.732 20.9545C263.13 20.8125 263.474 20.6023 263.763 20.3239C264.053 20.0455 264.275 19.7017 264.428 19.2926L266.84 19.7273C266.647 20.4375 266.3 21.0597 265.8 21.5938C265.306 22.1222 264.684 22.5341 263.934 22.8295C263.19 23.1193 262.34 23.2642 261.386 23.2642ZM279.639 13.1051L277.33 13.5142C277.233 13.2187 277.08 12.9375 276.869 12.6705C276.665 12.4034 276.386 12.1847 276.034 12.0142C275.682 11.8437 275.241 11.7585 274.713 11.7585C273.991 11.7585 273.389 11.9205 272.906 12.2443C272.423 12.5625 272.182 12.9744 272.182 13.4801C272.182 13.9176 272.344 14.2699 272.668 14.5369C272.991 14.804 273.514 15.0227 274.236 15.1932L276.315 15.6705C277.52 15.9489 278.418 16.3778 279.009 16.9574C279.599 17.5369 279.895 18.2898 279.895 19.2159C279.895 20 279.668 20.6989 279.213 21.3125C278.764 21.9205 278.136 22.3977 277.33 22.7443C276.528 23.0909 275.599 23.2642 274.543 23.2642C273.077 23.2642 271.881 22.9517 270.955 22.3267C270.028 21.696 269.46 20.8011 269.25 19.642L271.713 19.267C271.866 19.9091 272.182 20.3949 272.659 20.7244C273.136 21.0483 273.759 21.2102 274.526 21.2102C275.361 21.2102 276.028 21.0369 276.528 20.6903C277.028 20.3381 277.278 19.9091 277.278 19.4034C277.278 18.9943 277.125 18.6506 276.818 18.3722C276.517 18.0937 276.054 17.8835 275.429 17.7415L273.213 17.2557C271.991 16.9773 271.088 16.5341 270.503 15.9261C269.923 15.3182 269.634 14.5483 269.634 13.6165C269.634 12.8437 269.849 12.1676 270.281 11.5881C270.713 11.0085 271.31 10.5568 272.071 10.233C272.832 9.90341 273.705 9.73864 274.687 9.73864C276.102 9.73864 277.216 10.0455 278.028 10.6591C278.841 11.267 279.378 12.0824 279.639 13.1051ZM288.808 9.90909V11.9545H281.657V9.90909H288.808ZM283.575 6.77273H286.123V19.1562C286.123 19.6506 286.197 20.0227 286.344 20.2727C286.492 20.517 286.683 20.6847 286.915 20.7756C287.154 20.8608 287.413 20.9034 287.691 20.9034C287.896 20.9034 288.075 20.8892 288.228 20.8608C288.381 20.8324 288.501 20.8097 288.586 20.7926L289.046 22.8977C288.898 22.9545 288.688 23.0114 288.415 23.0682C288.143 23.1307 287.802 23.1648 287.393 23.1705C286.722 23.1818 286.097 23.0625 285.518 22.8125C284.938 22.5625 284.469 22.1761 284.111 21.6534C283.754 21.1307 283.575 20.4744 283.575 19.6847V6.77273ZM294.175 15.2273V23H291.626V9.90909H294.072V12.0398H294.234C294.535 11.3466 295.007 10.7898 295.649 10.3693C296.297 9.94886 297.112 9.73864 298.095 9.73864C298.987 9.73864 299.768 9.92614 300.439 10.3011C301.109 10.6705 301.629 11.2216 301.999 11.9545C302.368 12.6875 302.553 13.5937 302.553 14.6733V23H300.004V14.9801C300.004 14.0312 299.757 13.2898 299.263 12.7557C298.768 12.2159 298.089 11.946 297.226 11.946C296.635 11.946 296.109 12.0739 295.649 12.3295C295.195 12.5852 294.834 12.9602 294.567 13.4545C294.305 13.9432 294.175 14.5341 294.175 15.2273ZM311.612 23.2642C310.322 23.2642 309.212 22.9886 308.28 22.4375C307.354 21.8807 306.638 21.0994 306.132 20.0938C305.632 19.0824 305.382 17.8977 305.382 16.5398C305.382 15.1989 305.632 14.017 306.132 12.9943C306.638 11.9716 307.342 11.1733 308.246 10.5994C309.155 10.0256 310.217 9.73864 311.433 9.73864C312.172 9.73864 312.888 9.8608 313.581 10.1051C314.274 10.3494 314.896 10.733 315.447 11.2557C315.999 11.7784 316.433 12.4574 316.751 13.2926C317.07 14.1222 317.229 15.1307 317.229 16.3182V17.2216H306.822V15.3125H314.732C314.732 14.642 314.595 14.0483 314.322 13.5312C314.05 13.0085 313.666 12.5966 313.172 12.2955C312.683 11.9943 312.109 11.8438 311.45 11.8438C310.734 11.8438 310.109 12.0199 309.575 12.3722C309.047 12.7187 308.638 13.1733 308.348 13.7358C308.064 14.2926 307.922 14.8977 307.922 15.5511V17.0426C307.922 17.9176 308.075 18.6619 308.382 19.2756C308.695 19.8892 309.129 20.358 309.686 20.6818C310.243 21 310.893 21.1591 311.638 21.1591C312.121 21.1591 312.561 21.0909 312.959 20.9545C313.357 20.8125 313.7 20.6023 313.99 20.3239C314.28 20.0455 314.501 19.7017 314.655 19.2926L317.067 19.7273C316.874 20.4375 316.527 21.0597 316.027 21.5938C315.533 22.1222 314.91 22.5341 314.16 22.8295C313.416 23.1193 312.567 23.2642 311.612 23.2642ZM326.167 9.90909V11.9545H319.016V9.90909H326.167ZM320.934 6.77273H323.482V19.1562C323.482 19.6506 323.556 20.0227 323.704 20.2727C323.852 20.517 324.042 20.6847 324.275 20.7756C324.513 20.8608 324.772 20.9034 325.05 20.9034C325.255 20.9034 325.434 20.8892 325.587 20.8608C325.741 20.8324 325.86 20.8097 325.945 20.7926L326.406 22.8977C326.258 22.9545 326.048 23.0114 325.775 23.0682C325.502 23.1307 325.161 23.1648 324.752 23.1705C324.082 23.1818 323.457 23.0625 322.877 22.8125C322.298 22.5625 321.829 22.1761 321.471 21.6534C321.113 21.1307 320.934 20.4744 320.934 19.6847V6.77273Z" fill="#4CC9F0"/>
<line x1="94.2964" y1="7" x2="94.2964" y2="280" stroke="#0FA9D9"/>
</svg>
