<svg width="474" height="572" viewBox="0 0 474 572" fill="none" xmlns="http://www.w3.org/2000/svg">
<path d="M368.003 280L314.003 324.167V235.833L368.003 280Z" fill="#4CC9F0"/>
<path fill-rule="evenodd" clip-rule="evenodd" d="M0.204452 324L54.0004 280L0.204452 236H314.003V324H0.204452Z" fill="#4CC9F0"/>
<path d="M128.217 294V291.443L137.819 280.932C138.946 279.701 139.874 278.631 140.603 277.722C141.333 276.803 141.872 275.941 142.223 275.136C142.583 274.322 142.762 273.47 142.762 272.58C142.762 271.557 142.516 270.671 142.024 269.923C141.541 269.175 140.878 268.598 140.035 268.19C139.192 267.783 138.245 267.58 137.194 267.58C136.077 267.58 135.101 267.812 134.268 268.276C133.444 268.73 132.805 269.369 132.351 270.193C131.905 271.017 131.683 271.983 131.683 273.091H128.331C128.331 271.386 128.724 269.89 129.51 268.602C130.296 267.314 131.366 266.311 132.72 265.591C134.083 264.871 135.613 264.511 137.308 264.511C139.012 264.511 140.523 264.871 141.839 265.591C143.155 266.311 144.188 267.281 144.936 268.503C145.684 269.724 146.058 271.083 146.058 272.58C146.058 273.65 145.864 274.696 145.476 275.719C145.097 276.732 144.434 277.864 143.487 279.114C142.549 280.354 141.247 281.869 139.581 283.659L133.047 290.648V290.875H146.569V294H128.217ZM161.924 294.398C159.784 294.398 157.961 293.815 156.456 292.651C154.95 291.476 153.799 289.777 153.004 287.551C152.208 285.316 151.811 282.617 151.811 279.455C151.811 276.311 152.208 273.626 153.004 271.401C153.809 269.166 154.964 267.461 156.47 266.287C157.985 265.103 159.803 264.511 161.924 264.511C164.046 264.511 165.859 265.103 167.365 266.287C168.88 267.461 170.035 269.166 170.831 271.401C171.636 273.626 172.038 276.311 172.038 279.455C172.038 282.617 171.64 285.316 170.845 287.551C170.049 289.777 168.899 291.476 167.393 292.651C165.887 293.815 164.065 294.398 161.924 294.398ZM161.924 291.273C164.046 291.273 165.693 290.25 166.868 288.205C168.042 286.159 168.629 283.242 168.629 279.455C168.629 276.936 168.359 274.791 167.819 273.02C167.289 271.249 166.522 269.9 165.518 268.972C164.524 268.044 163.326 267.58 161.924 267.58C159.822 267.58 158.179 268.616 156.995 270.69C155.812 272.755 155.22 275.676 155.22 279.455C155.22 281.973 155.485 284.114 156.015 285.875C156.546 287.636 157.308 288.976 158.302 289.895C159.306 290.813 160.513 291.273 161.924 291.273ZM177.436 294V291.443L187.038 280.932C188.165 279.701 189.093 278.631 189.822 277.722C190.551 276.803 191.091 275.941 191.441 275.136C191.801 274.322 191.981 273.47 191.981 272.58C191.981 271.557 191.735 270.671 191.243 269.923C190.76 269.175 190.097 268.598 189.254 268.19C188.411 267.783 187.464 267.58 186.413 267.58C185.296 267.58 184.32 267.812 183.487 268.276C182.663 268.73 182.024 269.369 181.569 270.193C181.124 271.017 180.902 271.983 180.902 273.091H177.549C177.549 271.386 177.942 269.89 178.728 268.602C179.514 267.314 180.584 266.311 181.939 265.591C183.302 264.871 184.832 264.511 186.527 264.511C188.231 264.511 189.742 264.871 191.058 265.591C192.374 266.311 193.406 267.281 194.155 268.503C194.903 269.724 195.277 271.083 195.277 272.58C195.277 273.65 195.083 274.696 194.694 275.719C194.315 276.732 193.653 277.864 192.706 279.114C191.768 280.354 190.466 281.869 188.799 283.659L182.265 290.648V290.875H195.788V294H177.436ZM200.348 288.034V285.136L213.132 264.909H215.234V269.398H213.814L204.155 284.682V284.909H221.37V288.034H200.348ZM214.041 294V287.153V285.804V264.909H217.393V294H214.041ZM249.023 284.909H252.887L256.125 289.17L256.978 290.307L261.807 296.727H257.944L254.762 292.466L253.966 291.386L249.023 284.909ZM263 279.455C263 282.523 262.446 285.174 261.338 287.409C260.231 289.644 258.711 291.367 256.779 292.58C254.847 293.792 252.641 294.398 250.159 294.398C247.678 294.398 245.472 293.792 243.54 292.58C241.608 291.367 240.088 289.644 238.981 287.409C237.873 285.174 237.319 282.523 237.319 279.455C237.319 276.386 237.873 273.735 238.981 271.5C240.088 269.265 241.608 267.542 243.54 266.33C245.472 265.117 247.678 264.511 250.159 264.511C252.641 264.511 254.847 265.117 256.779 266.33C258.711 267.542 260.231 269.265 261.338 271.5C262.446 273.735 263 276.386 263 279.455ZM259.591 279.455C259.591 276.936 259.17 274.81 258.327 273.077C257.494 271.344 256.362 270.032 254.932 269.142C253.512 268.252 251.921 267.807 250.159 267.807C248.398 267.807 246.802 268.252 245.373 269.142C243.952 270.032 242.82 271.344 241.978 273.077C241.144 274.81 240.728 276.936 240.728 279.455C240.728 281.973 241.144 284.099 241.978 285.832C242.82 287.565 243.952 288.877 245.373 289.767C246.802 290.657 248.398 291.102 250.159 291.102C251.921 291.102 253.512 290.657 254.932 289.767C256.362 288.877 257.494 287.565 258.327 285.832C259.17 284.099 259.591 281.973 259.591 279.455ZM278.64 264.909V294H275.117V268.602H274.946L267.844 273.318V269.739L275.117 264.909H278.64Z" fill="black"/>
<ellipse cx="93.5008" cy="280.5" rx="8.50008" ry="8.5" fill="#D9D9D9"/>
<path d="M95.007 19.7955C94.3195 19.7955 93.6917 19.6278 93.1235 19.2926C92.5553 18.9517 92.1008 18.4972 91.7599 17.929C91.4247 17.3608 91.257 16.733 91.257 16.0455C91.257 15.3523 91.4247 14.7244 91.7599 14.1619C92.1008 13.5937 92.5553 13.142 93.1235 12.8068C93.6917 12.4659 94.3195 12.2955 95.007 12.2955C95.7002 12.2955 96.3281 12.4659 96.8906 12.8068C97.4588 13.142 97.9105 13.5937 98.2457 14.1619C98.5866 14.7244 98.757 15.3523 98.757 16.0455C98.757 16.733 98.5866 17.3608 98.2457 17.929C97.9105 18.4972 97.4588 18.9517 96.8906 19.2926C96.3281 19.6278 95.7002 19.7955 95.007 19.7955ZM118.336 23L113.495 5.54545H116.265L119.665 19.0625H119.827L123.364 5.54545H126.109L129.646 19.071H129.807L133.2 5.54545H135.978L131.128 23H128.478L124.805 9.92614H124.668L120.995 23H118.336ZM140.723 15.2273V23H138.175V5.54545H140.689V12.0398H140.851C141.158 11.3352 141.626 10.7756 142.257 10.3608C142.888 9.94602 143.712 9.73864 144.729 9.73864C145.626 9.73864 146.41 9.9233 147.081 10.2926C147.757 10.6619 148.28 11.2131 148.649 11.946C149.024 12.6733 149.212 13.5824 149.212 14.6733V23H146.663V14.9801C146.663 14.0199 146.416 13.2756 145.922 12.7472C145.428 12.2131 144.74 11.946 143.859 11.946C143.257 11.946 142.717 12.0739 142.24 12.3295C141.768 12.5852 141.396 12.9602 141.124 13.4545C140.856 13.9432 140.723 14.5341 140.723 15.2273ZM152.612 23V9.90909H155.16V23H152.612ZM153.899 7.8892C153.456 7.8892 153.075 7.74148 152.757 7.44602C152.445 7.14489 152.288 6.78693 152.288 6.37216C152.288 5.9517 152.445 5.59375 152.757 5.29829C153.075 4.99716 153.456 4.84659 153.899 4.84659C154.342 4.84659 154.72 4.99716 155.033 5.29829C155.351 5.59375 155.51 5.9517 155.51 6.37216C155.51 6.78693 155.351 7.14489 155.033 7.44602C154.72 7.74148 154.342 7.8892 153.899 7.8892ZM164.7 9.90909V11.9545H157.549V9.90909H164.7ZM159.467 6.77273H162.015V19.1562C162.015 19.6506 162.089 20.0227 162.236 20.2727C162.384 20.517 162.575 20.6847 162.807 20.7756C163.046 20.8608 163.305 20.9034 163.583 20.9034C163.788 20.9034 163.967 20.8892 164.12 20.8608C164.273 20.8324 164.393 20.8097 164.478 20.7926L164.938 22.8977C164.79 22.9545 164.58 23.0114 164.307 23.0682C164.035 23.1307 163.694 23.1648 163.285 23.1705C162.614 23.1818 161.989 23.0625 161.41 22.8125C160.83 22.5625 160.361 22.1761 160.003 21.6534C159.646 21.1307 159.467 20.4744 159.467 19.6847V6.77273ZM173.02 23.2642C171.73 23.2642 170.619 22.9886 169.687 22.4375C168.761 21.8807 168.045 21.0994 167.54 20.0938C167.04 19.0824 166.79 17.8977 166.79 16.5398C166.79 15.1989 167.04 14.017 167.54 12.9943C168.045 11.9716 168.75 11.1733 169.653 10.5994C170.562 10.0256 171.625 9.73864 172.841 9.73864C173.579 9.73864 174.295 9.8608 174.989 10.1051C175.682 10.3494 176.304 10.733 176.855 11.2557C177.406 11.7784 177.841 12.4574 178.159 13.2926C178.477 14.1222 178.636 15.1307 178.636 16.3182V17.2216H168.23V15.3125H176.139C176.139 14.642 176.003 14.0483 175.73 13.5312C175.457 13.0085 175.074 12.5966 174.579 12.2955C174.091 11.9943 173.517 11.8438 172.858 11.8438C172.142 11.8438 171.517 12.0199 170.983 12.3722C170.454 12.7187 170.045 13.1733 169.756 13.7358C169.472 14.2926 169.329 14.8977 169.329 15.5511V17.0426C169.329 17.9176 169.483 18.6619 169.79 19.2756C170.102 19.8892 170.537 20.358 171.094 20.6818C171.651 21 172.301 21.1591 173.045 21.1591C173.528 21.1591 173.969 21.0909 174.366 20.9545C174.764 20.8125 175.108 20.6023 175.398 20.3239C175.687 20.0455 175.909 19.7017 176.062 19.2926L178.474 19.7273C178.281 20.4375 177.935 21.0597 177.435 21.5938C176.94 22.1222 176.318 22.5341 175.568 22.8295C174.824 23.1193 173.974 23.2642 173.02 23.2642ZM181.464 27.9091V9.90909H183.952V12.0312H184.165C184.313 11.7585 184.526 11.4432 184.805 11.0852C185.083 10.7273 185.469 10.4148 185.964 10.1477C186.458 9.875 187.111 9.73864 187.924 9.73864C188.981 9.73864 189.924 10.0057 190.753 10.5398C191.583 11.0739 192.234 11.8437 192.705 12.8494C193.182 13.8551 193.421 15.0653 193.421 16.4801C193.421 17.8949 193.185 19.108 192.714 20.1193C192.242 21.125 191.594 21.9006 190.771 22.446C189.947 22.9858 189.006 23.2557 187.95 23.2557C187.154 23.2557 186.503 23.1222 185.998 22.8551C185.498 22.5881 185.106 22.2756 184.822 21.9176C184.538 21.5597 184.319 21.2415 184.165 20.9631H184.012V27.9091H181.464ZM183.961 16.4545C183.961 17.375 184.094 18.1818 184.361 18.875C184.628 19.5682 185.015 20.1108 185.521 20.5028C186.026 20.8892 186.646 21.0824 187.378 21.0824C188.14 21.0824 188.776 20.8807 189.288 20.4773C189.799 20.0682 190.185 19.5142 190.447 18.8153C190.714 18.1165 190.847 17.3295 190.847 16.4545C190.847 15.5909 190.717 14.8153 190.455 14.1278C190.2 13.4403 189.813 12.8977 189.296 12.5C188.785 12.1023 188.146 11.9034 187.378 11.9034C186.64 11.9034 186.015 12.0937 185.503 12.4744C184.998 12.8551 184.614 13.3864 184.353 14.0682C184.092 14.75 183.961 15.5455 183.961 16.4545ZM200.086 23.2898C199.256 23.2898 198.506 23.1364 197.836 22.8295C197.165 22.517 196.634 22.0653 196.242 21.4744C195.856 20.8835 195.663 20.1591 195.663 19.3011C195.663 18.5625 195.805 17.9545 196.089 17.4773C196.373 17 196.756 16.6222 197.239 16.3438C197.722 16.0653 198.262 15.8551 198.859 15.7131C199.455 15.571 200.063 15.4631 200.682 15.3892C201.467 15.2983 202.103 15.2244 202.592 15.1676C203.08 15.1051 203.435 15.0057 203.657 14.8693C203.878 14.733 203.989 14.5114 203.989 14.2045V14.1449C203.989 13.4006 203.779 12.8239 203.359 12.4148C202.944 12.0057 202.325 11.8011 201.501 11.8011C200.643 11.8011 199.967 11.9915 199.472 12.3722C198.984 12.7472 198.646 13.1648 198.458 13.625L196.063 13.0795C196.347 12.2841 196.762 11.642 197.307 11.1534C197.859 10.6591 198.492 10.3011 199.208 10.0795C199.924 9.85227 200.677 9.73864 201.467 9.73864C201.989 9.73864 202.543 9.80114 203.128 9.92614C203.719 10.0455 204.271 10.267 204.782 10.5909C205.299 10.9148 205.722 11.3778 206.052 11.9801C206.381 12.5767 206.546 13.3523 206.546 14.3068V23H204.057V21.2102H203.955C203.79 21.5398 203.543 21.8636 203.214 22.1818C202.884 22.5 202.461 22.7642 201.944 22.9744C201.427 23.1847 200.807 23.2898 200.086 23.2898ZM200.64 21.2443C201.344 21.2443 201.947 21.1051 202.447 20.8267C202.952 20.5483 203.336 20.1847 203.597 19.7358C203.864 19.2812 203.998 18.7955 203.998 18.2784V16.5909C203.907 16.6818 203.731 16.767 203.469 16.8466C203.214 16.9205 202.921 16.9858 202.592 17.0426C202.262 17.0937 201.941 17.142 201.628 17.1875C201.316 17.2273 201.055 17.2614 200.844 17.2898C200.35 17.3523 199.898 17.4574 199.489 17.6051C199.086 17.7528 198.762 17.9659 198.518 18.2443C198.279 18.517 198.16 18.8807 198.16 19.3352C198.16 19.9659 198.393 20.4432 198.859 20.767C199.325 21.0852 199.918 21.2443 200.64 21.2443ZM209.94 27.9091V9.90909H212.429V12.0312H212.642C212.79 11.7585 213.003 11.4432 213.281 11.0852C213.56 10.7273 213.946 10.4148 214.44 10.1477C214.935 9.875 215.588 9.73864 216.401 9.73864C217.457 9.73864 218.401 10.0057 219.23 10.5398C220.06 11.0739 220.71 11.8437 221.182 12.8494C221.659 13.8551 221.898 15.0653 221.898 16.4801C221.898 17.8949 221.662 19.108 221.19 20.1193C220.719 21.125 220.071 21.9006 219.247 22.446C218.423 22.9858 217.483 23.2557 216.426 23.2557C215.631 23.2557 214.98 23.1222 214.474 22.8551C213.974 22.5881 213.582 22.2756 213.298 21.9176C213.014 21.5597 212.795 21.2415 212.642 20.9631H212.489V27.9091H209.94ZM212.437 16.4545C212.437 17.375 212.571 18.1818 212.838 18.875C213.105 19.5682 213.491 20.1108 213.997 20.5028C214.503 20.8892 215.122 21.0824 215.855 21.0824C216.616 21.0824 217.253 20.8807 217.764 20.4773C218.276 20.0682 218.662 19.5142 218.923 18.8153C219.19 18.1165 219.324 17.3295 219.324 16.4545C219.324 15.5909 219.193 14.8153 218.932 14.1278C218.676 13.4403 218.29 12.8977 217.773 12.5C217.261 12.1023 216.622 11.9034 215.855 11.9034C215.116 11.9034 214.491 12.0937 213.98 12.4744C213.474 12.8551 213.091 13.3864 212.829 14.0682C212.568 14.75 212.437 15.5455 212.437 16.4545ZM230.395 23.2642C229.105 23.2642 227.994 22.9886 227.062 22.4375C226.136 21.8807 225.42 21.0994 224.915 20.0938C224.415 19.0824 224.165 17.8977 224.165 16.5398C224.165 15.1989 224.415 14.017 224.915 12.9943C225.42 11.9716 226.125 11.1733 227.028 10.5994C227.937 10.0256 229 9.73864 230.216 9.73864C230.954 9.73864 231.67 9.8608 232.364 10.1051C233.057 10.3494 233.679 10.733 234.23 11.2557C234.781 11.7784 235.216 12.4574 235.534 13.2926C235.852 14.1222 236.011 15.1307 236.011 16.3182V17.2216H225.605V15.3125H233.514C233.514 14.642 233.378 14.0483 233.105 13.5312C232.832 13.0085 232.449 12.5966 231.954 12.2955C231.466 11.9943 230.892 11.8438 230.233 11.8438C229.517 11.8438 228.892 12.0199 228.358 12.3722C227.829 12.7187 227.42 13.1733 227.131 13.7358C226.847 14.2926 226.704 14.8977 226.704 15.5511V17.0426C226.704 17.9176 226.858 18.6619 227.165 19.2756C227.477 19.8892 227.912 20.358 228.469 20.6818C229.026 21 229.676 21.1591 230.42 21.1591C230.903 21.1591 231.344 21.0909 231.741 20.9545C232.139 20.8125 232.483 20.6023 232.773 20.3239C233.062 20.0455 233.284 19.7017 233.437 19.2926L235.849 19.7273C235.656 20.4375 235.31 21.0597 234.81 21.5938C234.315 22.1222 233.693 22.5341 232.943 22.8295C232.199 23.1193 231.349 23.2642 230.395 23.2642ZM238.839 23V9.90909H241.302V11.9886H241.438C241.677 11.2841 242.097 10.7301 242.7 10.3267C243.307 9.91761 243.995 9.71307 244.762 9.71307C244.921 9.71307 245.109 9.71875 245.325 9.73011C245.546 9.74148 245.719 9.75568 245.844 9.77273V12.2102C245.742 12.1818 245.56 12.1506 245.299 12.1165C245.038 12.0767 244.776 12.0568 244.515 12.0568C243.913 12.0568 243.376 12.1847 242.904 12.4403C242.438 12.6903 242.069 13.0398 241.796 13.4886C241.523 13.9318 241.387 14.4375 241.387 15.0057V23H238.839ZM265.6 9.90909L260.853 23H258.126L253.37 9.90909H256.106L259.421 19.983H259.557L262.864 9.90909H265.6ZM267.961 23V21.0909L273.867 14.9716C274.498 14.3068 275.018 13.7244 275.427 13.2244C275.842 12.7187 276.151 12.2386 276.356 11.7841C276.56 11.3295 276.663 10.8466 276.663 10.3352C276.663 9.75568 276.526 9.25568 276.253 8.83523C275.981 8.40909 275.609 8.08239 275.137 7.85511C274.665 7.62216 274.134 7.50568 273.543 7.50568C272.918 7.50568 272.373 7.63352 271.907 7.8892C271.441 8.14489 271.083 8.50568 270.833 8.97159C270.583 9.4375 270.458 9.98295 270.458 10.608H267.944C267.944 9.54545 268.188 8.61648 268.677 7.82102C269.165 7.02557 269.836 6.40909 270.688 5.97159C271.54 5.52841 272.509 5.30682 273.594 5.30682C274.691 5.30682 275.657 5.52557 276.492 5.96307C277.333 6.39489 277.989 6.98579 278.461 7.73579C278.932 8.48011 279.168 9.32102 279.168 10.2585C279.168 10.9062 279.046 11.5398 278.802 12.1591C278.563 12.7784 278.146 13.4687 277.549 14.2301C276.952 14.9858 276.123 15.9034 275.06 16.983L271.592 20.6136V20.7415H279.45V23H267.961ZM95.007 48.7955C94.3195 48.7955 93.6917 48.6278 93.1235 48.2926C92.5553 47.9517 92.1008 47.4972 91.7599 46.929C91.4247 46.3608 91.257 45.733 91.257 45.0455C91.257 44.3523 91.4247 43.7244 91.7599 43.1619C92.1008 42.5937 92.5553 42.142 93.1235 41.8068C93.6917 41.4659 94.3195 41.2955 95.007 41.2955C95.7002 41.2955 96.3281 41.4659 96.8906 41.8068C97.4588 42.142 97.9105 42.5937 98.2457 43.1619C98.5866 43.7244 98.757 44.3523 98.757 45.0455C98.757 45.733 98.5866 46.3608 98.2457 46.929C97.9105 47.4972 97.4588 47.9517 96.8906 48.2926C96.3281 48.6278 95.7002 48.7955 95.007 48.7955ZM129.415 40.2216H126.756C126.654 39.6534 126.464 39.1534 126.185 38.7216C125.907 38.2898 125.566 37.9233 125.163 37.6222C124.759 37.321 124.307 37.0937 123.807 36.9403C123.313 36.7869 122.788 36.7102 122.231 36.7102C121.225 36.7102 120.325 36.9631 119.529 37.4688C118.739 37.9744 118.114 38.7159 117.654 39.6932C117.2 40.6705 116.972 41.8636 116.972 43.2727C116.972 44.6932 117.2 45.892 117.654 46.8693C118.114 47.8466 118.742 48.5852 119.538 49.0852C120.333 49.5852 121.228 49.8352 122.222 49.8352C122.773 49.8352 123.296 49.7614 123.79 49.6136C124.29 49.4602 124.742 49.2358 125.146 48.9403C125.549 48.6449 125.89 48.2841 126.168 47.858C126.452 47.4261 126.648 46.9318 126.756 46.375L129.415 46.3835C129.273 47.2415 128.998 48.0312 128.589 48.7528C128.185 49.4688 127.665 50.0881 127.029 50.6108C126.398 51.1278 125.677 51.5284 124.864 51.8125C124.052 52.0966 123.165 52.2386 122.205 52.2386C120.694 52.2386 119.347 51.8807 118.165 51.1648C116.984 50.4432 116.052 49.4119 115.37 48.071C114.694 46.7301 114.356 45.1307 114.356 43.2727C114.356 41.4091 114.697 39.8097 115.378 38.4744C116.06 37.1335 116.992 36.1051 118.174 35.3892C119.356 34.6676 120.7 34.3068 122.205 34.3068C123.131 34.3068 123.995 34.4403 124.796 34.7074C125.603 34.9687 126.327 35.3551 126.969 35.8665C127.611 36.3722 128.143 36.9915 128.563 37.7244C128.984 38.4517 129.268 39.2841 129.415 40.2216ZM137.876 52.2642C136.649 52.2642 135.578 51.983 134.663 51.4205C133.749 50.858 133.038 50.071 132.533 49.0597C132.027 48.0483 131.774 46.8665 131.774 45.5142C131.774 44.1562 132.027 42.9687 132.533 41.9517C133.038 40.9347 133.749 40.1449 134.663 39.5824C135.578 39.0199 136.649 38.7386 137.876 38.7386C139.104 38.7386 140.175 39.0199 141.089 39.5824C142.004 40.1449 142.714 40.9347 143.22 41.9517C143.726 42.9687 143.979 44.1562 143.979 45.5142C143.979 46.8665 143.726 48.0483 143.22 49.0597C142.714 50.071 142.004 50.858 141.089 51.4205C140.175 51.983 139.104 52.2642 137.876 52.2642ZM137.885 50.125C138.68 50.125 139.339 49.9148 139.862 49.4943C140.385 49.0739 140.771 48.5142 141.021 47.8153C141.277 47.1165 141.405 46.3466 141.405 45.5057C141.405 44.6705 141.277 43.9034 141.021 43.2045C140.771 42.5 140.385 41.9347 139.862 41.5085C139.339 41.0824 138.68 40.8693 137.885 40.8693C137.084 40.8693 136.419 41.0824 135.891 41.5085C135.368 41.9347 134.979 42.5 134.723 43.2045C134.473 43.9034 134.348 44.6705 134.348 45.5057C134.348 46.3466 134.473 47.1165 134.723 47.8153C134.979 48.5142 135.368 49.0739 135.891 49.4943C136.419 49.9148 137.084 50.125 137.885 50.125ZM149.371 44.2273V52H146.823V38.9091H149.269V41.0398H149.431C149.732 40.3466 150.204 39.7898 150.846 39.3693C151.494 38.9489 152.309 38.7386 153.292 38.7386C154.184 38.7386 154.965 38.9261 155.636 39.3011C156.306 39.6705 156.826 40.2216 157.195 40.9545C157.565 41.6875 157.749 42.5937 157.749 43.6733V52H155.201V43.9801C155.201 43.0312 154.954 42.2898 154.459 41.7557C153.965 41.2159 153.286 40.946 152.423 40.946C151.832 40.946 151.306 41.0739 150.846 41.3295C150.391 41.5852 150.03 41.9602 149.763 42.4545C149.502 42.9432 149.371 43.5341 149.371 44.2273ZM166.681 52.2642C165.414 52.2642 164.323 51.9773 163.408 51.4034C162.499 50.8239 161.8 50.0256 161.312 49.0085C160.823 47.9915 160.579 46.8267 160.579 45.5142C160.579 44.1847 160.829 43.0114 161.329 41.9943C161.829 40.9716 162.533 40.1733 163.442 39.5994C164.352 39.0256 165.423 38.7386 166.655 38.7386C167.65 38.7386 168.536 38.9233 169.315 39.2926C170.093 39.6562 170.721 40.1676 171.198 40.8267C171.681 41.4858 171.968 42.2557 172.059 43.1364H169.579C169.442 42.5227 169.13 41.9943 168.641 41.5511C168.158 41.108 167.511 40.8864 166.698 40.8864C165.988 40.8864 165.366 41.0739 164.832 41.4489C164.303 41.8182 163.891 42.3466 163.596 43.0341C163.3 43.7159 163.153 44.5227 163.153 45.4545C163.153 46.4091 163.298 47.233 163.587 47.9261C163.877 48.6193 164.286 49.1562 164.815 49.5369C165.349 49.9176 165.977 50.108 166.698 50.108C167.181 50.108 167.619 50.0199 168.011 49.8438C168.408 49.6619 168.741 49.4034 169.008 49.0682C169.28 48.733 169.471 48.3295 169.579 47.858H172.059C171.968 48.7045 171.692 49.4602 171.232 50.125C170.772 50.7898 170.155 51.3125 169.383 51.6932C168.616 52.0739 167.715 52.2642 166.681 52.2642ZM180.426 52.2642C179.136 52.2642 178.026 51.9886 177.094 51.4375C176.168 50.8807 175.452 50.0994 174.946 49.0938C174.446 48.0824 174.196 46.8977 174.196 45.5398C174.196 44.1989 174.446 43.017 174.946 41.9943C175.452 40.9716 176.156 40.1733 177.06 39.5994C177.969 39.0256 179.031 38.7386 180.247 38.7386C180.986 38.7386 181.702 38.8608 182.395 39.1051C183.088 39.3494 183.71 39.733 184.261 40.2557C184.812 40.7784 185.247 41.4574 185.565 42.2926C185.883 43.1222 186.043 44.1307 186.043 45.3182V46.2216H175.636V44.3125H183.545C183.545 43.642 183.409 43.0483 183.136 42.5312C182.864 42.0085 182.48 41.5966 181.986 41.2955C181.497 40.9943 180.923 40.8438 180.264 40.8438C179.548 40.8438 178.923 41.0199 178.389 41.3722C177.861 41.7187 177.452 42.1733 177.162 42.7358C176.878 43.2926 176.736 43.8977 176.736 44.5511V46.0426C176.736 46.9176 176.889 47.6619 177.196 48.2756C177.508 48.8892 177.943 49.358 178.5 49.6818C179.057 50 179.707 50.1591 180.452 50.1591C180.935 50.1591 181.375 50.0909 181.773 49.9545C182.17 49.8125 182.514 49.6023 182.804 49.3239C183.094 49.0455 183.315 48.7017 183.469 48.2926L185.881 48.7273C185.687 49.4375 185.341 50.0597 184.841 50.5938C184.347 51.1222 183.724 51.5341 182.974 51.8295C182.23 52.1193 181.381 52.2642 180.426 52.2642ZM191.418 44.2273V52H188.87V38.9091H191.316V41.0398H191.478C191.779 40.3466 192.251 39.7898 192.893 39.3693C193.54 38.9489 194.356 38.7386 195.339 38.7386C196.231 38.7386 197.012 38.9261 197.682 39.3011C198.353 39.6705 198.873 40.2216 199.242 40.9545C199.611 41.6875 199.796 42.5937 199.796 43.6733V52H197.248V43.9801C197.248 43.0312 197.001 42.2898 196.506 41.7557C196.012 41.2159 195.333 40.946 194.469 40.946C193.878 40.946 193.353 41.0739 192.893 41.3295C192.438 41.5852 192.077 41.9602 191.81 42.4545C191.549 42.9432 191.418 43.5341 191.418 44.2273ZM209.325 38.9091V40.9545H202.174V38.9091H209.325ZM204.092 35.7727H206.64V48.1562C206.64 48.6506 206.714 49.0227 206.861 49.2727C207.009 49.517 207.2 49.6847 207.432 49.7756C207.671 49.8608 207.93 49.9034 208.208 49.9034C208.413 49.9034 208.592 49.8892 208.745 49.8608C208.898 49.8324 209.018 49.8097 209.103 49.7926L209.563 51.8977C209.415 51.9545 209.205 52.0114 208.932 52.0682C208.66 52.1307 208.319 52.1648 207.91 52.1705C207.239 52.1818 206.614 52.0625 206.035 51.8125C205.455 51.5625 204.986 51.1761 204.628 50.6534C204.271 50.1307 204.092 49.4744 204.092 48.6847V35.7727ZM212.143 52V38.9091H214.606V40.9886H214.743C214.981 40.2841 215.402 39.7301 216.004 39.3267C216.612 38.9176 217.3 38.7131 218.067 38.7131C218.226 38.7131 218.413 38.7187 218.629 38.7301C218.851 38.7415 219.024 38.7557 219.149 38.7727V41.2102C219.047 41.1818 218.865 41.1506 218.604 41.1165C218.342 41.0767 218.081 41.0568 217.82 41.0568C217.217 41.0568 216.68 41.1847 216.209 41.4403C215.743 41.6903 215.374 42.0398 215.101 42.4886C214.828 42.9318 214.692 43.4375 214.692 44.0057V52H212.143ZM225.047 52.2898C224.217 52.2898 223.467 52.1364 222.797 51.8295C222.126 51.517 221.595 51.0653 221.203 50.4744C220.817 49.8835 220.624 49.1591 220.624 48.3011C220.624 47.5625 220.766 46.9545 221.05 46.4773C221.334 46 221.717 45.6222 222.2 45.3438C222.683 45.0653 223.223 44.8551 223.82 44.7131C224.416 44.571 225.024 44.4631 225.643 44.3892C226.428 44.2983 227.064 44.2244 227.553 44.1676C228.041 44.1051 228.396 44.0057 228.618 43.8693C228.839 43.733 228.95 43.5114 228.95 43.2045V43.1449C228.95 42.4006 228.74 41.8239 228.32 41.4148C227.905 41.0057 227.285 40.8011 226.462 40.8011C225.604 40.8011 224.928 40.9915 224.433 41.3722C223.945 41.7472 223.606 42.1648 223.419 42.625L221.024 42.0795C221.308 41.2841 221.723 40.642 222.268 40.1534C222.82 39.6591 223.453 39.3011 224.169 39.0795C224.885 38.8523 225.638 38.7386 226.428 38.7386C226.95 38.7386 227.504 38.8011 228.089 38.9261C228.68 39.0455 229.231 39.267 229.743 39.5909C230.26 39.9148 230.683 40.3778 231.013 40.9801C231.342 41.5767 231.507 42.3523 231.507 43.3068V52H229.018V50.2102H228.916C228.751 50.5398 228.504 50.8636 228.175 51.1818C227.845 51.5 227.422 51.7642 226.905 51.9744C226.388 52.1847 225.768 52.2898 225.047 52.2898ZM225.601 50.2443C226.305 50.2443 226.908 50.1051 227.408 49.8267C227.913 49.5483 228.297 49.1847 228.558 48.7358C228.825 48.2812 228.959 47.7955 228.959 47.2784V45.5909C228.868 45.6818 228.692 45.767 228.43 45.8466C228.175 45.9205 227.882 45.9858 227.553 46.0426C227.223 46.0937 226.902 46.142 226.589 46.1875C226.277 46.2273 226.016 46.2614 225.805 46.2898C225.311 46.3523 224.859 46.4574 224.45 46.6051C224.047 46.7528 223.723 46.9659 223.479 47.2443C223.24 47.517 223.121 47.8807 223.121 48.3352C223.121 48.9659 223.354 49.4432 223.82 49.767C224.285 50.0852 224.879 50.2443 225.601 50.2443ZM241.012 38.9091V40.9545H233.861V38.9091H241.012ZM235.779 35.7727H238.327V48.1562C238.327 48.6506 238.401 49.0227 238.549 49.2727C238.697 49.517 238.887 49.6847 239.12 49.7756C239.359 49.8608 239.617 49.9034 239.896 49.9034C240.1 49.9034 240.279 49.8892 240.432 49.8608C240.586 49.8324 240.705 49.8097 240.79 49.7926L241.251 51.8977C241.103 51.9545 240.893 52.0114 240.62 52.0682C240.347 52.1307 240.006 52.1648 239.597 52.1705C238.927 52.1818 238.302 52.0625 237.722 51.8125C237.143 51.5625 236.674 51.1761 236.316 50.6534C235.958 50.1307 235.779 49.4744 235.779 48.6847V35.7727ZM249.332 52.2642C248.043 52.2642 246.932 51.9886 246 51.4375C245.074 50.8807 244.358 50.0994 243.852 49.0938C243.352 48.0824 243.102 46.8977 243.102 45.5398C243.102 44.1989 243.352 43.017 243.852 41.9943C244.358 40.9716 245.062 40.1733 245.966 39.5994C246.875 39.0256 247.937 38.7386 249.153 38.7386C249.892 38.7386 250.608 38.8608 251.301 39.1051C251.994 39.3494 252.616 39.733 253.168 40.2557C253.719 40.7784 254.153 41.4574 254.472 42.2926C254.79 43.1222 254.949 44.1307 254.949 45.3182V46.2216H244.543V44.3125H252.452C252.452 43.642 252.315 43.0483 252.043 42.5312C251.77 42.0085 251.386 41.5966 250.892 41.2955C250.403 40.9943 249.829 40.8438 249.17 40.8438C248.454 40.8438 247.829 41.0199 247.295 41.3722C246.767 41.7187 246.358 42.1733 246.068 42.7358C245.784 43.2926 245.642 43.8977 245.642 44.5511V46.0426C245.642 46.9176 245.795 47.6619 246.102 48.2756C246.415 48.8892 246.849 49.358 247.406 49.6818C247.963 50 248.614 50.1591 249.358 50.1591C249.841 50.1591 250.281 50.0909 250.679 49.9545C251.077 49.8125 251.42 49.6023 251.71 49.3239C252 49.0455 252.222 48.7017 252.375 48.2926L254.787 48.7273C254.594 49.4375 254.247 50.0597 253.747 50.5938C253.253 51.1222 252.631 51.5341 251.881 51.8295C251.136 52.1193 250.287 52.2642 249.332 52.2642ZM262.677 52.2557C261.62 52.2557 260.677 51.9858 259.847 51.446C259.023 50.9006 258.376 50.125 257.904 49.1193C257.438 48.108 257.205 46.8949 257.205 45.4801C257.205 44.0653 257.441 42.8551 257.913 41.8494C258.39 40.8437 259.043 40.0739 259.873 39.5398C260.702 39.0057 261.643 38.7386 262.694 38.7386C263.506 38.7386 264.16 38.875 264.654 39.1477C265.154 39.4148 265.54 39.7273 265.813 40.0852C266.092 40.4432 266.307 40.7585 266.461 41.0312H266.614V34.5455H269.163V52H266.674V49.9631H266.461C266.307 50.2415 266.086 50.5597 265.796 50.9176C265.512 51.2756 265.12 51.5881 264.62 51.8551C264.12 52.1222 263.472 52.2557 262.677 52.2557ZM263.239 50.0824C263.972 50.0824 264.592 49.8892 265.097 49.5028C265.609 49.1108 265.995 48.5682 266.256 47.875C266.523 47.1818 266.657 46.375 266.657 45.4545C266.657 44.5455 266.526 43.75 266.265 43.0682C266.003 42.3864 265.62 41.8551 265.114 41.4744C264.609 41.0937 263.984 40.9034 263.239 40.9034C262.472 40.9034 261.833 41.1023 261.322 41.5C260.81 41.8977 260.424 42.4403 260.163 43.1278C259.907 43.8153 259.779 44.5909 259.779 45.4545C259.779 46.3295 259.91 47.1165 260.171 47.8153C260.432 48.5142 260.819 49.0682 261.33 49.4773C261.847 49.8807 262.484 50.0824 263.239 50.0824ZM279.356 52V34.5455H281.989V49.733H289.898V52H279.356ZM292.698 52V38.9091H295.246V52H292.698ZM293.985 36.8892C293.542 36.8892 293.161 36.7415 292.843 36.446C292.53 36.1449 292.374 35.7869 292.374 35.3722C292.374 34.9517 292.53 34.5937 292.843 34.2983C293.161 33.9972 293.542 33.8466 293.985 33.8466C294.428 33.8466 294.806 33.9972 295.119 34.2983C295.437 34.5937 295.596 34.9517 295.596 35.3722C295.596 35.7869 295.437 36.1449 295.119 36.446C294.806 36.7415 294.428 36.8892 293.985 36.8892ZM307.513 56.9091V49.9631H307.359C307.206 50.2415 306.984 50.5597 306.695 50.9176C306.41 51.2756 306.018 51.5881 305.518 51.8551C305.018 52.1222 304.371 52.2557 303.575 52.2557C302.518 52.2557 301.575 51.9858 300.746 51.446C299.922 50.9006 299.274 50.125 298.803 49.1193C298.337 48.108 298.104 46.8949 298.104 45.4801C298.104 44.0653 298.339 42.8551 298.811 41.8494C299.288 40.8437 299.942 40.0739 300.771 39.5398C301.601 39.0057 302.541 38.7386 303.592 38.7386C304.405 38.7386 305.058 38.875 305.553 39.1477C306.053 39.4148 306.439 39.7273 306.712 40.0852C306.99 40.4432 307.206 40.7585 307.359 41.0312H307.572V38.9091H310.061V56.9091H307.513ZM304.138 50.0824C304.871 50.0824 305.49 49.8892 305.996 49.5028C306.507 49.1108 306.893 48.5682 307.155 47.875C307.422 47.1818 307.555 46.375 307.555 45.4545C307.555 44.5455 307.425 43.75 307.163 43.0682C306.902 42.3864 306.518 41.8551 306.013 41.4744C305.507 41.0937 304.882 40.9034 304.138 40.9034C303.371 40.9034 302.731 41.1023 302.22 41.5C301.709 41.8977 301.322 42.4403 301.061 43.1278C300.805 43.8153 300.678 44.5909 300.678 45.4545C300.678 46.3295 300.808 47.1165 301.07 47.8153C301.331 48.5142 301.717 49.0682 302.229 49.4773C302.746 49.8807 303.382 50.0824 304.138 50.0824ZM321.78 46.571V38.9091H324.337V52H321.831V49.733H321.695C321.393 50.4318 320.91 51.0142 320.246 51.4801C319.587 51.9403 318.766 52.1705 317.783 52.1705C316.942 52.1705 316.197 51.9858 315.55 51.6165C314.908 51.2415 314.402 50.6875 314.033 49.9545C313.669 49.2216 313.487 48.3153 313.487 47.2358V38.9091H316.035V46.929C316.035 47.821 316.283 48.5312 316.777 49.0597C317.271 49.5881 317.913 49.8523 318.703 49.8523C319.18 49.8523 319.655 49.733 320.126 49.4943C320.604 49.2557 320.999 48.8949 321.311 48.4119C321.629 47.929 321.785 47.3153 321.78 46.571ZM327.761 52V38.9091H330.309V52H327.761ZM329.048 36.8892C328.604 36.8892 328.224 36.7415 327.905 36.446C327.593 36.1449 327.437 35.7869 327.437 35.3722C327.437 34.9517 327.593 34.5937 327.905 34.2983C328.224 33.9972 328.604 33.8466 329.048 33.8466C329.491 33.8466 329.869 33.9972 330.181 34.2983C330.499 34.5937 330.658 34.9517 330.658 35.3722C330.658 35.7869 330.499 36.1449 330.181 36.446C329.869 36.7415 329.491 36.8892 329.048 36.8892ZM338.638 52.2557C337.581 52.2557 336.638 51.9858 335.808 51.446C334.984 50.9006 334.337 50.125 333.865 49.1193C333.399 48.108 333.166 46.8949 333.166 45.4801C333.166 44.0653 333.402 42.8551 333.874 41.8494C334.351 40.8437 335.004 40.0739 335.834 39.5398C336.663 39.0057 337.604 38.7386 338.655 38.7386C339.467 38.7386 340.121 38.875 340.615 39.1477C341.115 39.4148 341.501 39.7273 341.774 40.0852C342.053 40.4432 342.268 40.7585 342.422 41.0312H342.575V34.5455H345.124V52H342.635V49.9631H342.422C342.268 50.2415 342.047 50.5597 341.757 50.9176C341.473 51.2756 341.081 51.5881 340.581 51.8551C340.081 52.1222 339.433 52.2557 338.638 52.2557ZM339.2 50.0824C339.933 50.0824 340.553 49.8892 341.058 49.5028C341.57 49.1108 341.956 48.5682 342.217 47.875C342.484 47.1818 342.618 46.375 342.618 45.4545C342.618 44.5455 342.487 43.75 342.226 43.0682C341.964 42.3864 341.581 41.8551 341.075 41.4744C340.57 41.0937 339.945 40.9034 339.2 40.9034C338.433 40.9034 337.794 41.1023 337.283 41.5C336.771 41.8977 336.385 42.4403 336.124 43.1278C335.868 43.8153 335.74 44.5909 335.74 45.4545C335.74 46.3295 335.871 47.1165 336.132 47.8153C336.393 48.5142 336.78 49.0682 337.291 49.4773C337.808 49.8807 338.445 50.0824 339.2 50.0824ZM348.761 52V38.9091H351.309V52H348.761ZM350.048 36.8892C349.604 36.8892 349.224 36.7415 348.905 36.446C348.593 36.1449 348.437 35.7869 348.437 35.3722C348.437 34.9517 348.593 34.5937 348.905 34.2983C349.224 33.9972 349.604 33.8466 350.048 33.8466C350.491 33.8466 350.869 33.9972 351.181 34.2983C351.499 34.5937 351.658 34.9517 351.658 35.3722C351.658 35.7869 351.499 36.1449 351.181 36.446C350.869 36.7415 350.491 36.8892 350.048 36.8892ZM360.848 38.9091V40.9545H353.697V38.9091H360.848ZM355.615 35.7727H358.163V48.1562C358.163 48.6506 358.237 49.0227 358.385 49.2727C358.533 49.517 358.723 49.6847 358.956 49.7756C359.195 49.8608 359.453 49.9034 359.731 49.9034C359.936 49.9034 360.115 49.8892 360.268 49.8608C360.422 49.8324 360.541 49.8097 360.626 49.7926L361.087 51.8977C360.939 51.9545 360.729 52.0114 360.456 52.0682C360.183 52.1307 359.842 52.1648 359.433 52.1705C358.763 52.1818 358.138 52.0625 357.558 51.8125C356.979 51.5625 356.51 51.1761 356.152 50.6534C355.794 50.1307 355.615 49.4744 355.615 48.6847V35.7727ZM365.278 56.9091C364.897 56.9091 364.55 56.8778 364.238 56.8153C363.925 56.7585 363.692 56.696 363.539 56.6278L364.153 54.5398C364.619 54.6648 365.033 54.7188 365.397 54.7017C365.761 54.6847 366.082 54.5483 366.36 54.2926C366.644 54.0369 366.894 53.6193 367.11 53.0398L367.425 52.1705L362.636 38.9091H365.363L368.678 49.0682H368.815L372.13 38.9091H374.866L369.471 53.7472C369.221 54.429 368.903 55.0057 368.516 55.4773C368.13 55.9545 367.67 56.3125 367.136 56.5511C366.602 56.7898 365.982 56.9091 365.278 56.9091ZM95.007 77.7955C94.3195 77.7955 93.6917 77.6278 93.1235 77.2926C92.5553 76.9517 92.1008 76.4972 91.7599 75.929C91.4247 75.3608 91.257 74.733 91.257 74.0455C91.257 73.3523 91.4247 72.7244 91.7599 72.1619C92.1008 71.5937 92.5553 71.142 93.1235 70.8068C93.6917 70.4659 94.3195 70.2955 95.007 70.2955C95.7002 70.2955 96.3281 70.4659 96.8906 70.8068C97.4588 71.142 97.9105 71.5937 98.2457 72.1619C98.5866 72.7244 98.757 73.3523 98.757 74.0455C98.757 74.733 98.5866 75.3608 98.2457 75.929C97.9105 76.4972 97.4588 76.9517 96.8906 77.2926C96.3281 77.6278 95.7002 77.7955 95.007 77.7955ZM114.918 81V63.5455H121.14C122.498 63.5455 123.623 63.7926 124.515 64.2869C125.407 64.7812 126.075 65.4574 126.518 66.3153C126.961 67.1676 127.182 68.1278 127.182 69.196C127.182 70.2699 126.958 71.2358 126.509 72.0938C126.066 72.946 125.396 73.6222 124.498 74.1222C123.606 74.6165 122.484 74.8636 121.131 74.8636H116.853V72.6307H120.893C121.751 72.6307 122.447 72.483 122.981 72.1875C123.515 71.8864 123.907 71.4773 124.157 70.9602C124.407 70.4432 124.532 69.8551 124.532 69.196C124.532 68.5369 124.407 67.9517 124.157 67.4403C123.907 66.929 123.512 66.5284 122.972 66.2386C122.438 65.9489 121.734 65.804 120.859 65.804H117.552V81H114.918ZM138.358 75.571V67.9091H140.915V81H138.409V78.733H138.273C137.972 79.4318 137.489 80.0142 136.824 80.4801C136.165 80.9403 135.344 81.1705 134.361 81.1705C133.52 81.1705 132.776 80.9858 132.128 80.6165C131.486 80.2415 130.98 79.6875 130.611 78.9545C130.247 78.2216 130.065 77.3153 130.065 76.2358V67.9091H132.614V75.929C132.614 76.821 132.861 77.5312 133.355 78.0597C133.849 78.5881 134.491 78.8523 135.281 78.8523C135.758 78.8523 136.233 78.733 136.704 78.4943C137.182 78.2557 137.577 77.8949 137.889 77.4119C138.207 76.929 138.364 76.3153 138.358 75.571ZM144.543 81V63.5455H147.092V70.0312H147.245C147.393 69.7585 147.606 69.4432 147.884 69.0852C148.163 68.7273 148.549 68.4148 149.043 68.1477C149.538 67.875 150.191 67.7386 151.003 67.7386C152.06 67.7386 153.003 68.0057 153.833 68.5398C154.663 69.0739 155.313 69.8437 155.785 70.8494C156.262 71.8551 156.501 73.0653 156.501 74.4801C156.501 75.8949 156.265 77.108 155.793 78.1193C155.322 79.125 154.674 79.9006 153.85 80.446C153.026 80.9858 152.086 81.2557 151.029 81.2557C150.234 81.2557 149.583 81.1222 149.077 80.8551C148.577 80.5881 148.185 80.2756 147.901 79.9176C147.617 79.5597 147.398 79.2415 147.245 78.9631H147.032V81H144.543ZM147.04 74.4545C147.04 75.375 147.174 76.1818 147.441 76.875C147.708 77.5682 148.094 78.1108 148.6 78.5028C149.106 78.8892 149.725 79.0824 150.458 79.0824C151.219 79.0824 151.856 78.8807 152.367 78.4773C152.878 78.0682 153.265 77.5142 153.526 76.8153C153.793 76.1165 153.927 75.3295 153.927 74.4545C153.927 73.5909 153.796 72.8153 153.535 72.1278C153.279 71.4403 152.893 70.8977 152.376 70.5C151.864 70.1023 151.225 69.9034 150.458 69.9034C149.719 69.9034 149.094 70.0937 148.583 70.4744C148.077 70.8551 147.694 71.3864 147.432 72.0682C147.171 72.75 147.04 73.5455 147.04 74.4545ZM161.91 63.5455V81H159.362V63.5455H161.91ZM165.339 81V67.9091H167.887V81H165.339ZM166.626 65.8892C166.182 65.8892 165.802 65.7415 165.484 65.446C165.171 65.1449 165.015 64.7869 165.015 64.3722C165.015 63.9517 165.171 63.5937 165.484 63.2983C165.802 62.9972 166.182 62.8466 166.626 62.8466C167.069 62.8466 167.447 62.9972 167.759 63.2983C168.077 63.5937 168.236 63.9517 168.236 64.3722C168.236 64.7869 168.077 65.1449 167.759 65.446C167.447 65.7415 167.069 65.8892 166.626 65.8892ZM176.829 81.2642C175.562 81.2642 174.472 80.9773 173.557 80.4034C172.648 79.8239 171.949 79.0256 171.46 78.0085C170.972 76.9915 170.727 75.8267 170.727 74.5142C170.727 73.1847 170.977 72.0114 171.477 70.9943C171.977 69.9716 172.682 69.1733 173.591 68.5994C174.5 68.0256 175.571 67.7386 176.804 67.7386C177.798 67.7386 178.685 67.9233 179.463 68.2926C180.241 68.6562 180.869 69.1676 181.347 69.8267C181.829 70.4858 182.116 71.2557 182.207 72.1364H179.727C179.591 71.5227 179.278 70.9943 178.79 70.5511C178.307 70.108 177.659 69.8864 176.847 69.8864C176.136 69.8864 175.514 70.0739 174.98 70.4489C174.452 70.8182 174.04 71.3466 173.744 72.0341C173.449 72.7159 173.301 73.5227 173.301 74.4545C173.301 75.4091 173.446 76.233 173.736 76.9261C174.026 77.6193 174.435 78.1562 174.963 78.5369C175.497 78.9176 176.125 79.108 176.847 79.108C177.329 79.108 177.767 79.0199 178.159 78.8438C178.557 78.6619 178.889 78.4034 179.156 78.0682C179.429 77.733 179.619 77.3295 179.727 76.858H182.207C182.116 77.7045 181.841 78.4602 181.381 79.125C180.92 79.7898 180.304 80.3125 179.531 80.6932C178.764 81.0739 177.864 81.2642 176.829 81.2642ZM201.008 68.1307C200.918 67.3239 200.543 66.6989 199.883 66.2557C199.224 65.8068 198.395 65.5824 197.395 65.5824C196.679 65.5824 196.06 65.696 195.537 65.9233C195.014 66.1449 194.608 66.4517 194.318 66.8438C194.034 67.2301 193.892 67.6705 193.892 68.1648C193.892 68.5795 193.989 68.9375 194.182 69.2386C194.381 69.5398 194.639 69.7926 194.957 69.9972C195.281 70.196 195.628 70.3636 195.997 70.5C196.366 70.6307 196.722 70.7386 197.062 70.8239L198.767 71.267C199.324 71.4034 199.895 71.5881 200.48 71.821C201.065 72.054 201.608 72.3608 202.108 72.7415C202.608 73.1222 203.011 73.5938 203.318 74.1562C203.631 74.7188 203.787 75.392 203.787 76.1761C203.787 77.1648 203.531 78.0426 203.02 78.8097C202.514 79.5767 201.778 80.1818 200.812 80.625C199.852 81.0682 198.69 81.2898 197.327 81.2898C196.02 81.2898 194.889 81.0824 193.935 80.6676C192.98 80.2528 192.233 79.6648 191.693 78.9034C191.153 78.1364 190.855 77.2273 190.798 76.1761H193.44C193.491 76.8068 193.696 77.3324 194.054 77.7528C194.418 78.1676 194.881 78.4773 195.443 78.6818C196.011 78.8807 196.633 78.9801 197.31 78.9801C198.054 78.9801 198.716 78.8636 199.295 78.6307C199.881 78.392 200.341 78.0625 200.676 77.642C201.011 77.2159 201.179 76.7187 201.179 76.1506C201.179 75.6335 201.031 75.2102 200.736 74.8807C200.446 74.5511 200.051 74.2784 199.551 74.0625C199.057 73.8466 198.497 73.6562 197.872 73.4915L195.81 72.929C194.412 72.5483 193.304 71.9886 192.486 71.25C191.673 70.5114 191.267 69.5341 191.267 68.3182C191.267 67.3125 191.54 66.4347 192.085 65.6847C192.631 64.9347 193.369 64.3523 194.301 63.9375C195.233 63.517 196.284 63.3068 197.454 63.3068C198.636 63.3068 199.679 63.5142 200.582 63.929C201.491 64.3438 202.207 64.9148 202.73 65.642C203.253 66.3636 203.526 67.1932 203.548 68.1307H201.008ZM210.539 81.2898C209.709 81.2898 208.959 81.1364 208.289 80.8295C207.619 80.517 207.087 80.0653 206.695 79.4744C206.309 78.8835 206.116 78.1591 206.116 77.3011C206.116 76.5625 206.258 75.9545 206.542 75.4773C206.826 75 207.209 74.6222 207.692 74.3438C208.175 74.0653 208.715 73.8551 209.312 73.7131C209.908 73.571 210.516 73.4631 211.136 73.3892C211.92 73.2983 212.556 73.2244 213.045 73.1676C213.533 73.1051 213.888 73.0057 214.11 72.8693C214.332 72.733 214.442 72.5114 214.442 72.2045V72.1449C214.442 71.4006 214.232 70.8239 213.812 70.4148C213.397 70.0057 212.778 69.8011 211.954 69.8011C211.096 69.8011 210.42 69.9915 209.925 70.3722C209.437 70.7472 209.099 71.1648 208.911 71.625L206.516 71.0795C206.8 70.2841 207.215 69.642 207.761 69.1534C208.312 68.6591 208.945 68.3011 209.661 68.0795C210.377 67.8523 211.13 67.7386 211.92 67.7386C212.442 67.7386 212.996 67.8011 213.582 67.9261C214.173 68.0455 214.724 68.267 215.235 68.5909C215.752 68.9148 216.175 69.3778 216.505 69.9801C216.834 70.5767 216.999 71.3523 216.999 72.3068V81H214.511V79.2102H214.408C214.244 79.5398 213.996 79.8636 213.667 80.1818C213.337 80.5 212.914 80.7642 212.397 80.9744C211.88 81.1847 211.261 81.2898 210.539 81.2898ZM211.093 79.2443C211.798 79.2443 212.4 79.1051 212.9 78.8267C213.405 78.5483 213.789 78.1847 214.05 77.7358C214.317 77.2812 214.451 76.7955 214.451 76.2784V74.5909C214.36 74.6818 214.184 74.767 213.923 74.8466C213.667 74.9205 213.374 74.9858 213.045 75.0426C212.715 75.0937 212.394 75.142 212.082 75.1875C211.769 75.2273 211.508 75.2614 211.298 75.2898C210.803 75.3523 210.352 75.4574 209.942 75.6051C209.539 75.7528 209.215 75.9659 208.971 76.2443C208.732 76.517 208.613 76.8807 208.613 77.3352C208.613 77.9659 208.846 78.4432 209.312 78.767C209.778 79.0852 210.371 79.2443 211.093 79.2443ZM222.942 63.5455V81H220.393V63.5455H222.942ZM232.012 81.2642C230.722 81.2642 229.611 80.9886 228.68 80.4375C227.753 79.8807 227.038 79.0994 226.532 78.0938C226.032 77.0824 225.782 75.8977 225.782 74.5398C225.782 73.1989 226.032 72.017 226.532 70.9943C227.038 69.9716 227.742 69.1733 228.646 68.5994C229.555 68.0256 230.617 67.7386 231.833 67.7386C232.572 67.7386 233.288 67.8608 233.981 68.1051C234.674 68.3494 235.296 68.733 235.847 69.2557C236.398 69.7784 236.833 70.4574 237.151 71.2926C237.469 72.1222 237.628 73.1307 237.628 74.3182V75.2216H227.222V73.3125H235.131C235.131 72.642 234.995 72.0483 234.722 71.5312C234.45 71.0085 234.066 70.5966 233.572 70.2955C233.083 69.9943 232.509 69.8438 231.85 69.8438C231.134 69.8438 230.509 70.0199 229.975 70.3722C229.447 70.7187 229.038 71.1733 228.748 71.7358C228.464 72.2926 228.322 72.8977 228.322 73.5511V75.0426C228.322 75.9176 228.475 76.6619 228.782 77.2756C229.094 77.8892 229.529 78.358 230.086 78.6818C230.643 79 231.293 79.1591 232.038 79.1591C232.521 79.1591 232.961 79.0909 233.359 78.9545C233.756 78.8125 234.1 78.6023 234.39 78.3239C234.68 78.0455 234.901 77.7017 235.055 77.2926L237.467 77.7273C237.273 78.4375 236.927 79.0597 236.427 79.5938C235.932 80.1222 235.31 80.5341 234.56 80.8295C233.816 81.1193 232.967 81.2642 232.012 81.2642ZM95.007 106.795C94.3195 106.795 93.6917 106.628 93.1235 106.293C92.5553 105.952 92.1008 105.497 91.7599 104.929C91.4247 104.361 91.257 103.733 91.257 103.045C91.257 102.352 91.4247 101.724 91.7599 101.162C92.1008 100.594 92.5553 100.142 93.1235 99.8068C93.6917 99.4659 94.3195 99.2955 95.007 99.2955C95.7002 99.2955 96.3281 99.4659 96.8906 99.8068C97.4588 100.142 97.9105 100.594 98.2457 101.162C98.5866 101.724 98.757 102.352 98.757 103.045C98.757 103.733 98.5866 104.361 98.2457 104.929C97.9105 105.497 97.4588 105.952 96.8906 106.293C96.3281 106.628 95.7002 106.795 95.007 106.795ZM114.057 94.8125V92.5455H127.566V94.8125H122.12V110H119.495V94.8125H114.057ZM141.614 98.0597C141.449 97.5426 141.227 97.0795 140.949 96.6705C140.676 96.2557 140.349 95.9034 139.969 95.6136C139.588 95.3182 139.153 95.0937 138.665 94.9403C138.182 94.7869 137.651 94.7102 137.071 94.7102C136.088 94.7102 135.202 94.9631 134.412 95.4688C133.622 95.9744 132.997 96.7159 132.537 97.6932C132.082 98.6648 131.855 99.8551 131.855 101.264C131.855 102.679 132.085 103.875 132.545 104.852C133.006 105.83 133.636 106.571 134.437 107.077C135.239 107.582 136.151 107.835 137.173 107.835C138.122 107.835 138.949 107.642 139.653 107.256C140.364 106.869 140.912 106.324 141.298 105.619C141.69 104.909 141.886 104.074 141.886 103.114L142.568 103.241H137.574V101.068H144.435V103.054C144.435 104.52 144.122 105.793 143.497 106.872C142.878 107.946 142.02 108.776 140.923 109.361C139.832 109.946 138.582 110.239 137.173 110.239C135.594 110.239 134.207 109.875 133.014 109.148C131.827 108.42 130.901 107.389 130.236 106.054C129.571 104.713 129.239 103.122 129.239 101.281C129.239 99.8892 129.432 98.6392 129.818 97.5312C130.204 96.4233 130.747 95.483 131.446 94.7102C132.151 93.9318 132.977 93.3381 133.926 92.929C134.881 92.5142 135.923 92.3068 137.054 92.3068C137.997 92.3068 138.875 92.446 139.687 92.7244C140.506 93.0028 141.233 93.3977 141.869 93.9091C142.511 94.4205 143.043 95.0284 143.463 95.733C143.883 96.4318 144.168 97.2074 144.315 98.0597H141.614ZM147.778 110V92.5455H158.721V94.8125H150.411V100.131H158.15V102.389H150.411V107.733H158.823V110H147.778Z" fill="#4CC9F0"/>
<line x1="94.5008" y1="7" x2="94.5008" y2="280" stroke="#0FA9D9"/>
</svg>
