<svg width="472" height="572" viewBox="0 0 472 572" fill="none" xmlns="http://www.w3.org/2000/svg">
<path d="M380.749 280L324.847 324.167V235.833L380.749 280Z" fill="#BA1E71"/>
<path fill-rule="evenodd" clip-rule="evenodd" d="M0 324L55.6901 280L0 236H324.847V324H0Z" fill="#BA1E71"/>
<path d="M127.026 294V291.443L136.628 280.932C137.755 279.701 138.683 278.631 139.412 277.722C140.141 276.803 140.681 275.941 141.032 275.136C141.391 274.322 141.571 273.47 141.571 272.58C141.571 271.557 141.325 270.671 140.833 269.923C140.35 269.175 139.687 268.598 138.844 268.19C138.001 267.783 137.054 267.58 136.003 267.58C134.886 267.58 133.91 267.812 133.077 268.276C132.253 268.73 131.614 269.369 131.159 270.193C130.714 271.017 130.492 271.983 130.492 273.091H127.14C127.14 271.386 127.533 269.89 128.319 268.602C129.104 267.314 130.175 266.311 131.529 265.591C132.892 264.871 134.422 264.511 136.117 264.511C137.821 264.511 139.332 264.871 140.648 265.591C141.964 266.311 142.997 267.281 143.745 268.503C144.493 269.724 144.867 271.083 144.867 272.58C144.867 273.65 144.673 274.696 144.284 275.719C143.906 276.732 143.243 277.864 142.296 279.114C141.358 280.354 140.056 281.869 138.39 283.659L131.855 290.648V290.875H145.378V294H127.026ZM160.733 294.398C158.593 294.398 156.77 293.815 155.265 292.651C153.759 291.476 152.608 289.777 151.813 287.551C151.017 285.316 150.62 282.617 150.62 279.455C150.62 276.311 151.017 273.626 151.813 271.401C152.618 269.166 153.773 267.461 155.279 266.287C156.794 265.103 158.612 264.511 160.733 264.511C162.854 264.511 164.668 265.103 166.174 266.287C167.689 267.461 168.844 269.166 169.64 271.401C170.444 273.626 170.847 276.311 170.847 279.455C170.847 282.617 170.449 285.316 169.654 287.551C168.858 289.777 167.708 291.476 166.202 292.651C164.696 293.815 162.873 294.398 160.733 294.398ZM160.733 291.273C162.854 291.273 164.502 290.25 165.676 288.205C166.851 286.159 167.438 283.242 167.438 279.455C167.438 276.936 167.168 274.791 166.628 273.02C166.098 271.249 165.331 269.9 164.327 268.972C163.333 268.044 162.135 267.58 160.733 267.58C158.631 267.58 156.988 268.616 155.804 270.69C154.621 272.755 154.029 275.676 154.029 279.455C154.029 281.973 154.294 284.114 154.824 285.875C155.354 287.636 156.117 288.976 157.111 289.895C158.115 290.813 159.322 291.273 160.733 291.273ZM176.245 294V291.443L185.847 280.932C186.974 279.701 187.902 278.631 188.631 277.722C189.36 276.803 189.9 275.941 190.25 275.136C190.61 274.322 190.79 273.47 190.79 272.58C190.79 271.557 190.544 270.671 190.051 269.923C189.569 269.175 188.906 268.598 188.063 268.19C187.22 267.783 186.273 267.58 185.222 267.58C184.104 267.58 183.129 267.812 182.296 268.276C181.472 268.73 180.833 269.369 180.378 270.193C179.933 271.017 179.711 271.983 179.711 273.091H176.358C176.358 271.386 176.751 269.89 177.537 268.602C178.323 267.314 179.393 266.311 180.747 265.591C182.111 264.871 183.64 264.511 185.336 264.511C187.04 264.511 188.551 264.871 189.867 265.591C191.183 266.311 192.215 267.281 192.963 268.503C193.711 269.724 194.086 271.083 194.086 272.58C194.086 273.65 193.891 274.696 193.503 275.719C193.124 276.732 192.461 277.864 191.515 279.114C190.577 280.354 189.275 281.869 187.608 283.659L181.074 290.648V290.875H194.597V294H176.245ZM210.293 294.398C208.418 294.398 206.747 294.076 205.279 293.432C203.82 292.788 202.66 291.893 201.799 290.747C200.946 289.592 200.482 288.252 200.407 286.727H203.986C204.062 287.665 204.384 288.474 204.952 289.156C205.52 289.829 206.264 290.349 207.182 290.719C208.101 291.088 209.119 291.273 210.236 291.273C211.486 291.273 212.594 291.055 213.56 290.619C214.526 290.184 215.283 289.578 215.833 288.801C216.382 288.025 216.657 287.125 216.657 286.102C216.657 285.032 216.391 284.09 215.861 283.276C215.331 282.452 214.554 281.808 213.532 281.344C212.509 280.88 211.259 280.648 209.782 280.648H207.452V277.523H209.782C210.937 277.523 211.95 277.314 212.821 276.898C213.702 276.481 214.389 275.894 214.881 275.136C215.383 274.379 215.634 273.489 215.634 272.466C215.634 271.481 215.416 270.624 214.98 269.895C214.545 269.166 213.929 268.598 213.134 268.19C212.348 267.783 211.42 267.58 210.35 267.58C209.346 267.58 208.399 267.764 207.509 268.134C206.628 268.493 205.908 269.019 205.35 269.71C204.791 270.392 204.488 271.216 204.441 272.182H201.032C201.088 270.657 201.548 269.322 202.409 268.176C203.271 267.021 204.398 266.121 205.79 265.477C207.192 264.833 208.73 264.511 210.407 264.511C212.206 264.511 213.749 264.876 215.037 265.605C216.325 266.325 217.315 267.277 218.006 268.46C218.697 269.644 219.043 270.922 219.043 272.295C219.043 273.934 218.612 275.33 217.75 276.486C216.898 277.641 215.738 278.441 214.27 278.886V279.114C216.107 279.417 217.542 280.198 218.574 281.457C219.606 282.707 220.122 284.256 220.122 286.102C220.122 287.684 219.692 289.104 218.83 290.364C217.978 291.614 216.813 292.598 215.336 293.318C213.858 294.038 212.177 294.398 210.293 294.398ZM248.262 284.909H252.125L255.364 289.17L256.216 290.307L261.046 296.727H257.182L254 292.466L253.205 291.386L248.262 284.909ZM262.239 279.455C262.239 282.523 261.685 285.174 260.577 287.409C259.469 289.644 257.949 291.367 256.017 292.58C254.086 293.792 251.879 294.398 249.398 294.398C246.917 294.398 244.711 293.792 242.779 292.58C240.847 291.367 239.327 289.644 238.219 287.409C237.111 285.174 236.557 282.523 236.557 279.455C236.557 276.386 237.111 273.735 238.219 271.5C239.327 269.265 240.847 267.542 242.779 266.33C244.711 265.117 246.917 264.511 249.398 264.511C251.879 264.511 254.086 265.117 256.017 266.33C257.949 267.542 259.469 269.265 260.577 271.5C261.685 273.735 262.239 276.386 262.239 279.455ZM258.83 279.455C258.83 276.936 258.408 274.81 257.566 273.077C256.732 271.344 255.601 270.032 254.171 269.142C252.75 268.252 251.159 267.807 249.398 267.807C247.637 267.807 246.041 268.252 244.611 269.142C243.191 270.032 242.059 271.344 241.216 273.077C240.383 274.81 239.966 276.936 239.966 279.455C239.966 281.973 240.383 284.099 241.216 285.832C242.059 287.565 243.191 288.877 244.611 289.767C246.041 290.657 247.637 291.102 249.398 291.102C251.159 291.102 252.75 290.657 254.171 289.767C255.601 288.877 256.732 287.565 257.566 285.832C258.408 284.099 258.83 281.973 258.83 279.455ZM267.651 294V291.443L277.253 280.932C278.38 279.701 279.308 278.631 280.037 277.722C280.766 276.803 281.306 275.941 281.657 275.136C282.016 274.322 282.196 273.47 282.196 272.58C282.196 271.557 281.95 270.671 281.458 269.923C280.975 269.175 280.312 268.598 279.469 268.19C278.626 267.783 277.679 267.58 276.628 267.58C275.511 267.58 274.535 267.812 273.702 268.276C272.878 268.73 272.239 269.369 271.784 270.193C271.339 271.017 271.117 271.983 271.117 273.091H267.765C267.765 271.386 268.158 269.89 268.944 268.602C269.729 267.314 270.8 266.311 272.154 265.591C273.517 264.871 275.047 264.511 276.742 264.511C278.446 264.511 279.957 264.871 281.273 265.591C282.589 266.311 283.622 267.281 284.37 268.503C285.118 269.724 285.492 271.083 285.492 272.58C285.492 273.65 285.298 274.696 284.909 275.719C284.531 276.732 283.868 277.864 282.921 279.114C281.983 280.354 280.681 281.869 279.015 283.659L272.48 290.648V290.875H286.003V294H267.651Z" fill="black"/>
<ellipse cx="78.9825" cy="280.5" rx="8.79936" ry="8.5" fill="#D9D9D9"/>
<path d="M79.7576 384.876C79.0701 384.872 78.443 384.702 77.8765 384.364C77.3099 384.021 76.8575 383.564 76.5193 382.995C76.1868 382.425 76.0222 381.796 76.0255 381.109C76.0288 380.416 76.1994 379.789 76.5374 379.228C76.881 378.661 77.3377 378.211 77.9075 377.879C78.4773 377.54 79.1059 377.373 79.7934 377.376C80.4866 377.379 81.1136 377.552 81.6745 377.895C82.241 378.233 82.6906 378.687 83.0231 379.257C83.3613 379.821 83.5288 380.449 83.5254 381.142C83.5222 381.83 83.3487 382.457 83.0051 383.024C82.6671 383.59 82.2133 384.043 81.6435 384.381C81.0794 384.714 80.4507 384.879 79.7576 384.876ZM105.304 388.194L99.6533 388.169L99.7367 370.714L105.566 370.74C107.276 370.748 108.743 371.104 109.967 371.808C111.191 372.507 112.127 373.508 112.774 374.812C113.427 376.111 113.749 377.666 113.74 379.479C113.732 381.297 113.392 382.858 112.721 384.162C112.056 385.466 111.096 386.467 109.843 387.166C108.59 387.859 107.076 388.202 105.304 388.194ZM102.298 385.879L105.17 385.892C106.499 385.898 107.606 385.653 108.489 385.157C109.372 384.655 110.034 383.928 110.477 382.976C110.919 382.017 111.143 380.848 111.15 379.467C111.156 378.098 110.943 376.935 110.51 375.978C110.083 375.022 109.441 374.295 108.586 373.797C107.73 373.298 106.666 373.047 105.393 373.041L102.359 373.027L102.298 385.879ZM116.769 388.245L116.831 375.154L119.294 375.165L119.285 377.245L119.421 377.246C119.663 376.542 120.086 375.99 120.69 375.589C121.3 375.183 121.989 374.981 122.756 374.985C122.915 374.986 123.102 374.992 123.318 375.004C123.54 375.017 123.713 375.032 123.838 375.049L123.826 377.487C123.724 377.458 123.542 377.426 123.281 377.391C123.02 377.35 122.759 377.329 122.497 377.327C121.895 377.325 121.357 377.45 120.885 377.704C120.418 377.952 120.047 378.299 119.772 378.747C119.497 379.189 119.358 379.694 119.355 380.262L119.317 388.257L116.769 388.245ZM129.671 388.592C128.841 388.589 128.092 388.432 127.423 388.122C126.754 387.807 126.225 387.353 125.836 386.76C125.452 386.167 125.262 385.442 125.267 384.584C125.27 383.846 125.415 383.238 125.701 382.762C125.988 382.286 126.373 381.91 126.857 381.634C127.342 381.358 127.882 381.15 128.48 381.01C129.077 380.871 129.685 380.766 130.305 380.695C131.09 380.607 131.726 380.536 132.215 380.482C132.704 380.421 133.06 380.323 133.282 380.188C133.504 380.053 133.616 379.832 133.618 379.525L133.618 379.465C133.621 378.721 133.414 378.143 132.995 377.732C132.583 377.321 131.964 377.114 131.14 377.11C130.282 377.106 129.605 377.294 129.109 377.672C128.619 378.045 128.279 378.461 128.089 378.921L125.697 378.364C125.985 377.57 126.403 376.93 126.95 376.444C127.504 375.952 128.139 375.597 128.856 375.378C129.573 375.154 130.326 375.044 131.116 375.048C131.639 375.05 132.193 375.115 132.777 375.243C133.368 375.365 133.918 375.589 134.427 375.915C134.943 376.241 135.364 376.706 135.691 377.31C136.017 377.908 136.178 378.684 136.174 379.638L136.132 388.332L133.644 388.32L133.652 386.531L133.55 386.53C133.384 386.859 133.135 387.182 132.804 387.498C132.473 387.815 132.048 388.077 131.53 388.285C131.012 388.493 130.392 388.596 129.671 388.592ZM130.235 386.55C130.939 386.553 131.542 386.416 132.043 386.14C132.55 385.864 132.936 385.502 133.199 385.054C133.468 384.601 133.604 384.116 133.607 383.599L133.615 381.911C133.523 382.002 133.347 382.086 133.085 382.164C132.829 382.237 132.536 382.301 132.206 382.357C131.876 382.406 131.555 382.453 131.243 382.497C130.93 382.536 130.668 382.568 130.458 382.596C129.963 382.656 129.511 382.759 129.101 382.905C128.697 383.051 128.372 383.263 128.127 383.54C127.887 383.812 127.766 384.175 127.764 384.629C127.761 385.26 127.991 385.738 128.456 386.064C128.92 386.385 129.513 386.546 130.235 386.55ZM145.819 375.284L145.809 377.329L138.412 377.296L138.421 375.251L145.819 375.284ZM140.387 388.35L140.457 373.743C140.461 372.925 140.643 372.246 141.004 371.708C141.364 371.164 141.841 370.76 142.433 370.496C143.025 370.226 143.668 370.092 144.361 370.095C144.872 370.098 145.31 370.142 145.673 370.229C146.036 370.31 146.306 370.385 146.481 370.454L145.875 372.514C145.756 372.479 145.603 372.439 145.415 372.393C145.228 372.341 145.001 372.314 144.734 372.313C144.115 372.31 143.671 372.462 143.402 372.767C143.139 373.073 143.006 373.515 143.004 374.095L142.936 388.362L140.387 388.35ZM154.559 375.323L154.549 377.368L147.399 377.336L147.409 375.291L154.559 375.323ZM149.341 372.163L151.889 372.174L151.83 384.558C151.828 385.052 151.9 385.425 152.046 385.675C152.193 385.92 152.383 386.089 152.615 386.181C152.853 386.267 153.112 386.311 153.39 386.312C153.595 386.313 153.774 386.299 153.927 386.272C154.081 386.244 154.2 386.222 154.285 386.205L154.736 388.312C154.588 388.368 154.377 388.424 154.104 388.48C153.831 388.541 153.49 388.574 153.081 388.578C152.41 388.586 151.786 388.464 151.208 388.211C150.629 387.959 150.162 387.57 149.807 387.046C149.451 386.522 149.276 385.865 149.279 385.075L149.341 372.163ZM167.289 388.47L162.532 370.995L165.301 371.007L168.637 384.539L168.799 384.54L172.401 371.039L175.145 371.051L178.617 384.592L178.779 384.593L182.236 371.082L185.014 371.095L180.081 388.528L177.431 388.516L173.82 375.426L173.684 375.425L169.948 388.482L167.289 388.47ZM189.713 380.798L189.676 388.57L187.128 388.559L187.211 371.105L189.725 371.116L189.694 377.61L189.856 377.611C190.166 376.908 190.638 376.35 191.27 375.938C191.903 375.526 192.728 375.322 193.745 375.327C194.643 375.331 195.426 375.519 196.094 375.891C196.769 376.264 197.289 376.817 197.655 377.552C198.026 378.281 198.209 379.191 198.204 380.282L198.164 388.608L195.616 388.597L195.654 380.577C195.659 379.617 195.415 378.871 194.924 378.341C194.432 377.804 193.746 377.534 192.865 377.53C192.263 377.528 191.722 377.653 191.244 377.907C190.771 378.16 190.397 378.534 190.122 379.027C189.853 379.514 189.716 380.104 189.713 380.798ZM201.565 388.623L201.627 375.533L204.176 375.544L204.113 388.635L201.565 388.623ZM202.924 373.518C202.481 373.516 202.101 373.367 201.784 373.07C201.473 372.768 201.319 372.409 201.32 371.994C201.323 371.574 201.48 371.217 201.794 370.922C202.114 370.623 202.495 370.474 202.939 370.476C203.382 370.478 203.759 370.63 204.07 370.933C204.387 371.229 204.544 371.588 204.542 372.009C204.54 372.423 204.379 372.781 204.06 373.08C203.746 373.374 203.367 373.52 202.924 373.518ZM213.715 375.586L213.705 377.632L206.554 377.6L206.564 375.555L213.715 375.586ZM208.497 372.427L211.045 372.438L210.986 384.822C210.984 385.316 211.056 385.688 211.202 385.939C211.349 386.184 211.538 386.352 211.771 386.444C212.009 386.531 212.267 386.574 212.546 386.576C212.75 386.577 212.929 386.563 213.083 386.535C213.236 386.508 213.356 386.486 213.441 386.469L213.891 388.576C213.743 388.632 213.533 388.688 213.26 388.744C212.987 388.805 212.646 388.838 212.237 388.841C211.566 388.85 210.942 388.728 210.363 388.475C209.785 388.222 209.318 387.834 208.963 387.31C208.607 386.785 208.431 386.128 208.435 385.339L208.497 372.427ZM221.971 388.979C220.681 388.973 219.572 388.692 218.643 388.137C217.719 387.576 217.007 386.792 216.506 385.784C216.011 384.77 215.767 383.584 215.773 382.226C215.78 380.885 216.035 379.705 216.54 378.684C217.051 377.664 217.759 376.869 218.665 376.299C219.577 375.729 220.641 375.447 221.857 375.452C222.595 375.456 223.311 375.581 224.003 375.828C224.695 376.076 225.315 376.462 225.864 376.987C226.412 377.512 226.844 378.193 227.158 379.03C227.472 379.861 227.626 380.87 227.621 382.058L227.616 382.961L217.21 382.915L217.219 381.006L225.128 381.041C225.132 380.37 224.998 379.776 224.728 379.258C224.458 378.734 224.076 378.32 223.583 378.017C223.096 377.714 222.523 377.56 221.864 377.557C221.148 377.554 220.522 377.728 219.986 378.078C219.456 378.422 219.045 378.874 218.752 379.436C218.466 379.991 218.321 380.596 218.318 381.249L218.311 382.741C218.306 383.616 218.456 384.361 218.76 384.976C219.07 385.591 219.502 386.061 220.057 386.388C220.613 386.708 221.262 386.87 222.007 386.874C222.49 386.876 222.93 386.809 223.329 386.675C223.727 386.535 224.072 386.326 224.363 386.049C224.654 385.772 224.877 385.429 225.033 385.021L227.442 385.466C227.246 386.175 226.896 386.796 226.394 387.328C225.897 387.854 225.273 388.263 224.521 388.555C223.776 388.842 222.926 388.983 221.971 388.979ZM230.393 393.661L230.479 375.661L232.967 375.672L232.957 377.794L233.17 377.795C233.319 377.523 233.534 377.209 233.814 376.852C234.094 376.496 234.482 376.185 234.978 375.92C235.473 375.649 236.127 375.516 236.94 375.52C237.997 375.524 238.938 375.796 239.765 376.333C240.592 376.871 241.239 377.644 241.706 378.652C242.179 379.659 242.411 380.871 242.405 382.285C242.398 383.7 242.156 384.912 241.68 385.921C241.203 386.925 240.552 387.698 239.726 388.24C238.899 388.776 237.957 389.041 236.901 389.037C236.105 389.033 235.455 388.897 234.951 388.627C234.452 388.358 234.062 388.044 233.779 387.685C233.497 387.325 233.28 387.006 233.128 386.727L232.974 386.726L232.941 393.672L230.393 393.661ZM232.945 382.218C232.94 383.138 233.07 383.946 233.334 384.64C233.597 385.334 233.981 385.879 234.485 386.273C234.989 386.662 235.607 386.857 236.34 386.861C237.101 386.864 237.739 386.665 238.252 386.264C238.765 385.857 239.154 385.305 239.419 384.607C239.689 383.91 239.827 383.123 239.831 382.248C239.835 381.385 239.708 380.609 239.45 379.92C239.198 379.231 238.814 378.687 238.299 378.287C237.789 377.887 237.151 377.685 236.384 377.682C235.645 377.679 235.019 377.866 234.506 378.245C233.999 378.623 233.613 379.152 233.348 379.833C233.083 380.514 232.949 381.309 232.945 382.218ZM249.037 389.125C248.207 389.121 247.458 388.964 246.789 388.655C246.12 388.339 245.591 387.885 245.202 387.292C244.818 386.7 244.628 385.974 244.633 385.116C244.636 384.378 244.781 383.771 245.067 383.295C245.354 382.819 245.739 382.442 246.223 382.166C246.708 381.89 247.248 381.682 247.846 381.543C248.443 381.403 249.051 381.298 249.671 381.227C250.456 381.14 251.092 381.069 251.581 381.014C252.07 380.954 252.426 380.856 252.648 380.72C252.87 380.585 252.982 380.364 252.984 380.057L252.984 379.997C252.987 379.253 252.78 378.675 252.361 378.265C251.949 377.854 251.33 377.646 250.506 377.643C249.648 377.639 248.971 377.826 248.475 378.205C247.985 378.577 247.645 378.993 247.455 379.453L245.063 378.897C245.351 378.103 245.769 377.462 246.316 376.976C246.87 376.484 247.505 376.129 248.222 375.911C248.939 375.687 249.692 375.576 250.482 375.58C251.005 375.582 251.559 375.647 252.143 375.775C252.734 375.897 253.284 376.121 253.793 376.447C254.309 376.773 254.73 377.238 255.057 377.842C255.383 378.44 255.544 379.216 255.54 380.171L255.498 388.864L253.01 388.853L253.018 387.063L252.916 387.063C252.75 387.391 252.501 387.714 252.17 388.031C251.839 388.348 251.414 388.61 250.896 388.818C250.378 389.026 249.758 389.128 249.037 389.125ZM249.601 387.082C250.305 387.085 250.908 386.948 251.409 386.672C251.916 386.396 252.302 386.034 252.565 385.587C252.834 385.133 252.97 384.648 252.973 384.131L252.981 382.443C252.889 382.534 252.713 382.618 252.451 382.697C252.195 382.769 251.902 382.834 251.572 382.889C251.242 382.939 250.921 382.985 250.609 383.029C250.296 383.068 250.034 383.101 249.824 383.128C249.329 383.189 248.877 383.292 248.467 383.438C248.063 383.583 247.738 383.795 247.493 384.072C247.253 384.344 247.132 384.707 247.13 385.162C247.127 385.792 247.357 386.271 247.822 386.597C248.286 386.917 248.879 387.079 249.601 387.082ZM258.869 393.788L258.955 375.788L261.444 375.799L261.433 377.921L261.647 377.922C261.796 377.65 262.01 377.336 262.29 376.979C262.57 376.623 262.958 376.312 263.454 376.047C263.949 375.776 264.603 375.643 265.416 375.647C266.473 375.651 267.415 375.923 268.242 376.46C269.069 376.998 269.716 377.771 270.182 378.779C270.655 379.786 270.888 380.998 270.881 382.412C270.874 383.827 270.633 385.039 270.156 386.048C269.68 387.052 269.028 387.825 268.202 388.366C267.375 388.903 266.434 389.168 265.377 389.164C264.582 389.16 263.932 389.024 263.427 388.754C262.928 388.485 262.538 388.171 262.256 387.812C261.973 387.452 261.756 387.133 261.604 386.854L261.45 386.853L261.417 393.799L258.869 393.788ZM261.421 382.345C261.416 383.265 261.546 384.073 261.81 384.767C262.074 385.461 262.457 386.006 262.961 386.4C263.465 386.789 264.083 386.984 264.816 386.988C265.578 386.991 266.215 386.792 266.728 386.391C267.242 385.984 267.631 385.432 267.895 384.734C268.166 384.037 268.303 383.25 268.307 382.375C268.311 381.512 268.184 380.736 267.926 380.047C267.674 379.358 267.29 378.814 266.775 378.414C266.265 378.014 265.627 377.812 264.86 377.809C264.122 377.806 263.496 377.993 262.982 378.372C262.475 378.75 262.089 379.279 261.824 379.96C261.56 380.641 261.425 381.436 261.421 382.345ZM279.346 389.234C278.056 389.229 276.946 388.948 276.017 388.393C275.094 387.832 274.381 387.047 273.881 386.04C273.385 385.026 273.141 383.84 273.148 382.482C273.154 381.141 273.41 379.961 273.915 378.94C274.425 377.92 275.133 377.125 276.04 376.555C276.951 375.985 278.015 375.703 279.231 375.708C279.97 375.711 280.685 375.837 281.377 376.084C282.069 376.332 282.689 376.718 283.238 377.243C283.787 377.768 284.218 378.449 284.532 379.286C284.847 380.117 285.001 381.126 284.995 382.313L284.991 383.217L274.585 383.17L274.594 381.261L282.503 381.297C282.506 380.626 282.372 380.032 282.102 379.514C281.832 378.99 281.45 378.576 280.958 378.273C280.47 377.969 279.897 377.816 279.238 377.813C278.522 377.81 277.896 377.983 277.361 378.333C276.831 378.678 276.419 379.13 276.127 379.692C275.84 380.247 275.695 380.852 275.692 381.505L275.685 382.996C275.681 383.871 275.831 384.616 276.135 385.231C276.444 385.846 276.876 386.317 277.432 386.643C277.987 386.964 278.637 387.126 279.381 387.129C279.864 387.132 280.305 387.065 280.703 386.931C281.102 386.79 281.446 386.582 281.737 386.305C282.028 386.028 282.252 385.685 282.407 385.276L284.817 385.722C284.62 386.431 284.271 387.052 283.768 387.584C283.271 388.11 282.647 388.519 281.896 388.811C281.15 389.098 280.3 389.239 279.346 389.234ZM287.791 389.008L287.853 375.917L290.316 375.928L290.306 378.008L290.443 378.008C290.685 377.305 291.108 376.753 291.712 376.352C292.322 375.946 293.01 375.744 293.777 375.747C293.936 375.748 294.124 375.755 294.34 375.767C294.561 375.779 294.735 375.794 294.859 375.812L294.848 378.249C294.746 378.221 294.564 378.189 294.303 378.153C294.042 378.112 293.78 378.091 293.519 378.09C292.917 378.087 292.379 378.213 291.906 378.466C291.439 378.714 291.068 379.062 290.793 379.51C290.519 379.952 290.38 380.457 290.377 381.025L290.339 389.019L287.791 389.008ZM79.619 413.875C78.9315 413.872 78.3044 413.702 77.7379 413.364C77.1713 413.021 76.7189 412.564 76.3808 411.994C76.0482 411.425 75.8836 410.796 75.8869 410.109C75.8902 409.415 76.0608 408.788 76.3988 408.227C76.7424 407.661 77.1991 407.211 77.7689 406.878C78.3387 406.54 78.9673 406.372 79.6548 406.375C80.348 406.378 80.975 406.552 81.5359 406.895C82.1024 407.233 82.552 407.687 82.8845 408.256C83.2227 408.82 83.3902 409.449 83.3868 410.142C83.3836 410.829 83.2101 411.457 82.8665 412.023C82.5285 412.59 82.0747 413.042 81.5049 413.381C80.9408 413.713 80.3121 413.878 79.619 413.875ZM113.686 399.777L113.603 417.231L111.182 417.221L102.371 404.38L102.209 404.379L102.148 417.18L99.5147 417.168L99.5981 399.714L102.036 399.725L110.855 412.583L111.017 412.583L111.078 399.765L113.686 399.777ZM117.444 417.248L117.528 399.794L128.351 399.842L128.341 402.109L120.15 402.073L120.125 407.391L127.54 407.424L127.529 409.683L120.114 409.649L120.078 417.26L117.444 417.248ZM130.718 402.12L130.729 399.853L144.238 399.913L144.227 402.18L138.781 402.156L138.708 417.343L136.083 417.332L136.156 402.144L130.718 402.12ZM153.491 417.409L153.574 399.955L156.208 399.967L156.135 415.154L164.044 415.189L164.033 417.456L153.491 417.409ZM170.641 417.775C169.812 417.772 169.062 417.615 168.393 417.305C167.724 416.99 167.195 416.536 166.806 415.943C166.423 415.35 166.233 414.625 166.237 413.767C166.24 413.029 166.385 412.421 166.672 411.945C166.958 411.469 167.343 411.093 167.828 410.817C168.312 410.541 168.853 410.333 169.45 410.193C170.047 410.054 170.656 409.949 171.275 409.878C172.06 409.79 172.697 409.719 173.186 409.665C173.675 409.604 174.03 409.506 174.252 409.371C174.475 409.236 174.586 409.015 174.588 408.708L174.588 408.648C174.592 407.904 174.384 407.326 173.966 406.915C173.553 406.504 172.935 406.297 172.111 406.293C171.253 406.289 170.576 406.477 170.08 406.855C169.589 407.228 169.249 407.644 169.059 408.104L166.667 407.547C166.955 406.753 167.373 406.113 167.921 405.627C168.474 405.135 169.109 404.78 169.826 404.561C170.543 404.337 171.297 404.227 172.087 404.231C172.609 404.233 173.163 404.298 173.748 404.426C174.338 404.548 174.888 404.772 175.398 405.098C175.913 405.424 176.334 405.889 176.661 406.493C176.988 407.091 177.149 407.867 177.144 408.821L177.103 417.515L174.614 417.503L174.623 415.714L174.52 415.713C174.354 416.042 174.105 416.365 173.774 416.681C173.443 416.998 173.019 417.26 172.501 417.468C171.983 417.676 171.363 417.779 170.641 417.775ZM171.205 415.733C171.909 415.736 172.512 415.599 173.014 415.323C173.521 415.047 173.906 414.685 174.169 414.237C174.439 413.784 174.574 413.299 174.577 412.782L174.585 411.094C174.494 411.185 174.317 411.269 174.055 411.347C173.799 411.42 173.506 411.484 173.177 411.54C172.847 411.589 172.526 411.636 172.213 411.68C171.9 411.719 171.639 411.751 171.428 411.779C170.934 411.839 170.482 411.942 170.072 412.088C169.668 412.234 169.343 412.446 169.097 412.723C168.857 412.995 168.736 413.358 168.734 413.812C168.731 414.443 168.962 414.921 169.426 415.247C169.89 415.568 170.483 415.729 171.205 415.733ZM188.815 412.138L188.852 404.476L191.409 404.487L191.346 417.578L188.84 417.567L188.851 415.3L188.715 415.299C188.41 415.997 187.925 416.577 187.258 417.04C186.596 417.497 185.774 417.724 184.791 417.719C183.951 417.716 183.207 417.528 182.561 417.155C181.921 416.777 181.418 416.221 181.052 415.487C180.692 414.752 180.514 413.845 180.52 412.765L180.559 404.439L183.108 404.45L183.069 412.47C183.065 413.362 183.309 414.073 183.801 414.604C184.292 415.135 184.933 415.402 185.723 415.405C186.2 415.407 186.675 415.29 187.148 415.054C187.626 414.817 188.023 414.458 188.338 413.977C188.658 413.495 188.817 412.882 188.815 412.138ZM197.356 409.832L197.318 417.605L194.77 417.593L194.833 404.503L197.279 404.513L197.268 406.644L197.43 406.645C197.735 405.953 198.209 405.398 198.853 404.981C199.503 404.563 200.319 404.357 201.302 404.361C202.194 404.365 202.975 404.556 203.643 404.934C204.312 405.306 204.829 405.86 205.195 406.594C205.561 407.329 205.741 408.236 205.736 409.315L205.696 417.642L203.148 417.631L203.186 409.611C203.191 408.662 202.947 407.919 202.455 407.383C201.964 406.841 201.286 406.568 200.422 406.564C199.831 406.562 199.305 406.687 198.844 406.941C198.388 407.195 198.025 407.568 197.756 408.061C197.492 408.549 197.359 409.139 197.356 409.832ZM214.627 417.946C213.36 417.94 212.27 417.649 211.358 417.071C210.452 416.487 209.757 415.686 209.273 414.666C208.789 413.647 208.55 412.481 208.557 411.169C208.563 409.839 208.819 408.667 209.323 407.652C209.828 406.632 210.537 405.837 211.449 405.267C212.36 404.697 213.433 404.415 214.666 404.421C215.66 404.425 216.545 404.614 217.322 404.986C218.099 405.353 218.724 405.868 219.198 406.529C219.678 407.19 219.961 407.961 220.048 408.842L217.568 408.831C217.434 408.217 217.125 407.687 216.638 407.242C216.157 406.797 215.511 406.572 214.698 406.568C213.988 406.565 213.365 406.75 212.829 407.123C212.299 407.49 211.884 408.016 211.586 408.702C211.287 409.383 211.135 410.189 211.131 411.121C211.126 412.075 211.267 412.9 211.554 413.594C211.84 414.289 212.247 414.827 212.773 415.21C213.305 415.594 213.932 415.787 214.654 415.79C215.137 415.792 215.575 415.706 215.968 415.532C216.366 415.352 216.7 415.094 216.969 414.76C217.243 414.426 217.435 414.024 217.545 413.553L220.025 413.564C219.93 414.41 219.651 415.164 219.188 415.827C218.725 416.49 218.106 417.01 217.331 417.387C216.562 417.764 215.661 417.951 214.627 417.946ZM225.316 409.957L225.279 417.729L222.731 417.718L222.814 400.264L225.328 400.275L225.297 406.769L225.459 406.77C225.769 406.067 226.241 405.509 226.874 405.097C227.506 404.685 228.331 404.481 229.348 404.486C230.246 404.49 231.029 404.678 231.698 405.05C232.372 405.423 232.892 405.976 233.258 406.711C233.629 407.44 233.813 408.35 233.807 409.441L233.768 417.767L231.219 417.756L231.258 409.736C231.262 408.776 231.019 408.03 230.527 407.5C230.035 406.964 229.349 406.693 228.468 406.689C227.866 406.687 227.326 406.812 226.847 407.066C226.374 407.319 226 407.693 225.725 408.186C225.456 408.673 225.32 409.264 225.316 409.957ZM249.033 418.099C247.805 418.094 246.736 417.808 245.824 417.241C244.911 416.675 244.205 415.885 243.704 414.871C243.203 413.858 242.956 412.675 242.963 411.322C242.969 409.964 243.228 408.778 243.738 407.763C244.249 406.748 244.963 405.962 245.88 405.403C246.798 404.845 247.87 404.569 249.097 404.574C250.324 404.58 251.394 404.866 252.306 405.432C253.218 405.999 253.925 406.792 254.425 407.811C254.926 408.83 255.173 410.019 255.167 411.377C255.161 412.729 254.902 413.91 254.392 414.919C253.881 415.928 253.167 416.712 252.25 417.27C251.332 417.828 250.26 418.105 249.033 418.099ZM249.051 415.96C249.847 415.964 250.507 415.757 251.032 415.338C251.556 414.92 251.945 414.362 252.199 413.665C252.458 412.967 252.589 412.198 252.593 411.357C252.597 410.522 252.473 409.754 252.221 409.054C251.974 408.348 251.59 407.781 251.07 407.353C250.549 406.924 249.891 406.708 249.095 406.705C248.294 406.701 247.629 406.911 247.098 407.335C246.573 407.759 246.181 408.322 245.922 409.026C245.669 409.724 245.54 410.49 245.536 411.325C245.532 412.166 245.654 412.937 245.9 413.637C246.153 414.337 246.539 414.898 247.06 415.321C247.586 415.744 248.25 415.957 249.051 415.96ZM260.566 410.114L260.529 417.887L257.98 417.875L258.043 404.784L260.489 404.795L260.479 406.926L260.641 406.927C260.945 406.235 261.419 405.68 262.063 405.263C262.713 404.845 263.53 404.638 264.512 404.643C265.405 404.647 266.185 404.838 266.854 405.216C267.522 405.588 268.039 406.142 268.405 406.876C268.771 407.611 268.951 408.518 268.946 409.597L268.906 417.924L266.358 417.913L266.397 409.893C266.401 408.944 266.157 408.201 265.666 407.665C265.174 407.123 264.496 406.85 263.633 406.846C263.042 406.844 262.516 406.969 262.054 407.223C261.598 407.476 261.236 407.85 260.966 408.343C260.703 408.83 260.569 409.421 260.566 410.114ZM278.092 402.777L278.103 400.51L291.611 400.57L291.6 402.837L286.154 402.813L286.082 418.001L283.457 417.989L283.529 402.801L278.092 402.777ZM298.05 418.318C296.761 418.312 295.651 418.032 294.722 417.477C293.799 416.916 293.086 416.131 292.586 415.123C292.09 414.11 291.846 412.924 291.853 411.566C291.859 410.225 292.115 409.044 292.62 408.024C293.13 407.003 293.838 406.208 294.745 405.638C295.656 405.069 296.72 404.786 297.936 404.792C298.675 404.795 299.39 404.921 300.082 405.168C300.774 405.415 301.394 405.802 301.943 406.327C302.492 406.852 302.923 407.533 303.237 408.37C303.552 409.2 303.706 410.21 303.7 411.397L303.696 412.301L293.29 412.254L293.299 410.345L301.208 410.38C301.211 409.71 301.077 409.116 300.807 408.597C300.537 408.073 300.155 407.66 299.663 407.356C299.175 407.053 298.602 406.9 297.943 406.897C297.227 406.894 296.601 407.067 296.066 407.417C295.536 407.761 295.124 408.214 294.832 408.775C294.545 409.331 294.4 409.935 294.397 410.589L294.39 412.08C294.386 412.955 294.536 413.7 294.839 414.315C295.149 414.93 295.581 415.401 296.137 415.727C296.692 416.048 297.342 416.21 298.086 416.213C298.569 416.215 299.01 416.149 299.408 416.014C299.807 415.874 300.151 415.665 300.442 415.388C300.733 415.111 300.957 414.769 301.112 414.36L303.522 414.806C303.325 415.515 302.976 416.135 302.473 416.667C301.976 417.194 301.352 417.603 300.601 417.895C299.855 418.181 299.005 418.322 298.05 418.318ZM316.352 408.241L314.041 408.639C313.946 408.343 313.794 408.061 313.585 407.794C313.381 407.526 313.104 407.306 312.753 407.134C312.401 406.962 311.961 406.874 311.433 406.872C310.711 406.869 310.108 407.028 309.624 407.35C309.139 407.666 308.896 408.077 308.893 408.582C308.891 409.02 309.051 409.373 309.374 409.641C309.697 409.91 310.218 410.131 310.939 410.304L313.016 410.791C314.22 411.075 315.115 411.508 315.703 412.09C316.291 412.672 316.583 413.426 316.579 414.352C316.575 415.136 316.345 415.834 315.887 416.446C315.435 417.052 314.805 417.526 313.997 417.869C313.194 418.212 312.264 418.381 311.207 418.377C309.741 418.37 308.547 418.052 307.624 417.423C306.701 416.788 306.137 415.891 305.932 414.731L308.397 414.367C308.547 415.01 308.86 415.497 309.336 415.829C309.812 416.155 310.433 416.319 311.2 416.323C312.035 416.326 312.704 416.156 313.205 415.812C313.707 415.462 313.959 415.034 313.962 414.528C313.963 414.119 313.812 413.775 313.506 413.495C313.206 413.215 312.744 413.003 312.12 412.858L309.907 412.362C308.686 412.079 307.785 411.631 307.203 411.021C306.626 410.41 306.34 409.639 306.344 408.707C306.348 407.935 306.567 407.259 307.002 406.682C307.436 406.104 308.035 405.655 308.798 405.335C309.561 405.008 310.434 404.848 311.417 404.852C312.832 404.858 313.944 405.17 314.753 405.787C315.563 406.399 316.096 407.217 316.352 408.241ZM325.536 405.085L325.526 407.131L318.376 407.099L318.385 405.054L325.536 405.085ZM320.318 401.926L322.866 401.937L322.807 414.32C322.805 414.815 322.877 415.187 323.023 415.438C323.17 415.683 323.359 415.851 323.592 415.943C323.83 416.03 324.089 416.073 324.367 416.075C324.571 416.076 324.75 416.062 324.904 416.034C325.058 416.007 325.177 415.984 325.262 415.968L325.712 418.075C325.564 418.131 325.354 418.187 325.081 418.243C324.808 418.304 324.467 418.336 324.058 418.34C323.387 418.349 322.763 418.227 322.185 417.974C321.606 417.721 321.139 417.333 320.784 416.809C320.428 416.284 320.253 415.627 320.256 414.838L320.318 401.926ZM330.878 410.427L330.84 418.2L328.292 418.189L328.355 405.098L330.801 405.109L330.791 407.24L330.953 407.24C331.257 406.548 331.731 405.994 332.375 405.576C333.025 405.159 333.841 404.952 334.824 404.956C335.716 404.96 336.497 405.151 337.165 405.529C337.834 405.902 338.351 406.455 338.717 407.19C339.083 407.924 339.263 408.831 339.258 409.911L339.218 418.237L336.67 418.226L336.708 410.206C336.713 409.257 336.469 408.515 335.977 407.979C335.486 407.437 334.808 407.164 333.944 407.16C333.354 407.157 332.827 407.283 332.366 407.536C331.91 407.79 331.548 408.163 331.278 408.657C331.014 409.144 330.881 409.734 330.878 410.427ZM348.277 418.542C346.987 418.536 345.877 418.256 344.948 417.701C344.025 417.14 343.313 416.355 342.812 415.347C342.316 414.334 342.072 413.148 342.079 411.79C342.085 410.449 342.341 409.268 342.846 408.248C343.356 407.227 344.064 406.432 344.971 405.862C345.882 405.293 346.946 405.01 348.162 405.016C348.901 405.019 349.616 405.145 350.308 405.392C351 405.639 351.621 406.026 352.169 406.551C352.718 407.076 353.149 407.757 353.463 408.594C353.778 409.424 353.932 410.434 353.926 411.621L353.922 412.525L343.516 412.478L343.525 410.569L351.434 410.604C351.437 409.934 351.304 409.34 351.033 408.821C350.763 408.297 350.381 407.884 349.889 407.58C349.401 407.277 348.828 407.124 348.169 407.121C347.453 407.118 346.827 407.291 346.292 407.641C345.762 407.985 345.35 408.438 345.058 408.999C344.771 409.555 344.626 410.159 344.623 410.813L344.616 412.304C344.612 413.179 344.762 413.924 345.066 414.539C345.375 415.154 345.808 415.625 346.363 415.951C346.918 416.272 347.568 416.434 348.312 416.437C348.795 416.439 349.236 416.373 349.634 416.238C350.033 416.098 350.377 415.889 350.668 415.612C350.96 415.335 351.183 414.992 351.338 414.584L353.748 415.03C353.551 415.739 353.202 416.359 352.699 416.891C352.202 417.418 351.578 417.827 350.827 418.119C350.081 418.405 349.231 418.546 348.277 418.542ZM362.895 405.252L362.885 407.297L355.735 407.266L355.744 405.22L362.895 405.252ZM357.677 402.092L360.225 402.104L360.166 414.487C360.164 414.981 360.236 415.354 360.382 415.605C360.529 415.85 360.718 416.018 360.951 416.11C361.189 416.196 361.448 416.24 361.726 416.241C361.93 416.242 362.109 416.229 362.263 416.201C362.417 416.173 362.536 416.151 362.621 416.134L363.071 418.242C362.923 418.298 362.713 418.354 362.44 418.409C362.167 418.47 361.826 418.503 361.417 418.507C360.746 418.515 360.122 418.393 359.544 418.141C358.965 417.888 358.498 417.5 358.143 416.975C357.787 416.451 357.612 415.794 357.615 415.004L357.677 402.092ZM79.4804 442.875C78.7929 442.872 78.1658 442.701 77.5993 442.364C77.0327 442.02 76.5803 441.564 76.2422 440.994C75.9096 440.424 75.745 439.796 75.7483 439.108C75.7516 438.415 75.9222 437.788 76.2602 437.227C76.6038 436.66 77.0605 436.211 77.6303 435.878C78.2001 435.54 78.8287 435.372 79.5162 435.375C80.2094 435.378 80.8364 435.551 81.3973 435.895C81.9638 436.232 82.4134 436.686 82.7459 437.256C83.0841 437.82 83.2516 438.448 83.2482 439.142C83.245 439.829 83.0715 440.456 82.7279 441.023C82.3899 441.59 81.9361 442.042 81.3663 442.38C80.8022 442.713 80.1735 442.878 79.4804 442.875ZM100.85 446.175L98.0551 446.162L104.42 428.736L107.462 428.75L113.66 446.232L110.865 446.219L105.998 431.913L105.862 431.913L100.85 446.175ZM101.352 439.342L110.42 439.382L110.409 441.598L101.341 441.558L101.352 439.342ZM118.608 428.799L118.524 446.254L115.976 446.242L116.059 428.788L118.608 428.799ZM121.929 451.178L122.015 433.178L124.504 433.189L124.494 435.311L124.707 435.312C124.856 435.04 125.07 434.726 125.35 434.369C125.63 434.012 126.018 433.702 126.514 433.437C127.01 433.166 127.664 433.033 128.476 433.036C129.533 433.041 130.475 433.312 131.302 433.85C132.129 434.388 132.776 435.161 133.242 436.169C133.715 437.176 133.948 438.388 133.941 439.802C133.934 441.217 133.693 442.429 133.216 443.438C132.74 444.442 132.088 445.215 131.262 445.756C130.435 446.292 129.494 446.558 128.437 446.553C127.642 446.55 126.992 446.413 126.487 446.144C125.989 445.875 125.598 445.561 125.316 445.201C125.033 444.842 124.816 444.523 124.664 444.244L124.511 444.243L124.477 451.189L121.929 451.178ZM124.481 439.735C124.477 440.655 124.606 441.462 124.87 442.157C125.134 442.851 125.517 443.396 126.021 443.79C126.525 444.178 127.143 444.374 127.876 444.378C128.638 444.381 129.275 444.182 129.788 443.781C130.302 443.374 130.691 442.822 130.955 442.124C131.226 441.427 131.363 440.64 131.367 439.765C131.371 438.902 131.244 438.126 130.986 437.437C130.734 436.748 130.35 436.204 129.835 435.804C129.326 435.404 128.687 435.202 127.92 435.199C127.182 435.195 126.556 435.383 126.043 435.761C125.535 436.14 125.149 436.669 124.884 437.35C124.62 438.031 124.485 438.826 124.481 439.735ZM139.35 438.574L139.313 446.346L136.765 446.335L136.848 428.881L139.363 428.892L139.331 435.386L139.493 435.387C139.804 434.684 140.275 434.126 140.908 433.714C141.54 433.302 142.365 433.098 143.382 433.103C144.28 433.107 145.063 433.295 145.732 433.667C146.406 434.04 146.926 434.593 147.292 435.328C147.664 436.057 147.847 436.967 147.842 438.058L147.802 446.384L145.253 446.373L145.292 438.353C145.296 437.393 145.053 436.647 144.561 436.117C144.069 435.58 143.383 435.31 142.502 435.306C141.9 435.304 141.36 435.429 140.881 435.683C140.408 435.936 140.034 436.31 139.759 436.803C139.49 437.29 139.354 437.88 139.35 438.574ZM155.01 446.706C154.181 446.702 153.432 446.546 152.763 446.236C152.094 445.92 151.565 445.466 151.175 444.874C150.792 444.281 150.602 443.556 150.606 442.698C150.61 441.959 150.755 441.352 151.041 440.876C151.328 440.4 151.713 440.024 152.197 439.747C152.681 439.471 153.222 439.263 153.819 439.124C154.417 438.985 155.025 438.879 155.645 438.808C156.429 438.721 157.066 438.65 157.555 438.595C158.044 438.535 158.399 438.437 158.622 438.302C158.844 438.166 158.956 437.945 158.957 437.638L158.958 437.579C158.961 436.834 158.754 436.257 158.335 435.846C157.922 435.435 157.304 435.228 156.48 435.224C155.622 435.22 154.945 435.407 154.449 435.786C153.959 436.159 153.619 436.575 153.429 437.034L151.037 436.478C151.324 435.684 151.742 435.044 152.29 434.557C152.844 434.066 153.479 433.71 154.196 433.492C154.913 433.268 155.666 433.158 156.456 433.161C156.979 433.164 157.532 433.229 158.117 433.356C158.707 433.478 159.257 433.702 159.767 434.028C160.283 434.354 160.704 434.819 161.03 435.423C161.357 436.021 161.518 436.797 161.514 437.752L161.472 446.445L158.983 446.434L158.992 444.644L158.89 444.644C158.723 444.973 158.475 445.295 158.144 445.612C157.813 445.929 157.388 446.191 156.87 446.399C156.352 446.607 155.732 446.709 155.01 446.706ZM155.574 444.663C156.279 444.666 156.882 444.53 157.383 444.254C157.89 443.977 158.275 443.615 158.539 443.168C158.808 442.714 158.944 442.229 158.946 441.712L158.954 440.025C158.863 440.115 158.687 440.2 158.425 440.278C158.169 440.351 157.876 440.415 157.546 440.47C157.216 440.52 156.895 440.567 156.582 440.611C156.27 440.649 156.008 440.682 155.798 440.709C155.303 440.77 154.851 440.873 154.441 441.019C154.037 441.165 153.712 441.376 153.466 441.654C153.227 441.925 153.105 442.288 153.103 442.743C153.1 443.374 153.331 443.852 153.795 444.178C154.26 444.498 154.853 444.66 155.574 444.663ZM185.594 429.098L185.51 446.552L183.09 446.541L174.279 433.701L174.117 433.7L174.056 446.501L171.422 446.489L171.506 429.035L173.943 429.046L182.762 441.904L182.924 441.904L182.986 429.086L185.594 429.098ZM189.352 446.569L189.435 429.115L200.259 429.163L200.248 431.43L192.058 431.394L192.032 436.712L199.447 436.745L199.436 439.004L192.022 438.97L191.985 446.581L189.352 446.569ZM202.626 431.441L202.637 429.174L216.145 429.234L216.134 431.501L210.688 431.477L210.616 446.664L207.991 446.653L208.063 431.465L202.626 431.441ZM225.482 429.276L228.678 429.29L234.17 442.883L234.374 442.884L239.996 429.341L243.192 429.355L243.108 446.809L240.603 446.798L240.663 434.167L240.501 434.167L235.293 446.749L233.214 446.739L228.126 434.103L227.964 434.102L227.904 446.741L225.398 446.73L225.482 429.276ZM250.541 447.132C249.711 447.128 248.962 446.972 248.293 446.662C247.624 446.346 247.095 445.892 246.706 445.3C246.322 444.707 246.133 443.982 246.137 443.124C246.14 442.385 246.285 441.778 246.571 441.302C246.858 440.826 247.243 440.45 247.727 440.173C248.212 439.897 248.752 439.689 249.35 439.55C249.947 439.411 250.555 439.305 251.175 439.234C251.96 439.147 252.596 439.076 253.085 439.021C253.574 438.961 253.93 438.863 254.152 438.728C254.374 438.592 254.486 438.371 254.488 438.064L254.488 438.005C254.491 437.26 254.284 436.683 253.865 436.272C253.453 435.861 252.834 435.654 252.01 435.65C251.153 435.646 250.475 435.833 249.979 436.212C249.489 436.585 249.149 437.001 248.959 437.46L246.567 436.904C246.855 436.11 247.273 435.47 247.82 434.983C248.374 434.492 249.009 434.136 249.726 433.918C250.443 433.694 251.196 433.584 251.986 433.587C252.509 433.59 253.063 433.655 253.647 433.782C254.238 433.904 254.788 434.128 255.297 434.454C255.813 434.78 256.234 435.245 256.561 435.849C256.887 436.447 257.048 437.223 257.044 438.178L257.002 446.871L254.514 446.86L254.522 445.07L254.42 445.07C254.254 445.399 254.005 445.721 253.674 446.038C253.343 446.355 252.918 446.617 252.4 446.825C251.882 447.033 251.262 447.135 250.541 447.132ZM251.105 445.089C251.809 445.092 252.412 444.956 252.913 444.68C253.42 444.403 253.806 444.041 254.069 443.594C254.338 443.14 254.474 442.655 254.477 442.138L254.485 440.451C254.393 440.541 254.217 440.626 253.955 440.704C253.699 440.777 253.406 440.841 253.076 440.896C252.747 440.946 252.425 440.993 252.113 441.037C251.8 441.075 251.538 441.108 251.328 441.136C250.833 441.196 250.381 441.299 249.971 441.445C249.567 441.591 249.242 441.802 248.997 442.08C248.757 442.351 248.636 442.714 248.634 443.169C248.631 443.8 248.861 444.278 249.326 444.604C249.79 444.924 250.383 445.086 251.105 445.089ZM260.396 446.886L260.459 433.795L262.922 433.806L262.912 435.886L263.049 435.887C263.291 435.183 263.714 434.631 264.318 434.23C264.928 433.824 265.616 433.622 266.383 433.626C266.542 433.627 266.73 433.633 266.946 433.645C267.167 433.658 267.34 433.673 267.465 433.69L267.454 436.128C267.352 436.099 267.17 436.067 266.909 436.032C266.647 435.991 266.386 435.97 266.125 435.969C265.523 435.966 264.985 436.091 264.512 436.345C264.045 436.593 263.674 436.941 263.399 437.388C263.124 437.83 262.986 438.335 262.983 438.903L262.945 446.898L260.396 446.886ZM271.972 442.497L271.97 439.387L272.413 439.389L277.656 433.872L280.707 433.886L274.728 440.166L274.327 440.164L271.972 442.497ZM269.607 446.927L269.691 429.473L272.239 429.484L272.156 446.939L269.607 446.927ZM277.874 446.964L273.217 440.722L274.981 438.948L281.002 446.978L277.874 446.964ZM288.068 447.274C286.778 447.268 285.669 446.988 284.74 446.432C283.816 445.871 283.104 445.087 282.603 444.079C282.108 443.065 281.864 441.88 281.87 440.522C281.877 439.181 282.132 438 282.637 436.98C283.148 435.959 283.856 435.164 284.762 434.594C285.674 434.024 286.738 433.742 287.954 433.748C288.693 433.751 289.408 433.876 290.1 434.124C290.792 434.371 291.412 434.757 291.961 435.283C292.509 435.808 292.941 436.489 293.255 437.325C293.569 438.156 293.724 439.165 293.718 440.353L293.714 441.256L283.307 441.21L283.317 439.301L291.226 439.336C291.229 438.666 291.095 438.071 290.825 437.553C290.555 437.029 290.173 436.616 289.68 436.312C289.193 436.009 288.62 435.856 287.961 435.853C287.245 435.85 286.619 436.023 286.083 436.373C285.553 436.717 285.142 437.17 284.85 437.731C284.563 438.287 284.418 438.891 284.415 439.544L284.408 441.036C284.403 441.911 284.553 442.656 284.857 443.271C285.167 443.886 285.599 444.357 286.154 444.683C286.71 445.004 287.36 445.166 288.104 445.169C288.587 445.171 289.027 445.105 289.426 444.97C289.824 444.83 290.169 444.621 290.46 444.344C290.751 444.067 290.974 443.724 291.13 443.316L293.54 443.761C293.343 444.471 292.994 445.091 292.491 445.623C291.994 446.149 291.37 446.558 290.619 446.851C289.873 447.137 289.023 447.278 288.068 447.274ZM302.687 433.984L302.677 436.029L295.526 435.997L295.536 433.952L302.687 433.984ZM297.469 430.824L300.017 430.836L299.958 443.219C299.955 443.713 300.028 444.086 300.174 444.336C300.321 444.581 300.51 444.75 300.743 444.842C300.981 444.928 301.239 444.972 301.518 444.973C301.722 444.974 301.901 444.961 302.055 444.933C302.208 444.905 302.328 444.883 302.413 444.866L302.863 446.973C302.715 447.03 302.505 447.085 302.232 447.141C301.959 447.202 301.618 447.235 301.208 447.239C300.538 447.247 299.914 447.125 299.335 446.872C298.757 446.62 298.29 446.231 297.935 445.707C297.579 445.183 297.403 444.526 297.407 443.736L297.469 430.824ZM305.419 451.996L305.505 433.996L307.994 434.007L307.984 436.13L308.197 436.131C308.346 435.858 308.561 435.544 308.841 435.187C309.121 434.831 309.509 434.52 310.004 434.255C310.5 433.985 311.154 433.851 311.966 433.855C313.023 433.859 313.965 434.131 314.792 434.668C315.619 435.206 316.266 435.979 316.733 436.987C317.205 437.995 317.438 439.206 317.431 440.621C317.425 442.035 317.183 443.247 316.707 444.257C316.23 445.26 315.579 446.033 314.752 446.575C313.926 447.111 312.984 447.376 311.927 447.372C311.132 447.368 310.482 447.232 309.978 446.962C309.479 446.693 309.088 446.379 308.806 446.02C308.524 445.661 308.306 445.341 308.154 445.062L308.001 445.062L307.968 452.008L305.419 451.996ZM307.971 440.553C307.967 441.473 308.097 442.281 308.36 442.975C308.624 443.669 309.008 444.214 309.512 444.608C310.015 444.997 310.634 445.193 311.367 445.196C312.128 445.199 312.765 445 313.279 444.599C313.792 444.193 314.181 443.64 314.446 442.943C314.716 442.245 314.853 441.459 314.858 440.584C314.862 439.72 314.735 438.944 314.477 438.255C314.224 437.567 313.841 437.022 313.325 436.622C312.816 436.222 312.178 436.02 311.411 436.017C310.672 436.014 310.046 436.201 309.533 436.58C309.025 436.958 308.639 437.488 308.375 438.168C308.11 438.849 307.976 439.644 307.971 440.553ZM322.887 429.71L322.804 447.165L320.255 447.153L320.339 429.699L322.887 429.71ZM330.04 447.487C329.21 447.483 328.461 447.326 327.792 447.016C327.123 446.701 326.594 446.247 326.205 445.654C325.821 445.062 325.632 444.336 325.636 443.478C325.639 442.74 325.784 442.132 326.071 441.656C326.357 441.18 326.742 440.804 327.227 440.528C327.711 440.252 328.252 440.044 328.849 439.905C329.446 439.765 330.055 439.66 330.674 439.589C331.459 439.501 332.096 439.43 332.584 439.376C333.073 439.315 333.429 439.218 333.651 439.082C333.873 438.947 333.985 438.726 333.987 438.419L333.987 438.359C333.991 437.615 333.783 437.037 333.365 436.626C332.952 436.215 332.334 436.008 331.51 436.004C330.652 436.001 329.975 436.188 329.479 436.566C328.988 436.939 328.648 437.355 328.458 437.815L326.066 437.259C326.354 436.464 326.772 435.824 327.32 435.338C327.873 434.846 328.508 434.491 329.225 434.273C329.942 434.049 330.696 433.938 331.485 433.942C332.008 433.944 332.562 434.009 333.146 434.137C333.737 434.259 334.287 434.483 334.797 434.809C335.312 435.135 335.733 435.6 336.06 436.204C336.387 436.802 336.548 437.578 336.543 438.533L336.502 447.226L334.013 447.215L334.021 445.425L333.919 445.424C333.753 445.753 333.504 446.076 333.173 446.393C332.842 446.709 332.417 446.972 331.899 447.18C331.381 447.387 330.762 447.49 330.04 447.487ZM330.604 445.444C331.308 445.447 331.911 445.31 332.413 445.034C332.92 444.758 333.305 444.396 333.568 443.948C333.838 443.495 333.973 443.01 333.976 442.493L333.984 440.805C333.893 440.896 333.716 440.98 333.454 441.059C333.198 441.131 332.905 441.195 332.576 441.251C332.246 441.3 331.924 441.347 331.612 441.391C331.299 441.43 331.038 441.463 330.827 441.49C330.333 441.55 329.88 441.653 329.471 441.799C329.066 441.945 328.742 442.157 328.496 442.434C328.256 442.706 328.135 443.069 328.133 443.524C328.13 444.154 328.36 444.632 328.825 444.958C329.289 445.279 329.882 445.44 330.604 445.444ZM345.409 447.53C344.142 447.524 343.052 447.232 342.14 446.654C341.234 446.071 340.539 445.269 340.055 444.25C339.571 443.231 339.332 442.065 339.339 440.752C339.345 439.423 339.601 438.251 340.105 437.236C340.61 436.215 341.319 435.42 342.231 434.85C343.142 434.281 344.215 433.999 345.448 434.004C346.442 434.008 347.327 434.197 348.104 434.57C348.881 434.937 349.506 435.451 349.98 436.112C350.46 436.774 350.743 437.545 350.83 438.426L348.35 438.415C348.216 437.801 347.907 437.271 347.42 436.825C346.939 436.38 346.292 436.156 345.48 436.152C344.77 436.149 344.147 436.333 343.611 436.706C343.081 437.073 342.666 437.6 342.367 438.286C342.069 438.966 341.917 439.772 341.913 440.704C341.908 441.659 342.049 442.483 342.336 443.178C342.622 443.872 343.029 444.411 343.555 444.794C344.087 445.177 344.714 445.37 345.436 445.373C345.919 445.376 346.357 445.289 346.75 445.115C347.148 444.935 347.482 444.678 347.751 444.344C348.025 444.01 348.217 443.607 348.327 443.136L350.807 443.147C350.712 443.994 350.433 444.748 349.97 445.411C349.506 446.073 348.888 446.593 348.113 446.971C347.344 447.348 346.443 447.534 345.409 447.53ZM359.153 447.591C357.864 447.585 356.754 447.305 355.825 446.749C354.902 446.188 354.189 445.404 353.689 444.396C353.193 443.382 352.949 442.197 352.956 440.839C352.962 439.498 353.218 438.317 353.722 437.297C354.233 436.276 354.941 435.481 355.848 434.911C356.759 434.341 357.823 434.059 359.039 434.065C359.778 434.068 360.493 434.193 361.185 434.441C361.877 434.688 362.497 435.074 363.046 435.6C363.595 436.125 364.026 436.806 364.34 437.642C364.654 438.473 364.809 439.482 364.803 440.67L364.799 441.573L354.393 441.527L354.402 439.618L362.311 439.653C362.314 438.983 362.18 438.388 361.91 437.87C361.64 437.346 361.258 436.933 360.766 436.629C360.278 436.326 359.705 436.173 359.046 436.17C358.33 436.167 357.704 436.34 357.169 436.69C356.639 437.034 356.227 437.487 355.935 438.048C355.648 438.604 355.503 439.208 355.5 439.861L355.493 441.353C355.489 442.228 355.639 442.973 355.942 443.588C356.252 444.203 356.684 444.674 357.24 445C357.795 445.321 358.445 445.483 359.189 445.486C359.672 445.488 360.113 445.422 360.511 445.287C360.909 445.147 361.254 444.938 361.545 444.661C361.836 444.384 362.06 444.041 362.215 443.633L364.625 444.078C364.428 444.788 364.079 445.408 363.576 445.94C363.079 446.466 362.455 446.875 361.704 447.168C360.958 447.454 360.108 447.595 359.153 447.591ZM373.366 432.202L373.377 429.935L386.886 429.996L386.875 432.263L381.429 432.238L381.356 447.426L378.731 447.414L378.804 432.227L373.366 432.202ZM393.325 447.743C392.035 447.738 390.926 447.457 389.997 446.902C389.073 446.341 388.361 445.556 387.86 444.548C387.365 443.535 387.121 442.349 387.127 440.991C387.134 439.65 387.389 438.47 387.894 437.449C388.405 436.429 389.113 435.633 390.019 435.064C390.931 434.494 391.995 434.212 393.211 434.217C393.949 434.22 394.665 434.346 395.357 434.593C396.049 434.841 396.669 435.227 397.218 435.752C397.766 436.277 398.198 436.958 398.512 437.795C398.826 438.626 398.98 439.635 398.975 440.822L398.97 441.726L388.564 441.679L388.573 439.77L396.482 439.806C396.486 439.135 396.352 438.541 396.082 438.022C395.811 437.499 395.43 437.085 394.937 436.782C394.45 436.478 393.877 436.325 393.218 436.322C392.502 436.319 391.876 436.492 391.34 436.842C390.81 437.186 390.399 437.639 390.106 438.2C389.82 438.756 389.675 439.36 389.672 440.014L389.664 441.505C389.66 442.38 389.81 443.125 390.114 443.74C390.424 444.355 390.856 444.826 391.411 445.152C391.967 445.473 392.616 445.635 393.361 445.638C393.844 445.64 394.284 445.574 394.683 445.44C395.081 445.299 395.426 445.091 395.717 444.814C396.008 444.536 396.231 444.194 396.387 443.785L398.796 444.231C398.6 444.94 398.25 445.561 397.748 446.093C397.251 446.619 396.627 447.028 395.875 447.32C395.13 447.606 394.28 447.748 393.325 447.743ZM411.627 437.666L409.315 438.064C409.22 437.769 409.068 437.487 408.859 437.219C408.656 436.951 408.379 436.731 408.027 436.559C407.676 436.387 407.236 436.299 406.707 436.297C405.986 436.294 405.383 436.453 404.898 436.775C404.414 437.091 404.17 437.502 404.168 438.007C404.166 438.445 404.326 438.798 404.649 439.066C404.971 439.335 405.493 439.556 406.214 439.73L408.291 440.216C409.494 440.5 410.39 440.933 410.978 441.515C411.566 442.097 411.858 442.851 411.853 443.778C411.85 444.562 411.619 445.259 411.162 445.871C410.71 446.477 410.08 446.951 409.271 447.294C408.468 447.637 407.539 447.807 406.482 447.802C405.016 447.795 403.821 447.478 402.898 446.848C401.975 446.214 401.411 445.316 401.207 444.156L403.671 443.792C403.822 444.435 404.135 444.922 404.61 445.254C405.086 445.58 405.708 445.744 406.475 445.748C407.31 445.752 407.978 445.581 408.48 445.237C408.982 444.887 409.234 444.459 409.236 443.953C409.238 443.544 409.086 443.2 408.781 442.92C408.481 442.64 408.019 442.428 407.395 442.283L405.181 441.788C403.961 441.504 403.059 441.056 402.477 440.446C401.901 439.835 401.614 439.064 401.619 438.132C401.623 437.36 401.842 436.685 402.276 436.107C402.711 435.529 403.31 435.08 404.073 434.76C404.835 434.434 405.708 434.273 406.691 434.277C408.106 434.283 409.218 434.595 410.028 435.213C410.837 435.824 411.37 436.642 411.627 437.666ZM420.81 434.511L420.801 436.556L413.65 436.524L413.66 434.479L420.81 434.511ZM415.593 431.351L418.141 431.362L418.082 443.746C418.079 444.24 418.151 444.612 418.298 444.863C418.444 445.108 418.634 445.277 418.866 445.368C419.105 445.455 419.363 445.499 419.641 445.5C419.846 445.501 420.025 445.487 420.179 445.46C420.332 445.432 420.452 445.41 420.537 445.393L420.987 447.5C420.839 447.556 420.629 447.612 420.356 447.668C420.082 447.729 419.741 447.762 419.332 447.765C418.662 447.774 418.037 447.652 417.459 447.399C416.881 447.147 416.414 446.758 416.058 446.234C415.703 445.71 415.527 445.052 415.531 444.263L415.593 431.351ZM426.152 439.853L426.115 447.625L423.567 447.614L423.629 434.523L426.075 434.534L426.065 436.665L426.227 436.665C426.531 435.974 427.006 435.419 427.65 435.001C428.3 434.584 429.116 434.377 430.099 434.382C430.991 434.386 431.771 434.577 432.44 434.954C433.109 435.327 433.626 435.88 433.992 436.615C434.357 437.349 434.538 438.256 434.533 439.336L434.493 447.663L431.944 447.651L431.983 439.631C431.987 438.683 431.744 437.94 431.252 437.404C430.76 436.862 430.083 436.589 429.219 436.585C428.628 436.582 428.102 436.708 427.64 436.962C427.185 437.215 426.822 437.589 426.553 438.082C426.289 438.569 426.155 439.159 426.152 439.853ZM443.551 447.967C442.261 447.961 441.152 447.681 440.223 447.126C439.299 446.565 438.587 445.78 438.086 444.772C437.591 443.759 437.347 442.573 437.353 441.215C437.36 439.874 437.615 438.694 438.12 437.673C438.631 436.653 439.339 435.857 440.245 435.288C441.157 434.718 442.221 434.436 443.437 434.441C444.175 434.444 444.891 434.57 445.583 434.817C446.275 435.064 446.895 435.451 447.444 435.976C447.992 436.501 448.424 437.182 448.738 438.019C449.052 438.85 449.206 439.859 449.201 441.046L449.196 441.95L438.79 441.903L438.799 439.994L446.708 440.03C446.712 439.359 446.578 438.765 446.308 438.246C446.038 437.723 445.656 437.309 445.163 437.006C444.676 436.702 444.103 436.549 443.444 436.546C442.728 436.543 442.102 436.716 441.566 437.066C441.036 437.41 440.625 437.863 440.332 438.424C440.046 438.98 439.901 439.584 439.898 440.238L439.891 441.729C439.886 442.604 440.036 443.349 440.34 443.964C440.65 444.579 441.082 445.05 441.637 445.376C442.193 445.697 442.842 445.859 443.587 445.862C444.07 445.864 444.51 445.798 444.909 445.664C445.307 445.523 445.652 445.315 445.943 445.038C446.234 444.76 446.457 444.418 446.613 444.009L449.022 444.455C448.826 445.164 448.476 445.785 447.974 446.316C447.477 446.843 446.853 447.252 446.101 447.544C445.356 447.83 444.506 447.971 443.551 447.967ZM458.169 434.677L458.16 436.723L451.009 436.691L451.019 434.645L458.169 434.677ZM452.952 431.518L455.5 431.529L455.441 443.912C455.438 444.407 455.51 444.779 455.657 445.03C455.803 445.275 455.993 445.443 456.225 445.535C456.464 445.621 456.722 445.665 457 445.666C457.205 445.667 457.384 445.654 457.538 445.626C457.691 445.598 457.811 445.576 457.896 445.56L458.346 447.667C458.198 447.723 457.988 447.779 457.715 447.834C457.441 447.896 457.1 447.928 456.691 447.932C456.021 447.94 455.396 447.818 454.818 447.566C454.24 447.313 453.773 446.925 453.417 446.4C453.062 445.876 452.886 445.219 452.89 444.429L452.952 431.518ZM79.3418 471.875C78.6543 471.871 78.0272 471.701 77.4607 471.363C76.8941 471.02 76.4418 470.563 76.1036 469.994C75.7711 469.424 75.6064 468.795 75.6097 468.108C75.613 467.415 75.7837 466.788 76.1216 466.227C76.4652 465.66 76.9219 465.21 77.4917 464.878C78.0615 464.539 78.6901 464.372 79.3776 464.375C80.0708 464.378 80.6978 464.551 81.2587 464.894C81.8252 465.232 82.2748 465.686 82.6073 466.256C82.9455 466.82 83.113 467.448 83.1097 468.141C83.1064 468.829 82.9329 469.456 82.5893 470.023C82.2514 470.589 81.7975 471.042 81.2277 471.38C80.6636 471.713 80.0349 471.878 79.3418 471.875ZM113.409 457.776L113.325 475.231L110.905 475.22L102.094 462.379L101.932 462.379L101.871 475.18L99.2375 475.168L99.3209 457.713L101.758 457.724L110.578 470.582L110.74 470.583L110.801 457.765L113.409 457.776ZM120.771 475.554C119.941 475.55 119.192 475.393 118.523 475.083C117.854 474.768 117.325 474.314 116.936 473.721C116.552 473.129 116.362 472.403 116.366 471.545C116.37 470.807 116.515 470.199 116.801 469.723C117.088 469.247 117.473 468.871 117.957 468.595C118.442 468.319 118.982 468.111 119.58 467.972C120.177 467.832 120.785 467.727 121.405 467.656C122.19 467.568 122.826 467.497 123.315 467.443C123.804 467.382 124.16 467.285 124.382 467.149C124.604 467.014 124.716 466.793 124.717 466.486L124.718 466.426C124.721 465.682 124.514 465.104 124.095 464.693C123.683 464.282 123.064 464.075 122.24 464.071C121.382 464.068 120.705 464.255 120.209 464.633C119.719 465.006 119.379 465.422 119.189 465.882L116.797 465.326C117.085 464.531 117.503 463.891 118.05 463.405C118.604 462.913 119.239 462.558 119.956 462.34C120.673 462.116 121.426 462.005 122.216 462.009C122.739 462.011 123.293 462.076 123.877 462.204C124.467 462.326 125.018 462.55 125.527 462.876C126.043 463.202 126.464 463.667 126.791 464.271C127.117 464.869 127.278 465.645 127.274 466.6L127.232 475.293L124.744 475.282L124.752 473.492L124.65 473.491C124.484 473.82 124.235 474.143 123.904 474.46C123.573 474.776 123.148 475.039 122.63 475.247C122.112 475.455 121.492 475.557 120.771 475.554ZM121.334 473.511C122.039 473.514 122.642 473.377 123.143 473.101C123.65 472.825 124.035 472.463 124.299 472.015C124.568 471.562 124.704 471.077 124.707 470.56L124.715 468.872C124.623 468.963 124.447 469.047 124.185 469.126C123.929 469.198 123.636 469.262 123.306 469.318C122.976 469.367 122.655 469.414 122.342 469.458C122.03 469.497 121.768 469.53 121.558 469.557C121.063 469.617 120.611 469.72 120.201 469.866C119.797 470.012 119.472 470.224 119.227 470.501C118.987 470.773 118.866 471.136 118.863 471.591C118.86 472.221 119.091 472.7 119.555 473.025C120.02 473.346 120.613 473.507 121.334 473.511ZM136.8 462.244L136.79 464.29L129.639 464.258L129.649 462.212L136.8 462.244ZM131.582 459.085L134.13 459.096L134.071 471.479C134.068 471.974 134.141 472.346 134.287 472.597C134.434 472.842 134.623 473.01 134.856 473.102C135.094 473.189 135.352 473.232 135.631 473.234C135.835 473.234 136.014 473.221 136.168 473.193C136.321 473.166 136.441 473.143 136.526 473.127L136.976 475.234C136.828 475.29 136.618 475.346 136.345 475.401C136.072 475.463 135.731 475.495 135.322 475.499C134.651 475.508 134.027 475.385 133.448 475.133C132.87 474.88 132.403 474.492 132.048 473.968C131.692 473.443 131.516 472.786 131.52 471.996L131.582 459.085ZM139.556 475.348L139.619 462.257L142.167 462.268L142.104 475.359L139.556 475.348ZM140.915 460.243C140.472 460.241 140.092 460.091 139.775 459.794C139.464 459.492 139.31 459.133 139.312 458.719C139.314 458.298 139.472 457.941 139.785 457.647C140.105 457.347 140.486 457.198 140.93 457.2C141.373 457.202 141.75 457.354 142.061 457.657C142.378 457.954 142.535 458.312 142.533 458.733C142.531 459.148 142.37 459.505 142.051 459.805C141.737 460.099 141.358 460.245 140.915 460.243ZM156.794 462.333L151.984 475.403L149.257 475.391L144.564 462.279L147.3 462.291L150.567 472.38L150.703 472.38L154.058 462.321L156.794 462.333ZM164.322 475.722C163.032 475.717 161.922 475.436 160.993 474.881C160.07 474.32 159.357 473.535 158.857 472.527C158.361 471.514 158.117 470.328 158.124 468.97C158.13 467.629 158.386 466.449 158.891 465.428C159.401 464.408 160.109 463.612 161.016 463.043C161.927 462.473 162.991 462.191 164.207 462.196C164.946 462.199 165.661 462.325 166.353 462.572C167.045 462.82 167.665 463.206 168.214 463.731C168.763 464.256 169.194 464.937 169.508 465.774C169.823 466.605 169.977 467.614 169.971 468.801L169.967 469.705L159.561 469.658L159.57 467.749L167.479 467.785C167.482 467.114 167.348 466.52 167.078 466.002C166.808 465.478 166.426 465.064 165.934 464.761C165.446 464.457 164.873 464.304 164.214 464.301C163.498 464.298 162.872 464.471 162.337 464.821C161.807 465.166 161.395 465.618 161.103 466.179C160.816 466.735 160.671 467.339 160.668 467.993L160.661 469.484C160.657 470.359 160.807 471.104 161.11 471.719C161.42 472.334 161.852 472.805 162.408 473.131C162.963 473.452 163.613 473.614 164.357 473.617C164.84 473.619 165.281 473.553 165.679 473.419C166.078 473.278 166.422 473.07 166.713 472.793C167.004 472.515 167.228 472.173 167.383 471.764L169.793 472.21C169.596 472.919 169.247 473.54 168.744 474.072C168.247 474.598 167.623 475.007 166.872 475.299C166.126 475.585 165.276 475.727 164.322 475.722ZM193.876 463.811L191.217 463.799C191.117 463.231 190.929 462.73 190.653 462.297C190.377 461.864 190.038 461.496 189.636 461.193C189.234 460.89 188.783 460.661 188.284 460.505C187.79 460.35 187.265 460.27 186.708 460.268C185.702 460.264 184.801 460.512 184.003 461.014C183.211 461.517 182.582 462.255 182.117 463.231C181.658 464.206 181.425 465.398 181.418 466.807C181.411 468.227 181.633 469.427 182.083 470.407C182.538 471.386 183.163 472.127 183.956 472.631C184.749 473.134 185.643 473.388 186.637 473.393C187.188 473.395 187.711 473.324 188.206 473.178C188.707 473.027 189.16 472.805 189.564 472.511C189.969 472.217 190.312 471.858 190.592 471.433C190.878 471.003 191.077 470.509 191.187 469.953L193.846 469.973C193.7 470.831 193.421 471.619 193.008 472.339C192.602 473.053 192.079 473.67 191.44 474.19C190.807 474.704 190.083 475.101 189.269 475.382C188.456 475.662 187.569 475.8 186.608 475.796C185.097 475.789 183.752 475.425 182.574 474.704C181.395 473.977 180.468 472.942 179.793 471.598C179.123 470.254 178.793 468.653 178.802 466.795C178.811 464.932 179.159 463.334 179.847 462.002C180.536 460.664 181.472 459.64 182.658 458.929C183.843 458.213 185.188 457.858 186.694 457.864C187.62 457.869 188.483 458.006 189.283 458.277C190.089 458.542 190.811 458.931 191.451 459.445C192.09 459.954 192.619 460.576 193.036 461.31C193.453 462.04 193.733 462.873 193.876 463.811ZM196.766 475.603L196.829 462.512L199.292 462.523L199.282 464.603L199.418 464.603C199.66 463.9 200.083 463.348 200.688 462.947C201.298 462.54 201.986 462.339 202.753 462.342C202.912 462.343 203.1 462.35 203.315 462.362C203.537 462.374 203.71 462.389 203.835 462.407L203.824 464.844C203.721 464.815 203.54 464.783 203.279 464.748C203.017 464.707 202.756 464.686 202.495 464.685C201.892 464.682 201.355 464.808 200.882 465.061C200.415 465.309 200.044 465.657 199.769 466.105C199.494 466.547 199.356 467.052 199.353 467.62L199.315 475.614L196.766 475.603ZM205.977 475.644L206.04 462.553L208.588 462.564L208.525 475.655L205.977 475.644ZM207.336 460.539C206.893 460.537 206.513 460.388 206.196 460.091C205.885 459.788 205.731 459.43 205.733 459.015C205.735 458.594 205.893 458.237 206.207 457.943C206.526 457.643 206.908 457.494 207.351 457.496C207.794 457.498 208.171 457.651 208.482 457.953C208.799 458.25 208.956 458.609 208.954 459.029C208.952 459.444 208.792 459.801 208.472 460.101C208.158 460.395 207.779 460.541 207.336 460.539ZM217.467 475.959C216.2 475.954 215.11 475.662 214.198 475.084C213.292 474.5 212.597 473.699 212.113 472.68C211.629 471.66 211.39 470.495 211.397 469.182C211.403 467.853 211.659 466.68 212.163 465.666C212.668 464.645 213.377 463.85 214.288 463.28C215.2 462.71 216.273 462.428 217.506 462.434C218.5 462.438 219.385 462.627 220.162 463C220.939 463.367 221.564 463.881 222.038 464.542C222.518 465.203 222.801 465.974 222.888 466.856L220.408 466.844C220.274 466.23 219.964 465.7 219.478 465.255C218.997 464.81 218.35 464.585 217.538 464.582C216.828 464.578 216.205 464.763 215.669 465.136C215.139 465.503 214.724 466.029 214.425 466.716C214.127 467.396 213.975 468.202 213.971 469.134C213.966 470.089 214.107 470.913 214.394 471.607C214.68 472.302 215.087 472.841 215.613 473.224C216.145 473.607 216.772 473.8 217.494 473.803C217.977 473.805 218.415 473.719 218.808 473.545C219.206 473.365 219.54 473.108 219.809 472.774C220.083 472.44 220.275 472.037 220.385 471.566L222.865 471.577C222.77 472.423 222.491 473.178 222.028 473.84C221.564 474.503 220.946 475.023 220.171 475.4C219.402 475.778 218.501 475.964 217.467 475.959ZM227.936 471.301L227.934 468.191L228.377 468.193L233.619 462.676L236.67 462.69L230.691 468.97L230.291 468.968L227.936 471.301ZM225.571 475.731L225.654 458.277L228.202 458.288L228.119 475.743L225.571 475.731ZM233.838 475.768L229.18 469.526L230.944 467.752L236.966 475.782L233.838 475.768ZM244.032 476.078C242.742 476.072 241.632 475.791 240.703 475.236C239.78 474.675 239.068 473.891 238.567 472.883C238.072 471.869 237.827 470.684 237.834 469.326C237.84 467.985 238.096 466.804 238.601 465.784C239.111 464.763 239.82 463.968 240.726 463.398C241.638 462.828 242.701 462.546 243.917 462.552C244.656 462.555 245.371 462.68 246.063 462.928C246.755 463.175 247.376 463.561 247.924 464.086C248.473 464.612 248.904 465.293 249.218 466.129C249.533 466.96 249.687 467.969 249.681 469.157L249.677 470.06L239.271 470.014L239.28 468.105L247.189 468.14C247.192 467.47 247.059 466.875 246.788 466.357C246.518 465.833 246.137 465.419 245.644 465.116C245.157 464.813 244.583 464.66 243.924 464.657C243.208 464.654 242.583 464.827 242.047 465.177C241.517 465.521 241.105 465.974 240.813 466.535C240.526 467.09 240.381 467.695 240.378 468.348L240.371 469.84C240.367 470.715 240.517 471.46 240.821 472.075C241.13 472.69 241.563 473.16 242.118 473.487C242.673 473.807 243.323 473.969 244.067 473.973C244.55 473.975 244.991 473.909 245.389 473.774C245.788 473.634 246.132 473.425 246.424 473.148C246.715 472.871 246.938 472.528 247.093 472.12L249.503 472.565C249.306 473.275 248.957 473.895 248.454 474.427C247.958 474.953 247.333 475.362 246.582 475.654C245.836 475.941 244.986 476.082 244.032 476.078ZM258.65 462.788L258.64 464.833L251.49 464.801L251.5 462.756L258.65 462.788ZM253.432 459.628L255.98 459.639L255.921 472.023C255.919 472.517 255.991 472.89 256.137 473.14C256.284 473.385 256.474 473.554 256.706 473.646C256.944 473.732 257.203 473.776 257.481 473.777C257.686 473.778 257.865 473.764 258.018 473.737C258.172 473.709 258.291 473.687 258.376 473.67L258.827 475.777C258.679 475.833 258.468 475.889 258.195 475.945C257.922 476.006 257.581 476.039 257.172 476.043C256.501 476.051 255.877 475.929 255.299 475.676C254.72 475.424 254.253 475.035 253.898 474.511C253.542 473.987 253.367 473.33 253.37 472.54L253.432 459.628ZM282.134 458.529L282.05 475.983L279.63 475.972L270.819 463.132L270.657 463.131L270.596 475.932L267.962 475.92L268.046 458.466L270.483 458.477L279.303 471.334L279.465 471.335L279.526 458.517L282.134 458.529ZM285.892 476L285.975 458.546L296.799 458.594L296.788 460.861L288.598 460.825L288.573 466.143L295.987 466.176L295.976 468.434L288.562 468.401L288.525 476.012L285.892 476ZM299.166 460.872L299.177 458.605L312.685 458.665L312.674 460.932L307.228 460.908L307.156 476.095L304.531 476.083L304.603 460.896L299.166 460.872ZM331.52 463.334C331.433 462.527 331.061 461.9 330.404 461.454C329.747 461.002 328.918 460.774 327.918 460.77C327.202 460.767 326.583 460.878 326.059 461.103C325.535 461.322 325.127 461.627 324.836 462.018C324.55 462.403 324.405 462.842 324.403 463.337C324.401 463.751 324.496 464.11 324.688 464.412C324.885 464.714 325.142 464.968 325.46 465.174C325.783 465.374 326.128 465.543 326.497 465.681C326.866 465.814 327.22 465.923 327.561 466.01L329.263 466.461C329.819 466.599 330.39 466.787 330.974 467.022C331.558 467.258 332.099 467.567 332.597 467.95C333.095 468.333 333.496 468.806 333.801 469.37C334.11 469.934 334.263 470.608 334.26 471.392C334.255 472.381 333.995 473.257 333.48 474.022C332.971 474.787 332.232 475.389 331.264 475.828C330.302 476.266 329.139 476.483 327.775 476.477C326.468 476.471 325.339 476.259 324.386 475.84C323.433 475.42 322.689 474.829 322.153 474.065C321.617 473.296 321.323 472.385 321.271 471.334L323.913 471.346C323.961 471.977 324.163 472.503 324.519 472.925C324.881 473.342 325.342 473.653 325.904 473.86C326.471 474.062 327.093 474.164 327.769 474.167C328.513 474.17 329.176 474.057 329.756 473.827C330.343 473.59 330.805 473.263 331.142 472.844C331.479 472.419 331.649 471.923 331.652 471.355C331.654 470.838 331.509 470.414 331.215 470.083C330.927 469.752 330.533 469.478 330.034 469.26C329.541 469.041 328.982 468.849 328.358 468.681L326.298 468.109C324.902 467.722 323.797 467.158 322.982 466.416C322.173 465.673 321.772 464.694 321.777 463.478C321.782 462.473 322.059 461.596 322.608 460.848C323.157 460.101 323.899 459.522 324.832 459.111C325.766 458.695 326.818 458.489 327.989 458.495C329.171 458.5 330.212 458.712 331.114 459.131C332.021 459.55 332.734 460.124 333.253 460.853C333.772 461.577 334.041 462.408 334.059 463.346L331.52 463.334ZM351.555 458.838L351.471 476.293L349.051 476.282L340.24 463.441L340.078 463.441L340.017 476.242L337.384 476.23L337.467 458.776L339.904 458.786L348.724 471.644L348.886 471.645L348.947 458.827L351.555 458.838ZM355.313 476.31L355.396 458.855L366.34 458.904L366.329 461.171L358.019 461.134L357.994 466.452L365.732 466.487L365.721 468.745L357.983 468.711L357.957 474.055L366.369 474.092L366.358 476.359L355.313 476.31ZM369.774 476.374L369.857 458.92L380.8 458.969L380.79 461.236L372.48 461.199L372.455 466.517L380.193 466.551L380.182 468.81L372.444 468.775L372.418 474.119L380.83 474.157L380.819 476.424L369.774 476.374ZM384.235 476.439L384.318 458.984L386.952 458.996L386.912 467.331L387.125 467.332L394.486 459.03L397.801 459.045L390.724 466.871L397.743 476.499L394.573 476.485L388.968 468.662L386.894 471.022L386.868 476.451L384.235 476.439ZM406.523 476.538L406.607 459.084L412.828 459.112C414.186 459.118 415.31 459.37 416.2 459.868C417.09 460.366 417.754 461.046 418.193 461.905C418.632 462.76 418.849 463.721 418.844 464.789C418.839 465.863 418.61 466.828 418.157 467.684C417.71 468.534 417.036 469.207 416.136 469.703C415.241 470.193 414.118 470.436 412.766 470.43L408.487 470.411L408.498 468.178L412.538 468.196C413.396 468.199 414.093 468.055 414.628 467.762C415.164 467.463 415.558 467.056 415.81 466.54C416.062 466.024 416.19 465.436 416.193 464.777C416.197 464.118 416.074 463.532 415.827 463.02C415.579 462.507 415.186 462.105 414.648 461.813C414.115 461.521 413.411 461.373 412.536 461.369L409.23 461.354L409.157 476.55L406.523 476.538ZM421.875 476.607L421.958 459.152L432.901 459.201L432.891 461.468L424.581 461.431L424.556 466.749L432.294 466.784L432.283 469.042L424.545 469.008L424.519 474.351L432.931 474.389L432.92 476.656L421.875 476.607ZM437.81 476.678L435.015 476.665L441.379 459.239L444.422 459.252L450.62 476.735L447.824 476.722L442.958 462.416L442.821 462.416L437.81 476.678ZM438.312 469.845L447.38 469.885L447.369 472.101L438.301 472.061L438.312 469.845ZM453.14 476.746L453.224 459.292L455.857 459.303L455.817 467.639L456.03 467.64L463.391 459.337L466.706 459.352L459.629 467.178L466.649 476.806L463.478 476.792L457.873 468.969L455.8 471.329L455.774 476.758L453.14 476.746ZM79.2032 500.874C78.5157 500.871 77.8886 500.701 77.3221 500.363C76.7555 500.02 76.3032 499.563 75.965 498.993C75.6325 498.424 75.4678 497.795 75.4711 497.108C75.4744 496.414 75.6451 495.787 75.983 495.226C76.3266 494.66 76.7833 494.21 77.3531 493.877C77.9229 493.539 78.5515 493.371 79.239 493.374C79.9322 493.377 80.5592 493.551 81.1201 493.894C81.6867 494.232 82.1362 494.686 82.4687 495.255C82.8069 495.819 82.9744 496.448 82.9711 497.141C82.9678 497.828 82.7943 498.456 82.4507 499.022C82.1128 499.589 81.6589 500.041 81.0891 500.38C80.525 500.712 79.8963 500.877 79.2032 500.874ZM99.0989 504.168L99.1823 486.713L105.574 486.742C106.813 486.747 107.837 486.956 108.648 487.369C109.459 487.776 110.064 488.327 110.464 489.022C110.864 489.711 111.062 490.488 111.058 491.351C111.055 492.079 110.918 492.692 110.649 493.19C110.379 493.684 110.019 494.08 109.569 494.379C109.124 494.672 108.635 494.886 108.1 495.02L108.099 495.191C108.679 495.221 109.243 495.412 109.793 495.761C110.348 496.104 110.806 496.592 111.166 497.224C111.527 497.856 111.705 498.624 111.701 499.528C111.696 500.42 111.482 501.22 111.059 501.928C110.64 502.631 109.996 503.188 109.124 503.599C108.253 504.004 107.141 504.203 105.789 504.197L99.0989 504.168ZM101.743 501.921L105.544 501.938C106.806 501.943 107.71 501.703 108.258 501.217C108.806 500.731 109.081 500.121 109.085 499.388C109.088 498.837 108.951 498.331 108.675 497.869C108.398 497.408 108.002 497.04 107.487 496.764C106.977 496.489 106.369 496.35 105.665 496.347L101.77 496.33L101.743 501.921ZM101.78 494.276L105.308 494.292C105.899 494.294 106.431 494.183 106.903 493.958C107.382 493.733 107.761 493.416 108.042 493.008C108.328 492.595 108.472 492.107 108.475 491.544C108.478 490.823 108.228 490.217 107.725 489.726C107.221 489.235 106.447 488.987 105.402 488.982L101.805 488.966L101.78 494.276ZM120.238 504.526C118.948 504.52 117.839 504.24 116.91 503.684C115.986 503.123 115.274 502.339 114.773 501.331C114.278 500.318 114.034 499.132 114.04 497.774C114.047 496.433 114.302 495.252 114.807 494.232C115.318 493.211 116.026 492.416 116.932 491.846C117.844 491.277 118.908 490.994 120.124 491C120.862 491.003 121.578 491.128 122.27 491.376C122.962 491.623 123.582 492.01 124.131 492.535C124.679 493.06 125.111 493.741 125.425 494.577C125.739 495.408 125.893 496.418 125.888 497.605L125.883 498.508L115.477 498.462L115.486 496.553L123.395 496.588C123.399 495.918 123.265 495.323 122.995 494.805C122.725 494.281 122.343 493.868 121.85 493.564C121.363 493.261 120.79 493.108 120.131 493.105C119.415 493.102 118.789 493.275 118.253 493.625C117.723 493.969 117.312 494.422 117.019 494.983C116.733 495.539 116.588 496.143 116.585 496.797L116.577 498.288C116.573 499.163 116.723 499.908 117.027 500.523C117.337 501.138 117.769 501.609 118.324 501.935C118.88 502.256 119.529 502.418 120.274 502.421C120.757 502.423 121.197 502.357 121.596 502.222C121.994 502.082 122.339 501.873 122.63 501.596C122.921 501.319 123.144 500.976 123.3 500.568L125.709 501.013C125.513 501.723 125.163 502.343 124.661 502.875C124.164 503.401 123.54 503.811 122.788 504.103C122.043 504.389 121.193 504.53 120.238 504.526ZM134.856 491.236L134.847 493.281L127.696 493.249L127.706 491.204L134.856 491.236ZM129.638 488.076L132.187 488.088L132.128 500.471C132.125 500.965 132.197 501.338 132.344 501.588C132.49 501.833 132.68 502.002 132.912 502.094C133.151 502.18 133.409 502.224 133.687 502.225C133.892 502.226 134.071 502.213 134.225 502.185C134.378 502.157 134.497 502.135 134.583 502.118L135.033 504.225C134.885 504.282 134.674 504.338 134.401 504.393C134.128 504.454 133.787 504.487 133.378 504.491C132.708 504.499 132.083 504.377 131.505 504.125C130.927 503.872 130.46 503.483 130.104 502.959C129.749 502.435 129.573 501.778 129.577 500.988L129.638 488.076ZM141.421 504.646C140.591 504.642 139.842 504.486 139.173 504.176C138.504 503.86 137.975 503.406 137.586 502.814C137.202 502.221 137.013 501.496 137.017 500.638C137.02 499.899 137.165 499.292 137.452 498.816C137.738 498.34 138.123 497.964 138.608 497.687C139.092 497.411 139.633 497.203 140.23 497.064C140.827 496.925 141.436 496.819 142.055 496.748C142.84 496.661 143.477 496.59 143.965 496.535C144.454 496.475 144.81 496.377 145.032 496.242C145.254 496.106 145.366 495.885 145.368 495.578L145.368 495.519C145.372 494.774 145.164 494.197 144.746 493.786C144.333 493.375 143.714 493.167 142.891 493.164C142.033 493.16 141.356 493.347 140.859 493.726C140.369 494.099 140.029 494.515 139.839 494.974L137.447 494.418C137.735 493.624 138.153 492.984 138.701 492.497C139.254 492.006 139.889 491.65 140.606 491.432C141.323 491.208 142.077 491.098 142.866 491.101C143.389 491.104 143.943 491.168 144.527 491.296C145.118 491.418 145.668 491.642 146.178 491.968C146.693 492.294 147.114 492.759 147.441 493.363C147.768 493.961 147.929 494.737 147.924 495.692L147.882 504.385L145.394 504.374L145.402 502.584L145.3 502.584C145.134 502.913 144.885 503.235 144.554 503.552C144.223 503.869 143.798 504.131 143.28 504.339C142.762 504.547 142.143 504.649 141.421 504.646ZM141.985 502.603C142.689 502.606 143.292 502.47 143.793 502.194C144.3 501.917 144.686 501.555 144.949 501.108C145.218 500.654 145.354 500.169 145.357 499.652L145.365 497.965C145.274 498.055 145.097 498.14 144.835 498.218C144.579 498.291 144.286 498.355 143.956 498.41C143.627 498.46 143.305 498.507 142.993 498.551C142.68 498.589 142.418 498.622 142.208 498.649C141.714 498.71 141.261 498.813 140.852 498.959C140.447 499.105 140.123 499.316 139.877 499.594C139.637 499.865 139.516 500.228 139.514 500.683C139.511 501.314 139.741 501.792 140.206 502.118C140.67 502.438 141.263 502.6 141.985 502.603ZM163.483 504.455L157.833 504.429L157.916 486.975L163.746 487.001C165.456 487.009 166.923 487.365 168.147 488.069C169.371 488.768 170.306 489.769 170.953 491.073C171.606 492.371 171.928 493.927 171.92 495.739C171.911 497.557 171.571 499.118 170.9 500.422C170.235 501.726 169.276 502.728 168.022 503.427C166.769 504.12 165.256 504.463 163.483 504.455ZM160.477 502.14L163.349 502.153C164.679 502.159 165.785 501.914 166.668 501.418C167.551 500.916 168.214 500.189 168.656 499.236C169.098 498.278 169.322 497.108 169.329 495.728C169.335 494.358 169.122 493.196 168.689 492.239C168.262 491.283 167.621 490.555 166.765 490.057C165.91 489.559 164.845 489.307 163.573 489.301L160.539 489.288L160.477 502.14ZM175.153 504.507L175.236 487.052L186.179 487.101L186.168 489.368L177.859 489.331L177.833 494.649L185.572 494.684L185.561 496.942L177.823 496.908L177.797 502.251L186.209 502.289L186.198 504.556L175.153 504.507ZM191.529 487.125L195.673 493.97L195.809 493.971L200.018 487.163L203.069 487.176L197.59 495.879L203.02 504.631L199.952 504.617L195.791 497.866L195.654 497.865L191.429 504.579L188.361 504.566L193.968 495.863L188.478 487.111L191.529 487.125ZM211.949 504.671L212.033 487.216L214.666 487.228L214.594 502.415L222.503 502.451L222.492 504.718L211.949 504.671ZM229.1 505.037C228.27 505.033 227.521 504.877 226.852 504.567C226.183 504.251 225.654 503.797 225.265 503.205C224.881 502.612 224.691 501.887 224.696 501.029C224.699 500.29 224.844 499.683 225.13 499.207C225.417 498.731 225.802 498.355 226.286 498.078C226.771 497.802 227.311 497.594 227.909 497.455C228.506 497.316 229.114 497.21 229.734 497.139C230.519 497.052 231.155 496.981 231.644 496.926C232.133 496.866 232.489 496.768 232.711 496.633C232.933 496.497 233.045 496.276 233.047 495.969L233.047 495.91C233.05 495.165 232.843 494.588 232.424 494.177C232.012 493.766 231.393 493.559 230.569 493.555C229.711 493.551 229.034 493.738 228.538 494.117C228.048 494.49 227.708 494.906 227.518 495.365L225.126 494.809C225.414 494.015 225.832 493.375 226.379 492.888C226.933 492.397 227.568 492.041 228.285 491.823C229.002 491.599 229.755 491.489 230.545 491.492C231.068 491.495 231.622 491.56 232.206 491.687C232.797 491.809 233.347 492.033 233.856 492.359C234.372 492.685 234.793 493.15 235.12 493.754C235.446 494.352 235.607 495.128 235.603 496.083L235.561 504.776L233.073 504.765L233.081 502.975L232.979 502.975C232.813 503.304 232.564 503.626 232.233 503.943C231.902 504.26 231.477 504.522 230.959 504.73C230.441 504.938 229.821 505.04 229.1 505.037ZM229.664 502.994C230.368 502.997 230.971 502.861 231.472 502.585C231.979 502.308 232.365 501.946 232.628 501.499C232.897 501.045 233.033 500.56 233.036 500.043L233.044 498.356C232.952 498.446 232.776 498.531 232.514 498.609C232.258 498.682 231.965 498.746 231.635 498.801C231.305 498.851 230.984 498.898 230.672 498.942C230.359 498.98 230.097 499.013 229.887 499.04C229.392 499.101 228.94 499.204 228.53 499.35C228.126 499.496 227.801 499.707 227.556 499.985C227.316 500.256 227.195 500.619 227.193 501.074C227.19 501.705 227.42 502.183 227.885 502.509C228.349 502.829 228.942 502.991 229.664 502.994ZM247.274 499.399L247.311 491.737L249.867 491.749L249.805 504.84L247.299 504.828L247.31 502.561L247.174 502.561C246.869 503.258 246.383 503.839 245.716 504.301C245.055 504.759 244.233 504.985 243.25 504.981C242.409 504.977 241.666 504.789 241.02 504.417C240.38 504.039 239.876 503.483 239.511 502.748C239.151 502.014 238.973 501.107 238.978 500.027L239.018 491.7L241.566 491.712L241.528 499.732C241.524 500.624 241.767 501.335 242.259 501.866C242.751 502.396 243.392 502.663 244.182 502.667C244.659 502.669 245.134 502.552 245.607 502.315C246.085 502.079 246.482 501.72 246.796 501.238C247.117 500.757 247.276 500.144 247.274 499.399ZM255.814 497.094L255.777 504.866L253.229 504.855L253.291 491.764L255.737 491.775L255.727 493.906L255.889 493.906C256.193 493.215 256.668 492.66 257.312 492.242C257.962 491.825 258.778 491.618 259.761 491.622C260.653 491.626 261.433 491.817 262.102 492.195C262.771 492.568 263.288 493.121 263.654 493.856C264.019 494.59 264.2 495.497 264.195 496.577L264.155 504.904L261.606 504.892L261.645 496.872C261.649 495.924 261.406 495.181 260.914 494.645C260.422 494.103 259.745 493.83 258.881 493.826C258.29 493.823 257.764 493.949 257.302 494.202C256.847 494.456 256.484 494.829 256.215 495.323C255.951 495.81 255.817 496.4 255.814 497.094ZM273.085 505.208C271.818 505.202 270.729 504.91 269.817 504.332C268.91 503.749 268.215 502.947 267.732 501.928C267.248 500.909 267.009 499.743 267.015 498.43C267.022 497.101 267.277 495.929 267.782 494.914C268.287 493.893 268.995 493.098 269.907 492.529C270.819 491.959 271.891 491.677 273.124 491.682C274.119 491.687 275.004 491.875 275.781 492.248C276.557 492.615 277.183 493.129 277.657 493.79C278.137 494.452 278.42 495.223 278.507 496.104L276.027 496.093C275.893 495.479 275.583 494.949 275.097 494.503C274.616 494.058 273.969 493.834 273.157 493.83C272.446 493.827 271.823 494.012 271.288 494.384C270.757 494.751 270.343 495.278 270.044 495.964C269.745 496.644 269.594 497.45 269.589 498.382C269.585 499.337 269.726 500.161 270.012 500.856C270.299 501.55 270.705 502.089 271.232 502.472C271.764 502.855 272.391 503.048 273.113 503.051C273.596 503.054 274.033 502.967 274.426 502.793C274.825 502.613 275.159 502.356 275.427 502.022C275.702 501.688 275.894 501.285 276.004 500.814L278.484 500.825C278.389 501.672 278.11 502.426 277.647 503.089C277.183 503.751 276.564 504.271 275.79 504.649C275.021 505.026 274.119 505.212 273.085 505.208ZM283.775 497.218L283.738 504.991L281.189 504.98L281.273 487.525L283.787 487.536L283.756 494.031L283.918 494.031C284.228 493.328 284.699 492.771 285.332 492.359C285.965 491.947 286.79 491.743 287.807 491.748C288.704 491.752 289.488 491.94 290.156 492.312C290.831 492.684 291.351 493.238 291.717 493.972C292.088 494.701 292.271 495.611 292.266 496.702L292.226 505.029L289.678 505.017L289.716 496.998C289.721 496.037 289.477 495.292 288.985 494.761C288.494 494.225 287.808 493.955 286.927 493.951C286.325 493.948 285.784 494.074 285.306 494.327C284.833 494.581 284.459 494.954 284.184 495.447C283.914 495.935 283.778 496.525 283.775 497.218ZM79.0646 529.874C78.3771 529.871 77.7501 529.7 77.1835 529.363C76.6169 529.019 76.1646 528.563 75.8264 527.993C75.4939 527.423 75.3293 526.795 75.3325 526.107C75.3358 525.414 75.5065 524.787 75.8444 524.226C76.188 523.659 76.6447 523.21 77.2145 522.877C77.7843 522.539 78.4129 522.371 79.1004 522.374C79.7936 522.377 80.4206 522.55 80.9815 522.894C81.5481 523.231 81.9976 523.685 82.3301 524.255C82.6683 524.819 82.8358 525.447 82.8325 526.141C82.8292 526.828 82.6557 527.455 82.3121 528.022C81.9742 528.589 81.5203 529.041 80.9505 529.379C80.3864 529.712 79.7578 529.877 79.0646 529.874ZM104.611 533.192L98.9603 533.167L99.0437 515.713L104.873 515.739C106.583 515.746 108.05 516.102 109.274 516.807C110.498 517.505 111.434 518.507 112.081 519.811C112.734 521.109 113.056 522.665 113.047 524.477C113.039 526.295 112.699 527.856 112.028 529.16C111.363 530.464 110.403 531.465 109.15 532.164C107.897 532.858 106.384 533.2 104.611 533.192ZM101.605 530.878L104.477 530.891C105.806 530.897 106.913 530.651 107.796 530.155C108.679 529.654 109.341 528.926 109.784 527.974C110.226 527.016 110.45 525.846 110.457 524.466C110.463 523.096 110.25 521.933 109.817 520.977C109.39 520.02 108.748 519.293 107.893 518.795C107.037 518.297 105.973 518.045 104.7 518.039L101.666 518.026L101.605 530.878ZM116.28 533.244L116.364 515.79L127.307 515.839L127.296 518.106L118.987 518.069L118.961 523.387L126.7 523.421L126.689 525.68L118.95 525.645L118.925 530.989L127.337 531.027L127.326 533.294L116.28 533.244ZM132.657 515.863L136.8 522.708L136.937 522.709L141.146 515.901L144.197 515.914L138.718 524.617L144.147 533.369L141.079 533.355L136.918 526.603L136.782 526.603L132.557 533.317L129.488 533.303L135.095 524.601L129.606 515.849L132.657 515.863ZM154.551 533.415L151.756 533.403L158.121 515.976L161.163 515.99L167.361 533.472L164.565 533.46L159.699 519.154L159.563 519.153L154.551 533.415ZM155.053 526.582L164.121 526.622L164.11 528.838L155.042 528.798L155.053 526.582ZM172.262 525.721L172.225 533.494L169.677 533.483L169.739 520.392L172.185 520.403L172.175 522.533L172.337 522.534C172.642 521.842 173.116 521.288 173.76 520.87C174.41 520.452 175.226 520.246 176.209 520.25C177.101 520.254 177.881 520.445 178.55 520.823C179.219 521.195 179.736 521.749 180.102 522.483C180.468 523.218 180.648 524.125 180.643 525.205L180.603 533.531L178.055 533.52L178.093 525.5C178.098 524.551 177.854 523.809 177.362 523.272C176.87 522.73 176.193 522.458 175.329 522.454C174.738 522.451 174.212 522.577 173.751 522.83C173.295 523.084 172.932 523.457 172.663 523.95C172.399 524.438 172.266 525.028 172.262 525.721ZM187.829 533.853C186.999 533.85 186.25 533.693 185.581 533.383C184.912 533.068 184.383 532.613 183.994 532.021C183.61 531.428 183.42 530.703 183.425 529.845C183.428 529.106 183.573 528.499 183.859 528.023C184.146 527.547 184.531 527.171 185.015 526.895C185.5 526.618 186.04 526.411 186.638 526.271C187.235 526.132 187.843 526.027 188.463 525.955C189.248 525.868 189.884 525.797 190.373 525.742C190.862 525.682 191.218 525.584 191.44 525.449C191.662 525.313 191.774 525.092 191.776 524.786L191.776 524.726C191.779 523.982 191.572 523.404 191.153 522.993C190.741 522.582 190.122 522.375 189.298 522.371C188.44 522.367 187.763 522.555 187.267 522.933C186.777 523.306 186.437 523.722 186.247 524.181L183.855 523.625C184.143 522.831 184.561 522.191 185.108 521.705C185.662 521.213 186.297 520.858 187.014 520.639C187.731 520.415 188.484 520.305 189.274 520.308C189.797 520.311 190.351 520.376 190.935 520.503C191.526 520.625 192.076 520.849 192.585 521.175C193.101 521.502 193.522 521.967 193.849 522.57C194.175 523.168 194.336 523.945 194.332 524.899L194.29 533.592L191.802 533.581L191.81 531.791L191.708 531.791C191.542 532.12 191.293 532.443 190.962 532.759C190.631 533.076 190.206 533.338 189.688 533.546C189.17 533.754 188.55 533.856 187.829 533.853ZM188.393 531.81C189.097 531.813 189.7 531.677 190.201 531.401C190.708 531.125 191.094 530.763 191.357 530.315C191.626 529.862 191.762 529.376 191.765 528.859L191.773 527.172C191.681 527.262 191.505 527.347 191.243 527.425C190.987 527.498 190.694 527.562 190.364 527.617C190.034 527.667 189.713 527.714 189.401 527.758C189.088 527.796 188.826 527.829 188.616 527.857C188.121 527.917 187.669 528.02 187.259 528.166C186.855 528.312 186.53 528.524 186.285 528.801C186.045 529.073 185.924 529.436 185.922 529.89C185.919 530.521 186.149 530.999 186.614 531.325C187.078 531.645 187.671 531.807 188.393 531.81ZM200.316 516.164L200.233 533.619L197.684 533.607L197.768 516.153L200.316 516.164ZM205.248 538.55C204.868 538.549 204.521 538.516 204.209 538.452C203.897 538.394 203.664 538.33 203.511 538.261L204.135 536.176C204.6 536.303 205.014 536.359 205.378 536.343C205.742 536.328 206.064 536.193 206.343 535.939C206.628 535.684 206.88 535.268 207.099 534.689L207.419 533.821L202.692 520.539L205.42 520.551L208.686 530.725L208.823 530.725L212.186 520.581L214.922 520.593L209.457 535.407C209.203 536.088 208.882 536.663 208.494 537.133C208.105 537.608 207.643 537.964 207.108 538.201C206.573 538.437 205.953 538.553 205.248 538.55ZM223.428 520.631L223.418 522.677L216.268 522.645L216.277 520.599L223.428 520.631ZM218.21 517.472L220.758 517.483L220.699 529.866C220.697 530.361 220.769 530.733 220.915 530.984C221.062 531.229 221.251 531.397 221.484 531.489C221.722 531.575 221.98 531.619 222.259 531.62C222.463 531.621 222.642 531.608 222.796 531.58C222.95 531.552 223.069 531.53 223.154 531.514L223.604 533.621C223.456 533.677 223.246 533.733 222.973 533.788C222.7 533.85 222.359 533.882 221.95 533.886C221.279 533.894 220.655 533.772 220.076 533.52C219.498 533.267 219.031 532.879 218.676 532.354C218.32 531.83 218.144 531.173 218.148 530.383L218.21 517.472ZM226.184 533.735L226.247 520.644L228.795 520.655L228.732 533.746L226.184 533.735ZM227.543 518.63C227.1 518.628 226.72 518.478 226.403 518.181C226.092 517.879 225.938 517.52 225.94 517.105C225.942 516.685 226.1 516.328 226.414 516.034C226.733 515.734 227.115 515.585 227.558 515.587C228.001 515.589 228.378 515.741 228.689 516.044C229.006 516.341 229.163 516.699 229.161 517.12C229.159 517.535 228.999 517.892 228.679 518.192C228.365 518.486 227.986 518.632 227.543 518.63ZM237.674 534.05C236.407 534.044 235.317 533.753 234.405 533.175C233.499 532.591 232.804 531.79 232.32 530.77C231.836 529.751 231.597 528.585 231.604 527.273C231.61 525.943 231.866 524.771 232.37 523.756C232.875 522.736 233.584 521.941 234.495 521.371C235.407 520.801 236.48 520.519 237.713 520.524C238.707 520.529 239.592 520.717 240.369 521.09C241.146 521.457 241.771 521.972 242.245 522.633C242.725 523.294 243.008 524.065 243.095 524.946L240.615 524.935C240.481 524.321 240.171 523.791 239.685 523.346C239.204 522.9 238.557 522.676 237.745 522.672C237.035 522.669 236.412 522.854 235.876 523.227C235.346 523.593 234.931 524.12 234.632 524.806C234.334 525.487 234.182 526.293 234.178 527.225C234.173 528.179 234.314 529.004 234.601 529.698C234.887 530.393 235.294 530.931 235.82 531.314C236.352 531.697 236.979 531.891 237.701 531.894C238.184 531.896 238.622 531.81 239.015 531.635C239.413 531.455 239.747 531.198 240.016 530.864C240.29 530.53 240.482 530.128 240.592 529.657L243.072 529.668C242.977 530.514 242.698 531.268 242.235 531.931C241.771 532.594 241.152 533.114 240.378 533.491C239.609 533.868 238.708 534.055 237.674 534.05ZM255.635 523.971L253.323 524.37C253.228 524.074 253.076 523.792 252.867 523.524C252.664 523.256 252.386 523.036 252.035 522.864C251.683 522.692 251.243 522.605 250.715 522.602C249.993 522.599 249.39 522.758 248.906 523.08C248.421 523.396 248.178 523.807 248.175 524.313C248.173 524.75 248.334 525.103 248.656 525.372C248.979 525.64 249.5 525.861 250.221 526.035L252.298 526.521C253.502 526.805 254.397 527.238 254.985 527.82C255.574 528.402 255.865 529.157 255.861 530.083C255.857 530.867 255.627 531.565 255.169 532.176C254.717 532.782 254.087 533.257 253.279 533.6C252.476 533.943 251.546 534.112 250.489 534.107C249.024 534.101 247.829 533.783 246.906 533.154C245.983 532.519 245.419 531.621 245.214 530.461L247.679 530.097C247.829 530.74 248.142 531.227 248.618 531.559C249.094 531.885 249.715 532.05 250.482 532.053C251.317 532.057 251.986 531.887 252.488 531.542C252.989 531.192 253.241 530.764 253.244 530.259C253.246 529.849 253.094 529.505 252.788 529.225C252.489 528.946 252.027 528.733 251.402 528.588L249.189 528.093C247.968 527.809 247.067 527.362 246.485 526.751C245.908 526.141 245.622 525.369 245.627 524.438C245.63 523.665 245.849 522.99 246.284 522.412C246.719 521.835 247.317 521.385 248.08 521.065C248.843 520.739 249.716 520.578 250.699 520.582C252.114 520.589 253.226 520.9 254.035 521.518C254.845 522.129 255.378 522.947 255.635 523.971Z" fill="#BA1E71"/>
<line x1="79.947" y1="279" x2="79.947" y2="527" stroke="#0FA9D9"/>
</svg>
