<svg width="473" height="572" viewBox="0 0 473 572" fill="none" xmlns="http://www.w3.org/2000/svg">
<path d="M367.799 280L313.798 324.167V235.833L367.799 280Z" fill="#4CC9F0"/>
<path fill-rule="evenodd" clip-rule="evenodd" d="M0 324L53.796 280L0 236H313.799V324H0Z" fill="#4CC9F0"/>
<path d="M128.013 294V291.443L137.615 280.932C138.742 279.701 139.67 278.631 140.399 277.722C141.128 276.803 141.668 275.941 142.018 275.136C142.378 274.322 142.558 273.47 142.558 272.58C142.558 271.557 142.312 270.671 141.819 269.923C141.336 269.175 140.674 268.598 139.831 268.19C138.988 267.783 138.041 267.58 136.99 267.58C135.872 267.58 134.897 267.812 134.064 268.276C133.24 268.73 132.601 269.369 132.146 270.193C131.701 271.017 131.478 271.983 131.478 273.091H128.126C128.126 271.386 128.519 269.89 129.305 268.602C130.091 267.314 131.161 266.311 132.515 265.591C133.879 264.871 135.408 264.511 137.103 264.511C138.808 264.511 140.318 264.871 141.635 265.591C142.951 266.311 143.983 267.281 144.731 268.503C145.479 269.724 145.853 271.083 145.853 272.58C145.853 273.65 145.659 274.696 145.271 275.719C144.892 276.732 144.229 277.864 143.282 279.114C142.345 280.354 141.043 281.869 139.376 283.659L132.842 290.648V290.875H146.365V294H128.013ZM161.72 294.398C159.58 294.398 157.757 293.815 156.251 292.651C154.746 291.476 153.595 289.777 152.8 287.551C152.004 285.316 151.606 282.617 151.606 279.455C151.606 276.311 152.004 273.626 152.8 271.401C153.604 269.166 154.76 267.461 156.265 266.287C157.781 265.103 159.599 264.511 161.72 264.511C163.841 264.511 165.655 265.103 167.16 266.287C168.675 267.461 169.831 269.166 170.626 271.401C171.431 273.626 171.834 276.311 171.834 279.455C171.834 282.617 171.436 285.316 170.64 287.551C169.845 289.777 168.694 291.476 167.189 292.651C165.683 293.815 163.86 294.398 161.72 294.398ZM161.72 291.273C163.841 291.273 165.489 290.25 166.663 288.205C167.837 286.159 168.425 283.242 168.425 279.455C168.425 276.936 168.155 274.791 167.615 273.02C167.085 271.249 166.318 269.9 165.314 268.972C164.319 268.044 163.121 267.58 161.72 267.58C159.618 267.58 157.975 268.616 156.791 270.69C155.607 272.755 155.015 275.676 155.015 279.455C155.015 281.973 155.281 284.114 155.811 285.875C156.341 287.636 157.103 288.976 158.098 289.895C159.102 290.813 160.309 291.273 161.72 291.273ZM177.231 294V291.443L186.834 280.932C187.961 279.701 188.889 278.631 189.618 277.722C190.347 276.803 190.887 275.941 191.237 275.136C191.597 274.322 191.777 273.47 191.777 272.58C191.777 271.557 191.531 270.671 191.038 269.923C190.555 269.175 189.892 268.598 189.05 268.19C188.207 267.783 187.26 267.58 186.209 267.58C185.091 267.58 184.116 267.812 183.282 268.276C182.459 268.73 181.819 269.369 181.365 270.193C180.92 271.017 180.697 271.983 180.697 273.091H177.345C177.345 271.386 177.738 269.89 178.524 268.602C179.31 267.314 180.38 266.311 181.734 265.591C183.098 264.871 184.627 264.511 186.322 264.511C188.027 264.511 189.537 264.871 190.853 265.591C192.17 266.311 193.202 267.281 193.95 268.503C194.698 269.724 195.072 271.083 195.072 272.58C195.072 273.65 194.878 274.696 194.49 275.719C194.111 276.732 193.448 277.864 192.501 279.114C191.564 280.354 190.262 281.869 188.595 283.659L182.061 290.648V290.875H195.584V294H177.231ZM210.541 294.398C208.874 294.398 207.373 294.066 206.038 293.403C204.703 292.741 203.633 291.831 202.828 290.676C202.023 289.521 201.583 288.205 201.507 286.727H204.916C205.049 288.044 205.645 289.133 206.706 289.994C207.776 290.847 209.054 291.273 210.541 291.273C211.734 291.273 212.795 290.993 213.723 290.435C214.66 289.876 215.394 289.109 215.925 288.134C216.464 287.149 216.734 286.036 216.734 284.795C216.734 283.527 216.455 282.395 215.896 281.401C215.347 280.397 214.589 279.606 213.623 279.028C212.657 278.451 211.554 278.157 210.314 278.148C209.424 278.138 208.51 278.276 207.572 278.56C206.635 278.834 205.863 279.189 205.257 279.625L201.961 279.227L203.723 264.909H218.836V268.034H206.677L205.655 276.614H205.825C206.422 276.14 207.17 275.747 208.069 275.435C208.969 275.122 209.907 274.966 210.882 274.966C212.662 274.966 214.248 275.392 215.64 276.244C217.042 277.087 218.14 278.242 218.936 279.71C219.741 281.178 220.143 282.854 220.143 284.739C220.143 286.595 219.727 288.252 218.893 289.71C218.069 291.159 216.933 292.305 215.484 293.148C214.035 293.981 212.388 294.398 210.541 294.398ZM248.116 284.909H251.979L255.218 289.17L256.07 290.307L260.9 296.727H257.036L253.854 292.466L253.059 291.386L248.116 284.909ZM262.093 279.455C262.093 282.523 261.539 285.174 260.431 287.409C259.323 289.644 257.803 291.367 255.871 292.58C253.939 293.792 251.733 294.398 249.252 294.398C246.771 294.398 244.564 293.792 242.633 292.58C240.701 291.367 239.181 289.644 238.073 287.409C236.965 285.174 236.411 282.523 236.411 279.455C236.411 276.386 236.965 273.735 238.073 271.5C239.181 269.265 240.701 267.542 242.633 266.33C244.564 265.117 246.771 264.511 249.252 264.511C251.733 264.511 253.939 265.117 255.871 266.33C257.803 267.542 259.323 269.265 260.431 271.5C261.539 273.735 262.093 276.386 262.093 279.455ZM258.684 279.455C258.684 276.936 258.262 274.81 257.42 273.077C256.586 271.344 255.455 270.032 254.025 269.142C252.604 268.252 251.013 267.807 249.252 267.807C247.491 267.807 245.895 268.252 244.465 269.142C243.045 270.032 241.913 271.344 241.07 273.077C240.237 274.81 239.82 276.936 239.82 279.455C239.82 281.973 240.237 284.099 241.07 285.832C241.913 287.565 243.045 288.877 244.465 289.767C245.895 290.657 247.491 291.102 249.252 291.102C251.013 291.102 252.604 290.657 254.025 289.767C255.455 288.877 256.586 287.565 257.42 285.832C258.262 284.099 258.684 281.973 258.684 279.455ZM277.732 264.909V294H274.209V268.602H274.039L266.937 273.318V269.739L274.209 264.909H277.732Z" fill="black"/>
<ellipse cx="93.2963" cy="280.5" rx="8.50008" ry="8.5" fill="#D9D9D9"/>
<path d="M94.8025 19.7955C94.115 19.7955 93.4872 19.6278 92.919 19.2926C92.3508 18.9517 91.8963 18.4972 91.5554 17.929C91.2201 17.3608 91.0525 16.733 91.0525 16.0455C91.0525 15.3523 91.2201 14.7244 91.5554 14.1619C91.8963 13.5937 92.3508 13.142 92.919 12.8068C93.4872 12.4659 94.115 12.2955 94.8025 12.2955C95.4957 12.2955 96.1236 12.4659 96.6861 12.8068C97.2542 13.142 97.7059 13.5937 98.0412 14.1619C98.3821 14.7244 98.5525 15.3523 98.5525 16.0455C98.5525 16.733 98.3821 17.3608 98.0412 17.929C97.7059 18.4972 97.2542 18.9517 96.6861 19.2926C96.1236 19.6278 95.4957 19.7955 94.8025 19.7955ZM114.714 23V5.54545H125.538V7.8125H117.347V13.1307H124.762V15.3892H117.347V23H114.714ZM136.044 17.571V9.90909H138.601V23H136.095V20.733H135.959C135.658 21.4318 135.175 22.0142 134.51 22.4801C133.851 22.9403 133.03 23.1705 132.047 23.1705C131.206 23.1705 130.462 22.9858 129.814 22.6165C129.172 22.2415 128.666 21.6875 128.297 20.9545C127.933 20.2216 127.751 19.3153 127.751 18.2358V9.90909H130.3V17.929C130.3 18.821 130.547 19.5312 131.041 20.0597C131.535 20.5881 132.178 20.8523 132.967 20.8523C133.445 20.8523 133.919 20.733 134.391 20.4943C134.868 20.2557 135.263 19.8949 135.575 19.4119C135.893 18.929 136.05 18.3153 136.044 17.571ZM148.136 9.90909V11.9545H140.985V9.90909H148.136ZM142.903 6.77273H145.451V19.1562C145.451 19.6506 145.525 20.0227 145.673 20.2727C145.82 20.517 146.011 20.6847 146.244 20.7756C146.482 20.8608 146.741 20.9034 147.019 20.9034C147.224 20.9034 147.403 20.8892 147.556 20.8608C147.709 20.8324 147.829 20.8097 147.914 20.7926L148.374 22.8977C148.227 22.9545 148.016 23.0114 147.744 23.0682C147.471 23.1307 147.13 23.1648 146.721 23.1705C146.05 23.1818 145.425 23.0625 144.846 22.8125C144.266 22.5625 143.798 22.1761 143.44 21.6534C143.082 21.1307 142.903 20.4744 142.903 19.6847V6.77273ZM159.247 17.571V9.90909H161.804V23H159.298V20.733H159.162C158.861 21.4318 158.378 22.0142 157.713 22.4801C157.054 22.9403 156.233 23.1705 155.25 23.1705C154.409 23.1705 153.665 22.9858 153.017 22.6165C152.375 22.2415 151.869 21.6875 151.5 20.9545C151.136 20.2216 150.955 19.3153 150.955 18.2358V9.90909H153.503V17.929C153.503 18.821 153.75 19.5312 154.244 20.0597C154.739 20.5881 155.381 20.8523 156.17 20.8523C156.648 20.8523 157.122 20.733 157.594 20.4943C158.071 20.2557 158.466 19.8949 158.778 19.4119C159.097 18.929 159.253 18.3153 159.247 17.571ZM165.228 23V9.90909H167.691V11.9886H167.827C168.066 11.2841 168.486 10.7301 169.089 10.3267C169.697 9.91761 170.384 9.71307 171.151 9.71307C171.31 9.71307 171.498 9.71875 171.714 9.73011C171.935 9.74148 172.109 9.75568 172.234 9.77273V12.2102C172.131 12.1818 171.95 12.1506 171.688 12.1165C171.427 12.0767 171.165 12.0568 170.904 12.0568C170.302 12.0568 169.765 12.1847 169.293 12.4403C168.827 12.6903 168.458 13.0398 168.185 13.4886C167.913 13.9318 167.776 14.4375 167.776 15.0057V23H165.228ZM179.612 23.2642C178.322 23.2642 177.212 22.9886 176.28 22.4375C175.354 21.8807 174.638 21.0994 174.132 20.0938C173.632 19.0824 173.382 17.8977 173.382 16.5398C173.382 15.1989 173.632 14.017 174.132 12.9943C174.638 11.9716 175.342 11.1733 176.246 10.5994C177.155 10.0256 178.217 9.73864 179.433 9.73864C180.172 9.73864 180.888 9.8608 181.581 10.1051C182.274 10.3494 182.896 10.733 183.447 11.2557C183.999 11.7784 184.433 12.4574 184.751 13.2926C185.07 14.1222 185.229 15.1307 185.229 16.3182V17.2216H174.822V15.3125H182.732C182.732 14.642 182.595 14.0483 182.322 13.5312C182.05 13.0085 181.666 12.5966 181.172 12.2955C180.683 11.9943 180.109 11.8438 179.45 11.8438C178.734 11.8438 178.109 12.0199 177.575 12.3722C177.047 12.7187 176.638 13.1733 176.348 13.7358C176.064 14.2926 175.922 14.8977 175.922 15.5511V17.0426C175.922 17.9176 176.075 18.6619 176.382 19.2756C176.695 19.8892 177.129 20.358 177.686 20.6818C178.243 21 178.893 21.1591 179.638 21.1591C180.121 21.1591 180.561 21.0909 180.959 20.9545C181.357 20.8125 181.7 20.6023 181.99 20.3239C182.28 20.0455 182.501 19.7017 182.655 19.2926L185.067 19.7273C184.874 20.4375 184.527 21.0597 184.027 21.5938C183.533 22.1222 182.91 22.5341 182.16 22.8295C181.416 23.1193 180.567 23.2642 179.612 23.2642ZM200.263 23H194.612V5.54545H200.442C202.152 5.54545 203.621 5.89489 204.848 6.59375C206.075 7.28693 207.016 8.28409 207.669 9.58523C208.328 10.8807 208.658 12.4347 208.658 14.2472C208.658 16.0653 208.325 17.6278 207.66 18.9347C207.001 20.2415 206.047 21.2472 204.797 21.9517C203.547 22.6506 202.035 23 200.263 23ZM197.246 20.6989H200.118C201.447 20.6989 202.553 20.4489 203.433 19.9489C204.314 19.4432 204.973 18.7131 205.41 17.7585C205.848 16.7983 206.067 15.6278 206.067 14.2472C206.067 12.8778 205.848 11.7159 205.41 10.7614C204.979 9.80682 204.334 9.08239 203.476 8.58807C202.618 8.09375 201.553 7.84659 200.28 7.84659H197.246V20.6989ZM211.933 23V5.54545H222.876V7.8125H214.566V13.1307H222.305V15.3892H214.566V20.733H222.978V23H211.933ZM228.226 5.54545L232.402 12.3722H232.538L236.714 5.54545H239.766L234.328 14.2727L239.8 23H236.732L232.538 16.267H232.402L228.209 23H225.141L230.706 14.2727L225.175 5.54545H228.226ZM247.869 7.8125V5.54545H261.377V7.8125H255.931V23H253.306V7.8125H247.869ZM267.901 23.2642C266.611 23.2642 265.501 22.9886 264.569 22.4375C263.643 21.8807 262.927 21.0994 262.421 20.0938C261.921 19.0824 261.671 17.8977 261.671 16.5398C261.671 15.1989 261.921 14.017 262.421 12.9943C262.927 11.9716 263.631 11.1733 264.535 10.5994C265.444 10.0256 266.506 9.73864 267.722 9.73864C268.461 9.73864 269.177 9.8608 269.87 10.1051C270.563 10.3494 271.185 10.733 271.736 11.2557C272.288 11.7784 272.722 12.4574 273.04 13.2926C273.359 14.1222 273.518 15.1307 273.518 16.3182V17.2216H263.111V15.3125H271.021C271.021 14.642 270.884 14.0483 270.611 13.5312C270.339 13.0085 269.955 12.5966 269.461 12.2955C268.972 11.9943 268.398 11.8438 267.739 11.8438C267.023 11.8438 266.398 12.0199 265.864 12.3722C265.336 12.7187 264.927 13.1733 264.637 13.7358C264.353 14.2926 264.211 14.8977 264.211 15.5511V17.0426C264.211 17.9176 264.364 18.6619 264.671 19.2756C264.984 19.8892 265.418 20.358 265.975 20.6818C266.532 21 267.183 21.1591 267.927 21.1591C268.41 21.1591 268.85 21.0909 269.248 20.9545C269.646 20.8125 269.989 20.6023 270.279 20.3239C270.569 20.0455 270.79 19.7017 270.944 19.2926L273.356 19.7273C273.163 20.4375 272.816 21.0597 272.316 21.5938C271.822 22.1222 271.2 22.5341 270.45 22.8295C269.705 23.1193 268.856 23.2642 267.901 23.2642ZM286.155 13.1051L283.845 13.5142C283.749 13.2187 283.595 12.9375 283.385 12.6705C283.18 12.4034 282.902 12.1847 282.55 12.0142C282.197 11.8437 281.757 11.7585 281.229 11.7585C280.507 11.7585 279.905 11.9205 279.422 12.2443C278.939 12.5625 278.697 12.9744 278.697 13.4801C278.697 13.9176 278.859 14.2699 279.183 14.5369C279.507 14.804 280.03 15.0227 280.751 15.1932L282.831 15.6705C284.035 15.9489 284.933 16.3778 285.524 16.9574C286.115 17.5369 286.41 18.2898 286.41 19.2159C286.41 20 286.183 20.6989 285.729 21.3125C285.28 21.9205 284.652 22.3977 283.845 22.7443C283.044 23.0909 282.115 23.2642 281.058 23.2642C279.592 23.2642 278.396 22.9517 277.47 22.3267C276.544 21.696 275.976 20.8011 275.766 19.642L278.229 19.267C278.382 19.9091 278.697 20.3949 279.175 20.7244C279.652 21.0483 280.274 21.2102 281.041 21.2102C281.876 21.2102 282.544 21.0369 283.044 20.6903C283.544 20.3381 283.794 19.9091 283.794 19.4034C283.794 18.9943 283.641 18.6506 283.334 18.3722C283.033 18.0937 282.57 17.8835 281.945 17.7415L279.729 17.2557C278.507 16.9773 277.604 16.5341 277.018 15.9261C276.439 15.3182 276.149 14.5483 276.149 13.6165C276.149 12.8437 276.365 12.1676 276.797 11.5881C277.229 11.0085 277.825 10.5568 278.587 10.233C279.348 9.90341 280.22 9.73864 281.203 9.73864C282.618 9.73864 283.732 10.0455 284.544 10.6591C285.357 11.267 285.893 12.0824 286.155 13.1051ZM295.323 9.90909V11.9545H288.173V9.90909H295.323ZM290.09 6.77273H292.638V19.1562C292.638 19.6506 292.712 20.0227 292.86 20.2727C293.008 20.517 293.198 20.6847 293.431 20.7756C293.67 20.8608 293.928 20.9034 294.207 20.9034C294.411 20.9034 294.59 20.8892 294.744 20.8608C294.897 20.8324 295.016 20.8097 295.102 20.7926L295.562 22.8977C295.414 22.9545 295.204 23.0114 294.931 23.0682C294.658 23.1307 294.317 23.1648 293.908 23.1705C293.238 23.1818 292.613 23.0625 292.033 22.8125C291.454 22.5625 290.985 22.1761 290.627 21.6534C290.269 21.1307 290.09 20.4744 290.09 19.6847V6.77273ZM300.69 15.2273V23H298.142V9.90909H300.588V12.0398H300.75C301.051 11.3466 301.523 10.7898 302.165 10.3693C302.812 9.94886 303.628 9.73864 304.611 9.73864C305.503 9.73864 306.284 9.92614 306.955 10.3011C307.625 10.6705 308.145 11.2216 308.514 11.9545C308.884 12.6875 309.068 13.5937 309.068 14.6733V23H306.52V14.9801C306.52 14.0312 306.273 13.2898 305.778 12.7557C305.284 12.2159 304.605 11.946 303.741 11.946C303.151 11.946 302.625 12.0739 302.165 12.3295C301.71 12.5852 301.349 12.9602 301.082 13.4545C300.821 13.9432 300.69 14.5341 300.69 15.2273ZM318.128 23.2642C316.838 23.2642 315.727 22.9886 314.795 22.4375C313.869 21.8807 313.153 21.0994 312.648 20.0938C312.148 19.0824 311.898 17.8977 311.898 16.5398C311.898 15.1989 312.148 14.017 312.648 12.9943C313.153 11.9716 313.858 11.1733 314.761 10.5994C315.67 10.0256 316.733 9.73864 317.949 9.73864C318.687 9.73864 319.403 9.8608 320.097 10.1051C320.79 10.3494 321.412 10.733 321.963 11.2557C322.514 11.7784 322.949 12.4574 323.267 13.2926C323.585 14.1222 323.744 15.1307 323.744 16.3182V17.2216H313.338V15.3125H321.247C321.247 14.642 321.111 14.0483 320.838 13.5312C320.565 13.0085 320.182 12.5966 319.687 12.2955C319.199 11.9943 318.625 11.8438 317.966 11.8438C317.25 11.8438 316.625 12.0199 316.091 12.3722C315.562 12.7187 315.153 13.1733 314.864 13.7358C314.58 14.2926 314.437 14.8977 314.437 15.5511V17.0426C314.437 17.9176 314.591 18.6619 314.898 19.2756C315.21 19.8892 315.645 20.358 316.202 20.6818C316.759 21 317.409 21.1591 318.153 21.1591C318.636 21.1591 319.077 21.0909 319.474 20.9545C319.872 20.8125 320.216 20.6023 320.506 20.3239C320.795 20.0455 321.017 19.7017 321.17 19.2926L323.582 19.7273C323.389 20.4375 323.043 21.0597 322.543 21.5938C322.048 22.1222 321.426 22.5341 320.676 22.8295C319.932 23.1193 319.082 23.2642 318.128 23.2642ZM332.683 9.90909V11.9545H325.532V9.90909H332.683ZM327.45 6.77273H329.998V19.1562C329.998 19.6506 330.072 20.0227 330.219 20.2727C330.367 20.517 330.558 20.6847 330.79 20.7756C331.029 20.8608 331.288 20.9034 331.566 20.9034C331.771 20.9034 331.95 20.8892 332.103 20.8608C332.256 20.8324 332.376 20.8097 332.461 20.7926L332.921 22.8977C332.773 22.9545 332.563 23.0114 332.29 23.0682C332.018 23.1307 331.677 23.1648 331.268 23.1705C330.597 23.1818 329.972 23.0625 329.393 22.8125C328.813 22.5625 328.344 22.1761 327.986 21.6534C327.629 21.1307 327.45 20.4744 327.45 19.6847V6.77273ZM94.8025 48.7955C94.115 48.7955 93.4872 48.6278 92.919 48.2926C92.3508 47.9517 91.8963 47.4972 91.5554 46.929C91.2201 46.3608 91.0525 45.733 91.0525 45.0455C91.0525 44.3523 91.2201 43.7244 91.5554 43.1619C91.8963 42.5937 92.3508 42.142 92.919 41.8068C93.4872 41.4659 94.115 41.2955 94.8025 41.2955C95.4957 41.2955 96.1236 41.4659 96.6861 41.8068C97.2542 42.142 97.7059 42.5937 98.0412 43.1619C98.3821 43.7244 98.5525 44.3523 98.5525 45.0455C98.5525 45.733 98.3821 46.3608 98.0412 46.929C97.7059 47.4972 97.2542 47.9517 96.6861 48.2926C96.1236 48.6278 95.4957 48.7955 94.8025 48.7955ZM129.876 43.2727C129.876 45.1364 129.535 46.7386 128.853 48.0795C128.171 49.4148 127.236 50.4432 126.049 51.1648C124.867 51.8807 123.523 52.2386 122.018 52.2386C120.506 52.2386 119.157 51.8807 117.969 51.1648C116.788 50.4432 115.856 49.4119 115.174 48.071C114.492 46.7301 114.151 45.1307 114.151 43.2727C114.151 41.4091 114.492 39.8097 115.174 38.4744C115.856 37.1335 116.788 36.1051 117.969 35.3892C119.157 34.6676 120.506 34.3068 122.018 34.3068C123.523 34.3068 124.867 34.6676 126.049 35.3892C127.236 36.1051 128.171 37.1335 128.853 38.4744C129.535 39.8097 129.876 41.4091 129.876 43.2727ZM127.268 43.2727C127.268 41.8523 127.038 40.6562 126.577 39.6847C126.123 38.7074 125.498 37.9688 124.702 37.4688C123.913 36.9631 123.018 36.7102 122.018 36.7102C121.012 36.7102 120.114 36.9631 119.325 37.4688C118.535 37.9688 117.91 38.7074 117.45 39.6847C116.995 40.6562 116.768 41.8523 116.768 43.2727C116.768 44.6932 116.995 45.892 117.45 46.8693C117.91 47.8409 118.535 48.5795 119.325 49.0852C120.114 49.5852 121.012 49.8352 122.018 49.8352C123.018 49.8352 123.913 49.5852 124.702 49.0852C125.498 48.5795 126.123 47.8409 126.577 46.8693C127.038 45.892 127.268 44.6932 127.268 43.2727ZM132.955 56.9091V38.9091H135.443V41.0312H135.656C135.804 40.7585 136.017 40.4432 136.295 40.0852C136.574 39.7273 136.96 39.4148 137.455 39.1477C137.949 38.875 138.602 38.7386 139.415 38.7386C140.472 38.7386 141.415 39.0057 142.244 39.5398C143.074 40.0739 143.724 40.8437 144.196 41.8494C144.673 42.8551 144.912 44.0653 144.912 45.4801C144.912 46.8949 144.676 48.108 144.205 49.1193C143.733 50.125 143.085 50.9006 142.261 51.446C141.437 51.9858 140.497 52.2557 139.44 52.2557C138.645 52.2557 137.994 52.1222 137.489 51.8551C136.989 51.5881 136.597 51.2756 136.312 50.9176C136.028 50.5597 135.81 50.2415 135.656 49.9631H135.503V56.9091H132.955ZM135.452 45.4545C135.452 46.375 135.585 47.1818 135.852 47.875C136.119 48.5682 136.506 49.1108 137.011 49.5028C137.517 49.8892 138.136 50.0824 138.869 50.0824C139.631 50.0824 140.267 49.8807 140.778 49.4773C141.29 49.0682 141.676 48.5142 141.937 47.8153C142.205 47.1165 142.338 46.3295 142.338 45.4545C142.338 44.5909 142.207 43.8153 141.946 43.1278C141.69 42.4403 141.304 41.8977 140.787 41.5C140.276 41.1023 139.636 40.9034 138.869 40.9034C138.131 40.9034 137.506 41.0937 136.994 41.4744C136.489 41.8551 136.105 42.3864 135.844 43.0682C135.582 43.75 135.452 44.5455 135.452 45.4545ZM153.878 38.9091V40.9545H146.727V38.9091H153.878ZM148.645 35.7727H151.193V48.1562C151.193 48.6506 151.267 49.0227 151.415 49.2727C151.562 49.517 151.753 49.6847 151.986 49.7756C152.224 49.8608 152.483 49.9034 152.761 49.9034C152.966 49.9034 153.145 49.8892 153.298 49.8608C153.452 49.8324 153.571 49.8097 153.656 49.7926L154.116 51.8977C153.969 51.9545 153.759 52.0114 153.486 52.0682C153.213 52.1307 152.872 52.1648 152.463 52.1705C151.793 52.1818 151.168 52.0625 150.588 51.8125C150.009 51.5625 149.54 51.1761 149.182 50.6534C148.824 50.1307 148.645 49.4744 148.645 48.6847V35.7727ZM156.697 52V38.9091H159.245V52H156.697ZM157.984 36.8892C157.54 36.8892 157.16 36.7415 156.842 36.446C156.529 36.1449 156.373 35.7869 156.373 35.3722C156.373 34.9517 156.529 34.5937 156.842 34.2983C157.16 33.9972 157.54 33.8466 157.984 33.8466C158.427 33.8466 158.805 33.9972 159.117 34.2983C159.435 34.5937 159.594 34.9517 159.594 35.3722C159.594 35.7869 159.435 36.1449 159.117 36.446C158.805 36.7415 158.427 36.8892 157.984 36.8892ZM168.187 52.2642C166.96 52.2642 165.889 51.983 164.974 51.4205C164.06 50.858 163.349 50.071 162.844 49.0597C162.338 48.0483 162.085 46.8665 162.085 45.5142C162.085 44.1562 162.338 42.9687 162.844 41.9517C163.349 40.9347 164.06 40.1449 164.974 39.5824C165.889 39.0199 166.96 38.7386 168.187 38.7386C169.415 38.7386 170.486 39.0199 171.401 39.5824C172.315 40.1449 173.026 40.9347 173.531 41.9517C174.037 42.9687 174.29 44.1562 174.29 45.5142C174.29 46.8665 174.037 48.0483 173.531 49.0597C173.026 50.071 172.315 50.858 171.401 51.4205C170.486 51.983 169.415 52.2642 168.187 52.2642ZM168.196 50.125C168.991 50.125 169.651 49.9148 170.173 49.4943C170.696 49.0739 171.082 48.5142 171.332 47.8153C171.588 47.1165 171.716 46.3466 171.716 45.5057C171.716 44.6705 171.588 43.9034 171.332 43.2045C171.082 42.5 170.696 41.9347 170.173 41.5085C169.651 41.0824 168.991 40.8693 168.196 40.8693C167.395 40.8693 166.73 41.0824 166.202 41.5085C165.679 41.9347 165.29 42.5 165.034 43.2045C164.784 43.9034 164.659 44.6705 164.659 45.5057C164.659 46.3466 164.784 47.1165 165.034 47.8153C165.29 48.5142 165.679 49.0739 166.202 49.4943C166.73 49.9148 167.395 50.125 168.196 50.125ZM179.683 44.2273V52H177.134V38.9091H179.58V41.0398H179.742C180.043 40.3466 180.515 39.7898 181.157 39.3693C181.805 38.9489 182.62 38.7386 183.603 38.7386C184.495 38.7386 185.276 38.9261 185.947 39.3011C186.617 39.6705 187.137 40.2216 187.506 40.9545C187.876 41.6875 188.06 42.5937 188.06 43.6733V52H185.512V43.9801C185.512 43.0312 185.265 42.2898 184.771 41.7557C184.276 41.2159 183.597 40.946 182.734 40.946C182.143 40.946 181.617 41.0739 181.157 41.3295C180.702 41.5852 180.342 41.9602 180.075 42.4545C179.813 42.9432 179.683 43.5341 179.683 44.2273ZM201.288 42.1051L198.978 42.5142C198.881 42.2187 198.728 41.9375 198.518 41.6705C198.313 41.4034 198.035 41.1847 197.683 41.0142C197.33 40.8437 196.89 40.7585 196.361 40.7585C195.64 40.7585 195.038 40.9205 194.555 41.2443C194.072 41.5625 193.83 41.9744 193.83 42.4801C193.83 42.9176 193.992 43.2699 194.316 43.5369C194.64 43.804 195.163 44.0227 195.884 44.1932L197.964 44.6705C199.168 44.9489 200.066 45.3778 200.657 45.9574C201.248 46.5369 201.543 47.2898 201.543 48.2159C201.543 49 201.316 49.6989 200.861 50.3125C200.413 50.9205 199.785 51.3977 198.978 51.7443C198.177 52.0909 197.248 52.2642 196.191 52.2642C194.725 52.2642 193.529 51.9517 192.603 51.3267C191.677 50.696 191.109 49.8011 190.898 48.642L193.361 48.267C193.515 48.9091 193.83 49.3949 194.308 49.7244C194.785 50.0483 195.407 50.2102 196.174 50.2102C197.009 50.2102 197.677 50.0369 198.177 49.6903C198.677 49.3381 198.927 48.9091 198.927 48.4034C198.927 47.9943 198.773 47.6506 198.467 47.3722C198.165 47.0937 197.702 46.8835 197.077 46.7415L194.861 46.2557C193.64 45.9773 192.736 45.5341 192.151 44.9261C191.572 44.3182 191.282 43.5483 191.282 42.6165C191.282 41.8437 191.498 41.1676 191.93 40.5881C192.361 40.0085 192.958 39.5568 193.719 39.233C194.481 38.9034 195.353 38.7386 196.336 38.7386C197.751 38.7386 198.864 39.0455 199.677 39.6591C200.489 40.267 201.026 41.0824 201.288 42.1051ZM216.552 52H210.901V34.5455H216.731C218.441 34.5455 219.91 34.8949 221.137 35.5938C222.364 36.2869 223.305 37.2841 223.958 38.5852C224.617 39.8807 224.947 41.4347 224.947 43.2472C224.947 45.0653 224.614 46.6278 223.95 47.9347C223.29 49.2415 222.336 50.2472 221.086 50.9517C219.836 51.6506 218.325 52 216.552 52ZM213.535 49.6989H216.407C217.736 49.6989 218.842 49.4489 219.722 48.9489C220.603 48.4432 221.262 47.7131 221.7 46.7585C222.137 45.7983 222.356 44.6278 222.356 43.2472C222.356 41.8778 222.137 40.7159 221.7 39.7614C221.268 38.8068 220.623 38.0824 219.765 37.5881C218.907 37.0937 217.842 36.8466 216.569 36.8466H213.535V49.6989ZM233.659 52.2642C232.369 52.2642 231.259 51.9886 230.327 51.4375C229.401 50.8807 228.685 50.0994 228.179 49.0938C227.679 48.0824 227.429 46.8977 227.429 45.5398C227.429 44.1989 227.679 43.017 228.179 41.9943C228.685 40.9716 229.389 40.1733 230.293 39.5994C231.202 39.0256 232.264 38.7386 233.48 38.7386C234.219 38.7386 234.935 38.8608 235.628 39.1051C236.321 39.3494 236.943 39.733 237.494 40.2557C238.045 40.7784 238.48 41.4574 238.798 42.2926C239.116 43.1222 239.276 44.1307 239.276 45.3182V46.2216H228.869V44.3125H236.778C236.778 43.642 236.642 43.0483 236.369 42.5312C236.097 42.0085 235.713 41.5966 235.219 41.2955C234.73 40.9943 234.156 40.8438 233.497 40.8438C232.781 40.8438 232.156 41.0199 231.622 41.3722C231.094 41.7187 230.685 42.1733 230.395 42.7358C230.111 43.2926 229.969 43.8977 229.969 44.5511V46.0426C229.969 46.9176 230.122 47.6619 230.429 48.2756C230.741 48.8892 231.176 49.358 231.733 49.6818C232.29 50 232.94 50.1591 233.685 50.1591C234.168 50.1591 234.608 50.0909 235.006 49.9545C235.403 49.8125 235.747 49.6023 236.037 49.3239C236.327 49.0455 236.548 48.7017 236.702 48.2926L239.114 48.7273C238.92 49.4375 238.574 50.0597 238.074 50.5938C237.58 51.1222 236.957 51.5341 236.207 51.8295C235.463 52.1193 234.614 52.2642 233.659 52.2642ZM243.81 38.9091L246.699 44.0057L249.614 38.9091H252.401L248.318 45.4545L252.435 52H249.648L246.699 47.108L243.759 52H240.963L245.037 45.4545L241.014 38.9091H243.81ZM260.712 36.8125V34.5455H274.221V36.8125H268.775V52H266.15V36.8125H260.712ZM280.745 52.2642C279.455 52.2642 278.344 51.9886 277.413 51.4375C276.486 50.8807 275.771 50.0994 275.265 49.0938C274.765 48.0824 274.515 46.8977 274.515 45.5398C274.515 44.1989 274.765 43.017 275.265 41.9943C275.771 40.9716 276.475 40.1733 277.379 39.5994C278.288 39.0256 279.35 38.7386 280.566 38.7386C281.305 38.7386 282.021 38.8608 282.714 39.1051C283.407 39.3494 284.029 39.733 284.58 40.2557C285.131 40.7784 285.566 41.4574 285.884 42.2926C286.202 43.1222 286.361 44.1307 286.361 45.3182V46.2216H275.955V44.3125H283.864C283.864 43.642 283.728 43.0483 283.455 42.5312C283.183 42.0085 282.799 41.5966 282.305 41.2955C281.816 40.9943 281.242 40.8438 280.583 40.8438C279.867 40.8438 279.242 41.0199 278.708 41.3722C278.18 41.7187 277.771 42.1733 277.481 42.7358C277.197 43.2926 277.055 43.8977 277.055 44.5511V46.0426C277.055 46.9176 277.208 47.6619 277.515 48.2756C277.827 48.8892 278.262 49.358 278.819 49.6818C279.376 50 280.026 50.1591 280.771 50.1591C281.254 50.1591 281.694 50.0909 282.092 49.9545C282.489 49.8125 282.833 49.6023 283.123 49.3239C283.413 49.0455 283.634 48.7017 283.788 48.2926L286.2 48.7273C286.006 49.4375 285.66 50.0597 285.16 50.5938C284.665 51.1222 284.043 51.5341 283.293 51.8295C282.549 52.1193 281.7 52.2642 280.745 52.2642ZM298.999 42.1051L296.689 42.5142C296.592 42.2187 296.439 41.9375 296.229 41.6705C296.024 41.4034 295.746 41.1847 295.393 41.0142C295.041 40.8437 294.601 40.7585 294.072 40.7585C293.351 40.7585 292.749 40.9205 292.266 41.2443C291.783 41.5625 291.541 41.9744 291.541 42.4801C291.541 42.9176 291.703 43.2699 292.027 43.5369C292.351 43.804 292.874 44.0227 293.595 44.1932L295.675 44.6705C296.879 44.9489 297.777 45.3778 298.368 45.9574C298.959 46.5369 299.254 47.2898 299.254 48.2159C299.254 49 299.027 49.6989 298.572 50.3125C298.124 50.9205 297.496 51.3977 296.689 51.7443C295.888 52.0909 294.959 52.2642 293.902 52.2642C292.436 52.2642 291.24 51.9517 290.314 51.3267C289.388 50.696 288.82 49.8011 288.609 48.642L291.072 48.267C291.226 48.9091 291.541 49.3949 292.018 49.7244C292.496 50.0483 293.118 50.2102 293.885 50.2102C294.72 50.2102 295.388 50.0369 295.888 49.6903C296.388 49.3381 296.638 48.9091 296.638 48.4034C296.638 47.9943 296.484 47.6506 296.178 47.3722C295.876 47.0937 295.413 46.8835 294.788 46.7415L292.572 46.2557C291.351 45.9773 290.447 45.5341 289.862 44.9261C289.283 44.3182 288.993 43.5483 288.993 42.6165C288.993 41.8437 289.209 41.1676 289.641 40.5881C290.072 40.0085 290.669 39.5568 291.43 39.233C292.192 38.9034 293.064 38.7386 294.047 38.7386C295.462 38.7386 296.575 39.0455 297.388 39.6591C298.2 40.267 298.737 41.0824 298.999 42.1051ZM308.167 38.9091V40.9545H301.016V38.9091H308.167ZM302.934 35.7727H305.482V48.1562C305.482 48.6506 305.556 49.0227 305.704 49.2727C305.852 49.517 306.042 49.6847 306.275 49.7756C306.513 49.8608 306.772 49.9034 307.05 49.9034C307.255 49.9034 307.434 49.8892 307.587 49.8608C307.741 49.8324 307.86 49.8097 307.945 49.7926L308.406 51.8977C308.258 51.9545 308.048 52.0114 307.775 52.0682C307.502 52.1307 307.161 52.1648 306.752 52.1705C306.082 52.1818 305.457 52.0625 304.877 51.8125C304.298 51.5625 303.829 51.1761 303.471 50.6534C303.113 50.1307 302.934 49.4744 302.934 48.6847V35.7727ZM313.534 44.2273V52H310.986V38.9091H313.432V41.0398H313.594C313.895 40.3466 314.366 39.7898 315.009 39.3693C315.656 38.9489 316.472 38.7386 317.455 38.7386C318.347 38.7386 319.128 38.9261 319.798 39.3011C320.469 39.6705 320.989 40.2216 321.358 40.9545C321.727 41.6875 321.912 42.5937 321.912 43.6733V52H319.364V43.9801C319.364 43.0312 319.116 42.2898 318.622 41.7557C318.128 41.2159 317.449 40.946 316.585 40.946C315.994 40.946 315.469 41.0739 315.009 41.3295C314.554 41.5852 314.193 41.9602 313.926 42.4545C313.665 42.9432 313.534 43.5341 313.534 44.2273ZM330.972 52.2642C329.682 52.2642 328.571 51.9886 327.639 51.4375C326.713 50.8807 325.997 50.0994 325.491 49.0938C324.991 48.0824 324.741 46.8977 324.741 45.5398C324.741 44.1989 324.991 43.017 325.491 41.9943C325.997 40.9716 326.702 40.1733 327.605 39.5994C328.514 39.0256 329.577 38.7386 330.793 38.7386C331.531 38.7386 332.247 38.8608 332.94 39.1051C333.634 39.3494 334.256 39.733 334.807 40.2557C335.358 40.7784 335.793 41.4574 336.111 42.2926C336.429 43.1222 336.588 44.1307 336.588 45.3182V46.2216H326.182V44.3125H334.091C334.091 43.642 333.955 43.0483 333.682 42.5312C333.409 42.0085 333.026 41.5966 332.531 41.2955C332.043 40.9943 331.469 40.8438 330.81 40.8438C330.094 40.8438 329.469 41.0199 328.935 41.3722C328.406 41.7187 327.997 42.1733 327.707 42.7358C327.423 43.2926 327.281 43.8977 327.281 44.5511V46.0426C327.281 46.9176 327.435 47.6619 327.741 48.2756C328.054 48.8892 328.489 49.358 329.045 49.6818C329.602 50 330.253 50.1591 330.997 50.1591C331.48 50.1591 331.92 50.0909 332.318 49.9545C332.716 49.8125 333.06 49.6023 333.349 49.3239C333.639 49.0455 333.861 48.7017 334.014 48.2926L336.426 48.7273C336.233 49.4375 335.886 50.0597 335.386 50.5938C334.892 51.1222 334.27 51.5341 333.52 51.8295C332.776 52.1193 331.926 52.2642 330.972 52.2642ZM345.526 38.9091V40.9545H338.376V38.9091H345.526ZM340.293 35.7727H342.842V48.1562C342.842 48.6506 342.915 49.0227 343.063 49.2727C343.211 49.517 343.401 49.6847 343.634 49.7756C343.873 49.8608 344.131 49.9034 344.41 49.9034C344.614 49.9034 344.793 49.8892 344.947 49.8608C345.1 49.8324 345.219 49.8097 345.305 49.7926L345.765 51.8977C345.617 51.9545 345.407 52.0114 345.134 52.0682C344.861 52.1307 344.521 52.1648 344.111 52.1705C343.441 52.1818 342.816 52.0625 342.236 51.8125C341.657 51.5625 341.188 51.1761 340.83 50.6534C340.472 50.1307 340.293 49.4744 340.293 48.6847V35.7727ZM94.8025 77.7955C94.115 77.7955 93.4872 77.6278 92.919 77.2926C92.3508 76.9517 91.8963 76.4972 91.5554 75.929C91.2201 75.3608 91.0525 74.733 91.0525 74.0455C91.0525 73.3523 91.2201 72.7244 91.5554 72.1619C91.8963 71.5937 92.3508 71.142 92.919 70.8068C93.4872 70.4659 94.115 70.2955 94.8025 70.2955C95.4957 70.2955 96.1236 70.4659 96.6861 70.8068C97.2542 71.142 97.7059 71.5937 98.0412 72.1619C98.3821 72.7244 98.5525 73.3523 98.5525 74.0455C98.5525 74.733 98.3821 75.3608 98.0412 75.929C97.7059 76.4972 97.2542 76.9517 96.6861 77.2926C96.1236 77.6278 95.4957 77.7955 94.8025 77.7955ZM114.714 81V63.5455H117.347V78.733H125.256V81H114.714ZM131.866 81.2898C131.036 81.2898 130.286 81.1364 129.616 80.8295C128.945 80.517 128.414 80.0653 128.022 79.4744C127.636 78.8835 127.442 78.1591 127.442 77.3011C127.442 76.5625 127.584 75.9545 127.869 75.4773C128.153 75 128.536 74.6222 129.019 74.3438C129.502 74.0653 130.042 73.8551 130.638 73.7131C131.235 73.571 131.843 73.4631 132.462 73.3892C133.246 73.2983 133.883 73.2244 134.371 73.1676C134.86 73.1051 135.215 73.0057 135.437 72.8693C135.658 72.733 135.769 72.5114 135.769 72.2045V72.1449C135.769 71.4006 135.559 70.8239 135.138 70.4148C134.724 70.0057 134.104 69.8011 133.281 69.8011C132.423 69.8011 131.746 69.9915 131.252 70.3722C130.763 70.7472 130.425 71.1648 130.238 71.625L127.843 71.0795C128.127 70.2841 128.542 69.642 129.087 69.1534C129.638 68.6591 130.272 68.3011 130.988 68.0795C131.704 67.8523 132.457 67.7386 133.246 67.7386C133.769 67.7386 134.323 67.8011 134.908 67.9261C135.499 68.0455 136.05 68.267 136.562 68.5909C137.079 68.9148 137.502 69.3778 137.832 69.9801C138.161 70.5767 138.326 71.3523 138.326 72.3068V81H135.837V79.2102H135.735C135.57 79.5398 135.323 79.8636 134.994 80.1818C134.664 80.5 134.241 80.7642 133.724 80.9744C133.207 81.1847 132.587 81.2898 131.866 81.2898ZM132.42 79.2443C133.124 79.2443 133.727 79.1051 134.227 78.8267C134.732 78.5483 135.116 78.1847 135.377 77.7358C135.644 77.2812 135.778 76.7955 135.778 76.2784V74.5909C135.687 74.6818 135.511 74.767 135.249 74.8466C134.994 74.9205 134.701 74.9858 134.371 75.0426C134.042 75.0937 133.721 75.142 133.408 75.1875C133.096 75.2273 132.834 75.2614 132.624 75.2898C132.13 75.3523 131.678 75.4574 131.269 75.6051C130.866 75.7528 130.542 75.9659 130.298 76.2443C130.059 76.517 129.94 76.8807 129.94 77.3352C129.94 77.9659 130.173 78.4432 130.638 78.767C131.104 79.0852 131.698 79.2443 132.42 79.2443ZM142.862 85.9091C142.482 85.9091 142.135 85.8778 141.822 85.8153C141.51 85.7585 141.277 85.696 141.124 85.6278L141.737 83.5398C142.203 83.6648 142.618 83.7188 142.982 83.7017C143.345 83.6847 143.666 83.5483 143.945 83.2926C144.229 83.0369 144.479 82.6193 144.695 82.0398L145.01 81.1705L140.22 67.9091H142.947L146.263 78.0682H146.399L149.714 67.9091H152.45L147.055 82.7472C146.805 83.429 146.487 84.0057 146.101 84.4773C145.714 84.9545 145.254 85.3125 144.72 85.5511C144.186 85.7898 143.567 85.9091 142.862 85.9091ZM160.042 81.2642C158.752 81.2642 157.641 80.9886 156.709 80.4375C155.783 79.8807 155.067 79.0994 154.562 78.0938C154.062 77.0824 153.812 75.8977 153.812 74.5398C153.812 73.1989 154.062 72.017 154.562 70.9943C155.067 69.9716 155.772 69.1733 156.675 68.5994C157.584 68.0256 158.647 67.7386 159.863 67.7386C160.602 67.7386 161.317 67.8608 162.011 68.1051C162.704 68.3494 163.326 68.733 163.877 69.2557C164.428 69.7784 164.863 70.4574 165.181 71.2926C165.499 72.1222 165.658 73.1307 165.658 74.3182V75.2216H155.252V73.3125H163.161C163.161 72.642 163.025 72.0483 162.752 71.5312C162.479 71.0085 162.096 70.5966 161.602 70.2955C161.113 69.9943 160.539 69.8438 159.88 69.8438C159.164 69.8438 158.539 70.0199 158.005 70.3722C157.477 70.7187 157.067 71.1733 156.778 71.7358C156.494 72.2926 156.352 72.8977 156.352 73.5511V75.0426C156.352 75.9176 156.505 76.6619 156.812 77.2756C157.124 77.8892 157.559 78.358 158.116 78.6818C158.673 79 159.323 79.1591 160.067 79.1591C160.55 79.1591 160.991 79.0909 161.388 78.9545C161.786 78.8125 162.13 78.6023 162.42 78.3239C162.709 78.0455 162.931 77.7017 163.084 77.2926L165.496 77.7273C165.303 78.4375 164.957 79.0597 164.457 79.5938C163.962 80.1222 163.34 80.5341 162.59 80.8295C161.846 81.1193 160.996 81.2642 160.042 81.2642ZM168.486 81V67.9091H170.949V69.9886H171.085C171.324 69.2841 171.744 68.7301 172.347 68.3267C172.955 67.9176 173.642 67.7131 174.409 67.7131C174.568 67.7131 174.756 67.7187 174.972 67.7301C175.193 67.7415 175.366 67.7557 175.491 67.7727V70.2102C175.389 70.1818 175.207 70.1506 174.946 70.1165C174.685 70.0767 174.423 70.0568 174.162 70.0568C173.56 70.0568 173.023 70.1847 172.551 70.4403C172.085 70.6903 171.716 71.0398 171.443 71.4886C171.17 71.9318 171.034 72.4375 171.034 73.0057V81H168.486ZM190.636 63.5455V81H187.994V66.1875H187.892L183.716 68.9148V66.392L188.071 63.5455H190.636ZM201.087 65.8125V63.5455H214.596V65.8125H209.15V81H206.525V65.8125H201.087ZM221.12 81.2642C219.83 81.2642 218.719 80.9886 217.788 80.4375C216.861 79.8807 216.146 79.0994 215.64 78.0938C215.14 77.0824 214.89 75.8977 214.89 74.5398C214.89 73.1989 215.14 72.017 215.64 70.9943C216.146 69.9716 216.85 69.1733 217.754 68.5994C218.663 68.0256 219.725 67.7386 220.941 67.7386C221.68 67.7386 222.396 67.8608 223.089 68.1051C223.782 68.3494 224.404 68.733 224.955 69.2557C225.506 69.7784 225.941 70.4574 226.259 71.2926C226.577 72.1222 226.736 73.1307 226.736 74.3182V75.2216H216.33V73.3125H224.239C224.239 72.642 224.103 72.0483 223.83 71.5312C223.558 71.0085 223.174 70.5966 222.68 70.2955C222.191 69.9943 221.617 69.8438 220.958 69.8438C220.242 69.8438 219.617 70.0199 219.083 70.3722C218.555 70.7187 218.146 71.1733 217.856 71.7358C217.572 72.2926 217.43 72.8977 217.43 73.5511V75.0426C217.43 75.9176 217.583 76.6619 217.89 77.2756C218.202 77.8892 218.637 78.358 219.194 78.6818C219.751 79 220.401 79.1591 221.146 79.1591C221.629 79.1591 222.069 79.0909 222.467 78.9545C222.864 78.8125 223.208 78.6023 223.498 78.3239C223.788 78.0455 224.009 77.7017 224.163 77.2926L226.575 77.7273C226.381 78.4375 226.035 79.0597 225.535 79.5938C225.04 80.1222 224.418 80.5341 223.668 80.8295C222.924 81.1193 222.075 81.2642 221.12 81.2642ZM239.374 71.1051L237.064 71.5142C236.967 71.2187 236.814 70.9375 236.604 70.6705C236.399 70.4034 236.121 70.1847 235.768 70.0142C235.416 69.8437 234.976 69.7585 234.447 69.7585C233.726 69.7585 233.124 69.9205 232.641 70.2443C232.158 70.5625 231.916 70.9744 231.916 71.4801C231.916 71.9176 232.078 72.2699 232.402 72.5369C232.726 72.804 233.249 73.0227 233.97 73.1932L236.05 73.6705C237.254 73.9489 238.152 74.3778 238.743 74.9574C239.334 75.5369 239.629 76.2898 239.629 77.2159C239.629 78 239.402 78.6989 238.947 79.3125C238.499 79.9205 237.871 80.3977 237.064 80.7443C236.263 81.0909 235.334 81.2642 234.277 81.2642C232.811 81.2642 231.615 80.9517 230.689 80.3267C229.763 79.696 229.195 78.8011 228.984 77.642L231.447 77.267C231.601 77.9091 231.916 78.3949 232.393 78.7244C232.871 79.0483 233.493 79.2102 234.26 79.2102C235.095 79.2102 235.763 79.0369 236.263 78.6903C236.763 78.3381 237.013 77.9091 237.013 77.4034C237.013 76.9943 236.859 76.6506 236.553 76.3722C236.251 76.0937 235.788 75.8835 235.163 75.7415L232.947 75.2557C231.726 74.9773 230.822 74.5341 230.237 73.9261C229.658 73.3182 229.368 72.5483 229.368 71.6165C229.368 70.8437 229.584 70.1676 230.016 69.5881C230.447 69.0085 231.044 68.5568 231.805 68.233C232.567 67.9034 233.439 67.7386 234.422 67.7386C235.837 67.7386 236.95 68.0455 237.763 68.6591C238.575 69.267 239.112 70.0824 239.374 71.1051ZM248.542 67.9091V69.9545H241.391V67.9091H248.542ZM243.309 64.7727H245.857V77.1562C245.857 77.6506 245.931 78.0227 246.079 78.2727C246.227 78.517 246.417 78.6847 246.65 78.7756C246.888 78.8608 247.147 78.9034 247.425 78.9034C247.63 78.9034 247.809 78.8892 247.962 78.8608C248.116 78.8324 248.235 78.8097 248.32 78.7926L248.781 80.8977C248.633 80.9545 248.423 81.0114 248.15 81.0682C247.877 81.1307 247.536 81.1648 247.127 81.1705C246.457 81.1818 245.832 81.0625 245.252 80.8125C244.673 80.5625 244.204 80.1761 243.846 79.6534C243.488 79.1307 243.309 78.4744 243.309 77.6847V64.7727ZM253.909 73.2273V81H251.361V67.9091H253.807V70.0398H253.969C254.27 69.3466 254.741 68.7898 255.384 68.3693C256.031 67.9489 256.847 67.7386 257.83 67.7386C258.722 67.7386 259.503 67.9261 260.173 68.3011C260.844 68.6705 261.364 69.2216 261.733 69.9545C262.102 70.6875 262.287 71.5937 262.287 72.6733V81H259.739V72.9801C259.739 72.0312 259.491 71.2898 258.997 70.7557C258.503 70.2159 257.824 69.946 256.96 69.946C256.369 69.946 255.844 70.0739 255.384 70.3295C254.929 70.5852 254.568 70.9602 254.301 71.4545C254.04 71.9432 253.909 72.5341 253.909 73.2273ZM271.347 81.2642C270.057 81.2642 268.946 80.9886 268.014 80.4375C267.088 79.8807 266.372 79.0994 265.866 78.0938C265.366 77.0824 265.116 75.8977 265.116 74.5398C265.116 73.1989 265.366 72.017 265.866 70.9943C266.372 69.9716 267.077 69.1733 267.98 68.5994C268.889 68.0256 269.952 67.7386 271.168 67.7386C271.906 67.7386 272.622 67.8608 273.315 68.1051C274.009 68.3494 274.631 68.733 275.182 69.2557C275.733 69.7784 276.168 70.4574 276.486 71.2926C276.804 72.1222 276.963 73.1307 276.963 74.3182V75.2216H266.557V73.3125H274.466C274.466 72.642 274.33 72.0483 274.057 71.5312C273.784 71.0085 273.401 70.5966 272.906 70.2955C272.418 69.9943 271.844 69.8438 271.185 69.8438C270.469 69.8438 269.844 70.0199 269.31 70.3722C268.781 70.7187 268.372 71.1733 268.082 71.7358C267.798 72.2926 267.656 72.8977 267.656 73.5511V75.0426C267.656 75.9176 267.81 76.6619 268.116 77.2756C268.429 77.8892 268.864 78.358 269.42 78.6818C269.977 79 270.628 79.1591 271.372 79.1591C271.855 79.1591 272.295 79.0909 272.693 78.9545C273.091 78.8125 273.435 78.6023 273.724 78.3239C274.014 78.0455 274.236 77.7017 274.389 77.2926L276.801 77.7273C276.608 78.4375 276.261 79.0597 275.761 79.5938C275.267 80.1222 274.645 80.5341 273.895 80.8295C273.151 81.1193 272.301 81.2642 271.347 81.2642ZM285.901 67.9091V69.9545H278.751V67.9091H285.901ZM280.668 64.7727H283.217V77.1562C283.217 77.6506 283.29 78.0227 283.438 78.2727C283.586 78.517 283.776 78.6847 284.009 78.7756C284.248 78.8608 284.506 78.9034 284.785 78.9034C284.989 78.9034 285.168 78.8892 285.322 78.8608C285.475 78.8324 285.594 78.8097 285.68 78.7926L286.14 80.8977C285.992 80.9545 285.782 81.0114 285.509 81.0682C285.236 81.1307 284.896 81.1648 284.486 81.1705C283.816 81.1818 283.191 81.0625 282.611 80.8125C282.032 80.5625 281.563 80.1761 281.205 79.6534C280.847 79.1307 280.668 78.4744 280.668 77.6847V64.7727ZM297.91 63.5455V81H295.276V63.5455H297.91ZM301.54 81V67.9091H303.986V70.0398H304.148C304.421 69.3182 304.867 68.7557 305.486 68.3523C306.106 67.9432 306.847 67.7386 307.711 67.7386C308.586 67.7386 309.319 67.9432 309.91 68.3523C310.506 68.7614 310.947 69.3239 311.231 70.0398H311.367C311.68 69.3409 312.177 68.7841 312.859 68.3693C313.54 67.9489 314.353 67.7386 315.296 67.7386C316.484 67.7386 317.452 68.1108 318.202 68.8551C318.958 69.5994 319.336 70.7216 319.336 72.2216V81H316.788V72.4602C316.788 71.5739 316.546 70.9318 316.063 70.5341C315.58 70.1364 315.004 69.9375 314.333 69.9375C313.504 69.9375 312.859 70.1932 312.398 70.7045C311.938 71.2102 311.708 71.8608 311.708 72.6562V81H309.168V72.2983C309.168 71.5881 308.947 71.017 308.504 70.5852C308.06 70.1534 307.484 69.9375 306.773 69.9375C306.29 69.9375 305.844 70.0653 305.435 70.321C305.032 70.571 304.705 70.9205 304.455 71.3693C304.211 71.8182 304.089 72.3381 304.089 72.929V81H301.54ZM322.751 85.9091V67.9091H325.24V70.0312H325.453C325.601 69.7585 325.814 69.4432 326.092 69.0852C326.371 68.7273 326.757 68.4148 327.251 68.1477C327.746 67.875 328.399 67.7386 329.212 67.7386C330.268 67.7386 331.212 68.0057 332.041 68.5398C332.871 69.0739 333.521 69.8437 333.993 70.8494C334.47 71.8551 334.709 73.0653 334.709 74.4801C334.709 75.8949 334.473 77.108 334.001 78.1193C333.53 79.125 332.882 79.9006 332.058 80.446C331.234 80.9858 330.294 81.2557 329.237 81.2557C328.442 81.2557 327.791 81.1222 327.285 80.8551C326.785 80.5881 326.393 80.2756 326.109 79.9176C325.825 79.5597 325.607 79.2415 325.453 78.9631H325.3V85.9091H322.751ZM325.249 74.4545C325.249 75.375 325.382 76.1818 325.649 76.875C325.916 77.5682 326.303 78.1108 326.808 78.5028C327.314 78.8892 327.933 79.0824 328.666 79.0824C329.428 79.0824 330.064 78.8807 330.575 78.4773C331.087 78.0682 331.473 77.5142 331.734 76.8153C332.001 76.1165 332.135 75.3295 332.135 74.4545C332.135 73.5909 332.004 72.8153 331.743 72.1278C331.487 71.4403 331.101 70.8977 330.584 70.5C330.072 70.1023 329.433 69.9034 328.666 69.9034C327.928 69.9034 327.303 70.0937 326.791 70.4744C326.285 70.8551 325.902 71.3864 325.641 72.0682C325.379 72.75 325.249 73.5455 325.249 74.4545ZM340.112 63.5455V81H337.564V63.5455H340.112ZM349.183 81.2642C347.893 81.2642 346.782 80.9886 345.85 80.4375C344.924 79.8807 344.208 79.0994 343.702 78.0938C343.202 77.0824 342.952 75.8977 342.952 74.5398C342.952 73.1989 343.202 72.017 343.702 70.9943C344.208 69.9716 344.913 69.1733 345.816 68.5994C346.725 68.0256 347.788 67.7386 349.004 67.7386C349.742 67.7386 350.458 67.8608 351.151 68.1051C351.844 68.3494 352.467 68.733 353.018 69.2557C353.569 69.7784 354.004 70.4574 354.322 71.2926C354.64 72.1222 354.799 73.1307 354.799 74.3182V75.2216H344.393V73.3125H352.302C352.302 72.642 352.165 72.0483 351.893 71.5312C351.62 71.0085 351.236 70.5966 350.742 70.2955C350.254 69.9943 349.68 69.8438 349.021 69.8438C348.305 69.8438 347.68 70.0199 347.146 70.3722C346.617 70.7187 346.208 71.1733 345.918 71.7358C345.634 72.2926 345.492 72.8977 345.492 73.5511V75.0426C345.492 75.9176 345.646 76.6619 345.952 77.2756C346.265 77.8892 346.7 78.358 347.256 78.6818C347.813 79 348.464 79.1591 349.208 79.1591C349.691 79.1591 350.131 79.0909 350.529 78.9545C350.927 78.8125 351.271 78.6023 351.56 78.3239C351.85 78.0455 352.072 77.7017 352.225 77.2926L354.637 77.7273C354.444 78.4375 354.097 79.0597 353.597 79.5938C353.103 80.1222 352.481 80.5341 351.731 80.8295C350.986 81.1193 350.137 81.2642 349.183 81.2642ZM357.626 81V67.9091H360.072V70.0398H360.234C360.507 69.3182 360.953 68.7557 361.572 68.3523C362.192 67.9432 362.933 67.7386 363.797 67.7386C364.672 67.7386 365.405 67.9432 365.996 68.3523C366.592 68.7614 367.033 69.3239 367.317 70.0398H367.453C367.766 69.3409 368.263 68.7841 368.945 68.3693C369.626 67.9489 370.439 67.7386 371.382 67.7386C372.57 67.7386 373.538 68.1108 374.288 68.8551C375.044 69.5994 375.422 70.7216 375.422 72.2216V81H372.874V72.4602C372.874 71.5739 372.632 70.9318 372.149 70.5341C371.666 70.1364 371.089 69.9375 370.419 69.9375C369.589 69.9375 368.945 70.1932 368.484 70.7045C368.024 71.2102 367.794 71.8608 367.794 72.6562V81H365.254V72.2983C365.254 71.5881 365.033 71.017 364.589 70.5852C364.146 70.1534 363.57 69.9375 362.859 69.9375C362.376 69.9375 361.93 70.0653 361.521 70.321C361.118 70.571 360.791 70.9205 360.541 71.3693C360.297 71.8182 360.175 72.3381 360.175 72.929V81H357.626ZM382.647 81.2898C381.817 81.2898 381.067 81.1364 380.397 80.8295C379.727 80.517 379.195 80.0653 378.803 79.4744C378.417 78.8835 378.224 78.1591 378.224 77.3011C378.224 76.5625 378.366 75.9545 378.65 75.4773C378.934 75 379.317 74.6222 379.8 74.3438C380.283 74.0653 380.823 73.8551 381.42 73.7131C382.016 73.571 382.624 73.4631 383.244 73.3892C384.028 73.2983 384.664 73.2244 385.153 73.1676C385.641 73.1051 385.996 73.0057 386.218 72.8693C386.44 72.733 386.55 72.5114 386.55 72.2045V72.1449C386.55 71.4006 386.34 70.8239 385.92 70.4148C385.505 70.0057 384.886 69.8011 384.062 69.8011C383.204 69.8011 382.528 69.9915 382.033 70.3722C381.545 70.7472 381.207 71.1648 381.019 71.625L378.624 71.0795C378.908 70.2841 379.323 69.642 379.869 69.1534C380.42 68.6591 381.053 68.3011 381.769 68.0795C382.485 67.8523 383.238 67.7386 384.028 67.7386C384.55 67.7386 385.104 67.8011 385.69 67.9261C386.281 68.0455 386.832 68.267 387.343 68.5909C387.86 68.9148 388.283 69.3778 388.613 69.9801C388.942 70.5767 389.107 71.3523 389.107 72.3068V81H386.619V79.2102H386.516C386.352 79.5398 386.104 79.8636 385.775 80.1818C385.445 80.5 385.022 80.7642 384.505 80.9744C383.988 81.1847 383.369 81.2898 382.647 81.2898ZM383.201 79.2443C383.906 79.2443 384.508 79.1051 385.008 78.8267C385.513 78.5483 385.897 78.1847 386.158 77.7358C386.425 77.2812 386.559 76.7955 386.559 76.2784V74.5909C386.468 74.6818 386.292 74.767 386.031 74.8466C385.775 74.9205 385.482 74.9858 385.153 75.0426C384.823 75.0937 384.502 75.142 384.19 75.1875C383.877 75.2273 383.616 75.2614 383.406 75.2898C382.911 75.3523 382.459 75.4574 382.05 75.6051C381.647 75.7528 381.323 75.9659 381.079 76.2443C380.84 76.517 380.721 76.8807 380.721 77.3352C380.721 77.9659 380.954 78.4432 381.42 78.767C381.886 79.0852 382.479 79.2443 383.201 79.2443ZM395.05 73.2273V81H392.501V67.9091H394.947V70.0398H395.109C395.41 69.3466 395.882 68.7898 396.524 68.3693C397.172 67.9489 397.987 67.7386 398.97 67.7386C399.862 67.7386 400.643 67.9261 401.314 68.3011C401.984 68.6705 402.504 69.2216 402.874 69.9545C403.243 70.6875 403.428 71.5937 403.428 72.6733V81H400.879V72.9801C400.879 72.0312 400.632 71.2898 400.138 70.7557C399.643 70.2159 398.964 69.946 398.101 69.946C397.51 69.946 396.984 70.0739 396.524 70.3295C396.07 70.5852 395.709 70.9602 395.442 71.4545C395.18 71.9432 395.05 72.5341 395.05 73.2273ZM412.956 67.9091V69.9545H405.805V67.9091H412.956ZM407.723 64.7727H410.271V77.1562C410.271 77.6506 410.345 78.0227 410.493 78.2727C410.641 78.517 410.831 78.6847 411.064 78.7756C411.303 78.8608 411.561 78.9034 411.839 78.9034C412.044 78.9034 412.223 78.8892 412.376 78.8608C412.53 78.8324 412.649 78.8097 412.734 78.7926L413.195 80.8977C413.047 80.9545 412.837 81.0114 412.564 81.0682C412.291 81.1307 411.95 81.1648 411.541 81.1705C410.871 81.1818 410.246 81.0625 409.666 80.8125C409.087 80.5625 408.618 80.1761 408.26 79.6534C407.902 79.1307 407.723 78.4744 407.723 77.6847V64.7727ZM419.584 81.2898C418.755 81.2898 418.005 81.1364 417.334 80.8295C416.664 80.517 416.133 80.0653 415.741 79.4744C415.354 78.8835 415.161 78.1591 415.161 77.3011C415.161 76.5625 415.303 75.9545 415.587 75.4773C415.871 75 416.255 74.6222 416.738 74.3438C417.221 74.0653 417.761 73.8551 418.357 73.7131C418.954 73.571 419.562 73.4631 420.181 73.3892C420.965 73.2983 421.602 73.2244 422.09 73.1676C422.579 73.1051 422.934 73.0057 423.156 72.8693C423.377 72.733 423.488 72.5114 423.488 72.2045V72.1449C423.488 71.4006 423.278 70.8239 422.857 70.4148C422.442 70.0057 421.823 69.8011 420.999 69.8011C420.141 69.8011 419.465 69.9915 418.971 70.3722C418.482 70.7472 418.144 71.1648 417.957 71.625L415.562 71.0795C415.846 70.2841 416.261 69.642 416.806 69.1534C417.357 68.6591 417.991 68.3011 418.707 68.0795C419.423 67.8523 420.175 67.7386 420.965 67.7386C421.488 67.7386 422.042 67.8011 422.627 67.9261C423.218 68.0455 423.769 68.267 424.281 68.5909C424.798 68.9148 425.221 69.3778 425.55 69.9801C425.88 70.5767 426.045 71.3523 426.045 72.3068V81H423.556V79.2102H423.454C423.289 79.5398 423.042 79.8636 422.712 80.1818C422.383 80.5 421.959 80.7642 421.442 80.9744C420.925 81.1847 420.306 81.2898 419.584 81.2898ZM420.138 79.2443C420.843 79.2443 421.445 79.1051 421.945 78.8267C422.451 78.5483 422.834 78.1847 423.096 77.7358C423.363 77.2812 423.496 76.7955 423.496 76.2784V74.5909C423.406 74.6818 423.229 74.767 422.968 74.8466C422.712 74.9205 422.42 74.9858 422.09 75.0426C421.761 75.0937 421.44 75.142 421.127 75.1875C420.815 75.2273 420.553 75.2614 420.343 75.2898C419.849 75.3523 419.397 75.4574 418.988 75.6051C418.584 75.7528 418.261 75.9659 418.016 76.2443C417.778 76.517 417.658 76.8807 417.658 77.3352C417.658 77.9659 417.891 78.4432 418.357 78.767C418.823 79.0852 419.417 79.2443 420.138 79.2443ZM435.55 67.9091V69.9545H428.399V67.9091H435.55ZM430.317 64.7727H432.865V77.1562C432.865 77.6506 432.939 78.0227 433.087 78.2727C433.234 78.517 433.425 78.6847 433.658 78.7756C433.896 78.8608 434.155 78.9034 434.433 78.9034C434.638 78.9034 434.817 78.8892 434.97 78.8608C435.124 78.8324 435.243 78.8097 435.328 78.7926L435.788 80.8977C435.641 80.9545 435.43 81.0114 435.158 81.0682C434.885 81.1307 434.544 81.1648 434.135 81.1705C433.464 81.1818 432.839 81.0625 432.26 80.8125C431.68 80.5625 431.212 80.1761 430.854 79.6534C430.496 79.1307 430.317 78.4744 430.317 77.6847V64.7727ZM438.369 81V67.9091H440.917V81H438.369ZM439.656 65.8892C439.212 65.8892 438.832 65.7415 438.513 65.446C438.201 65.1449 438.045 64.7869 438.045 64.3722C438.045 63.9517 438.201 63.5937 438.513 63.2983C438.832 62.9972 439.212 62.8466 439.656 62.8466C440.099 62.8466 440.477 62.9972 440.789 63.2983C441.107 63.5937 441.266 63.9517 441.266 64.3722C441.266 64.7869 441.107 65.1449 440.789 65.446C440.477 65.7415 440.099 65.8892 439.656 65.8892ZM449.859 81.2642C448.632 81.2642 447.561 80.983 446.646 80.4205C445.732 79.858 445.021 79.071 444.516 78.0597C444.01 77.0483 443.757 75.8665 443.757 74.5142C443.757 73.1562 444.01 71.9687 444.516 70.9517C445.021 69.9347 445.732 69.1449 446.646 68.5824C447.561 68.0199 448.632 67.7386 449.859 67.7386C451.087 67.7386 452.158 68.0199 453.072 68.5824C453.987 69.1449 454.697 69.9347 455.203 70.9517C455.709 71.9687 455.962 73.1562 455.962 74.5142C455.962 75.8665 455.709 77.0483 455.203 78.0597C454.697 79.071 453.987 79.858 453.072 80.4205C452.158 80.983 451.087 81.2642 449.859 81.2642ZM449.868 79.125C450.663 79.125 451.322 78.9148 451.845 78.4943C452.368 78.0739 452.754 77.5142 453.004 76.8153C453.26 76.1165 453.388 75.3466 453.388 74.5057C453.388 73.6705 453.26 72.9034 453.004 72.2045C452.754 71.5 452.368 70.9347 451.845 70.5085C451.322 70.0824 450.663 69.8693 449.868 69.8693C449.067 69.8693 448.402 70.0824 447.874 70.5085C447.351 70.9347 446.962 71.5 446.706 72.2045C446.456 72.9034 446.331 73.6705 446.331 74.5057C446.331 75.3466 446.456 76.1165 446.706 76.8153C446.962 77.5142 447.351 78.0739 447.874 78.4943C448.402 78.9148 449.067 79.125 449.868 79.125ZM461.354 73.2273V81H458.806V67.9091H461.252V70.0398H461.414C461.715 69.3466 462.187 68.7898 462.829 68.3693C463.477 67.9489 464.292 67.7386 465.275 67.7386C466.167 67.7386 466.948 67.9261 467.619 68.3011C468.289 68.6705 468.809 69.2216 469.178 69.9545C469.548 70.6875 469.732 71.5937 469.732 72.6733V81H467.184V72.9801C467.184 72.0312 466.937 71.2898 466.442 70.7557C465.948 70.2159 465.269 69.946 464.406 69.946C463.815 69.946 463.289 70.0739 462.829 70.3295C462.374 70.5852 462.013 70.9602 461.746 71.4545C461.485 71.9432 461.354 72.5341 461.354 73.2273Z" fill="#4CC9F0"/>
<line x1="94.2964" y1="7" x2="94.2964" y2="280" stroke="#0FA9D9"/>
</svg>
