<svg width="472" height="572" viewBox="0 0 472 572" fill="none" xmlns="http://www.w3.org/2000/svg">
<path d="M380.749 280L324.847 324.167V235.833L380.749 280Z" fill="#BA1E71"/>
<path fill-rule="evenodd" clip-rule="evenodd" d="M1.07612e-05 324L55.6901 280L1.07612e-05 236H324.847V324H1.07612e-05Z" fill="#BA1E71"/>
<path d="M127.026 294V291.443L136.628 280.932C137.755 279.701 138.683 278.631 139.412 277.722C140.142 276.803 140.681 275.941 141.032 275.136C141.392 274.322 141.571 273.47 141.571 272.58C141.571 271.557 141.325 270.671 140.833 269.923C140.35 269.175 139.687 268.598 138.844 268.19C138.001 267.783 137.054 267.58 136.003 267.58C134.886 267.58 133.91 267.812 133.077 268.276C132.253 268.73 131.614 269.369 131.16 270.193C130.714 271.017 130.492 271.983 130.492 273.091H127.14C127.14 271.386 127.533 269.89 128.319 268.602C129.105 267.314 130.175 266.311 131.529 265.591C132.892 264.871 134.422 264.511 136.117 264.511C137.821 264.511 139.332 264.871 140.648 265.591C141.964 266.311 142.997 267.281 143.745 268.503C144.493 269.724 144.867 271.083 144.867 272.58C144.867 273.65 144.673 274.696 144.285 275.719C143.906 276.732 143.243 277.864 142.296 279.114C141.358 280.354 140.056 281.869 138.39 283.659L131.856 290.648V290.875H145.378V294H127.026ZM160.733 294.398C158.593 294.398 156.77 293.815 155.265 292.651C153.759 291.476 152.608 289.777 151.813 287.551C151.017 285.316 150.62 282.617 150.62 279.455C150.62 276.311 151.017 273.626 151.813 271.401C152.618 269.166 153.773 267.461 155.279 266.287C156.794 265.103 158.612 264.511 160.733 264.511C162.855 264.511 164.668 265.103 166.174 266.287C167.689 267.461 168.844 269.166 169.64 271.401C170.445 273.626 170.847 276.311 170.847 279.455C170.847 282.617 170.449 285.316 169.654 287.551C168.858 289.777 167.708 291.476 166.202 292.651C164.696 293.815 162.874 294.398 160.733 294.398ZM160.733 291.273C162.855 291.273 164.502 290.25 165.677 288.205C166.851 286.159 167.438 283.242 167.438 279.455C167.438 276.936 167.168 274.791 166.628 273.02C166.098 271.249 165.331 269.9 164.327 268.972C163.333 268.044 162.135 267.58 160.733 267.58C158.631 267.58 156.988 268.616 155.804 270.69C154.621 272.755 154.029 275.676 154.029 279.455C154.029 281.973 154.294 284.114 154.824 285.875C155.355 287.636 156.117 288.976 157.111 289.895C158.115 290.813 159.322 291.273 160.733 291.273ZM176.245 294V291.443L185.847 280.932C186.974 279.701 187.902 278.631 188.631 277.722C189.36 276.803 189.9 275.941 190.25 275.136C190.61 274.322 190.79 273.47 190.79 272.58C190.79 271.557 190.544 270.671 190.052 269.923C189.569 269.175 188.906 268.598 188.063 268.19C187.22 267.783 186.273 267.58 185.222 267.58C184.105 267.58 183.129 267.812 182.296 268.276C181.472 268.73 180.833 269.369 180.378 270.193C179.933 271.017 179.711 271.983 179.711 273.091H176.358C176.358 271.386 176.751 269.89 177.537 268.602C178.323 267.314 179.393 266.311 180.748 265.591C182.111 264.871 183.641 264.511 185.336 264.511C187.04 264.511 188.551 264.871 189.867 265.591C191.183 266.311 192.215 267.281 192.964 268.503C193.712 269.724 194.086 271.083 194.086 272.58C194.086 273.65 193.892 274.696 193.503 275.719C193.124 276.732 192.462 277.864 191.515 279.114C190.577 280.354 189.275 281.869 187.608 283.659L181.074 290.648V290.875H194.597V294H176.245ZM199.157 288.034V285.136L211.941 264.909H214.043V269.398H212.623L202.964 284.682V284.909H220.179V288.034H199.157ZM212.85 294V287.153V285.804V264.909H216.202V294H212.85ZM247.832 284.909H251.696L254.934 289.17L255.787 290.307L260.616 296.727H256.753L253.571 292.466L252.775 291.386L247.832 284.909ZM261.809 279.455C261.809 282.523 261.255 285.174 260.147 287.409C259.04 289.644 257.52 291.367 255.588 292.58C253.656 293.792 251.45 294.398 248.968 294.398C246.487 294.398 244.281 293.792 242.349 292.58C240.417 291.367 238.897 289.644 237.79 287.409C236.682 285.174 236.128 282.523 236.128 279.455C236.128 276.386 236.682 273.735 237.79 271.5C238.897 269.265 240.417 267.542 242.349 266.33C244.281 265.117 246.487 264.511 248.968 264.511C251.45 264.511 253.656 265.117 255.588 266.33C257.52 267.542 259.04 269.265 260.147 271.5C261.255 273.735 261.809 276.386 261.809 279.455ZM258.4 279.455C258.4 276.936 257.979 274.81 257.136 273.077C256.303 271.344 255.171 270.032 253.741 269.142C252.321 268.252 250.73 267.807 248.968 267.807C247.207 267.807 245.611 268.252 244.182 269.142C242.761 270.032 241.629 271.344 240.787 273.077C239.953 274.81 239.537 276.936 239.537 279.455C239.537 281.973 239.953 284.099 240.787 285.832C241.629 287.565 242.761 288.877 244.182 289.767C245.611 290.657 247.207 291.102 248.968 291.102C250.73 291.102 252.321 290.657 253.741 289.767C255.171 288.877 256.303 287.565 257.136 285.832C257.979 284.099 258.4 281.973 258.4 279.455ZM266.54 288.034V285.136L279.324 264.909H281.426V269.398H280.005L270.346 284.682V284.909H287.562V288.034H266.54ZM280.233 294V287.153V285.804V264.909H283.585V294H280.233Z" fill="black"/>
<ellipse cx="78.9825" cy="280.5" rx="8.79936" ry="8.5" fill="#D9D9D9"/>
<path d="M79.7576 384.876C79.0701 384.872 78.443 384.702 77.8765 384.364C77.3099 384.021 76.8575 383.564 76.5193 382.995C76.1868 382.425 76.0222 381.796 76.0255 381.109C76.0288 380.416 76.1994 379.789 76.5374 379.228C76.881 378.661 77.3377 378.211 77.9075 377.879C78.4773 377.54 79.1059 377.373 79.7934 377.376C80.4866 377.379 81.1136 377.552 81.6745 377.895C82.241 378.233 82.6906 378.687 83.0231 379.257C83.3613 379.821 83.5288 380.449 83.5254 381.142C83.5222 381.83 83.3487 382.457 83.0051 383.024C82.6671 383.59 82.2133 384.043 81.6435 384.381C81.0794 384.714 80.4507 384.879 79.7576 384.876ZM99.7367 370.714L102.933 370.729L108.425 384.322L108.629 384.322L114.251 370.779L117.447 370.793L117.363 388.248L114.858 388.237L114.918 375.606L114.756 375.605L109.548 388.187L107.469 388.178L102.381 375.542L102.219 375.541L102.159 388.18L99.6533 388.169L99.7367 370.714ZM124.796 388.571C123.966 388.567 123.217 388.41 122.548 388.1C121.879 387.785 121.35 387.331 120.961 386.738C120.577 386.146 120.388 385.42 120.392 384.562C120.395 383.824 120.54 383.216 120.826 382.74C121.113 382.264 121.498 381.888 121.982 381.612C122.467 381.336 123.007 381.128 123.605 380.989C124.202 380.849 124.81 380.744 125.43 380.673C126.215 380.586 126.851 380.514 127.34 380.46C127.829 380.4 128.185 380.302 128.407 380.166C128.629 380.031 128.741 379.81 128.743 379.503L128.743 379.443C128.746 378.699 128.539 378.121 128.12 377.71C127.708 377.3 127.089 377.092 126.265 377.089C125.408 377.085 124.73 377.272 124.234 377.651C123.744 378.023 123.404 378.439 123.214 378.899L120.822 378.343C121.11 377.549 121.528 376.908 122.075 376.422C122.629 375.93 123.264 375.575 123.981 375.357C124.698 375.133 125.451 375.022 126.241 375.026C126.764 375.028 127.318 375.093 127.902 375.221C128.493 375.343 129.043 375.567 129.552 375.893C130.068 376.219 130.489 376.684 130.816 377.288C131.142 377.886 131.303 378.662 131.299 379.617L131.257 388.31L128.769 388.299L128.777 386.509L128.675 386.508C128.509 386.837 128.26 387.16 127.929 387.477C127.598 387.793 127.173 388.056 126.655 388.264C126.137 388.472 125.517 388.574 124.796 388.571ZM125.36 386.528C126.064 386.531 126.667 386.394 127.168 386.118C127.675 385.842 128.061 385.48 128.324 385.032C128.593 384.579 128.729 384.094 128.732 383.577L128.74 381.889C128.648 381.98 128.472 382.064 128.21 382.143C127.954 382.215 127.661 382.279 127.331 382.335C127.002 382.384 126.68 382.431 126.368 382.475C126.055 382.514 125.793 382.547 125.583 382.574C125.088 382.634 124.636 382.738 124.226 382.883C123.822 383.029 123.497 383.241 123.252 383.518C123.012 383.79 122.891 384.153 122.889 384.608C122.886 385.238 123.116 385.717 123.581 386.043C124.045 386.363 124.638 386.525 125.36 386.528ZM134.651 388.325L134.714 375.234L137.177 375.245L137.167 377.325L137.304 377.325C137.546 376.622 137.969 376.07 138.573 375.669C139.183 375.263 139.871 375.061 140.638 375.065C140.797 375.065 140.985 375.072 141.201 375.084C141.422 375.096 141.595 375.111 141.72 375.129L141.709 377.566C141.607 377.538 141.425 377.506 141.164 377.47C140.903 377.429 140.641 377.408 140.38 377.407C139.778 377.404 139.24 377.53 138.767 377.783C138.3 378.031 137.929 378.379 137.654 378.827C137.379 379.269 137.241 379.774 137.238 380.342L137.2 388.336L134.651 388.325ZM148.857 393.57C147.818 393.565 146.923 393.425 146.175 393.149C145.432 392.873 144.826 392.51 144.356 392.059C143.887 391.608 143.537 391.115 143.306 390.579L145.501 389.686C145.653 389.936 145.856 390.202 146.111 390.481C146.371 390.766 146.722 391.009 147.164 391.21C147.612 391.411 148.188 391.513 148.893 391.516C149.859 391.521 150.658 391.288 151.291 390.82C151.924 390.356 152.243 389.614 152.248 388.591L152.26 386.017L152.098 386.016C151.943 386.294 151.72 386.603 151.429 386.942C151.143 387.282 150.75 387.576 150.249 387.823C149.747 388.071 149.096 388.193 148.295 388.19C147.261 388.185 146.33 387.939 145.503 387.453C144.682 386.961 144.032 386.239 143.553 385.288C143.08 384.331 142.847 383.157 142.854 381.765C142.861 380.373 143.102 379.181 143.579 378.188C144.061 377.196 144.718 376.438 145.55 375.913C146.382 375.383 147.323 375.12 148.375 375.125C149.187 375.128 149.843 375.268 150.341 375.542C150.84 375.812 151.228 376.126 151.504 376.485C151.787 376.844 152.004 377.161 152.156 377.434L152.344 377.435L152.354 375.313L154.851 375.324L154.787 388.704C154.782 389.829 154.516 390.752 153.99 391.471C153.463 392.19 152.754 392.721 151.86 393.064C150.972 393.406 149.971 393.575 148.857 393.57ZM148.868 386.079C149.601 386.082 150.221 385.914 150.728 385.576C151.241 385.231 151.63 384.739 151.894 384.098C152.164 383.451 152.302 382.676 152.306 381.773C152.31 380.892 152.183 380.116 151.925 379.444C151.667 378.773 151.286 378.248 150.782 377.871C150.278 377.488 149.654 377.295 148.91 377.292C148.143 377.288 147.502 377.484 146.989 377.88C146.476 378.27 146.087 378.802 145.822 379.477C145.564 380.152 145.432 380.907 145.428 381.742C145.424 382.6 145.551 383.354 145.809 384.002C146.068 384.651 146.452 385.159 146.961 385.525C147.476 385.891 148.112 386.075 148.868 386.079ZM158.206 388.43L158.269 375.339L160.817 375.351L160.754 388.441L158.206 388.43ZM159.565 373.325C159.122 373.323 158.742 373.174 158.425 372.877C158.114 372.574 157.96 372.216 157.962 371.801C157.964 371.38 158.122 371.023 158.435 370.729C158.755 370.429 159.136 370.281 159.58 370.282C160.023 370.284 160.4 370.437 160.711 370.739C161.028 371.036 161.185 371.395 161.183 371.815C161.181 372.23 161.02 372.587 160.701 372.887C160.387 373.181 160.008 373.327 159.565 373.325ZM166.768 380.695L166.731 388.468L164.182 388.457L164.245 375.366L166.691 375.377L166.681 377.507L166.843 377.508C167.147 376.816 167.621 376.262 168.266 375.844C168.915 375.426 169.732 375.22 170.715 375.224C171.607 375.228 172.387 375.419 173.056 375.797C173.724 376.169 174.241 376.723 174.607 377.458C174.973 378.192 175.153 379.099 175.148 380.179L175.108 388.505L172.56 388.494L172.599 380.474C172.603 379.525 172.359 378.783 171.868 378.246C171.376 377.704 170.698 377.432 169.835 377.428C169.244 377.425 168.718 377.551 168.256 377.804C167.8 378.058 167.438 378.431 167.168 378.924C166.905 379.412 166.771 380.002 166.768 380.695ZM184.294 373.359L184.305 371.092L197.813 371.152L197.802 373.419L192.356 373.395L192.284 388.582L189.659 388.57L189.731 373.383L184.294 373.359ZM199.151 388.613L199.213 375.522L201.676 375.533L201.667 377.612L201.803 377.613C202.045 376.909 202.468 376.357 203.072 375.957C203.682 375.55 204.371 375.349 205.138 375.352C205.297 375.353 205.484 375.359 205.7 375.372C205.922 375.384 206.095 375.399 206.22 375.417L206.208 377.854C206.106 377.825 205.924 377.793 205.663 377.758C205.402 377.717 205.141 377.696 204.879 377.695C204.277 377.692 203.739 377.818 203.267 378.071C202.8 378.319 202.429 378.667 202.154 379.114C201.879 379.556 201.74 380.062 201.737 380.63L201.699 388.624L199.151 388.613ZM212.053 388.96C211.223 388.956 210.474 388.799 209.805 388.49C209.136 388.174 208.607 387.72 208.218 387.127C207.834 386.535 207.644 385.809 207.649 384.952C207.652 384.213 207.797 383.606 208.083 383.13C208.37 382.654 208.755 382.277 209.239 382.001C209.724 381.725 210.264 381.517 210.862 381.378C211.459 381.238 212.067 381.133 212.687 381.062C213.472 380.975 214.108 380.904 214.597 380.849C215.086 380.789 215.442 380.691 215.664 380.555C215.886 380.42 215.998 380.199 216 379.892L216 379.832C216.003 379.088 215.796 378.511 215.377 378.1C214.965 377.689 214.346 377.481 213.522 377.478C212.664 377.474 211.987 377.661 211.491 378.04C211.001 378.412 210.661 378.829 210.471 379.288L208.079 378.732C208.367 377.938 208.785 377.297 209.332 376.811C209.886 376.319 210.521 375.964 211.238 375.746C211.955 375.522 212.708 375.412 213.498 375.415C214.021 375.417 214.575 375.482 215.159 375.61C215.75 375.732 216.3 375.956 216.809 376.282C217.325 376.608 217.746 377.073 218.073 377.677C218.399 378.275 218.56 379.051 218.556 380.006L218.514 388.699L216.026 388.688L216.034 386.898L215.932 386.898C215.766 387.226 215.517 387.549 215.186 387.866C214.855 388.183 214.43 388.445 213.912 388.653C213.394 388.861 212.774 388.963 212.053 388.96ZM212.616 386.917C213.321 386.92 213.924 386.784 214.425 386.507C214.932 386.231 215.318 385.869 215.581 385.422C215.85 384.968 215.986 384.483 215.989 383.966L215.997 382.279C215.905 382.369 215.729 382.453 215.467 382.532C215.211 382.605 214.918 382.669 214.588 382.724C214.258 382.774 213.937 382.82 213.625 382.865C213.312 382.903 213.05 382.936 212.84 382.963C212.345 383.024 211.893 383.127 211.483 383.273C211.079 383.419 210.754 383.63 210.509 383.907C210.269 384.179 210.148 384.542 210.146 384.997C210.143 385.627 210.373 386.106 210.838 386.432C211.302 386.752 211.895 386.914 212.616 386.917ZM226.808 388.992C225.751 388.987 224.809 388.713 223.982 388.169C223.161 387.62 222.517 386.842 222.05 385.834C221.589 384.821 221.362 383.606 221.369 382.192C221.375 380.777 221.617 379.568 222.093 378.564C222.575 377.561 223.232 376.794 224.065 376.263C224.897 375.733 225.838 375.47 226.889 375.475C227.702 375.478 228.355 375.618 228.848 375.893C229.346 376.162 229.731 376.476 230.002 376.835C230.279 377.194 230.493 377.511 230.645 377.784L230.799 377.785L230.83 371.299L233.378 371.31L233.295 388.765L230.806 388.754L230.816 386.717L230.603 386.716C230.448 386.994 230.225 387.311 229.933 387.667C229.648 388.024 229.254 388.335 228.753 388.6C228.252 388.864 227.603 388.995 226.808 388.992ZM227.381 386.821C228.114 386.824 228.734 386.634 229.241 386.25C229.755 385.86 230.144 385.319 230.408 384.627C230.679 383.935 230.816 383.129 230.82 382.208C230.825 381.299 230.698 380.503 230.44 379.82C230.182 379.137 229.801 378.604 229.297 378.221C228.793 377.838 228.169 377.645 227.424 377.642C226.657 377.639 226.017 377.835 225.504 378.23C224.991 378.625 224.602 379.166 224.337 379.853C224.078 380.539 223.947 381.314 223.943 382.178C223.938 383.053 224.065 383.84 224.323 384.54C224.581 385.24 224.965 385.796 225.474 386.207C225.99 386.613 226.625 386.817 227.381 386.821ZM242.572 389.07C241.283 389.065 240.173 388.784 239.244 388.229C238.321 387.668 237.608 386.883 237.108 385.876C236.612 384.862 236.368 383.676 236.375 382.318C236.381 380.977 236.637 379.797 237.141 378.776C237.652 377.756 238.36 376.961 239.267 376.391C240.178 375.821 241.242 375.539 242.458 375.544C243.197 375.547 243.912 375.673 244.604 375.92C245.296 376.168 245.916 376.554 246.465 377.079C247.014 377.604 247.445 378.285 247.759 379.122C248.073 379.953 248.228 380.962 248.222 382.149L248.218 383.053L237.812 383.006L237.821 381.097L245.73 381.133C245.733 380.462 245.599 379.868 245.329 379.35C245.059 378.826 244.677 378.412 244.185 378.109C243.697 377.805 243.124 377.652 242.465 377.649C241.749 377.646 241.123 377.82 240.588 378.169C240.058 378.514 239.646 378.966 239.354 379.528C239.067 380.083 238.922 380.688 238.919 381.341L238.912 382.832C238.908 383.707 239.058 384.452 239.361 385.067C239.671 385.682 240.103 386.153 240.659 386.479C241.214 386.8 241.864 386.962 242.608 386.965C243.091 386.968 243.532 386.901 243.93 386.767C244.328 386.626 244.673 386.418 244.964 386.141C245.255 385.864 245.479 385.521 245.634 385.112L248.044 385.558C247.847 386.267 247.498 386.888 246.995 387.42C246.498 387.946 245.874 388.355 245.123 388.647C244.377 388.934 243.527 389.075 242.572 389.07ZM260.207 388.885L256.417 375.777L259.051 375.789L261.57 385.414L261.698 385.414L264.318 375.812L266.951 375.824L269.462 385.406L269.59 385.407L272.184 375.847L274.818 375.859L270.912 388.933L268.312 388.921L265.698 379.458L265.502 379.457L262.798 388.896L260.207 388.885ZM277.174 388.96L277.236 375.87L279.784 375.881L279.722 388.972L277.174 388.96ZM278.533 373.856C278.089 373.854 277.709 373.704 277.393 373.407C277.082 373.105 276.927 372.746 276.929 372.331C276.931 371.911 277.089 371.554 277.403 371.26C277.723 370.96 278.104 370.811 278.547 370.813C278.99 370.815 279.367 370.967 279.679 371.27C279.995 371.567 280.153 371.925 280.151 372.346C280.149 372.761 279.988 373.118 279.668 373.417C279.354 373.712 278.976 373.858 278.533 373.856ZM289.323 375.924L289.314 377.969L282.163 377.937L282.173 375.892L289.323 375.924ZM284.105 372.764L286.654 372.775L286.594 385.159C286.592 385.653 286.664 386.026 286.811 386.276C286.957 386.521 287.147 386.69 287.379 386.782C287.618 386.868 287.876 386.912 288.154 386.913C288.359 386.914 288.538 386.9 288.691 386.873C288.845 386.845 288.964 386.823 289.05 386.806L289.5 388.913C289.352 388.969 289.141 389.025 288.868 389.081C288.595 389.142 288.254 389.175 287.845 389.179C287.175 389.187 286.55 389.065 285.972 388.812C285.394 388.56 284.927 388.171 284.571 387.647C284.216 387.123 284.04 386.466 284.044 385.676L284.105 372.764ZM294.946 381.267L294.909 389.04L292.361 389.028L292.444 371.574L294.958 371.585L294.927 378.079L295.089 378.08C295.4 377.377 295.871 376.819 296.504 376.407C297.136 375.995 297.961 375.792 298.978 375.796C299.876 375.8 300.659 375.988 301.328 376.361C302.002 376.733 302.522 377.286 302.888 378.021C303.26 378.75 303.443 379.66 303.437 380.751L303.398 389.077L300.849 389.066L300.888 381.046C300.892 380.086 300.649 379.341 300.157 378.81C299.665 378.274 298.979 378.004 298.098 378C297.496 377.997 296.956 378.122 296.477 378.376C296.004 378.63 295.63 379.003 295.355 379.496C295.086 379.983 294.95 380.574 294.946 381.267ZM313.354 389.122L313.438 371.667L316.071 371.679L315.999 386.867L323.908 386.902L323.897 389.169L313.354 389.122ZM332.209 389.47C330.982 389.465 329.912 389.179 329 388.612C328.088 388.045 327.382 387.255 326.881 386.242C326.38 385.228 326.133 384.045 326.139 382.693C326.146 381.335 326.404 380.149 326.915 379.134C327.425 378.119 328.139 377.333 329.057 376.774C329.974 376.216 331.047 375.939 332.274 375.945C333.501 375.95 334.571 376.236 335.483 376.803C336.395 377.369 337.102 378.162 337.602 379.182C338.103 380.201 338.35 381.389 338.344 382.747C338.337 384.1 338.079 385.28 337.568 386.289C337.058 387.299 336.344 388.082 335.426 388.641C334.509 389.199 333.437 389.476 332.209 389.47ZM332.228 387.331C333.024 387.335 333.684 387.127 334.208 386.709C334.733 386.291 335.122 385.733 335.375 385.035C335.634 384.338 335.766 383.568 335.77 382.727C335.774 381.892 335.65 381.125 335.397 380.425C335.151 379.719 334.767 379.152 334.247 378.723C333.726 378.295 333.068 378.079 332.272 378.075C331.471 378.072 330.805 378.282 330.275 378.706C329.75 379.13 329.358 379.693 329.099 380.397C328.846 381.094 328.717 381.861 328.713 382.696C328.709 383.537 328.831 384.307 329.077 385.007C329.33 385.707 329.716 386.269 330.237 386.691C330.763 387.114 331.427 387.327 332.228 387.331ZM343.743 381.485L343.706 389.257L341.157 389.246L341.22 376.155L343.666 376.166L343.656 378.297L343.818 378.297C344.122 377.606 344.596 377.051 345.24 376.633C345.89 376.216 346.706 376.009 347.689 376.013C348.581 376.017 349.362 376.208 350.03 376.586C350.699 376.959 351.216 377.512 351.582 378.247C351.948 378.981 352.128 379.888 352.123 380.968L352.083 389.295L349.535 389.283L349.573 381.263C349.578 380.315 349.334 379.572 348.842 379.036C348.351 378.494 347.673 378.221 346.809 378.217C346.219 378.214 345.692 378.34 345.231 378.593C344.775 378.847 344.413 379.22 344.143 379.714C343.879 380.201 343.746 380.791 343.743 381.485ZM360.965 394.516C359.925 394.511 359.031 394.371 358.282 394.095C357.539 393.819 356.933 393.455 356.463 393.004C355.994 392.554 355.644 392.06 355.414 391.525L357.608 390.632C357.76 390.882 357.964 391.148 358.218 391.427C358.478 391.712 358.829 391.955 359.271 392.156C359.719 392.357 360.296 392.459 361 392.462C361.966 392.466 362.765 392.234 363.398 391.765C364.031 391.302 364.35 390.559 364.355 389.537L364.367 386.963L364.205 386.962C364.051 387.24 363.828 387.549 363.536 387.888C363.25 388.228 362.857 388.522 362.356 388.769C361.855 389.017 361.203 389.139 360.402 389.136C359.368 389.131 358.438 388.885 357.61 388.399C356.789 387.906 356.139 387.185 355.66 386.234C355.188 385.277 354.955 384.103 354.961 382.711C354.968 381.319 355.21 380.127 355.686 379.134C356.168 378.142 356.825 377.384 357.657 376.859C358.489 376.329 359.431 376.066 360.482 376.071C361.294 376.074 361.95 376.213 362.449 376.488C362.947 376.758 363.335 377.072 363.612 377.431C363.894 377.79 364.111 378.107 364.263 378.38L364.451 378.381L364.461 376.259L366.958 376.27L366.894 389.65C366.889 390.775 366.623 391.697 366.097 392.417C365.571 393.136 364.861 393.667 363.967 394.01C363.079 394.352 362.078 394.521 360.965 394.516ZM360.975 387.025C361.708 387.028 362.328 386.86 362.835 386.521C363.348 386.177 363.737 385.685 364.001 385.044C364.272 384.397 364.409 383.622 364.413 382.719C364.417 381.838 364.29 381.062 364.032 380.39C363.774 379.719 363.393 379.194 362.889 378.817C362.385 378.434 361.761 378.241 361.017 378.238C360.25 378.234 359.61 378.43 359.096 378.826C358.583 379.215 358.194 379.748 357.93 380.423C357.671 381.098 357.539 381.853 357.535 382.688C357.531 383.546 357.658 384.299 357.917 384.948C358.175 385.597 358.559 386.105 359.068 386.471C359.584 386.837 360.219 387.021 360.975 387.025ZM380.473 389.711C379.643 389.707 378.894 389.55 378.225 389.241C377.556 388.925 377.027 388.471 376.638 387.878C376.254 387.286 376.065 386.561 376.069 385.703C376.072 384.964 376.217 384.357 376.504 383.881C376.79 383.405 377.175 383.029 377.66 382.752C378.144 382.476 378.685 382.268 379.282 382.129C379.879 381.989 380.488 381.884 381.107 381.813C381.892 381.726 382.529 381.655 383.017 381.6C383.506 381.54 383.862 381.442 384.084 381.307C384.306 381.171 384.418 380.95 384.42 380.643L384.42 380.584C384.424 379.839 384.216 379.262 383.798 378.851C383.385 378.44 382.766 378.232 381.943 378.229C381.085 378.225 380.408 378.412 379.911 378.791C379.421 379.164 379.081 379.58 378.891 380.039L376.499 379.483C376.787 378.689 377.205 378.049 377.753 377.562C378.306 377.07 378.941 376.715 379.658 376.497C380.375 376.273 381.129 376.163 381.918 376.166C382.441 376.168 382.995 376.233 383.579 376.361C384.17 376.483 384.72 376.707 385.23 377.033C385.745 377.359 386.166 377.824 386.493 378.428C386.82 379.026 386.981 379.802 386.976 380.757L386.934 389.45L384.446 389.439L384.454 387.649L384.352 387.649C384.186 387.977 383.937 388.3 383.606 388.617C383.275 388.934 382.85 389.196 382.332 389.404C381.814 389.612 381.195 389.714 380.473 389.711ZM381.037 387.668C381.741 387.671 382.344 387.535 382.845 387.258C383.352 386.982 383.738 386.62 384.001 386.173C384.27 385.719 384.406 385.234 384.409 384.717L384.417 383.03C384.326 383.12 384.149 383.205 383.887 383.283C383.631 383.356 383.338 383.42 383.008 383.475C382.679 383.525 382.357 383.572 382.045 383.616C381.732 383.654 381.47 383.687 381.26 383.714C380.766 383.775 380.313 383.878 379.904 384.024C379.499 384.17 379.175 384.381 378.929 384.659C378.689 384.93 378.568 385.293 378.566 385.748C378.563 386.379 378.793 386.857 379.258 387.183C379.722 387.503 380.315 387.665 381.037 387.668ZM392.914 381.704L392.877 389.476L390.329 389.465L390.391 376.374L392.837 376.385L392.827 378.516L392.989 378.517C393.293 377.825 393.768 377.27 394.412 376.853C395.061 376.435 395.878 376.228 396.861 376.233C397.753 376.237 398.533 376.428 399.202 376.806C399.87 377.178 400.388 377.731 400.753 378.466C401.119 379.201 401.3 380.108 401.294 381.187L401.255 389.514L398.706 389.502L398.745 381.483C398.749 380.534 398.506 379.791 398.014 379.255C397.522 378.713 396.844 378.44 395.981 378.436C395.39 378.434 394.864 378.559 394.402 378.813C393.947 379.066 393.584 379.44 393.315 379.933C393.051 380.42 392.917 381.011 392.914 381.704ZM409.572 389.807C408.515 389.802 407.573 389.528 406.746 388.984C405.925 388.435 405.281 387.657 404.814 386.649C404.353 385.636 404.126 384.421 404.132 383.007C404.139 381.592 404.381 380.383 404.857 379.379C405.339 378.376 405.996 377.609 406.828 377.078C407.66 376.548 408.602 376.285 409.653 376.29C410.466 376.293 411.118 376.433 411.611 376.708C412.11 376.977 412.495 377.291 412.766 377.65C413.043 378.009 413.257 378.326 413.409 378.599L413.563 378.6L413.594 372.114L416.142 372.126L416.058 389.58L413.57 389.569L413.58 387.532L413.367 387.531C413.212 387.809 412.989 388.126 412.697 388.482C412.411 388.839 412.018 389.15 411.517 389.415C411.015 389.68 410.367 389.81 409.572 389.807ZM410.144 387.636C410.877 387.639 411.498 387.449 412.005 387.065C412.518 386.675 412.907 386.134 413.172 385.442C413.442 384.75 413.58 383.944 413.584 383.023C413.588 382.114 413.462 381.318 413.203 380.635C412.945 379.952 412.564 379.419 412.061 379.036C411.557 378.653 410.933 378.46 410.188 378.457C409.421 378.454 408.781 378.65 408.268 379.045C407.755 379.44 407.366 379.981 407.101 380.668C406.842 381.354 406.71 382.129 406.706 382.993C406.702 383.868 406.829 384.655 407.087 385.355C407.345 386.055 407.729 386.611 408.238 387.022C408.753 387.428 409.389 387.632 410.144 387.636ZM109.096 404.342C109.009 403.535 108.637 402.908 107.98 402.462C107.323 402.01 106.495 401.782 105.495 401.777C104.779 401.774 104.159 401.885 103.635 402.11C103.111 402.329 102.703 402.634 102.412 403.025C102.126 403.41 101.982 403.85 101.979 404.344C101.977 404.759 102.072 405.117 102.264 405.419C102.461 405.721 102.719 405.975 103.036 406.181C103.359 406.382 103.705 406.551 104.073 406.689C104.442 406.821 104.797 406.931 105.137 407.017L106.84 407.468C107.396 407.607 107.966 407.794 108.55 408.03C109.134 408.265 109.675 408.575 110.173 408.957C110.672 409.34 111.073 409.814 111.377 410.378C111.687 410.941 111.84 411.615 111.836 412.4C111.831 413.388 111.571 414.265 111.056 415.03C110.547 415.794 109.808 416.396 108.84 416.835C107.878 417.274 106.715 417.49 105.351 417.484C104.044 417.478 102.915 417.266 101.962 416.847C101.01 416.428 100.265 415.837 99.7292 415.073C99.1931 414.303 98.8992 413.393 98.8474 412.342L101.489 412.353C101.538 412.984 101.74 413.511 102.096 413.933C102.457 414.349 102.919 414.661 103.48 414.868C104.047 415.069 104.669 415.172 105.345 415.175C106.09 415.178 106.752 415.064 107.333 414.834C107.919 414.598 108.381 414.271 108.718 413.852C109.055 413.427 109.225 412.931 109.228 412.362C109.231 411.845 109.085 411.421 108.791 411.09C108.503 410.76 108.109 410.485 107.61 410.267C107.117 410.049 106.558 409.856 105.934 409.689L103.874 409.117C102.478 408.73 101.373 408.165 100.558 407.423C99.7495 406.681 99.3479 405.702 99.3537 404.486C99.3585 403.48 99.6354 402.604 100.184 401.856C100.733 401.108 101.475 400.529 102.409 400.119C103.343 399.702 104.395 399.497 105.565 399.502C106.747 399.507 107.788 399.719 108.69 400.138C109.597 400.557 110.31 401.131 110.829 401.861C111.349 402.585 111.617 403.416 111.636 404.353L109.096 404.342ZM120.268 417.525C119.041 417.52 117.971 417.234 117.059 416.667C116.147 416.101 115.441 415.311 114.94 414.297C114.439 413.283 114.192 412.1 114.198 410.748C114.205 409.39 114.463 408.204 114.974 407.189C115.484 406.174 116.198 405.388 117.116 404.829C118.033 404.271 119.106 403.994 120.333 404C121.56 404.005 122.63 404.291 123.542 404.858C124.454 405.424 125.16 406.217 125.661 407.237C126.162 408.256 126.409 409.445 126.403 410.803C126.396 412.155 126.138 413.335 125.627 414.345C125.117 415.354 124.403 416.137 123.485 416.696C122.568 417.254 121.495 417.531 120.268 417.525ZM120.287 415.386C121.082 415.39 121.742 415.182 122.267 414.764C122.792 414.346 123.181 413.788 123.434 413.09C123.693 412.393 123.825 411.623 123.829 410.783C123.833 409.947 123.709 409.18 123.456 408.48C123.21 407.774 122.826 407.207 122.305 406.779C121.785 406.35 121.127 406.134 120.331 406.131C119.53 406.127 118.864 406.337 118.334 406.761C117.809 407.185 117.417 407.748 117.158 408.452C116.905 409.149 116.776 409.916 116.772 410.751C116.768 411.592 116.889 412.362 117.136 413.062C117.388 413.762 117.775 414.324 118.296 414.747C118.822 415.169 119.486 415.383 120.287 415.386ZM129.216 417.301L129.279 404.21L131.742 404.221L131.732 406.301L131.868 406.301C132.11 405.598 132.533 405.046 133.137 404.645C133.747 404.239 134.436 404.037 135.203 404.041C135.362 404.041 135.549 404.048 135.765 404.06C135.987 404.072 136.16 404.087 136.285 404.105L136.273 406.543C136.171 406.514 135.989 406.482 135.728 406.446C135.467 406.405 135.206 406.384 134.944 406.383C134.342 406.381 133.805 406.506 133.332 406.76C132.865 407.007 132.494 407.355 132.219 407.803C131.944 408.245 131.805 408.75 131.803 409.318L131.764 417.312L129.216 417.301ZM145.374 404.282L145.364 406.327L138.213 406.296L138.223 404.25L145.374 404.282ZM140.156 401.122L142.704 401.134L142.645 413.517C142.642 414.011 142.715 414.384 142.861 414.635C143.008 414.879 143.197 415.048 143.43 415.14C143.668 415.226 143.926 415.27 144.205 415.271C144.409 415.272 144.588 415.259 144.742 415.231C144.895 415.203 145.015 415.181 145.1 415.164L145.55 417.272C145.402 417.328 145.192 417.384 144.919 417.439C144.646 417.5 144.305 417.533 143.896 417.537C143.225 417.545 142.601 417.423 142.022 417.171C141.444 416.918 140.977 416.53 140.622 416.005C140.266 415.481 140.09 414.824 140.094 414.034L140.156 401.122ZM165.994 400.01L168.636 400.022L168.581 411.502C168.575 412.724 168.283 413.805 167.705 414.745C167.126 415.68 166.316 416.415 165.274 416.95C164.231 417.48 163.011 417.741 161.614 417.735C160.221 417.729 159.007 417.457 157.97 416.918C156.932 416.373 156.129 415.631 155.56 414.691C154.99 413.745 154.709 412.662 154.715 411.44L154.769 399.96L157.403 399.972L157.349 411.239C157.345 412.029 157.515 412.731 157.859 413.346C158.208 413.961 158.703 414.447 159.343 414.802C159.984 415.151 160.744 415.328 161.625 415.332C162.511 415.336 163.276 415.166 163.92 414.822C164.569 414.473 165.066 413.992 165.41 413.38C165.759 412.768 165.936 412.067 165.94 411.277L165.994 400.01ZM172.153 422.402L172.239 404.402L174.728 404.413L174.718 406.535L174.931 406.536C175.08 406.264 175.294 405.95 175.574 405.593C175.855 405.236 176.242 404.925 176.738 404.66C177.234 404.39 177.888 404.257 178.7 404.26C179.757 404.265 180.699 404.536 181.526 405.074C182.353 405.612 183 406.384 183.466 407.392C183.939 408.4 184.172 409.611 184.165 411.026C184.158 412.441 183.917 413.653 183.44 414.662C182.964 415.666 182.312 416.438 181.486 416.98C180.66 417.516 179.718 417.782 178.661 417.777C177.866 417.774 177.216 417.637 176.711 417.368C176.213 417.099 175.822 416.784 175.54 416.425C175.257 416.066 175.04 415.747 174.888 415.468L174.735 415.467L174.701 422.413L172.153 422.402ZM174.705 410.958C174.701 411.879 174.83 412.686 175.094 413.381C175.358 414.075 175.741 414.619 176.245 415.013C176.749 415.402 177.368 415.598 178.1 415.601C178.862 415.605 179.499 415.406 180.012 415.005C180.526 414.598 180.915 414.046 181.179 413.348C181.45 412.65 181.587 411.864 181.591 410.989C181.595 410.125 181.468 409.349 181.21 408.661C180.958 407.972 180.574 407.428 180.059 407.028C179.55 406.628 178.911 406.426 178.144 406.422C177.406 406.419 176.78 406.607 176.267 406.985C175.759 407.364 175.373 407.893 175.108 408.574C174.844 409.254 174.709 410.049 174.705 410.958ZM193.162 404.495L193.152 406.541L186.002 406.509L186.012 404.463L193.162 404.495ZM187.944 401.335L190.493 401.347L190.433 413.73C190.431 414.224 190.503 414.597 190.65 414.848C190.796 415.093 190.986 415.261 191.218 415.353C191.457 415.439 191.715 415.483 191.993 415.484C192.198 415.485 192.377 415.472 192.53 415.444C192.684 415.416 192.803 415.394 192.889 415.377L193.339 417.485C193.191 417.541 192.98 417.597 192.707 417.652C192.434 417.714 192.093 417.746 191.684 417.75C191.014 417.758 190.389 417.636 189.811 417.384C189.232 417.131 188.766 416.743 188.41 416.218C188.055 415.694 187.879 415.037 187.883 414.247L187.944 401.335ZM201.291 417.887C200.064 417.881 198.994 417.595 198.082 417.029C197.17 416.462 196.463 415.672 195.962 414.658C195.462 413.645 195.214 412.462 195.221 411.109C195.227 409.752 195.486 408.565 195.996 407.55C196.507 406.536 197.221 405.749 198.138 405.191C199.056 404.632 200.128 404.356 201.355 404.361C202.583 404.367 203.652 404.653 204.564 405.219C205.477 405.786 206.183 406.579 206.684 407.598C207.185 408.617 207.432 409.806 207.425 411.164C207.419 412.516 207.16 413.697 206.65 414.706C206.139 415.715 205.425 416.499 204.508 417.057C203.59 417.616 202.518 417.892 201.291 417.887ZM201.31 415.747C202.105 415.751 202.765 415.544 203.29 415.126C203.815 414.707 204.204 414.15 204.457 413.452C204.716 412.754 204.847 411.985 204.851 411.144C204.855 410.309 204.731 409.541 204.479 408.841C204.232 408.135 203.849 407.568 203.328 407.14C202.807 406.711 202.149 406.495 201.354 406.492C200.553 406.488 199.887 406.698 199.356 407.122C198.832 407.546 198.44 408.11 198.181 408.813C197.927 409.511 197.799 410.277 197.795 411.112C197.791 411.953 197.912 412.724 198.159 413.424C198.411 414.124 198.798 414.685 199.318 415.108C199.845 415.531 200.508 415.744 201.31 415.747ZM223.262 400.266L223.178 417.72L220.536 417.708L220.607 402.896L220.505 402.895L216.316 405.604L216.328 403.081L220.696 400.254L223.262 400.266ZM233.975 418.058C232.628 418.046 231.48 417.686 230.528 416.977C229.577 416.268 228.852 415.24 228.353 413.891C227.854 412.542 227.608 410.919 227.618 409.021C227.627 407.129 227.887 405.514 228.399 404.175C228.917 402.836 229.655 401.817 230.613 401.117C231.576 400.416 232.726 400.069 234.061 400.075C235.396 400.081 236.539 400.441 237.49 401.156C238.442 401.865 239.167 402.891 239.666 404.234C240.171 405.571 240.419 407.186 240.41 409.078C240.401 410.981 240.14 412.605 239.628 413.95C239.116 415.288 238.381 416.31 237.423 417.016C236.465 417.717 235.316 418.064 233.975 418.058ZM233.986 415.782C235.168 415.788 236.094 415.215 236.764 414.065C237.44 412.914 237.783 411.248 237.794 409.066C237.801 407.617 237.653 406.392 237.351 405.391C237.055 404.384 236.624 403.621 236.058 403.101C235.498 402.576 234.829 402.312 234.05 402.308C232.874 402.303 231.948 402.878 231.272 404.034C230.596 405.19 230.25 406.857 230.234 409.033C230.227 410.487 230.372 411.718 230.668 412.725C230.97 413.726 231.401 414.487 231.961 415.006C232.521 415.52 233.196 415.779 233.986 415.782ZM245.546 400.365L249.69 407.21L249.826 407.211L254.035 400.403L257.086 400.416L251.607 409.119L257.037 417.871L253.968 417.857L249.807 411.106L249.671 411.105L245.446 417.819L242.378 417.806L247.985 409.103L242.495 400.351L245.546 400.365ZM265.966 417.911L266.05 400.456L268.683 400.468L268.61 415.656L276.519 415.691L276.509 417.958L265.966 417.911ZM284.949 418.26C283.659 418.254 282.55 417.973 281.621 417.418C280.697 416.857 279.985 416.073 279.484 415.065C278.989 414.051 278.745 412.865 278.751 411.508C278.758 410.167 279.013 408.986 279.518 407.965C280.029 406.945 280.737 406.15 281.643 405.58C282.555 405.01 283.619 404.728 284.835 404.733C285.573 404.737 286.289 404.862 286.981 405.109C287.673 405.357 288.293 405.743 288.842 406.268C289.39 406.794 289.822 407.474 290.136 408.311C290.45 409.142 290.604 410.151 290.599 411.339L290.594 412.242L280.188 412.196L280.197 410.287L288.106 410.322C288.11 409.652 287.976 409.057 287.706 408.539C287.436 408.015 287.054 407.601 286.561 407.298C286.074 406.995 285.501 406.842 284.842 406.839C284.126 406.835 283.5 407.009 282.964 407.359C282.434 407.703 282.023 408.156 281.73 408.717C281.444 409.272 281.299 409.877 281.296 410.53L281.288 412.022C281.284 412.897 281.434 413.642 281.738 414.257C282.048 414.872 282.48 415.342 283.035 415.669C283.591 415.989 284.24 416.151 284.985 416.155C285.468 416.157 285.908 416.091 286.307 415.956C286.705 415.816 287.05 415.607 287.341 415.33C287.632 415.053 287.855 414.71 288.011 414.302L290.42 414.747C290.224 415.456 289.874 416.077 289.372 416.609C288.875 417.135 288.251 417.544 287.499 417.836C286.754 418.123 285.904 418.264 284.949 418.26ZM304.28 404.991L299.471 418.06L296.744 418.048L292.05 404.936L294.786 404.948L298.053 415.037L298.19 415.037L301.545 404.978L304.28 404.991ZM311.808 418.379C310.518 418.374 309.409 418.093 308.48 417.538C307.556 416.977 306.844 416.193 306.343 415.185C305.848 414.171 305.604 412.985 305.61 411.627C305.617 410.286 305.872 409.106 306.377 408.085C306.888 407.065 307.596 406.27 308.502 405.7C309.414 405.13 310.478 404.848 311.694 404.853C312.432 404.857 313.148 404.982 313.84 405.229C314.532 405.477 315.152 405.863 315.701 406.388C316.249 406.913 316.681 407.594 316.995 408.431C317.309 409.262 317.463 410.271 317.458 411.459L317.453 412.362L307.047 412.316L307.056 410.406L314.965 410.442C314.969 409.771 314.835 409.177 314.565 408.659C314.295 408.135 313.913 407.721 313.42 407.418C312.933 407.114 312.36 406.961 311.701 406.958C310.985 406.955 310.359 407.129 309.823 407.478C309.293 407.823 308.882 408.275 308.59 408.837C308.303 409.392 308.158 409.997 308.155 410.65L308.148 412.141C308.143 413.016 308.293 413.761 308.597 414.376C308.907 414.991 309.339 415.462 309.894 415.788C310.45 416.109 311.099 416.271 311.844 416.274C312.327 416.277 312.767 416.21 313.166 416.076C313.564 415.936 313.909 415.727 314.2 415.45C314.491 415.173 314.714 414.83 314.87 414.421L317.28 414.867C317.083 415.576 316.733 416.197 316.231 416.729C315.734 417.255 315.11 417.664 314.359 417.956C313.613 418.243 312.763 418.384 311.808 418.379ZM320.253 418.153L320.316 405.062L322.779 405.073L322.769 407.153L322.905 407.153C323.147 406.45 323.57 405.898 324.175 405.497C324.784 405.091 325.473 404.889 326.24 404.893C326.399 404.893 326.587 404.9 326.802 404.912C327.024 404.924 327.197 404.939 327.322 404.957L327.31 407.394C327.208 407.366 327.027 407.334 326.765 407.298C326.504 407.257 326.243 407.236 325.982 407.235C325.379 407.232 324.842 407.358 324.369 407.611C323.902 407.859 323.531 408.207 323.256 408.655C322.981 409.097 322.842 409.602 322.84 410.17L322.802 418.164L320.253 418.153ZM333.155 418.5C332.326 418.497 331.576 418.34 330.907 418.03C330.238 417.714 329.709 417.26 329.32 416.668C328.937 416.075 328.747 415.35 328.751 414.492C328.754 413.753 328.899 413.146 329.186 412.67C329.472 412.194 329.857 411.818 330.342 411.542C330.826 411.265 331.367 411.057 331.964 410.918C332.561 410.779 333.17 410.673 333.789 410.602C334.574 410.515 335.211 410.444 335.7 410.389C336.189 410.329 336.544 410.231 336.766 410.096C336.989 409.96 337.1 409.739 337.102 409.432L337.102 409.373C337.106 408.629 336.898 408.051 336.48 407.64C336.067 407.229 335.449 407.022 334.625 407.018C333.767 407.014 333.09 407.202 332.594 407.58C332.103 407.953 331.763 408.369 331.573 408.828L329.181 408.272C329.469 407.478 329.887 406.838 330.435 406.352C330.988 405.86 331.623 405.505 332.34 405.286C333.057 405.062 333.811 404.952 334.601 404.955C335.123 404.958 335.677 405.023 336.262 405.15C336.852 405.272 337.402 405.496 337.912 405.822C338.427 406.149 338.848 406.614 339.175 407.217C339.502 407.815 339.663 408.592 339.658 409.546L339.617 418.239L337.128 418.228L337.137 416.438L337.034 416.438C336.868 416.767 336.619 417.09 336.288 417.406C335.957 417.723 335.533 417.985 335.015 418.193C334.497 418.401 333.877 418.503 333.155 418.5ZM333.719 416.457C334.423 416.46 335.026 416.324 335.528 416.048C336.035 415.772 336.42 415.41 336.683 414.962C336.953 414.509 337.089 414.023 337.091 413.506L337.099 411.819C337.008 411.909 336.831 411.994 336.569 412.072C336.313 412.145 336.02 412.209 335.691 412.264C335.361 412.314 335.04 412.361 334.727 412.405C334.414 412.443 334.153 412.476 333.942 412.504C333.448 412.564 332.996 412.667 332.586 412.813C332.182 412.959 331.857 413.17 331.611 413.448C331.371 413.719 331.25 414.083 331.248 414.537C331.245 415.168 331.476 415.646 331.94 415.972C332.404 416.292 332.997 416.454 333.719 416.457ZM348.475 423.461C347.435 423.456 346.541 423.316 345.792 423.04C345.049 422.764 344.443 422.4 343.973 421.949C343.504 421.498 343.154 421.005 342.924 420.47L345.118 419.576C345.27 419.827 345.474 420.092 345.728 420.372C345.988 420.657 346.339 420.9 346.781 421.101C347.229 421.302 347.805 421.404 348.51 421.407C349.476 421.411 350.275 421.179 350.908 420.71C351.541 420.247 351.86 419.504 351.865 418.481L351.877 415.908L351.715 415.907C351.561 416.185 351.338 416.493 351.046 416.833C350.76 417.172 350.367 417.466 349.866 417.714C349.365 417.962 348.713 418.084 347.912 418.08C346.878 418.076 345.948 417.83 345.12 417.343C344.299 416.851 343.649 416.129 343.17 415.178C342.698 414.222 342.465 413.047 342.471 411.655C342.478 410.263 342.719 409.071 343.196 408.079C343.678 407.087 344.335 406.328 345.167 405.804C345.999 405.273 346.941 405.01 347.992 405.015C348.804 405.019 349.46 405.158 349.959 405.433C350.457 405.702 350.845 406.016 351.122 406.376C351.404 406.735 351.621 407.051 351.773 407.325L351.961 407.325L351.971 405.203L354.468 405.214L354.404 418.595C354.399 419.72 354.133 420.642 353.607 421.361C353.081 422.081 352.371 422.612 351.477 422.954C350.589 423.297 349.588 423.466 348.475 423.461ZM348.485 415.969C349.218 415.972 349.838 415.805 350.345 415.466C350.858 415.122 351.247 414.629 351.511 413.988C351.782 413.342 351.919 412.567 351.923 411.663C351.927 410.783 351.8 410.007 351.542 409.335C351.284 408.663 350.903 408.139 350.399 407.762C349.895 407.379 349.271 407.186 348.527 407.182C347.76 407.179 347.12 407.375 346.606 407.77C346.093 408.16 345.704 408.692 345.44 409.367C345.181 410.042 345.049 410.797 345.045 411.633C345.041 412.491 345.168 413.244 345.427 413.893C345.685 414.542 346.069 415.049 346.578 415.415C347.094 415.781 347.729 415.966 348.485 415.969ZM363.464 418.61C362.174 418.604 361.065 418.324 360.136 417.768C359.212 417.207 358.5 416.423 357.999 415.415C357.504 414.401 357.259 413.216 357.266 411.858C357.272 410.517 357.528 409.336 358.033 408.316C358.543 407.295 359.252 406.5 360.158 405.93C361.07 405.36 362.134 405.078 363.35 405.084C364.088 405.087 364.804 405.212 365.496 405.46C366.188 405.707 366.808 406.093 367.356 406.619C367.905 407.144 368.337 407.825 368.651 408.661C368.965 409.492 369.119 410.501 369.114 411.689L369.109 412.592L358.703 412.546L358.712 410.637L366.621 410.672C366.624 410.002 366.491 409.407 366.221 408.889C365.95 408.365 365.569 407.951 365.076 407.648C364.589 407.345 364.016 407.192 363.357 407.189C362.641 407.186 362.015 407.359 361.479 407.709C360.949 408.053 360.538 408.506 360.245 409.067C359.959 409.622 359.814 410.227 359.81 410.88L359.803 412.372C359.799 413.247 359.949 413.992 360.253 414.607C360.562 415.222 360.995 415.693 361.55 416.019C362.105 416.34 362.755 416.502 363.5 416.505C363.982 416.507 364.423 416.441 364.822 416.306C365.22 416.166 365.565 415.957 365.856 415.68C366.147 415.403 366.37 415.06 366.525 414.652L368.935 415.097C368.739 415.807 368.389 416.427 367.887 416.959C367.39 417.485 366.766 417.894 366.014 418.187C365.269 418.473 364.418 418.614 363.464 418.61ZM99.9547 437.443C99.9649 435.307 100.256 433.342 100.827 431.549C101.398 429.757 102.227 428.104 103.313 426.592L105.649 426.602C105.225 427.163 104.83 427.851 104.463 428.668C104.095 429.485 103.773 430.381 103.495 431.357C103.218 432.327 103 433.335 102.842 434.38C102.683 435.419 102.602 436.444 102.597 437.455C102.59 438.807 102.717 440.177 102.978 441.565C103.238 442.952 103.593 444.241 104.042 445.43C104.49 446.62 104.991 447.591 105.545 448.343L103.21 448.333C102.137 446.811 101.324 445.151 100.77 443.353C100.216 441.555 99.9445 439.585 99.9547 437.443ZM108.53 428.754L111.726 428.769L117.218 442.361L117.422 442.362L123.044 428.819L126.24 428.833L126.156 446.288L123.651 446.276L123.711 433.646L123.549 433.645L118.341 446.227L116.262 446.218L111.174 433.581L111.012 433.581L110.952 446.22L108.446 446.209L108.53 428.754ZM133.589 446.611C132.759 446.607 132.01 446.45 131.341 446.14C130.672 445.825 130.143 445.371 129.754 444.778C129.37 444.185 129.181 443.46 129.185 442.602C129.188 441.864 129.333 441.256 129.619 440.78C129.906 440.304 130.291 439.928 130.775 439.652C131.26 439.376 131.801 439.168 132.398 439.028C132.995 438.889 133.604 438.784 134.223 438.713C135.008 438.625 135.644 438.554 136.133 438.5C136.622 438.439 136.978 438.341 137.2 438.206C137.422 438.071 137.534 437.85 137.536 437.543L137.536 437.483C137.539 436.739 137.332 436.161 136.914 435.75C136.501 435.339 135.882 435.132 135.059 435.128C134.201 435.124 133.524 435.312 133.027 435.69C132.537 436.063 132.197 436.479 132.007 436.939L129.615 436.382C129.903 435.588 130.321 434.948 130.868 434.462C131.422 433.97 132.057 433.615 132.774 433.397C133.491 433.172 134.245 433.062 135.034 433.066C135.557 433.068 136.111 433.133 136.695 433.261C137.286 433.383 137.836 433.607 138.346 433.933C138.861 434.259 139.282 434.724 139.609 435.328C139.935 435.926 140.096 436.702 140.092 437.656L140.05 446.35L137.562 446.338L137.57 444.549L137.468 444.548C137.302 444.877 137.053 445.2 136.722 445.517C136.391 445.833 135.966 446.096 135.448 446.303C134.93 446.511 134.31 446.614 133.589 446.611ZM134.153 444.568C134.857 444.571 135.46 444.434 135.961 444.158C136.468 443.882 136.854 443.52 137.117 443.072C137.386 442.619 137.522 442.134 137.525 441.617L137.533 439.929C137.441 440.02 137.265 440.104 137.003 440.182C136.747 440.255 136.454 440.319 136.124 440.375C135.795 440.424 135.473 440.471 135.161 440.515C134.848 440.554 134.586 440.586 134.376 440.614C133.881 440.674 133.429 440.777 133.019 440.923C132.615 441.069 132.29 441.281 132.045 441.558C131.805 441.83 131.684 442.193 131.682 442.647C131.679 443.278 131.909 443.756 132.374 444.082C132.838 444.403 133.431 444.564 134.153 444.568ZM143.445 446.365L143.507 433.274L146.055 433.285L145.993 446.376L143.445 446.365ZM144.804 431.26C144.36 431.258 143.981 431.108 143.664 430.812C143.353 430.509 143.198 430.15 143.2 429.736C143.202 429.315 143.36 428.958 143.674 428.664C143.994 428.364 144.375 428.215 144.818 428.217C145.261 428.219 145.638 428.371 145.95 428.674C146.266 428.971 146.424 429.33 146.422 429.75C146.42 430.165 146.259 430.522 145.939 430.822C145.625 431.116 145.247 431.262 144.804 431.26ZM152.006 438.63L151.969 446.403L149.421 446.391L149.484 433.301L151.93 433.311L151.919 435.442L152.081 435.443C152.386 434.751 152.86 434.196 153.504 433.779C154.154 433.361 154.97 433.155 155.953 433.159C156.845 433.163 157.625 433.354 158.294 433.732C158.963 434.104 159.48 434.658 159.846 435.392C160.212 436.127 160.392 437.034 160.387 438.113L160.347 446.44L157.799 446.429L157.837 438.409C157.842 437.46 157.598 436.717 157.106 436.181C156.615 435.639 155.937 435.366 155.073 435.362C154.482 435.36 153.956 435.485 153.495 435.739C153.039 435.993 152.676 436.366 152.407 436.859C152.143 437.347 152.01 437.937 152.006 438.63ZM166.35 438.694L166.313 446.467L163.765 446.455L163.827 433.365L166.273 433.375L166.263 435.506L166.425 435.507C166.729 434.815 167.204 434.26 167.848 433.843C168.497 433.425 169.314 433.219 170.297 433.223C171.189 433.227 171.969 433.418 172.638 433.796C173.306 434.168 173.824 434.722 174.189 435.456C174.555 436.191 174.736 437.098 174.73 438.177L174.691 446.504L172.142 446.493L172.181 438.473C172.185 437.524 171.942 436.781 171.45 436.245C170.958 435.703 170.28 435.43 169.417 435.426C168.826 435.424 168.3 435.549 167.838 435.803C167.383 436.057 167.02 436.43 166.751 436.923C166.487 437.411 166.353 438.001 166.35 438.694ZM183.749 446.809C182.459 446.803 181.35 446.522 180.421 445.967C179.497 445.406 178.785 444.622 178.284 443.614C177.789 442.6 177.545 441.414 177.551 440.057C177.557 438.716 177.813 437.535 178.318 436.514C178.829 435.494 179.537 434.699 180.443 434.129C181.355 433.559 182.419 433.277 183.635 433.282C184.373 433.286 185.089 433.411 185.781 433.658C186.473 433.906 187.093 434.292 187.642 434.817C188.19 435.343 188.622 436.023 188.936 436.86C189.25 437.691 189.404 438.7 189.399 439.888L189.394 440.791L178.988 440.745L178.997 438.836L186.906 438.871C186.909 438.2 186.776 437.606 186.506 437.088C186.235 436.564 185.854 436.15 185.361 435.847C184.874 435.544 184.301 435.391 183.642 435.388C182.926 435.384 182.3 435.558 181.764 435.908C181.234 436.252 180.823 436.705 180.53 437.266C180.244 437.821 180.099 438.426 180.096 439.079L180.088 440.571C180.084 441.446 180.234 442.191 180.538 442.806C180.848 443.421 181.28 443.891 181.835 444.218C182.39 444.538 183.04 444.7 183.785 444.704C184.268 444.706 184.708 444.64 185.107 444.505C185.505 444.365 185.85 444.156 186.141 443.879C186.432 443.602 186.655 443.259 186.811 442.851L189.22 443.296C189.024 444.005 188.674 444.626 188.172 445.158C187.675 445.684 187.051 446.093 186.299 446.385C185.554 446.672 184.704 446.813 183.749 446.809ZM198.367 433.519L198.358 435.564L191.207 435.532L191.217 433.487L198.367 433.519ZM193.149 430.359L195.698 430.37L195.639 442.754C195.636 443.248 195.708 443.62 195.855 443.871C196.001 444.116 196.191 444.285 196.423 444.377C196.662 444.463 196.92 444.507 197.198 444.508C197.403 444.509 197.582 444.495 197.735 444.468C197.889 444.44 198.008 444.418 198.094 444.401L198.544 446.508C198.396 446.564 198.185 446.62 197.912 446.676C197.639 446.737 197.298 446.77 196.889 446.773C196.219 446.782 195.594 446.66 195.016 446.407C194.438 446.155 193.971 445.766 193.615 445.242C193.26 444.718 193.084 444.06 193.088 443.271L193.149 430.359ZM206.059 439.4C206.049 441.542 205.758 443.509 205.187 445.302C204.616 447.095 203.787 448.747 202.7 450.26L200.365 450.249C200.788 449.689 201.183 449 201.551 448.183C201.918 447.367 202.241 446.473 202.518 445.503C202.796 444.527 203.014 443.517 203.172 442.472C203.33 441.427 203.412 440.399 203.417 439.388C203.423 438.041 203.296 436.674 203.036 435.287C202.775 433.899 202.421 432.611 201.972 431.421C201.523 430.231 201.022 429.26 200.469 428.508L202.804 428.518C203.876 430.04 204.689 431.7 205.243 433.498C205.797 435.296 206.069 437.263 206.059 439.4ZM79.3418 471.875C78.6543 471.871 78.0272 471.701 77.4607 471.363C76.8941 471.02 76.4418 470.563 76.1036 469.994C75.7711 469.424 75.6064 468.795 75.6097 468.108C75.613 467.415 75.7837 466.788 76.1216 466.227C76.4652 465.66 76.9219 465.21 77.4917 464.878C78.0615 464.539 78.6901 464.372 79.3776 464.375C80.0708 464.378 80.6978 464.551 81.2587 464.894C81.8252 465.232 82.2748 465.686 82.6073 466.256C82.9455 466.82 83.113 467.448 83.1097 468.141C83.1064 468.829 82.9329 469.456 82.5893 470.023C82.2514 470.589 81.7975 471.042 81.2277 471.38C80.6636 471.713 80.0349 471.878 79.3418 471.875ZM101.954 457.725L101.871 475.18L99.2375 475.168L99.3209 457.713L101.954 457.725ZM115.358 465.345L113.047 465.744C112.952 465.448 112.8 465.166 112.591 464.898C112.387 464.63 112.11 464.41 111.759 464.238C111.407 464.066 110.967 463.979 110.439 463.976C109.717 463.973 109.114 464.132 108.63 464.454C108.145 464.77 107.902 465.181 107.899 465.686C107.897 466.124 108.058 466.477 108.38 466.745C108.703 467.014 109.224 467.235 109.945 467.409L112.022 467.895C113.226 468.179 114.121 468.612 114.709 469.194C115.298 469.776 115.589 470.53 115.585 471.457C115.581 472.241 115.351 472.939 114.893 473.55C114.441 474.156 113.811 474.631 113.003 474.974C112.2 475.317 111.27 475.486 110.213 475.481C108.747 475.474 107.553 475.157 106.63 474.527C105.707 473.893 105.143 472.995 104.938 471.835L107.403 471.471C107.553 472.114 107.866 472.601 108.342 472.933C108.818 473.259 109.439 473.424 110.206 473.427C111.041 473.431 111.71 473.26 112.211 472.916C112.713 472.566 112.965 472.138 112.968 471.632C112.97 471.223 112.818 470.879 112.512 470.599C112.213 470.319 111.75 470.107 111.126 469.962L108.913 469.467C107.692 469.183 106.791 468.736 106.209 468.125C105.632 467.514 105.346 466.743 105.35 465.811C105.354 465.039 105.573 464.364 106.008 463.786C106.442 463.208 107.041 462.759 107.804 462.439C108.567 462.113 109.44 461.952 110.423 461.956C111.838 461.963 112.95 462.274 113.759 462.892C114.569 463.503 115.102 464.321 115.358 465.345ZM123.882 475.542C122.654 475.536 121.585 475.25 120.673 474.684C119.76 474.117 119.054 473.327 118.553 472.314C118.052 471.3 117.805 470.117 117.812 468.765C117.818 467.407 118.077 466.221 118.587 465.206C119.098 464.191 119.812 463.404 120.729 462.846C121.647 462.288 122.719 462.011 123.946 462.017C125.173 462.022 126.243 462.308 127.155 462.875C128.067 463.441 128.774 464.234 129.275 465.253C129.775 466.273 130.023 467.461 130.016 468.819C130.01 470.171 129.751 471.352 129.241 472.361C128.73 473.37 128.016 474.154 127.099 474.713C126.181 475.271 125.109 475.547 123.882 475.542ZM123.9 473.403C124.696 473.406 125.356 473.199 125.881 472.781C126.405 472.363 126.794 471.805 127.048 471.107C127.307 470.409 127.438 469.64 127.442 468.799C127.446 467.964 127.322 467.196 127.07 466.496C126.823 465.791 126.439 465.224 125.919 464.795C125.398 464.367 124.74 464.151 123.945 464.147C123.143 464.144 122.478 464.354 121.947 464.778C121.422 465.201 121.031 465.765 120.771 466.468C120.518 467.166 120.389 467.933 120.385 468.768C120.381 469.609 120.503 470.379 120.749 471.079C121.002 471.779 121.388 472.34 121.909 472.763C122.435 473.186 123.099 473.399 123.9 473.403ZM135.461 457.875L135.378 475.329L132.829 475.318L132.913 457.863L135.461 457.875ZM142.614 475.651C141.785 475.647 141.035 475.491 140.366 475.181C139.697 474.865 139.168 474.411 138.779 473.819C138.396 473.226 138.206 472.501 138.21 471.643C138.214 470.904 138.359 470.297 138.645 469.821C138.931 469.345 139.317 468.969 139.801 468.692C140.285 468.416 140.826 468.208 141.423 468.069C142.02 467.93 142.629 467.824 143.249 467.753C144.033 467.666 144.67 467.595 145.159 467.54C145.648 467.48 146.003 467.382 146.225 467.247C146.448 467.111 146.56 466.89 146.561 466.583L146.561 466.524C146.565 465.779 146.357 465.202 145.939 464.791C145.526 464.38 144.908 464.173 144.084 464.169C143.226 464.165 142.549 464.352 142.053 464.731C141.562 465.104 141.222 465.52 141.033 465.979L138.64 465.423C138.928 464.629 139.346 463.989 139.894 463.502C140.447 463.011 141.083 462.655 141.8 462.437C142.517 462.213 143.27 462.103 144.06 462.106C144.582 462.109 145.136 462.174 145.721 462.301C146.311 462.423 146.861 462.647 147.371 462.973C147.886 463.299 148.307 463.764 148.634 464.368C148.961 464.966 149.122 465.742 149.117 466.697L149.076 475.39L146.587 475.379L146.596 473.589L146.493 473.589C146.327 473.918 146.078 474.24 145.747 474.557C145.416 474.874 144.992 475.136 144.474 475.344C143.956 475.552 143.336 475.654 142.614 475.651ZM143.178 473.608C143.882 473.611 144.485 473.475 144.987 473.199C145.494 472.922 145.879 472.56 146.143 472.113C146.412 471.659 146.548 471.174 146.55 470.657L146.558 468.97C146.467 469.06 146.29 469.145 146.028 469.223C145.772 469.296 145.48 469.36 145.15 469.415C144.82 469.465 144.499 469.512 144.186 469.556C143.873 469.594 143.612 469.627 143.401 469.655C142.907 469.715 142.455 469.818 142.045 469.964C141.641 470.11 141.316 470.321 141.07 470.599C140.83 470.87 140.709 471.233 140.707 471.688C140.704 472.319 140.935 472.797 141.399 473.123C141.863 473.443 142.456 473.605 143.178 473.608ZM158.643 462.342L158.633 464.387L151.483 464.355L151.493 462.31L158.643 462.342ZM153.425 459.182L155.974 459.193L155.914 471.577C155.912 472.071 155.984 472.444 156.131 472.694C156.277 472.939 156.467 473.108 156.699 473.2C156.937 473.286 157.196 473.33 157.474 473.331C157.679 473.332 157.858 473.318 158.011 473.291C158.165 473.263 158.284 473.241 158.37 473.224L158.82 475.331C158.672 475.387 158.461 475.443 158.188 475.499C157.915 475.56 157.574 475.593 157.165 475.597C156.495 475.605 155.87 475.483 155.292 475.23C154.713 474.978 154.247 474.589 153.891 474.065C153.536 473.541 153.36 472.884 153.364 472.094L153.425 459.182ZM166.9 475.734C165.61 475.728 164.5 475.448 163.571 474.892C162.648 474.331 161.936 473.547 161.435 472.539C160.94 471.525 160.695 470.34 160.702 468.982C160.708 467.641 160.964 466.46 161.469 465.44C161.979 464.419 162.688 463.624 163.594 463.054C164.506 462.484 165.569 462.202 166.785 462.208C167.524 462.211 168.239 462.336 168.931 462.584C169.623 462.831 170.244 463.217 170.792 463.743C171.341 464.268 171.772 464.949 172.086 465.785C172.401 466.616 172.555 467.625 172.549 468.813L172.545 469.716L162.139 469.67L162.148 467.761L170.057 467.796C170.06 467.126 169.927 466.531 169.656 466.013C169.386 465.489 169.005 465.075 168.512 464.772C168.024 464.469 167.451 464.316 166.792 464.313C166.076 464.31 165.451 464.483 164.915 464.833C164.385 465.177 163.973 465.63 163.681 466.191C163.394 466.746 163.249 467.351 163.246 468.004L163.239 469.496C163.235 470.371 163.385 471.116 163.689 471.731C163.998 472.346 164.431 472.816 164.986 473.143C165.541 473.463 166.191 473.625 166.935 473.629C167.418 473.631 167.859 473.565 168.257 473.43C168.656 473.29 169 473.081 169.291 472.804C169.583 472.527 169.806 472.184 169.961 471.776L172.371 472.221C172.174 472.931 171.825 473.551 171.322 474.083C170.825 474.609 170.201 475.018 169.45 475.31C168.704 475.597 167.854 475.738 166.9 475.734ZM180.244 475.785C179.187 475.78 178.245 475.506 177.418 474.963C176.597 474.413 175.953 473.635 175.486 472.627C175.025 471.614 174.798 470.4 174.805 468.985C174.812 467.57 175.053 466.361 175.53 465.357C176.012 464.354 176.669 463.587 177.501 463.057C178.333 462.526 179.274 462.263 180.326 462.268C181.138 462.272 181.791 462.411 182.284 462.686C182.783 462.955 183.167 463.269 183.438 463.628C183.715 463.988 183.93 464.304 184.082 464.577L184.235 464.578L184.266 458.092L186.814 458.104L186.731 475.558L184.242 475.547L184.252 473.51L184.039 473.509C183.884 473.787 183.661 474.104 183.37 474.461C183.084 474.817 182.69 475.128 182.189 475.393C181.688 475.658 181.039 475.788 180.244 475.785ZM180.817 473.614C181.55 473.617 182.17 473.427 182.678 473.043C183.191 472.653 183.58 472.112 183.844 471.42C184.115 470.728 184.252 469.922 184.257 469.001C184.261 468.092 184.134 467.296 183.876 466.613C183.618 465.93 183.237 465.397 182.733 465.015C182.229 464.632 181.605 464.438 180.861 464.435C180.094 464.432 179.454 464.628 178.94 465.023C178.427 465.419 178.038 465.959 177.773 466.646C177.514 467.332 177.383 468.107 177.379 468.971C177.375 469.846 177.502 470.633 177.76 471.333C178.018 472.033 178.401 472.589 178.911 473C179.426 473.406 180.061 473.611 180.817 473.614ZM197.007 458.149L200.203 458.163L205.695 471.756L205.9 471.757L211.521 458.214L214.717 458.228L214.634 475.682L212.128 475.671L212.189 463.041L212.027 463.04L206.819 475.622L204.739 475.613L199.652 462.976L199.49 462.976L199.43 475.615L196.924 475.603L197.007 458.149ZM222.067 476.005C221.237 476.002 220.488 475.845 219.819 475.535C219.15 475.22 218.621 474.766 218.232 474.173C217.848 473.58 217.658 472.855 217.662 471.997C217.666 471.258 217.811 470.651 218.097 470.175C218.384 469.699 218.769 469.323 219.253 469.047C219.737 468.77 220.278 468.563 220.875 468.423C221.473 468.284 222.081 468.179 222.701 468.108C223.485 468.02 224.122 467.949 224.611 467.894C225.1 467.834 225.456 467.736 225.678 467.601C225.9 467.466 226.012 467.244 226.013 466.938L226.014 466.878C226.017 466.134 225.81 465.556 225.391 465.145C224.978 464.734 224.36 464.527 223.536 464.523C222.678 464.519 222.001 464.707 221.505 465.085C221.015 465.458 220.675 465.874 220.485 466.333L218.093 465.777C218.381 464.983 218.798 464.343 219.346 463.857C219.9 463.365 220.535 463.01 221.252 462.791C221.969 462.567 222.722 462.457 223.512 462.461C224.035 462.463 224.588 462.528 225.173 462.655C225.763 462.777 226.313 463.001 226.823 463.328C227.339 463.654 227.76 464.119 228.086 464.722C228.413 465.321 228.574 466.097 228.57 467.051L228.528 475.744L226.039 475.733L226.048 473.944L225.946 473.943C225.779 474.272 225.531 474.595 225.2 474.911C224.869 475.228 224.444 475.49 223.926 475.698C223.408 475.906 222.788 476.009 222.067 476.005ZM222.63 473.962C223.335 473.966 223.938 473.829 224.439 473.553C224.946 473.277 225.331 472.915 225.595 472.467C225.864 472.014 226 471.529 226.002 471.012L226.01 469.324C225.919 469.415 225.743 469.499 225.481 469.577C225.225 469.65 224.932 469.714 224.602 469.769C224.272 469.819 223.951 469.866 223.638 469.91C223.326 469.948 223.064 469.981 222.854 470.009C222.359 470.069 221.907 470.172 221.497 470.318C221.093 470.464 220.768 470.676 220.522 470.953C220.283 471.225 220.162 471.588 220.159 472.042C220.156 472.673 220.387 473.151 220.851 473.477C221.316 473.797 221.909 473.959 222.63 473.962ZM231.922 475.76L231.985 462.669L234.448 462.68L234.438 464.759L234.574 464.76C234.816 464.056 235.239 463.504 235.844 463.104C236.453 462.697 237.142 462.496 237.909 462.499C238.068 462.5 238.256 462.506 238.471 462.519C238.693 462.531 238.866 462.546 238.991 462.564L238.979 465.001C238.877 464.972 238.696 464.94 238.434 464.905C238.173 464.864 237.912 464.843 237.651 464.842C237.048 464.839 236.511 464.965 236.038 465.218C235.571 465.466 235.2 465.814 234.925 466.261C234.65 466.703 234.511 467.209 234.509 467.777L234.471 475.771L231.922 475.76ZM246.128 481.005C245.088 481 244.194 480.86 243.445 480.584C242.702 480.308 242.096 479.944 241.627 479.493C241.157 479.042 240.807 478.549 240.577 478.014L242.772 477.12C242.924 477.371 243.127 477.636 243.382 477.916C243.642 478.201 243.993 478.444 244.435 478.645C244.883 478.846 245.459 478.948 246.164 478.951C247.129 478.955 247.929 478.723 248.562 478.254C249.195 477.791 249.514 477.048 249.518 476.026L249.531 473.452L249.369 473.451C249.214 473.729 248.991 474.037 248.7 474.377C248.414 474.717 248.02 475.01 247.519 475.258C247.018 475.506 246.367 475.628 245.566 475.624C244.532 475.62 243.601 475.374 242.774 474.887C241.952 474.395 241.302 473.674 240.824 472.723C240.351 471.766 240.118 470.592 240.125 469.199C240.131 467.807 240.373 466.615 240.849 465.623C241.331 464.631 241.988 463.873 242.82 463.348C243.653 462.817 244.594 462.555 245.645 462.559C246.458 462.563 247.113 462.702 247.612 462.977C248.111 463.246 248.498 463.561 248.775 463.92C249.058 464.279 249.275 464.595 249.427 464.869L249.614 464.87L249.625 462.747L252.122 462.759L252.058 476.139C252.052 477.264 251.787 478.186 251.26 478.905C250.734 479.625 250.024 480.156 249.131 480.498C248.243 480.841 247.242 481.01 246.128 481.005ZM246.138 473.513C246.871 473.517 247.491 473.349 247.999 473.01C248.512 472.666 248.901 472.173 249.165 471.532C249.435 470.886 249.572 470.111 249.577 469.208C249.581 468.327 249.454 467.551 249.196 466.879C248.938 466.207 248.557 465.683 248.053 465.306C247.549 464.923 246.925 464.73 246.18 464.726C245.413 464.723 244.773 464.919 244.26 465.314C243.747 465.704 243.358 466.237 243.093 466.912C242.834 467.587 242.703 468.342 242.699 469.177C242.695 470.035 242.822 470.788 243.08 471.437C243.338 472.086 243.722 472.593 244.232 472.959C244.747 473.325 245.383 473.51 246.138 473.513ZM255.477 475.865L255.539 462.774L258.088 462.785L258.025 475.876L255.477 475.865ZM256.836 460.76C256.393 460.758 256.013 460.608 255.696 460.311C255.385 460.009 255.23 459.65 255.232 459.235C255.234 458.815 255.392 458.458 255.706 458.164C256.026 457.864 256.407 457.715 256.85 457.717C257.294 457.719 257.671 457.871 257.982 458.174C258.298 458.471 258.456 458.829 258.454 459.25C258.452 459.665 258.291 460.022 257.971 460.322C257.658 460.616 257.279 460.762 256.836 460.76ZM264.039 468.13L264.001 475.903L261.453 475.891L261.516 462.8L263.962 462.811L263.952 464.942L264.114 464.943C264.418 464.251 264.892 463.696 265.536 463.279C266.186 462.861 267.002 462.654 267.985 462.659C268.877 462.663 269.658 462.854 270.326 463.232C270.995 463.604 271.512 464.158 271.878 464.892C272.244 465.627 272.424 466.534 272.419 467.613L272.379 475.94L269.831 475.929L269.869 467.909C269.874 466.96 269.63 466.217 269.138 465.681C268.647 465.139 267.969 464.866 267.105 464.862C266.514 464.86 265.988 464.985 265.527 465.239C265.071 465.493 264.709 465.866 264.439 466.359C264.175 466.846 264.042 467.437 264.039 468.13ZM281.565 460.793L281.575 458.526L295.084 458.587L295.073 460.854L289.627 460.829L289.554 476.017L286.93 476.005L287.002 460.818L281.565 460.793ZM296.422 476.047L296.484 462.956L298.947 462.967L298.937 465.047L299.074 465.048C299.316 464.344 299.739 463.792 300.343 463.391C300.953 462.985 301.641 462.783 302.408 462.787C302.567 462.788 302.755 462.794 302.971 462.806C303.192 462.819 303.366 462.834 303.49 462.851L303.479 465.289C303.377 465.26 303.195 465.228 302.934 465.193C302.673 465.152 302.411 465.131 302.15 465.129C301.548 465.127 301.01 465.252 300.537 465.506C300.07 465.754 299.699 466.101 299.424 466.549C299.15 466.991 299.011 467.496 299.008 468.064L298.97 476.059L296.422 476.047ZM309.323 476.395C308.494 476.391 307.745 476.234 307.076 475.924C306.407 475.609 305.878 475.155 305.488 474.562C305.105 473.969 304.915 473.244 304.919 472.386C304.923 471.648 305.068 471.04 305.354 470.564C305.641 470.088 306.026 469.712 306.51 469.436C306.994 469.16 307.535 468.952 308.132 468.812C308.73 468.673 309.338 468.568 309.958 468.497C310.742 468.409 311.379 468.338 311.868 468.284C312.357 468.223 312.712 468.125 312.935 467.99C313.157 467.855 313.269 467.634 313.27 467.327L313.271 467.267C313.274 466.523 313.067 465.945 312.648 465.534C312.235 465.123 311.617 464.916 310.793 464.912C309.935 464.908 309.258 465.096 308.762 465.474C308.272 465.847 307.932 466.263 307.742 466.723L305.35 466.166C305.637 465.372 306.055 464.732 306.603 464.246C307.157 463.754 307.792 463.399 308.509 463.181C309.226 462.956 309.979 462.846 310.769 462.85C311.292 462.852 311.845 462.917 312.43 463.045C313.02 463.167 313.57 463.391 314.08 463.717C314.596 464.043 315.017 464.508 315.343 465.112C315.67 465.71 315.831 466.486 315.827 467.44L315.785 476.134L313.296 476.122L313.305 474.333L313.203 474.332C313.036 474.661 312.788 474.984 312.457 475.301C312.126 475.617 311.701 475.88 311.183 476.087C310.665 476.295 310.045 476.398 309.323 476.395ZM309.887 474.352C310.592 474.355 311.195 474.218 311.696 473.942C312.203 473.666 312.588 473.304 312.852 472.856C313.121 472.403 313.257 471.918 313.259 471.401L313.267 469.713C313.176 469.804 313 469.888 312.738 469.966C312.482 470.039 312.189 470.103 311.859 470.159C311.529 470.208 311.208 470.255 310.895 470.299C310.583 470.338 310.321 470.37 310.111 470.398C309.616 470.458 309.164 470.561 308.754 470.707C308.35 470.853 308.025 471.065 307.779 471.342C307.539 471.614 307.418 471.977 307.416 472.431C307.413 473.062 307.644 473.54 308.108 473.866C308.573 474.187 309.166 474.348 309.887 474.352ZM324.078 476.426C323.022 476.421 322.08 476.147 321.253 475.604C320.432 475.055 319.788 474.276 319.321 473.269C318.86 472.255 318.633 471.041 318.639 469.626C318.646 468.212 318.888 467.002 319.364 465.999C319.846 464.995 320.503 464.228 321.335 463.698C322.167 463.168 323.109 462.905 324.16 462.909C324.973 462.913 325.625 463.052 326.118 463.327C326.617 463.596 327.002 463.911 327.273 464.27C327.55 464.629 327.764 464.945 327.916 465.219L328.07 465.219L328.101 458.734L330.649 458.745L330.565 476.199L328.077 476.188L328.087 474.151L327.873 474.15C327.719 474.428 327.496 474.745 327.204 475.102C326.918 475.459 326.525 475.769 326.024 476.034C325.522 476.299 324.874 476.43 324.078 476.426ZM324.651 474.255C325.384 474.259 326.005 474.068 326.512 473.684C327.025 473.294 327.414 472.754 327.679 472.062C327.949 471.37 328.087 470.563 328.091 469.643C328.095 468.734 327.969 467.938 327.71 467.255C327.452 466.572 327.071 466.039 326.567 465.656C326.064 465.273 325.44 465.08 324.695 465.077C323.928 465.073 323.288 465.269 322.775 465.665C322.262 466.06 321.873 466.601 321.608 467.287C321.349 467.974 321.217 468.749 321.213 469.612C321.209 470.487 321.336 471.275 321.594 471.975C321.852 472.675 322.236 473.23 322.745 473.642C323.26 474.048 323.896 474.252 324.651 474.255ZM339.843 476.505C338.553 476.499 337.444 476.219 336.515 475.663C335.591 475.103 334.879 474.318 334.378 473.31C333.883 472.297 333.639 471.111 333.645 469.753C333.652 468.412 333.907 467.231 334.412 466.211C334.923 465.19 335.631 464.395 336.537 463.825C337.449 463.256 338.513 462.973 339.729 462.979C340.467 462.982 341.183 463.107 341.875 463.355C342.567 463.602 343.187 463.989 343.736 464.514C344.284 465.039 344.716 465.72 345.03 466.556C345.344 467.387 345.498 468.397 345.493 469.584L345.488 470.488L335.082 470.441L335.091 468.532L343 468.567C343.004 467.897 342.87 467.303 342.6 466.784C342.33 466.26 341.948 465.847 341.455 465.543C340.968 465.24 340.395 465.087 339.736 465.084C339.02 465.081 338.394 465.254 337.858 465.604C337.328 465.948 336.917 466.401 336.625 466.962C336.338 467.518 336.193 468.122 336.19 468.776L336.183 470.267C336.178 471.142 336.328 471.887 336.632 472.502C336.942 473.117 337.374 473.588 337.929 473.914C338.485 474.235 339.135 474.397 339.879 474.4C340.362 474.402 340.802 474.336 341.201 474.201C341.599 474.061 341.944 473.852 342.235 473.575C342.526 473.298 342.749 472.955 342.905 472.547L345.315 472.992C345.118 473.702 344.768 474.322 344.266 474.854C343.769 475.38 343.145 475.79 342.394 476.082C341.648 476.368 340.798 476.509 339.843 476.505ZM79.2032 500.874C78.5157 500.871 77.8886 500.701 77.3221 500.363C76.7555 500.02 76.3032 499.563 75.965 498.993C75.6325 498.424 75.4678 497.795 75.4711 497.108C75.4744 496.414 75.6451 495.787 75.983 495.226C76.3266 494.66 76.7833 494.21 77.3531 493.877C77.9229 493.539 78.5515 493.371 79.239 493.374C79.9322 493.377 80.5592 493.551 81.1201 493.894C81.6867 494.232 82.1362 494.686 82.4687 495.255C82.8069 495.819 82.9744 496.448 82.9711 497.141C82.9678 497.828 82.7943 498.456 82.4507 499.022C82.1128 499.589 81.6589 500.041 81.0891 500.38C80.525 500.712 79.8963 500.877 79.2032 500.874ZM113.652 492.454L110.993 492.442C110.894 491.873 110.706 491.373 110.429 490.939C110.153 490.506 109.814 490.138 109.412 489.836C109.01 489.533 108.559 489.303 108.06 489.148C107.566 488.992 107.041 488.913 106.484 488.911C105.479 488.906 104.577 489.155 103.779 489.657C102.987 490.159 102.358 490.898 101.893 491.873C101.434 492.848 101.201 494.04 101.195 495.449C101.188 496.87 101.409 498.07 101.859 499.049C102.315 500.028 102.939 500.77 103.732 501.273C104.525 501.777 105.419 502.031 106.413 502.035C106.964 502.038 107.487 501.966 107.982 501.821C108.483 501.67 108.936 501.447 109.341 501.153C109.745 500.86 110.088 500.501 110.369 500.076C110.655 499.645 110.853 499.152 110.964 498.595L113.623 498.616C113.477 499.473 113.197 500.262 112.785 500.981C112.378 501.695 111.855 502.312 111.216 502.832C110.583 503.347 109.86 503.744 109.046 504.024C108.232 504.305 107.345 504.443 106.385 504.439C104.873 504.432 103.528 504.068 102.35 503.347C101.172 502.62 100.245 501.585 99.5694 500.241C98.8996 498.897 98.5692 497.296 98.5781 495.438C98.587 493.574 98.9356 491.976 99.6237 490.644C100.312 489.306 101.249 488.282 102.434 487.571C103.619 486.855 104.965 486.5 106.47 486.507C107.396 486.511 108.259 486.649 109.059 486.919C109.865 487.184 110.587 487.574 111.227 488.088C111.867 488.596 112.395 489.218 112.812 489.953C113.229 490.682 113.509 491.516 113.652 492.454ZM116.543 504.245L116.605 491.155L119.068 491.166L119.058 493.245L119.195 493.246C119.437 492.542 119.86 491.99 120.464 491.589C121.074 491.183 121.762 490.982 122.529 490.985C122.688 490.986 122.876 490.992 123.092 491.004C123.313 491.017 123.487 491.032 123.611 491.049L123.6 493.487C123.498 493.458 123.316 493.426 123.055 493.391C122.794 493.35 122.532 493.329 122.271 493.328C121.669 493.325 121.131 493.45 120.658 493.704C120.191 493.952 119.82 494.3 119.545 494.747C119.271 495.189 119.132 495.694 119.129 496.262L119.091 504.257L116.543 504.245ZM130.798 504.573C129.57 504.568 128.501 504.282 127.589 503.715C126.677 503.148 125.97 502.358 125.469 501.345C124.968 500.331 124.721 499.148 124.728 497.796C124.734 496.438 124.993 495.252 125.503 494.237C126.014 493.222 126.728 492.435 127.645 491.877C128.563 491.319 129.635 491.042 130.862 491.048C132.089 491.053 133.159 491.339 134.071 491.906C134.983 492.472 135.69 493.265 136.191 494.285C136.691 495.304 136.939 496.492 136.932 497.85C136.926 499.203 136.667 500.383 136.157 501.392C135.646 502.401 134.932 503.185 134.015 503.744C133.097 504.302 132.025 504.579 130.798 504.573ZM130.816 502.434C131.612 502.437 132.272 502.23 132.797 501.812C133.321 501.394 133.71 500.836 133.964 500.138C134.223 499.441 134.354 498.671 134.358 497.83C134.362 496.995 134.238 496.228 133.986 495.528C133.739 494.822 133.355 494.255 132.835 493.826C132.314 493.398 131.656 493.182 130.861 493.178C130.059 493.175 129.394 493.385 128.863 493.809C128.338 494.232 127.947 494.796 127.688 495.499C127.434 496.197 127.306 496.964 127.302 497.799C127.297 498.64 127.419 499.41 127.665 500.11C127.918 500.81 128.304 501.372 128.825 501.794C129.351 502.217 130.015 502.43 130.816 502.434ZM149.602 494.498L147.291 494.897C147.196 494.601 147.044 494.319 146.835 494.051C146.631 493.783 146.354 493.563 146.002 493.391C145.651 493.219 145.211 493.132 144.683 493.129C143.961 493.126 143.358 493.285 142.874 493.607C142.389 493.923 142.146 494.334 142.143 494.839C142.141 495.277 142.301 495.63 142.624 495.898C142.947 496.167 143.468 496.388 144.189 496.562L146.266 497.048C147.469 497.332 148.365 497.765 148.953 498.347C149.541 498.929 149.833 499.683 149.829 500.61C149.825 501.394 149.594 502.092 149.137 502.703C148.685 503.309 148.055 503.784 147.247 504.127C146.444 504.47 145.514 504.639 144.457 504.634C142.991 504.627 141.797 504.31 140.874 503.68C139.951 503.046 139.387 502.148 139.182 500.988L141.647 500.624C141.797 501.267 142.11 501.754 142.586 502.086C143.062 502.412 143.683 502.577 144.45 502.58C145.285 502.584 145.954 502.413 146.455 502.069C146.957 501.719 147.209 501.291 147.211 500.785C147.213 500.376 147.062 500.032 146.756 499.752C146.456 499.472 145.994 499.26 145.37 499.115L143.156 498.62C141.936 498.336 141.035 497.889 140.453 497.278C139.876 496.667 139.59 495.896 139.594 494.964C139.598 494.192 139.817 493.517 140.252 492.939C140.686 492.361 141.285 491.912 142.048 491.592C142.811 491.266 143.684 491.105 144.667 491.109C146.082 491.116 147.194 491.427 148.003 492.045C148.813 492.656 149.346 493.474 149.602 494.498ZM162.469 494.555L160.158 494.954C160.063 494.658 159.911 494.376 159.702 494.108C159.498 493.84 159.221 493.62 158.87 493.448C158.518 493.276 158.078 493.189 157.55 493.187C156.828 493.183 156.225 493.343 155.741 493.664C155.256 493.98 155.013 494.391 155.01 494.897C155.008 495.334 155.168 495.687 155.491 495.956C155.814 496.224 156.335 496.445 157.056 496.619L159.133 497.106C160.337 497.389 161.232 497.822 161.82 498.405C162.408 498.987 162.7 499.741 162.696 500.667C162.692 501.451 162.462 502.149 162.004 502.761C161.552 503.366 160.922 503.841 160.114 504.184C159.311 504.527 158.381 504.696 157.324 504.691C155.858 504.685 154.664 504.367 153.741 503.738C152.818 503.103 152.254 502.206 152.049 501.046L154.514 500.682C154.664 501.324 154.977 501.812 155.453 502.143C155.929 502.469 156.55 502.634 157.317 502.637C158.152 502.641 158.821 502.471 159.322 502.126C159.824 501.776 160.076 501.348 160.079 500.843C160.08 500.434 159.929 500.089 159.623 499.81C159.323 499.53 158.861 499.317 158.237 499.173L156.023 498.677C154.803 498.393 153.902 497.946 153.32 497.335C152.743 496.725 152.457 495.954 152.461 495.022C152.465 494.249 152.684 493.574 153.119 492.996C153.553 492.419 154.152 491.97 154.915 491.649C155.678 491.323 156.551 491.162 157.534 491.167C158.949 491.173 160.061 491.485 160.87 492.102C161.68 492.714 162.213 493.531 162.469 494.555ZM172.119 487.038L175.315 487.053L180.807 500.645L181.012 500.646L186.633 487.103L189.829 487.117L189.746 504.572L187.24 504.561L187.3 491.93L187.138 491.929L181.931 504.511L179.851 504.502L174.764 491.866L174.602 491.865L174.541 504.504L172.036 504.493L172.119 487.038ZM197.178 504.895C196.349 504.891 195.599 504.734 194.93 504.424C194.261 504.109 193.732 503.655 193.343 503.062C192.96 502.47 192.77 501.744 192.774 500.886C192.778 500.148 192.922 499.54 193.209 499.064C193.495 498.588 193.881 498.212 194.365 497.936C194.849 497.66 195.39 497.452 195.987 497.313C196.584 497.173 197.193 497.068 197.813 496.997C198.597 496.909 199.234 496.838 199.723 496.784C200.212 496.723 200.567 496.626 200.789 496.49C201.012 496.355 201.124 496.134 201.125 495.827L201.125 495.767C201.129 495.023 200.921 494.445 200.503 494.034C200.09 493.623 199.472 493.416 198.648 493.412C197.79 493.409 197.113 493.596 196.617 493.974C196.126 494.347 195.786 494.763 195.597 495.223L193.204 494.667C193.492 493.872 193.91 493.232 194.458 492.746C195.011 492.254 195.647 491.899 196.363 491.681C197.08 491.457 197.834 491.346 198.624 491.35C199.146 491.352 199.7 491.417 200.285 491.545C200.875 491.667 201.425 491.891 201.935 492.217C202.45 492.543 202.871 493.008 203.198 493.612C203.525 494.21 203.686 494.986 203.681 495.941L203.64 504.634L201.151 504.623L201.16 502.833L201.057 502.832C200.891 503.161 200.642 503.484 200.311 503.801C199.98 504.117 199.556 504.38 199.038 504.588C198.52 504.796 197.9 504.898 197.178 504.895ZM197.742 502.852C198.446 502.855 199.049 502.718 199.551 502.442C200.058 502.166 200.443 501.804 200.707 501.356C200.976 500.903 201.112 500.418 201.114 499.901L201.122 498.213C201.031 498.304 200.854 498.388 200.592 498.467C200.336 498.539 200.044 498.603 199.714 498.659C199.384 498.708 199.063 498.755 198.75 498.799C198.437 498.838 198.176 498.871 197.965 498.898C197.471 498.958 197.019 499.062 196.609 499.207C196.205 499.353 195.88 499.565 195.634 499.842C195.394 500.114 195.273 500.477 195.271 500.932C195.268 501.562 195.499 502.041 195.963 502.366C196.427 502.687 197.02 502.848 197.742 502.852ZM207.034 504.649L207.096 491.558L209.559 491.569L209.55 493.649L209.686 493.649C209.928 492.946 210.351 492.394 210.955 491.993C211.565 491.587 212.254 491.385 213.021 491.388C213.18 491.389 213.367 491.396 213.583 491.408C213.805 491.42 213.978 491.435 214.103 491.453L214.091 493.89C213.989 493.862 213.807 493.83 213.546 493.794C213.285 493.753 213.024 493.732 212.762 493.731C212.16 493.728 211.622 493.854 211.15 494.107C210.683 494.355 210.312 494.703 210.037 495.151C209.762 495.593 209.623 496.098 209.62 496.666L209.582 504.66L207.034 504.649ZM221.24 509.894C220.2 509.889 219.306 509.749 218.557 509.473C217.814 509.197 217.208 508.833 216.738 508.383C216.269 507.932 215.919 507.438 215.689 506.903L217.883 506.01C218.036 506.26 218.239 506.526 218.493 506.805C218.753 507.09 219.104 507.333 219.547 507.534C219.994 507.735 220.571 507.837 221.275 507.84C222.241 507.845 223.041 507.612 223.673 507.144C224.306 506.68 224.625 505.938 224.63 504.915L224.642 502.341L224.48 502.34C224.326 502.618 224.103 502.927 223.811 503.266C223.526 503.606 223.132 503.9 222.631 504.147C222.13 504.395 221.479 504.517 220.677 504.514C219.643 504.509 218.713 504.263 217.885 503.777C217.064 503.284 216.414 502.563 215.936 501.612C215.463 500.655 215.23 499.481 215.236 498.089C215.243 496.697 215.485 495.505 215.961 494.512C216.443 493.52 217.1 492.762 217.932 492.237C218.764 491.707 219.706 491.444 220.757 491.449C221.569 491.452 222.225 491.591 222.724 491.866C223.222 492.136 223.61 492.45 223.887 492.809C224.169 493.168 224.386 493.485 224.539 493.758L224.726 493.759L224.736 491.637L227.233 491.648L227.169 505.028C227.164 506.153 226.898 507.076 226.372 507.795C225.846 508.514 225.136 509.045 224.242 509.388C223.354 509.73 222.353 509.899 221.24 509.894ZM221.25 502.403C221.983 502.406 222.603 502.238 223.11 501.899C223.623 501.555 224.012 501.063 224.277 500.422C224.547 499.775 224.684 499 224.688 498.097C224.692 497.216 224.566 496.44 224.307 495.768C224.049 495.097 223.668 494.572 223.164 494.195C222.66 493.812 222.036 493.619 221.292 493.616C220.525 493.612 219.885 493.808 219.372 494.204C218.858 494.594 218.469 495.126 218.205 495.801C217.946 496.476 217.814 497.231 217.81 498.066C217.806 498.924 217.933 499.678 218.192 500.326C218.45 500.975 218.834 501.483 219.344 501.849C219.859 502.215 220.494 502.399 221.25 502.403ZM230.588 504.754L230.651 491.663L233.199 491.674L233.137 504.765L230.588 504.754ZM231.947 489.649C231.504 489.647 231.124 489.498 230.808 489.201C230.497 488.898 230.342 488.54 230.344 488.125C230.346 487.704 230.504 487.347 230.818 487.053C231.137 486.753 231.519 486.604 231.962 486.606C232.405 486.608 232.782 486.761 233.093 487.063C233.41 487.36 233.568 487.719 233.566 488.139C233.564 488.554 233.403 488.911 233.083 489.211C232.769 489.505 232.391 489.651 231.947 489.649ZM239.15 497.019L239.113 504.792L236.565 504.781L236.627 491.69L239.073 491.701L239.063 493.831L239.225 493.832C239.53 493.14 240.004 492.586 240.648 492.168C241.298 491.75 242.114 491.544 243.097 491.548C243.989 491.552 244.769 491.743 245.438 492.121C246.107 492.493 246.624 493.047 246.99 493.781C247.355 494.516 247.536 495.423 247.531 496.503L247.491 504.829L244.943 504.818L244.981 496.798C244.985 495.849 244.742 495.107 244.25 494.57C243.758 494.028 243.081 493.756 242.217 493.752C241.626 493.749 241.1 493.875 240.639 494.128C240.183 494.382 239.82 494.755 239.551 495.248C239.287 495.736 239.154 496.326 239.15 497.019ZM256.676 489.683L256.687 487.416L270.196 487.476L270.185 489.743L264.739 489.719L264.666 504.906L262.041 504.894L262.114 489.707L256.676 489.683ZM271.533 504.936L271.596 491.846L274.059 491.857L274.049 493.936L274.185 493.937C274.427 493.233 274.85 492.681 275.455 492.281C276.064 491.874 276.753 491.673 277.52 491.676C277.679 491.677 277.867 491.683 278.082 491.696C278.304 491.708 278.477 491.723 278.602 491.741L278.59 494.178C278.488 494.149 278.307 494.117 278.045 494.082C277.784 494.041 277.523 494.02 277.262 494.019C276.659 494.016 276.122 494.141 275.649 494.395C275.182 494.643 274.811 494.991 274.536 495.438C274.261 495.88 274.122 496.385 274.12 496.954L274.082 504.948L271.533 504.936ZM284.435 505.284C283.606 505.28 282.856 505.123 282.187 504.814C281.518 504.498 280.989 504.044 280.6 503.451C280.217 502.859 280.027 502.133 280.031 501.275C280.034 500.537 280.179 499.93 280.466 499.454C280.752 498.978 281.137 498.601 281.622 498.325C282.106 498.049 282.647 497.841 283.244 497.702C283.841 497.562 284.45 497.457 285.069 497.386C285.854 497.299 286.491 497.228 286.98 497.173C287.469 497.113 287.824 497.015 288.046 496.879C288.269 496.744 288.38 496.523 288.382 496.216L288.382 496.156C288.386 495.412 288.178 494.834 287.76 494.424C287.347 494.013 286.729 493.805 285.905 493.802C285.047 493.798 284.37 493.985 283.874 494.364C283.383 494.736 283.043 495.152 282.854 495.612L280.461 495.056C280.749 494.262 281.167 493.621 281.715 493.135C282.268 492.643 282.903 492.288 283.62 492.07C284.337 491.846 285.091 491.735 285.881 491.739C286.403 491.741 286.957 491.806 287.542 491.934C288.132 492.056 288.682 492.28 289.192 492.606C289.707 492.932 290.128 493.397 290.455 494.001C290.782 494.599 290.943 495.375 290.938 496.33L290.897 505.023L288.408 505.012L288.417 503.222L288.314 503.222C288.148 503.55 287.899 503.873 287.568 504.19C287.237 504.507 286.813 504.769 286.295 504.977C285.777 505.185 285.157 505.287 284.435 505.284ZM284.999 503.241C285.703 503.244 286.306 503.107 286.808 502.831C287.315 502.555 287.7 502.193 287.963 501.746C288.233 501.292 288.369 500.807 288.371 500.29L288.379 498.602C288.288 498.693 288.111 498.777 287.849 498.856C287.593 498.928 287.3 498.993 286.971 499.048C286.641 499.098 286.32 499.144 286.007 499.188C285.694 499.227 285.433 499.26 285.222 499.287C284.728 499.348 284.276 499.451 283.866 499.597C283.462 499.742 283.137 499.954 282.891 500.231C282.651 500.503 282.53 500.866 282.528 501.321C282.525 501.951 282.756 502.43 283.22 502.756C283.684 503.076 284.277 503.238 284.999 503.241ZM299.19 505.316C298.133 505.311 297.191 505.037 296.364 504.493C295.543 503.944 294.899 503.166 294.432 502.158C293.971 501.144 293.744 499.93 293.751 498.516C293.758 497.101 293.999 495.892 294.476 494.888C294.958 493.885 295.615 493.118 296.447 492.587C297.279 492.057 298.221 491.794 299.272 491.799C300.084 491.802 300.737 491.942 301.23 492.217C301.729 492.486 302.114 492.8 302.385 493.159C302.661 493.518 302.876 493.835 303.028 494.108L303.181 494.109L303.212 487.623L305.76 487.634L305.677 505.089L303.188 505.078L303.198 503.041L302.985 503.04C302.83 503.318 302.607 503.635 302.316 503.991C302.03 504.348 301.636 504.659 301.135 504.924C300.634 505.188 299.986 505.319 299.19 505.316ZM299.763 503.145C300.496 503.148 301.116 502.958 301.624 502.573C302.137 502.184 302.526 501.643 302.791 500.951C303.061 500.259 303.198 499.453 303.203 498.532C303.207 497.623 303.08 496.827 302.822 496.144C302.564 495.461 302.183 494.928 301.679 494.545C301.175 494.162 300.551 493.969 299.807 493.966C299.04 493.962 298.4 494.158 297.886 494.554C297.373 494.949 296.984 495.49 296.72 496.177C296.461 496.863 296.329 497.638 296.325 498.502C296.321 499.377 296.448 500.164 296.706 500.864C296.964 501.564 297.347 502.12 297.857 502.531C298.372 502.937 299.007 503.141 299.763 503.145ZM314.955 505.394C313.665 505.389 312.556 505.108 311.626 504.553C310.703 503.992 309.991 503.207 309.49 502.199C308.995 501.186 308.75 500 308.757 498.642C308.763 497.301 309.019 496.121 309.524 495.1C310.034 494.08 310.743 493.285 311.649 492.715C312.561 492.145 313.625 491.863 314.841 491.868C315.579 491.871 316.294 491.997 316.986 492.244C317.678 492.492 318.299 492.878 318.847 493.403C319.396 493.928 319.827 494.609 320.142 495.446C320.456 496.277 320.61 497.286 320.604 498.473L320.6 499.377L310.194 499.33L310.203 497.421L318.112 497.457C318.115 496.786 317.982 496.192 317.712 495.674C317.441 495.15 317.06 494.736 316.567 494.433C316.08 494.129 315.507 493.976 314.847 493.973C314.132 493.97 313.506 494.143 312.97 494.493C312.44 494.838 312.029 495.29 311.736 495.851C311.449 496.407 311.305 497.011 311.301 497.665L311.294 499.156C311.29 500.031 311.44 500.776 311.744 501.391C312.053 502.006 312.486 502.477 313.041 502.803C313.596 503.124 314.246 503.286 314.99 503.289C315.473 503.292 315.914 503.225 316.312 503.091C316.711 502.95 317.056 502.742 317.347 502.465C317.638 502.188 317.861 501.845 318.016 501.436L320.426 501.882C320.23 502.591 319.88 503.212 319.378 503.744C318.881 504.27 318.257 504.679 317.505 504.971C316.759 505.257 315.909 505.399 314.955 505.394Z" fill="#BA1E71"/>
<line x1="79.5544" y1="279" x2="79.5544" y2="497" stroke="#0FA9D9"/>
</svg>
