<svg width="473" height="572" viewBox="0 0 473 572" fill="none" xmlns="http://www.w3.org/2000/svg">
<path d="M367.799 280L313.798 324.167V235.833L367.799 280Z" fill="#4CC9F0"/>
<path fill-rule="evenodd" clip-rule="evenodd" d="M0 324L53.796 280L0 236H313.799V324H0Z" fill="#4CC9F0"/>
<path d="M128.013 294V291.443L137.615 280.932C138.742 279.701 139.67 278.631 140.399 277.722C141.128 276.803 141.668 275.941 142.018 275.136C142.378 274.322 142.558 273.47 142.558 272.58C142.558 271.557 142.312 270.671 141.819 269.923C141.336 269.175 140.674 268.598 139.831 268.19C138.988 267.783 138.041 267.58 136.99 267.58C135.872 267.58 134.897 267.812 134.064 268.276C133.24 268.73 132.601 269.369 132.146 270.193C131.701 271.017 131.478 271.983 131.478 273.091H128.126C128.126 271.386 128.519 269.89 129.305 268.602C130.091 267.314 131.161 266.311 132.515 265.591C133.879 264.871 135.408 264.511 137.103 264.511C138.808 264.511 140.318 264.871 141.635 265.591C142.951 266.311 143.983 267.281 144.731 268.503C145.479 269.724 145.853 271.083 145.853 272.58C145.853 273.65 145.659 274.696 145.271 275.719C144.892 276.732 144.229 277.864 143.282 279.114C142.345 280.354 141.043 281.869 139.376 283.659L132.842 290.648V290.875H146.365V294H128.013ZM161.72 294.398C159.58 294.398 157.757 293.815 156.251 292.651C154.746 291.476 153.595 289.777 152.8 287.551C152.004 285.316 151.606 282.617 151.606 279.455C151.606 276.311 152.004 273.626 152.8 271.401C153.604 269.166 154.76 267.461 156.265 266.287C157.781 265.103 159.599 264.511 161.72 264.511C163.841 264.511 165.655 265.103 167.16 266.287C168.675 267.461 169.831 269.166 170.626 271.401C171.431 273.626 171.834 276.311 171.834 279.455C171.834 282.617 171.436 285.316 170.64 287.551C169.845 289.777 168.694 291.476 167.189 292.651C165.683 293.815 163.86 294.398 161.72 294.398ZM161.72 291.273C163.841 291.273 165.489 290.25 166.663 288.205C167.837 286.159 168.425 283.242 168.425 279.455C168.425 276.936 168.155 274.791 167.615 273.02C167.085 271.249 166.318 269.9 165.314 268.972C164.319 268.044 163.121 267.58 161.72 267.58C159.618 267.58 157.975 268.616 156.791 270.69C155.607 272.755 155.015 275.676 155.015 279.455C155.015 281.973 155.281 284.114 155.811 285.875C156.341 287.636 157.103 288.976 158.098 289.895C159.102 290.813 160.309 291.273 161.72 291.273ZM177.231 294V291.443L186.834 280.932C187.961 279.701 188.889 278.631 189.618 277.722C190.347 276.803 190.887 275.941 191.237 275.136C191.597 274.322 191.777 273.47 191.777 272.58C191.777 271.557 191.531 270.671 191.038 269.923C190.555 269.175 189.892 268.598 189.05 268.19C188.207 267.783 187.26 267.58 186.209 267.58C185.091 267.58 184.116 267.812 183.282 268.276C182.459 268.73 181.819 269.369 181.365 270.193C180.92 271.017 180.697 271.983 180.697 273.091H177.345C177.345 271.386 177.738 269.89 178.524 268.602C179.31 267.314 180.38 266.311 181.734 265.591C183.098 264.871 184.627 264.511 186.322 264.511C188.027 264.511 189.537 264.871 190.853 265.591C192.17 266.311 193.202 267.281 193.95 268.503C194.698 269.724 195.072 271.083 195.072 272.58C195.072 273.65 194.878 274.696 194.49 275.719C194.111 276.732 193.448 277.864 192.501 279.114C191.564 280.354 190.262 281.869 188.595 283.659L182.061 290.648V290.875H195.584V294H177.231ZM200.143 288.034V285.136L212.927 264.909H215.03V269.398H213.609L203.95 284.682V284.909H221.166V288.034H200.143ZM213.836 294V287.153V285.804V264.909H217.189V294H213.836ZM248.819 284.909H252.682L255.921 289.17L256.773 290.307L261.603 296.727H257.739L254.557 292.466L253.762 291.386L248.819 284.909ZM262.796 279.455C262.796 282.523 262.242 285.174 261.134 287.409C260.026 289.644 258.506 291.367 256.574 292.58C254.643 293.792 252.436 294.398 249.955 294.398C247.474 294.398 245.268 293.792 243.336 292.58C241.404 291.367 239.884 289.644 238.776 287.409C237.668 285.174 237.114 282.523 237.114 279.455C237.114 276.386 237.668 273.735 238.776 271.5C239.884 269.265 241.404 267.542 243.336 266.33C245.268 265.117 247.474 264.511 249.955 264.511C252.436 264.511 254.643 265.117 256.574 266.33C258.506 267.542 260.026 269.265 261.134 271.5C262.242 273.735 262.796 276.386 262.796 279.455ZM259.387 279.455C259.387 276.936 258.965 274.81 258.123 273.077C257.289 271.344 256.158 270.032 254.728 269.142C253.307 268.252 251.716 267.807 249.955 267.807C248.194 267.807 246.598 268.252 245.168 269.142C243.748 270.032 242.616 271.344 241.773 273.077C240.94 274.81 240.523 276.936 240.523 279.455C240.523 281.973 240.94 284.099 241.773 285.832C242.616 287.565 243.748 288.877 245.168 289.767C246.598 290.657 248.194 291.102 249.955 291.102C251.716 291.102 253.307 290.657 254.728 289.767C256.158 288.877 257.289 287.565 258.123 285.832C258.965 284.099 259.387 281.973 259.387 279.455ZM278.037 294.398C276.162 294.398 274.491 294.076 273.023 293.432C271.565 292.788 270.405 291.893 269.543 290.747C268.691 289.592 268.227 288.252 268.151 286.727H271.731C271.806 287.665 272.128 288.474 272.697 289.156C273.265 289.829 274.008 290.349 274.927 290.719C275.845 291.088 276.863 291.273 277.981 291.273C279.231 291.273 280.339 291.055 281.304 290.619C282.27 290.184 283.028 289.578 283.577 288.801C284.126 288.025 284.401 287.125 284.401 286.102C284.401 285.032 284.136 284.09 283.606 283.276C283.075 282.452 282.299 281.808 281.276 281.344C280.253 280.88 279.003 280.648 277.526 280.648H275.197V277.523H277.526C278.681 277.523 279.695 277.314 280.566 276.898C281.447 276.481 282.133 275.894 282.626 275.136C283.127 274.379 283.378 273.489 283.378 272.466C283.378 271.481 283.161 270.624 282.725 269.895C282.289 269.166 281.674 268.598 280.878 268.19C280.092 267.783 279.164 267.58 278.094 267.58C277.09 267.58 276.144 267.764 275.253 268.134C274.373 268.493 273.653 269.019 273.094 269.71C272.536 270.392 272.233 271.216 272.185 272.182H268.776C268.833 270.657 269.292 269.322 270.154 268.176C271.016 267.021 272.143 266.121 273.535 265.477C274.936 264.833 276.475 264.511 278.151 264.511C279.95 264.511 281.494 264.876 282.782 265.605C284.07 266.325 285.059 267.277 285.751 268.46C286.442 269.644 286.787 270.922 286.787 272.295C286.787 273.934 286.357 275.33 285.495 276.486C284.643 277.641 283.483 278.441 282.015 278.886V279.114C283.852 279.417 285.286 280.198 286.319 281.457C287.351 282.707 287.867 284.256 287.867 286.102C287.867 287.684 287.436 289.104 286.574 290.364C285.722 291.614 284.557 292.598 283.08 293.318C281.603 294.038 279.922 294.398 278.037 294.398Z" fill="black"/>
<ellipse cx="93.2963" cy="280.5" rx="8.50008" ry="8.5" fill="#D9D9D9"/>
<path d="M94.8026 19.7955C94.1151 19.7955 93.4873 19.6278 92.9191 19.2926C92.3509 18.9517 91.8963 18.4972 91.5554 17.929C91.2202 17.3608 91.0526 16.733 91.0526 16.0455C91.0526 15.3523 91.2202 14.7244 91.5554 14.1619C91.8963 13.5937 92.3509 13.142 92.9191 12.8068C93.4873 12.4659 94.1151 12.2955 94.8026 12.2955C95.4958 12.2955 96.1236 12.4659 96.6861 12.8068C97.2543 13.142 97.706 13.5937 98.0412 14.1619C98.3821 14.7244 98.5526 15.3523 98.5526 16.0455C98.5526 16.733 98.3821 17.3608 98.0412 17.929C97.706 18.4972 97.2543 18.9517 96.6861 19.2926C96.1236 19.6278 95.4958 19.7955 94.8026 19.7955ZM118.131 23L113.291 5.54545H116.06L119.461 19.0625H119.623L123.16 5.54545H125.904L129.441 19.071H129.603L132.995 5.54545H135.773L130.924 23H128.273L124.6 9.92614H124.464L120.791 23H118.131ZM140.519 15.2273V23H137.97V5.54545H140.484V12.0398H140.646C140.953 11.3352 141.422 10.7756 142.053 10.3608C142.683 9.94602 143.507 9.73864 144.524 9.73864C145.422 9.73864 146.206 9.9233 146.876 10.2926C147.553 10.6619 148.075 11.2131 148.445 11.946C148.82 12.6733 149.007 13.5824 149.007 14.6733V23H146.459V14.9801C146.459 14.0199 146.212 13.2756 145.717 12.7472C145.223 12.2131 144.536 11.946 143.655 11.946C143.053 11.946 142.513 12.0739 142.036 12.3295C141.564 12.5852 141.192 12.9602 140.919 13.4545C140.652 13.9432 140.519 14.5341 140.519 15.2273ZM152.408 23V9.90909H154.956V23H152.408ZM153.695 7.8892C153.251 7.8892 152.871 7.74148 152.553 7.44602C152.24 7.14489 152.084 6.78693 152.084 6.37216C152.084 5.9517 152.24 5.59375 152.553 5.29829C152.871 4.99716 153.251 4.84659 153.695 4.84659C154.138 4.84659 154.516 4.99716 154.828 5.29829C155.146 5.59375 155.305 5.9517 155.305 6.37216C155.305 6.78693 155.146 7.14489 154.828 7.44602C154.516 7.74148 154.138 7.8892 153.695 7.8892ZM164.495 9.90909V11.9545H157.344V9.90909H164.495ZM159.262 6.77273H161.81V19.1562C161.81 19.6506 161.884 20.0227 162.032 20.2727C162.18 20.517 162.37 20.6847 162.603 20.7756C162.842 20.8608 163.1 20.9034 163.379 20.9034C163.583 20.9034 163.762 20.8892 163.916 20.8608C164.069 20.8324 164.188 20.8097 164.273 20.7926L164.734 22.8977C164.586 22.9545 164.376 23.0114 164.103 23.0682C163.83 23.1307 163.489 23.1648 163.08 23.1705C162.41 23.1818 161.785 23.0625 161.205 22.8125C160.626 22.5625 160.157 22.1761 159.799 21.6534C159.441 21.1307 159.262 20.4744 159.262 19.6847V6.77273ZM172.815 23.2642C171.526 23.2642 170.415 22.9886 169.483 22.4375C168.557 21.8807 167.841 21.0994 167.335 20.0938C166.835 19.0824 166.585 17.8977 166.585 16.5398C166.585 15.1989 166.835 14.017 167.335 12.9943C167.841 11.9716 168.545 11.1733 169.449 10.5994C170.358 10.0256 171.42 9.73864 172.636 9.73864C173.375 9.73864 174.091 9.8608 174.784 10.1051C175.477 10.3494 176.099 10.733 176.651 11.2557C177.202 11.7784 177.636 12.4574 177.955 13.2926C178.273 14.1222 178.432 15.1307 178.432 16.3182V17.2216H168.026V15.3125H175.935C175.935 14.642 175.798 14.0483 175.526 13.5312C175.253 13.0085 174.869 12.5966 174.375 12.2955C173.886 11.9943 173.313 11.8438 172.653 11.8438C171.938 11.8438 171.313 12.0199 170.778 12.3722C170.25 12.7187 169.841 13.1733 169.551 13.7358C169.267 14.2926 169.125 14.8977 169.125 15.5511V17.0426C169.125 17.9176 169.278 18.6619 169.585 19.2756C169.898 19.8892 170.332 20.358 170.889 20.6818C171.446 21 172.097 21.1591 172.841 21.1591C173.324 21.1591 173.764 21.0909 174.162 20.9545C174.56 20.8125 174.903 20.6023 175.193 20.3239C175.483 20.0455 175.705 19.7017 175.858 19.2926L178.27 19.7273C178.077 20.4375 177.73 21.0597 177.23 21.5938C176.736 22.1222 176.114 22.5341 175.364 22.8295C174.619 23.1193 173.77 23.2642 172.815 23.2642ZM181.259 27.9091V9.90909H183.748V12.0312H183.961C184.109 11.7585 184.322 11.4432 184.6 11.0852C184.879 10.7273 185.265 10.4148 185.759 10.1477C186.254 9.875 186.907 9.73864 187.719 9.73864C188.776 9.73864 189.719 10.0057 190.549 10.5398C191.379 11.0739 192.029 11.8437 192.501 12.8494C192.978 13.8551 193.217 15.0653 193.217 16.4801C193.217 17.8949 192.981 19.108 192.509 20.1193C192.038 21.125 191.39 21.9006 190.566 22.446C189.742 22.9858 188.802 23.2557 187.745 23.2557C186.95 23.2557 186.299 23.1222 185.793 22.8551C185.293 22.5881 184.901 22.2756 184.617 21.9176C184.333 21.5597 184.114 21.2415 183.961 20.9631H183.808V27.9091H181.259ZM183.756 16.4545C183.756 17.375 183.89 18.1818 184.157 18.875C184.424 19.5682 184.81 20.1108 185.316 20.5028C185.822 20.8892 186.441 21.0824 187.174 21.0824C187.935 21.0824 188.572 20.8807 189.083 20.4773C189.594 20.0682 189.981 19.5142 190.242 18.8153C190.509 18.1165 190.643 17.3295 190.643 16.4545C190.643 15.5909 190.512 14.8153 190.251 14.1278C189.995 13.4403 189.609 12.8977 189.092 12.5C188.58 12.1023 187.941 11.9034 187.174 11.9034C186.435 11.9034 185.81 12.0937 185.299 12.4744C184.793 12.8551 184.41 13.3864 184.148 14.0682C183.887 14.75 183.756 15.5455 183.756 16.4545ZM199.881 23.2898C199.052 23.2898 198.302 23.1364 197.631 22.8295C196.961 22.517 196.43 22.0653 196.038 21.4744C195.651 20.8835 195.458 20.1591 195.458 19.3011C195.458 18.5625 195.6 17.9545 195.884 17.4773C196.168 17 196.552 16.6222 197.035 16.3438C197.518 16.0653 198.058 15.8551 198.654 15.7131C199.251 15.571 199.859 15.4631 200.478 15.3892C201.262 15.2983 201.898 15.2244 202.387 15.1676C202.876 15.1051 203.231 15.0057 203.452 14.8693C203.674 14.733 203.785 14.5114 203.785 14.2045V14.1449C203.785 13.4006 203.575 12.8239 203.154 12.4148C202.739 12.0057 202.12 11.8011 201.296 11.8011C200.438 11.8011 199.762 11.9915 199.268 12.3722C198.779 12.7472 198.441 13.1648 198.254 13.625L195.859 13.0795C196.143 12.2841 196.558 11.642 197.103 11.1534C197.654 10.6591 198.288 10.3011 199.004 10.0795C199.719 9.85227 200.472 9.73864 201.262 9.73864C201.785 9.73864 202.339 9.80114 202.924 9.92614C203.515 10.0455 204.066 10.267 204.577 10.5909C205.094 10.9148 205.518 11.3778 205.847 11.9801C206.177 12.5767 206.342 13.3523 206.342 14.3068V23H203.853V21.2102H203.751C203.586 21.5398 203.339 21.8636 203.009 22.1818C202.68 22.5 202.256 22.7642 201.739 22.9744C201.222 23.1847 200.603 23.2898 199.881 23.2898ZM200.435 21.2443C201.14 21.2443 201.742 21.1051 202.242 20.8267C202.748 20.5483 203.131 20.1847 203.393 19.7358C203.66 19.2812 203.793 18.7955 203.793 18.2784V16.5909C203.702 16.6818 203.526 16.767 203.265 16.8466C203.009 16.9205 202.717 16.9858 202.387 17.0426C202.058 17.0937 201.737 17.142 201.424 17.1875C201.112 17.2273 200.85 17.2614 200.64 17.2898C200.146 17.3523 199.694 17.4574 199.285 17.6051C198.881 17.7528 198.558 17.9659 198.313 18.2443C198.075 18.517 197.955 18.8807 197.955 19.3352C197.955 19.9659 198.188 20.4432 198.654 20.767C199.12 21.0852 199.714 21.2443 200.435 21.2443ZM209.736 27.9091V9.90909H212.224V12.0312H212.438C212.585 11.7585 212.798 11.4432 213.077 11.0852C213.355 10.7273 213.742 10.4148 214.236 10.1477C214.73 9.875 215.384 9.73864 216.196 9.73864C217.253 9.73864 218.196 10.0057 219.026 10.5398C219.855 11.0739 220.506 11.8437 220.977 12.8494C221.455 13.8551 221.693 15.0653 221.693 16.4801C221.693 17.8949 221.457 19.108 220.986 20.1193C220.514 21.125 219.867 21.9006 219.043 22.446C218.219 22.9858 217.278 23.2557 216.222 23.2557C215.426 23.2557 214.776 23.1222 214.27 22.8551C213.77 22.5881 213.378 22.2756 213.094 21.9176C212.81 21.5597 212.591 21.2415 212.438 20.9631H212.284V27.9091H209.736ZM212.233 16.4545C212.233 17.375 212.367 18.1818 212.634 18.875C212.901 19.5682 213.287 20.1108 213.793 20.5028C214.298 20.8892 214.918 21.0824 215.651 21.0824C216.412 21.0824 217.048 20.8807 217.56 20.4773C218.071 20.0682 218.457 19.5142 218.719 18.8153C218.986 18.1165 219.119 17.3295 219.119 16.4545C219.119 15.5909 218.989 14.8153 218.727 14.1278C218.472 13.4403 218.085 12.8977 217.568 12.5C217.057 12.1023 216.418 11.9034 215.651 11.9034C214.912 11.9034 214.287 12.0937 213.776 12.4744C213.27 12.8551 212.886 13.3864 212.625 14.0682C212.364 14.75 212.233 15.5455 212.233 16.4545ZM230.19 23.2642C228.901 23.2642 227.79 22.9886 226.858 22.4375C225.932 21.8807 225.216 21.0994 224.71 20.0938C224.21 19.0824 223.96 17.8977 223.96 16.5398C223.96 15.1989 224.21 14.017 224.71 12.9943C225.216 11.9716 225.92 11.1733 226.824 10.5994C227.733 10.0256 228.795 9.73864 230.011 9.73864C230.75 9.73864 231.466 9.8608 232.159 10.1051C232.852 10.3494 233.474 10.733 234.026 11.2557C234.577 11.7784 235.011 12.4574 235.33 13.2926C235.648 14.1222 235.807 15.1307 235.807 16.3182V17.2216H225.401V15.3125H233.31C233.31 14.642 233.173 14.0483 232.901 13.5312C232.628 13.0085 232.244 12.5966 231.75 12.2955C231.261 11.9943 230.688 11.8438 230.028 11.8438C229.313 11.8438 228.688 12.0199 228.153 12.3722C227.625 12.7187 227.216 13.1733 226.926 13.7358C226.642 14.2926 226.5 14.8977 226.5 15.5511V17.0426C226.5 17.9176 226.653 18.6619 226.96 19.2756C227.273 19.8892 227.707 20.358 228.264 20.6818C228.821 21 229.472 21.1591 230.216 21.1591C230.699 21.1591 231.139 21.0909 231.537 20.9545C231.935 20.8125 232.278 20.6023 232.568 20.3239C232.858 20.0455 233.08 19.7017 233.233 19.2926L235.645 19.7273C235.452 20.4375 235.105 21.0597 234.605 21.5938C234.111 22.1222 233.489 22.5341 232.739 22.8295C231.994 23.1193 231.145 23.2642 230.19 23.2642ZM238.634 23V9.90909H241.097V11.9886H241.234C241.472 11.2841 241.893 10.7301 242.495 10.3267C243.103 9.91761 243.791 9.71307 244.558 9.71307C244.717 9.71307 244.904 9.71875 245.12 9.73011C245.342 9.74148 245.515 9.75568 245.64 9.77273V12.2102C245.538 12.1818 245.356 12.1506 245.094 12.1165C244.833 12.0767 244.572 12.0568 244.31 12.0568C243.708 12.0568 243.171 12.1847 242.7 12.4403C242.234 12.6903 241.864 13.0398 241.592 13.4886C241.319 13.9318 241.183 14.4375 241.183 15.0057V23H238.634ZM265.396 9.90909L260.648 23H257.921L253.166 9.90909H255.901L259.217 19.983H259.353L262.66 9.90909H265.396ZM273.833 23.2386C272.663 23.2386 271.617 23.0369 270.697 22.6335C269.782 22.2301 269.058 21.6705 268.523 20.9545C267.995 20.233 267.711 19.3977 267.671 18.4489H270.347C270.381 18.9659 270.555 19.4148 270.867 19.7955C271.185 20.1705 271.6 20.4602 272.112 20.6648C272.623 20.8693 273.191 20.9716 273.816 20.9716C274.504 20.9716 275.112 20.8523 275.64 20.6136C276.174 20.375 276.592 20.0426 276.893 19.6165C277.194 19.1847 277.344 18.6875 277.344 18.125C277.344 17.5398 277.194 17.0256 276.893 16.5824C276.597 16.1335 276.163 15.7812 275.589 15.5256C275.021 15.2699 274.333 15.142 273.526 15.142H272.052V12.9943H273.526C274.174 12.9943 274.742 12.8778 275.231 12.6449C275.725 12.4119 276.112 12.0881 276.39 11.6733C276.668 11.2528 276.808 10.7614 276.808 10.1989C276.808 9.65909 276.685 9.19034 276.441 8.79261C276.202 8.3892 275.862 8.07386 275.418 7.84659C274.981 7.61932 274.464 7.50568 273.867 7.50568C273.299 7.50568 272.768 7.6108 272.273 7.82102C271.785 8.02557 271.387 8.32102 271.08 8.70739C270.773 9.08807 270.609 9.54545 270.586 10.0795H268.038C268.066 9.13636 268.344 8.30682 268.873 7.59091C269.407 6.875 270.112 6.31534 270.987 5.91193C271.862 5.50852 272.833 5.30682 273.901 5.30682C275.021 5.30682 275.987 5.52557 276.799 5.96307C277.617 6.39489 278.248 6.97159 278.691 7.69318C279.14 8.41477 279.362 9.20455 279.356 10.0625C279.362 11.0398 279.089 11.8693 278.538 12.5511C277.992 13.233 277.265 13.6903 276.356 13.9233V14.0597C277.515 14.2358 278.413 14.696 279.049 15.4403C279.691 16.1847 280.009 17.108 280.004 18.2102C280.009 19.1705 279.742 20.0312 279.202 20.7926C278.668 21.554 277.938 22.1534 277.012 22.5909C276.086 23.0227 275.026 23.2386 273.833 23.2386ZM94.8026 48.7955C94.1151 48.7955 93.4873 48.6278 92.9191 48.2926C92.3509 47.9517 91.8963 47.4972 91.5554 46.929C91.2202 46.3608 91.0526 45.733 91.0526 45.0455C91.0526 44.3523 91.2202 43.7244 91.5554 43.1619C91.8963 42.5937 92.3509 42.142 92.9191 41.8068C93.4873 41.4659 94.1151 41.2955 94.8026 41.2955C95.4958 41.2955 96.1236 41.4659 96.6861 41.8068C97.2543 42.142 97.706 42.5937 98.0412 43.1619C98.3821 43.7244 98.5526 44.3523 98.5526 45.0455C98.5526 45.733 98.3821 46.3608 98.0412 46.929C97.706 47.4972 97.2543 47.9517 96.6861 48.2926C96.1236 48.6278 95.4958 48.7955 94.8026 48.7955ZM114.714 34.5455H117.91L123.467 48.1136H123.671L129.228 34.5455H132.424V52H129.918V39.3693H129.756L124.609 51.9744H122.529L117.381 39.3608H117.219V52H114.714V34.5455ZM139.858 52.2898C139.028 52.2898 138.278 52.1364 137.608 51.8295C136.938 51.517 136.406 51.0653 136.014 50.4744C135.628 49.8835 135.435 49.1591 135.435 48.3011C135.435 47.5625 135.577 46.9545 135.861 46.4773C136.145 46 136.528 45.6222 137.011 45.3438C137.494 45.0653 138.034 44.8551 138.631 44.7131C139.227 44.571 139.835 44.4631 140.455 44.3892C141.239 44.2983 141.875 44.2244 142.364 44.1676C142.852 44.1051 143.207 44.0057 143.429 43.8693C143.651 43.733 143.761 43.5114 143.761 43.2045V43.1449C143.761 42.4006 143.551 41.8239 143.131 41.4148C142.716 41.0057 142.097 40.8011 141.273 40.8011C140.415 40.8011 139.739 40.9915 139.244 41.3722C138.756 41.7472 138.418 42.1648 138.23 42.625L135.835 42.0795C136.119 41.2841 136.534 40.642 137.08 40.1534C137.631 39.6591 138.264 39.3011 138.98 39.0795C139.696 38.8523 140.449 38.7386 141.239 38.7386C141.761 38.7386 142.315 38.8011 142.901 38.9261C143.492 39.0455 144.043 39.267 144.554 39.5909C145.071 39.9148 145.494 40.3778 145.824 40.9801C146.153 41.5767 146.318 42.3523 146.318 43.3068V52H143.83V50.2102H143.727C143.563 50.5398 143.315 50.8636 142.986 51.1818C142.656 51.5 142.233 51.7642 141.716 51.9744C141.199 52.1847 140.58 52.2898 139.858 52.2898ZM140.412 50.2443C141.117 50.2443 141.719 50.1051 142.219 49.8267C142.724 49.5483 143.108 49.1847 143.369 48.7358C143.636 48.2812 143.77 47.7955 143.77 47.2784V45.5909C143.679 45.6818 143.503 45.767 143.242 45.8466C142.986 45.9205 142.693 45.9858 142.364 46.0426C142.034 46.0937 141.713 46.142 141.401 46.1875C141.088 46.2273 140.827 46.2614 140.617 46.2898C140.122 46.3523 139.67 46.4574 139.261 46.6051C138.858 46.7528 138.534 46.9659 138.29 47.2443C138.051 47.517 137.932 47.8807 137.932 48.3352C137.932 48.9659 138.165 49.4432 138.631 49.767C139.097 50.0852 139.69 50.2443 140.412 50.2443ZM149.712 52V38.9091H152.175V40.9886H152.312C152.55 40.2841 152.971 39.7301 153.573 39.3267C154.181 38.9176 154.869 38.7131 155.636 38.7131C155.795 38.7131 155.982 38.7187 156.198 38.7301C156.42 38.7415 156.593 38.7557 156.718 38.7727V41.2102C156.616 41.1818 156.434 41.1506 156.173 41.1165C155.911 41.0767 155.65 41.0568 155.389 41.0568C154.786 41.0568 154.249 41.1847 153.778 41.4403C153.312 41.6903 152.943 42.0398 152.67 42.4886C152.397 42.9318 152.261 43.4375 152.261 44.0057V52H149.712ZM163.943 57.1818C162.903 57.1818 162.009 57.0455 161.259 56.7727C160.514 56.5 159.906 56.1392 159.435 55.6903C158.963 55.2415 158.611 54.75 158.378 54.2159L160.568 53.3125C160.722 53.5625 160.926 53.8267 161.182 54.1051C161.443 54.3892 161.795 54.6307 162.239 54.8295C162.688 55.0284 163.264 55.1278 163.969 55.1278C164.935 55.1278 165.733 54.892 166.364 54.4205C166.994 53.9545 167.31 53.2102 167.31 52.1875V49.6136H167.148C166.994 49.892 166.773 50.2017 166.483 50.5426C166.199 50.8835 165.807 51.179 165.307 51.429C164.807 51.679 164.156 51.804 163.355 51.804C162.321 51.804 161.389 51.5625 160.56 51.0795C159.736 50.5909 159.082 49.8722 158.599 48.9233C158.122 47.9687 157.884 46.7955 157.884 45.4034C157.884 44.0114 158.119 42.8182 158.591 41.8239C159.068 40.8295 159.722 40.0682 160.551 39.5398C161.381 39.0057 162.321 38.7386 163.372 38.7386C164.185 38.7386 164.841 38.875 165.341 39.1477C165.841 39.4148 166.23 39.7273 166.509 40.0852C166.793 40.4432 167.011 40.7585 167.165 41.0312H167.352V38.9091H169.849V52.2898C169.849 53.4148 169.588 54.3381 169.065 55.0597C168.543 55.7813 167.835 56.3153 166.943 56.6619C166.057 57.0085 165.057 57.1818 163.943 57.1818ZM163.918 49.6903C164.651 49.6903 165.27 49.5199 165.776 49.179C166.287 48.8324 166.673 48.3381 166.935 47.696C167.202 47.0483 167.335 46.2727 167.335 45.3693C167.335 44.4886 167.205 43.7131 166.943 43.0426C166.682 42.3722 166.298 41.8494 165.793 41.4744C165.287 41.0937 164.662 40.9034 163.918 40.9034C163.151 40.9034 162.511 41.1023 162 41.5C161.489 41.892 161.102 42.4261 160.841 43.1023C160.585 43.7784 160.457 44.5341 160.457 45.3693C160.457 46.2273 160.588 46.9801 160.849 47.6278C161.111 48.2756 161.497 48.7812 162.009 49.1449C162.526 49.5085 163.162 49.6903 163.918 49.6903ZM173.267 52V38.9091H175.815V52H173.267ZM174.554 36.8892C174.111 36.8892 173.73 36.7415 173.412 36.446C173.099 36.1449 172.943 35.7869 172.943 35.3722C172.943 34.9517 173.099 34.5937 173.412 34.2983C173.73 33.9972 174.111 33.8466 174.554 33.8466C174.997 33.8466 175.375 33.9972 175.688 34.2983C176.006 34.5937 176.165 34.9517 176.165 35.3722C176.165 35.7869 176.006 36.1449 175.688 36.446C175.375 36.7415 174.997 36.8892 174.554 36.8892ZM181.792 44.2273V52H179.244V38.9091H181.69V41.0398H181.852C182.153 40.3466 182.624 39.7898 183.266 39.3693C183.914 38.9489 184.729 38.7386 185.712 38.7386C186.604 38.7386 187.386 38.9261 188.056 39.3011C188.727 39.6705 189.246 40.2216 189.616 40.9545C189.985 41.6875 190.17 42.5937 190.17 43.6733V52H187.621V43.9801C187.621 43.0312 187.374 42.2898 186.88 41.7557C186.386 41.2159 185.707 40.946 184.843 40.946C184.252 40.946 183.727 41.0739 183.266 41.3295C182.812 41.5852 182.451 41.9602 182.184 42.4545C181.923 42.9432 181.792 43.5341 181.792 44.2273ZM199.283 36.8125V34.5455H212.791V36.8125H207.345V52H204.72V36.8125H199.283ZM214.212 52V38.9091H216.675V40.9886H216.812C217.05 40.2841 217.471 39.7301 218.073 39.3267C218.681 38.9176 219.369 38.7131 220.136 38.7131C220.295 38.7131 220.482 38.7187 220.698 38.7301C220.92 38.7415 221.093 38.7557 221.218 38.7727V41.2102C221.116 41.1818 220.934 41.1506 220.673 41.1165C220.411 41.0767 220.15 41.0568 219.889 41.0568C219.286 41.0568 218.749 41.1847 218.278 41.4403C217.812 41.6903 217.443 42.0398 217.17 42.4886C216.897 42.9318 216.761 43.4375 216.761 44.0057V52H214.212ZM227.116 52.2898C226.286 52.2898 225.536 52.1364 224.866 51.8295C224.195 51.517 223.664 51.0653 223.272 50.4744C222.886 49.8835 222.693 49.1591 222.693 48.3011C222.693 47.5625 222.835 46.9545 223.119 46.4773C223.403 46 223.786 45.6222 224.269 45.3438C224.752 45.0653 225.292 44.8551 225.889 44.7131C226.485 44.571 227.093 44.4631 227.712 44.3892C228.496 44.2983 229.133 44.2244 229.621 44.1676C230.11 44.1051 230.465 44.0057 230.687 43.8693C230.908 43.733 231.019 43.5114 231.019 43.2045V43.1449C231.019 42.4006 230.809 41.8239 230.389 41.4148C229.974 41.0057 229.354 40.8011 228.531 40.8011C227.673 40.8011 226.996 40.9915 226.502 41.3722C226.014 41.7472 225.675 42.1648 225.488 42.625L223.093 42.0795C223.377 41.2841 223.792 40.642 224.337 40.1534C224.889 39.6591 225.522 39.3011 226.238 39.0795C226.954 38.8523 227.707 38.7386 228.496 38.7386C229.019 38.7386 229.573 38.8011 230.158 38.9261C230.749 39.0455 231.3 39.267 231.812 39.5909C232.329 39.9148 232.752 40.3778 233.082 40.9801C233.411 41.5767 233.576 42.3523 233.576 43.3068V52H231.087V50.2102H230.985C230.82 50.5398 230.573 50.8636 230.244 51.1818C229.914 51.5 229.491 51.7642 228.974 51.9744C228.457 52.1847 227.837 52.2898 227.116 52.2898ZM227.67 50.2443C228.374 50.2443 228.977 50.1051 229.477 49.8267C229.982 49.5483 230.366 49.1847 230.627 48.7358C230.894 48.2812 231.028 47.7955 231.028 47.2784V45.5909C230.937 45.6818 230.761 45.767 230.499 45.8466C230.244 45.9205 229.951 45.9858 229.621 46.0426C229.292 46.0937 228.971 46.142 228.658 46.1875C228.346 46.2273 228.085 46.2614 227.874 46.2898C227.38 46.3523 226.928 46.4574 226.519 46.6051C226.116 46.7528 225.792 46.9659 225.548 47.2443C225.309 47.517 225.19 47.8807 225.19 48.3352C225.19 48.9659 225.423 49.4432 225.889 49.767C226.354 50.0852 226.948 50.2443 227.67 50.2443ZM241.871 52.2557C240.814 52.2557 239.871 51.9858 239.041 51.446C238.217 50.9006 237.57 50.125 237.098 49.1193C236.632 48.108 236.399 46.8949 236.399 45.4801C236.399 44.0653 236.635 42.8551 237.107 41.8494C237.584 40.8437 238.237 40.0739 239.067 39.5398C239.896 39.0057 240.837 38.7386 241.888 38.7386C242.7 38.7386 243.354 38.875 243.848 39.1477C244.348 39.4148 244.734 39.7273 245.007 40.0852C245.286 40.4432 245.501 40.7585 245.655 41.0312H245.808V34.5455H248.357V52H245.868V49.9631H245.655C245.501 50.2415 245.28 50.5597 244.99 50.9176C244.706 51.2756 244.314 51.5881 243.814 51.8551C243.314 52.1222 242.666 52.2557 241.871 52.2557ZM242.433 50.0824C243.166 50.0824 243.786 49.8892 244.291 49.5028C244.803 49.1108 245.189 48.5682 245.45 47.875C245.717 47.1818 245.851 46.375 245.851 45.4545C245.851 44.5455 245.72 43.75 245.459 43.0682C245.197 42.3864 244.814 41.8551 244.308 41.4744C243.803 41.0937 243.178 40.9034 242.433 40.9034C241.666 40.9034 241.027 41.1023 240.516 41.5C240.004 41.8977 239.618 42.4403 239.357 43.1278C239.101 43.8153 238.973 44.5909 238.973 45.4545C238.973 46.3295 239.104 47.1165 239.365 47.8153C239.626 48.5142 240.013 49.0682 240.524 49.4773C241.041 49.8807 241.678 50.0824 242.433 50.0824ZM257.636 52.2642C256.346 52.2642 255.235 51.9886 254.303 51.4375C253.377 50.8807 252.661 50.0994 252.156 49.0938C251.656 48.0824 251.406 46.8977 251.406 45.5398C251.406 44.1989 251.656 43.017 252.156 41.9943C252.661 40.9716 253.366 40.1733 254.269 39.5994C255.178 39.0256 256.241 38.7386 257.457 38.7386C258.195 38.7386 258.911 38.8608 259.604 39.1051C260.298 39.3494 260.92 39.733 261.471 40.2557C262.022 40.7784 262.457 41.4574 262.775 42.2926C263.093 43.1222 263.252 44.1307 263.252 45.3182V46.2216H252.846V44.3125H260.755C260.755 43.642 260.619 43.0483 260.346 42.5312C260.073 42.0085 259.69 41.5966 259.195 41.2955C258.707 40.9943 258.133 40.8438 257.474 40.8438C256.758 40.8438 256.133 41.0199 255.599 41.3722C255.07 41.7187 254.661 42.1733 254.371 42.7358C254.087 43.2926 253.945 43.8977 253.945 44.5511V46.0426C253.945 46.9176 254.099 47.6619 254.406 48.2756C254.718 48.8892 255.153 49.358 255.71 49.6818C256.266 50 256.917 50.1591 257.661 50.1591C258.144 50.1591 258.585 50.0909 258.982 49.9545C259.38 49.8125 259.724 49.6023 260.014 49.3239C260.303 49.0455 260.525 48.7017 260.678 48.2926L263.09 48.7273C262.897 49.4375 262.55 50.0597 262.05 50.5938C261.556 51.1222 260.934 51.5341 260.184 51.8295C259.44 52.1193 258.59 52.2642 257.636 52.2642ZM275.269 52L271.417 38.9091H274.05L276.616 48.5227H276.744L279.318 38.9091H281.951L284.508 48.4801H284.636L287.184 38.9091H289.818L285.974 52H283.374L280.715 42.5483H280.519L277.86 52H275.269ZM292.236 52V38.9091H294.784V52H292.236ZM293.523 36.8892C293.08 36.8892 292.699 36.7415 292.381 36.446C292.068 36.1449 291.912 35.7869 291.912 35.3722C291.912 34.9517 292.068 34.5937 292.381 34.2983C292.699 33.9972 293.08 33.8466 293.523 33.8466C293.966 33.8466 294.344 33.9972 294.656 34.2983C294.974 34.5937 295.134 34.9517 295.134 35.3722C295.134 35.7869 294.974 36.1449 294.656 36.446C294.344 36.7415 293.966 36.8892 293.523 36.8892ZM304.323 38.9091V40.9545H297.173V38.9091H304.323ZM299.09 35.7727H301.639V48.1562C301.639 48.6506 301.712 49.0227 301.86 49.2727C302.008 49.517 302.198 49.6847 302.431 49.7756C302.67 49.8608 302.928 49.9034 303.207 49.9034C303.411 49.9034 303.59 49.8892 303.744 49.8608C303.897 49.8324 304.016 49.8097 304.102 49.7926L304.562 51.8977C304.414 51.9545 304.204 52.0114 303.931 52.0682C303.658 52.1307 303.318 52.1648 302.908 52.1705C302.238 52.1818 301.613 52.0625 301.033 51.8125C300.454 51.5625 299.985 51.1761 299.627 50.6534C299.269 50.1307 299.09 49.4744 299.09 48.6847V35.7727ZM309.972 44.2273V52H307.423V34.5455H309.938V41.0398H310.099C310.406 40.3352 310.875 39.7756 311.506 39.3608C312.136 38.946 312.96 38.7386 313.977 38.7386C314.875 38.7386 315.659 38.9233 316.33 39.2926C317.006 39.6619 317.528 40.2131 317.898 40.946C318.273 41.6733 318.46 42.5824 318.46 43.6733V52H315.912V43.9801C315.912 43.0199 315.665 42.2756 315.17 41.7472C314.676 41.2131 313.989 40.946 313.108 40.946C312.506 40.946 311.966 41.0739 311.489 41.3295C311.017 41.5852 310.645 41.9602 310.372 42.4545C310.105 42.9432 309.972 43.5341 309.972 44.2273ZM328.417 52V34.5455H331.05V49.733H338.96V52H328.417ZM347.273 52.2642C346.046 52.2642 344.975 51.983 344.06 51.4205C343.146 50.858 342.435 50.071 341.93 49.0597C341.424 48.0483 341.171 46.8665 341.171 45.5142C341.171 44.1562 341.424 42.9687 341.93 41.9517C342.435 40.9347 343.146 40.1449 344.06 39.5824C344.975 39.0199 346.046 38.7386 347.273 38.7386C348.501 38.7386 349.572 39.0199 350.487 39.5824C351.401 40.1449 352.112 40.9347 352.617 41.9517C353.123 42.9687 353.376 44.1562 353.376 45.5142C353.376 46.8665 353.123 48.0483 352.617 49.0597C352.112 50.071 351.401 50.858 350.487 51.4205C349.572 51.983 348.501 52.2642 347.273 52.2642ZM347.282 50.125C348.077 50.125 348.737 49.9148 349.259 49.4943C349.782 49.0739 350.168 48.5142 350.418 47.8153C350.674 47.1165 350.802 46.3466 350.802 45.5057C350.802 44.6705 350.674 43.9034 350.418 43.2045C350.168 42.5 349.782 41.9347 349.259 41.5085C348.737 41.0824 348.077 40.8693 347.282 40.8693C346.481 40.8693 345.816 41.0824 345.288 41.5085C344.765 41.9347 344.376 42.5 344.12 43.2045C343.87 43.9034 343.745 44.6705 343.745 45.5057C343.745 46.3466 343.87 47.1165 344.12 47.8153C344.376 48.5142 344.765 49.0739 345.288 49.4943C345.816 49.9148 346.481 50.125 347.282 50.125ZM358.769 44.2273V52H356.22V38.9091H358.666V41.0398H358.828C359.129 40.3466 359.601 39.7898 360.243 39.3693C360.891 38.9489 361.706 38.7386 362.689 38.7386C363.581 38.7386 364.362 38.9261 365.033 39.3011C365.703 39.6705 366.223 40.2216 366.592 40.9545C366.962 41.6875 367.146 42.5937 367.146 43.6733V52H364.598V43.9801C364.598 43.0312 364.351 42.2898 363.857 41.7557C363.362 41.2159 362.683 40.946 361.82 40.946C361.229 40.946 360.703 41.0739 360.243 41.3295C359.788 41.5852 359.428 41.9602 359.161 42.4545C358.899 42.9432 358.769 43.5341 358.769 44.2273ZM376.053 57.1818C375.013 57.1818 374.118 57.0455 373.368 56.7727C372.624 56.5 372.016 56.1392 371.544 55.6903C371.072 55.2415 370.72 54.75 370.487 54.2159L372.678 53.3125C372.831 53.5625 373.036 53.8267 373.291 54.1051C373.553 54.3892 373.905 54.6307 374.348 54.8295C374.797 55.0284 375.374 55.1278 376.078 55.1278C377.044 55.1278 377.842 54.892 378.473 54.4205C379.104 53.9545 379.419 53.2102 379.419 52.1875V49.6136H379.257C379.104 49.892 378.882 50.2017 378.592 50.5426C378.308 50.8835 377.916 51.179 377.416 51.429C376.916 51.679 376.266 51.804 375.465 51.804C374.43 51.804 373.499 51.5625 372.669 51.0795C371.845 50.5909 371.192 49.8722 370.709 48.9233C370.232 47.9687 369.993 46.7955 369.993 45.4034C369.993 44.0114 370.229 42.8182 370.7 41.8239C371.178 40.8295 371.831 40.0682 372.661 39.5398C373.49 39.0057 374.43 38.7386 375.482 38.7386C376.294 38.7386 376.95 38.875 377.45 39.1477C377.95 39.4148 378.34 39.7273 378.618 40.0852C378.902 40.4432 379.121 40.7585 379.274 41.0312H379.462V38.9091H381.959V52.2898C381.959 53.4148 381.697 54.3381 381.175 55.0597C380.652 55.7813 379.945 56.3153 379.053 56.6619C378.166 57.0085 377.166 57.1818 376.053 57.1818ZM376.027 49.6903C376.76 49.6903 377.379 49.5199 377.885 49.179C378.396 48.8324 378.783 48.3381 379.044 47.696C379.311 47.0483 379.445 46.2727 379.445 45.3693C379.445 44.4886 379.314 43.7131 379.053 43.0426C378.791 42.3722 378.408 41.8494 377.902 41.4744C377.396 41.0937 376.771 40.9034 376.027 40.9034C375.26 40.9034 374.621 41.1023 374.109 41.5C373.598 41.892 373.212 42.4261 372.95 43.1023C372.695 43.7784 372.567 44.5341 372.567 45.3693C372.567 46.2273 372.697 46.9801 372.959 47.6278C373.22 48.2756 373.607 48.7812 374.118 49.1449C374.635 49.5085 375.271 49.6903 376.027 49.6903ZM395.538 52.2898C394.708 52.2898 393.958 52.1364 393.288 51.8295C392.617 51.517 392.086 51.0653 391.694 50.4744C391.308 49.8835 391.114 49.1591 391.114 48.3011C391.114 47.5625 391.256 46.9545 391.541 46.4773C391.825 46 392.208 45.6222 392.691 45.3438C393.174 45.0653 393.714 44.8551 394.31 44.7131C394.907 44.571 395.515 44.4631 396.134 44.3892C396.918 44.2983 397.555 44.2244 398.043 44.1676C398.532 44.1051 398.887 44.0057 399.109 43.8693C399.33 43.733 399.441 43.5114 399.441 43.2045V43.1449C399.441 42.4006 399.231 41.8239 398.81 41.4148C398.396 41.0057 397.776 40.8011 396.952 40.8011C396.094 40.8011 395.418 40.9915 394.924 41.3722C394.435 41.7472 394.097 42.1648 393.91 42.625L391.515 42.0795C391.799 41.2841 392.214 40.642 392.759 40.1534C393.31 39.6591 393.944 39.3011 394.66 39.0795C395.376 38.8523 396.129 38.7386 396.918 38.7386C397.441 38.7386 397.995 38.8011 398.58 38.9261C399.171 39.0455 399.722 39.267 400.234 39.5909C400.751 39.9148 401.174 40.3778 401.504 40.9801C401.833 41.5767 401.998 42.3523 401.998 43.3068V52H399.509V50.2102H399.407C399.242 50.5398 398.995 50.8636 398.666 51.1818C398.336 51.5 397.913 51.7642 397.396 51.9744C396.879 52.1847 396.259 52.2898 395.538 52.2898ZM396.092 50.2443C396.796 50.2443 397.398 50.1051 397.898 49.8267C398.404 49.5483 398.788 49.1847 399.049 48.7358C399.316 48.2812 399.45 47.7955 399.45 47.2784V45.5909C399.359 45.6818 399.183 45.767 398.921 45.8466C398.666 45.9205 398.373 45.9858 398.043 46.0426C397.714 46.0937 397.393 46.142 397.08 46.1875C396.768 46.2273 396.506 46.2614 396.296 46.2898C395.802 46.3523 395.35 46.4574 394.941 46.6051C394.538 46.7528 394.214 46.9659 393.969 47.2443C393.731 47.517 393.612 47.8807 393.612 48.3352C393.612 48.9659 393.844 49.4432 394.31 49.767C394.776 50.0852 395.37 50.2443 396.092 50.2443ZM407.94 44.2273V52H405.392V38.9091H407.838V41.0398H408C408.301 40.3466 408.773 39.7898 409.415 39.3693C410.063 38.9489 410.878 38.7386 411.861 38.7386C412.753 38.7386 413.534 38.9261 414.205 39.3011C414.875 39.6705 415.395 40.2216 415.764 40.9545C416.134 41.6875 416.318 42.5937 416.318 43.6733V52H413.77V43.9801C413.77 43.0312 413.523 42.2898 413.028 41.7557C412.534 41.2159 411.855 40.946 410.992 40.946C410.401 40.946 409.875 41.0739 409.415 41.3295C408.96 41.5852 408.599 41.9602 408.332 42.4545C408.071 42.9432 407.94 43.5341 407.94 44.2273ZM424.636 52.2557C423.58 52.2557 422.636 51.9858 421.807 51.446C420.983 50.9006 420.335 50.125 419.864 49.1193C419.398 48.108 419.165 46.8949 419.165 45.4801C419.165 44.0653 419.401 42.8551 419.872 41.8494C420.349 40.8437 421.003 40.0739 421.832 39.5398C422.662 39.0057 423.602 38.7386 424.653 38.7386C425.466 38.7386 426.119 38.875 426.614 39.1477C427.114 39.4148 427.5 39.7273 427.773 40.0852C428.051 40.4432 428.267 40.7585 428.42 41.0312H428.574V34.5455H431.122V52H428.634V49.9631H428.42C428.267 50.2415 428.045 50.5597 427.756 50.9176C427.472 51.2756 427.08 51.5881 426.58 51.8551C426.08 52.1222 425.432 52.2557 424.636 52.2557ZM425.199 50.0824C425.932 50.0824 426.551 49.8892 427.057 49.5028C427.568 49.1108 427.955 48.5682 428.216 47.875C428.483 47.1818 428.617 46.375 428.617 45.4545C428.617 44.5455 428.486 43.75 428.224 43.0682C427.963 42.3864 427.58 41.8551 427.074 41.4744C426.568 41.0937 425.943 40.9034 425.199 40.9034C424.432 40.9034 423.793 41.1023 423.281 41.5C422.77 41.8977 422.384 42.4403 422.122 43.1278C421.867 43.8153 421.739 44.5909 421.739 45.4545C421.739 46.3295 421.869 47.1165 422.131 47.8153C422.392 48.5142 422.778 49.0682 423.29 49.4773C423.807 49.8807 424.443 50.0824 425.199 50.0824ZM124.234 68.1307C124.143 67.3239 123.768 66.6989 123.109 66.2557C122.45 65.8068 121.62 65.5824 120.62 65.5824C119.904 65.5824 119.285 65.696 118.762 65.9233C118.239 66.1449 117.833 66.4517 117.543 66.8438C117.259 67.2301 117.117 67.6705 117.117 68.1648C117.117 68.5795 117.214 68.9375 117.407 69.2386C117.606 69.5398 117.864 69.7926 118.183 69.9972C118.506 70.196 118.853 70.3636 119.222 70.5C119.592 70.6307 119.947 70.7386 120.288 70.8239L121.992 71.267C122.549 71.4034 123.12 71.5881 123.705 71.821C124.291 72.054 124.833 72.3608 125.333 72.7415C125.833 73.1222 126.237 73.5938 126.543 74.1562C126.856 74.7188 127.012 75.392 127.012 76.1761C127.012 77.1648 126.756 78.0426 126.245 78.8097C125.739 79.5767 125.004 80.1818 124.038 80.625C123.077 81.0682 121.916 81.2898 120.552 81.2898C119.245 81.2898 118.114 81.0824 117.16 80.6676C116.205 80.2528 115.458 79.6648 114.918 78.9034C114.379 78.1364 114.08 77.2273 114.023 76.1761H116.666C116.717 76.8068 116.921 77.3324 117.279 77.7528C117.643 78.1676 118.106 78.4773 118.668 78.6818C119.237 78.8807 119.859 78.9801 120.535 78.9801C121.279 78.9801 121.941 78.8636 122.521 78.6307C123.106 78.392 123.566 78.0625 123.901 77.642C124.237 77.2159 124.404 76.7187 124.404 76.1506C124.404 75.6335 124.256 75.2102 123.961 74.8807C123.671 74.5511 123.276 74.2784 122.776 74.0625C122.282 73.8466 121.722 73.6562 121.097 73.4915L119.035 72.929C117.637 72.5483 116.529 71.9886 115.711 71.25C114.898 70.5114 114.492 69.5341 114.492 68.3182C114.492 67.3125 114.765 66.4347 115.31 65.6847C115.856 64.9347 116.594 64.3523 117.526 63.9375C118.458 63.517 119.509 63.3068 120.68 63.3068C121.862 63.3068 122.904 63.5142 123.808 63.929C124.717 64.3438 125.433 64.9148 125.955 65.642C126.478 66.3636 126.751 67.1932 126.773 68.1307H124.234ZM135.469 81.2642C134.242 81.2642 133.17 80.983 132.256 80.4205C131.341 79.858 130.631 79.071 130.125 78.0597C129.619 77.0483 129.367 75.8665 129.367 74.5142C129.367 73.1562 129.619 71.9687 130.125 70.9517C130.631 69.9347 131.341 69.1449 132.256 68.5824C133.17 68.0199 134.242 67.7386 135.469 67.7386C136.696 67.7386 137.767 68.0199 138.682 68.5824C139.597 69.1449 140.307 69.9347 140.813 70.9517C141.318 71.9687 141.571 73.1562 141.571 74.5142C141.571 75.8665 141.318 77.0483 140.813 78.0597C140.307 79.071 139.597 79.858 138.682 80.4205C137.767 80.983 136.696 81.2642 135.469 81.2642ZM135.477 79.125C136.273 79.125 136.932 78.9148 137.455 78.4943C137.977 78.0739 138.364 77.5142 138.614 76.8153C138.869 76.1165 138.997 75.3466 138.997 74.5057C138.997 73.6705 138.869 72.9034 138.614 72.2045C138.364 71.5 137.977 70.9347 137.455 70.5085C136.932 70.0824 136.273 69.8693 135.477 69.8693C134.676 69.8693 134.011 70.0824 133.483 70.5085C132.96 70.9347 132.571 71.5 132.315 72.2045C132.065 72.9034 131.94 73.6705 131.94 74.5057C131.94 75.3466 132.065 76.1165 132.315 76.8153C132.571 77.5142 132.96 78.0739 133.483 78.4943C134.011 78.9148 134.676 79.125 135.477 79.125ZM144.416 81V67.9091H146.879V69.9886H147.015C147.254 69.2841 147.674 68.7301 148.276 68.3267C148.884 67.9176 149.572 67.7131 150.339 67.7131C150.498 67.7131 150.685 67.7187 150.901 67.7301C151.123 67.7415 151.296 67.7557 151.421 67.7727V70.2102C151.319 70.1818 151.137 70.1506 150.876 70.1165C150.614 70.0767 150.353 70.0568 150.092 70.0568C149.489 70.0568 148.952 70.1847 148.481 70.4403C148.015 70.6903 147.646 71.0398 147.373 71.4886C147.1 71.9318 146.964 72.4375 146.964 73.0057V81H144.416ZM160.511 67.9091V69.9545H153.36V67.9091H160.511ZM155.278 64.7727H157.826V77.1562C157.826 77.6506 157.9 78.0227 158.048 78.2727C158.195 78.517 158.386 78.6847 158.619 78.7756C158.857 78.8608 159.116 78.9034 159.394 78.9034C159.599 78.9034 159.778 78.8892 159.931 78.8608C160.085 78.8324 160.204 78.8097 160.289 78.7926L160.749 80.8977C160.602 80.9545 160.391 81.0114 160.119 81.0682C159.846 81.1307 159.505 81.1648 159.096 81.1705C158.425 81.1818 157.8 81.0625 157.221 80.8125C156.641 80.5625 156.173 80.1761 155.815 79.6534C155.457 79.1307 155.278 78.4744 155.278 77.6847V64.7727ZM181.11 63.5455H183.752V75.0256C183.752 76.2472 183.465 77.3295 182.891 78.2727C182.318 79.2102 181.511 79.9489 180.471 80.4886C179.431 81.0227 178.212 81.2898 176.815 81.2898C175.423 81.2898 174.207 81.0227 173.167 80.4886C172.127 79.9489 171.32 79.2102 170.746 78.2727C170.173 77.3295 169.886 76.2472 169.886 75.0256V63.5455H172.519V74.8125C172.519 75.6023 172.693 76.304 173.039 76.9176C173.391 77.5312 173.889 78.0142 174.531 78.3665C175.173 78.7131 175.934 78.8864 176.815 78.8864C177.701 78.8864 178.465 78.7131 179.107 78.3665C179.755 78.0142 180.249 77.5312 180.59 76.9176C180.937 76.304 181.11 75.6023 181.11 74.8125V63.5455ZM187.376 85.9091V67.9091H189.865V70.0312H190.078C190.226 69.7585 190.439 69.4432 190.717 69.0852C190.996 68.7273 191.382 68.4148 191.876 68.1477C192.371 67.875 193.024 67.7386 193.837 67.7386C194.894 67.7386 195.837 68.0057 196.666 68.5398C197.496 69.0739 198.146 69.8437 198.618 70.8494C199.095 71.8551 199.334 73.0653 199.334 74.4801C199.334 75.8949 199.098 77.108 198.626 78.1193C198.155 79.125 197.507 79.9006 196.683 80.446C195.859 80.9858 194.919 81.2557 193.862 81.2557C193.067 81.2557 192.416 81.1222 191.911 80.8551C191.411 80.5881 191.019 80.2756 190.734 79.9176C190.45 79.5597 190.232 79.2415 190.078 78.9631H189.925V85.9091H187.376ZM189.874 74.4545C189.874 75.375 190.007 76.1818 190.274 76.875C190.541 77.5682 190.928 78.1108 191.433 78.5028C191.939 78.8892 192.558 79.0824 193.291 79.0824C194.053 79.0824 194.689 78.8807 195.2 78.4773C195.712 78.0682 196.098 77.5142 196.359 76.8153C196.626 76.1165 196.76 75.3295 196.76 74.4545C196.76 73.5909 196.629 72.8153 196.368 72.1278C196.112 71.4403 195.726 70.8977 195.209 70.5C194.697 70.1023 194.058 69.9034 193.291 69.9034C192.553 69.9034 191.928 70.0937 191.416 70.4744C190.911 70.8551 190.527 71.3864 190.266 72.0682C190.004 72.75 189.874 73.5455 189.874 74.4545ZM208.3 67.9091V69.9545H201.149V67.9091H208.3ZM203.067 64.7727H205.615V77.1562C205.615 77.6506 205.689 78.0227 205.837 78.2727C205.984 78.517 206.175 78.6847 206.408 78.7756C206.646 78.8608 206.905 78.9034 207.183 78.9034C207.388 78.9034 207.567 78.8892 207.72 78.8608C207.874 78.8324 207.993 78.8097 208.078 78.7926L208.538 80.8977C208.391 80.9545 208.18 81.0114 207.908 81.0682C207.635 81.1307 207.294 81.1648 206.885 81.1705C206.215 81.1818 205.59 81.0625 205.01 80.8125C204.43 80.5625 203.962 80.1761 203.604 79.6534C203.246 79.1307 203.067 78.4744 203.067 77.6847V64.7727ZM216.492 81.2642C215.265 81.2642 214.194 80.983 213.279 80.4205C212.364 79.858 211.654 79.071 211.148 78.0597C210.643 77.0483 210.39 75.8665 210.39 74.5142C210.39 73.1562 210.643 71.9687 211.148 70.9517C211.654 69.9347 212.364 69.1449 213.279 68.5824C214.194 68.0199 215.265 67.7386 216.492 67.7386C217.719 67.7386 218.791 68.0199 219.705 68.5824C220.62 69.1449 221.33 69.9347 221.836 70.9517C222.342 71.9687 222.594 73.1562 222.594 74.5142C222.594 75.8665 222.342 77.0483 221.836 78.0597C221.33 79.071 220.62 79.858 219.705 80.4205C218.791 80.983 217.719 81.2642 216.492 81.2642ZM216.501 79.125C217.296 79.125 217.955 78.9148 218.478 78.4943C219.001 78.0739 219.387 77.5142 219.637 76.8153C219.893 76.1165 220.021 75.3466 220.021 74.5057C220.021 73.6705 219.893 72.9034 219.637 72.2045C219.387 71.5 219.001 70.9347 218.478 70.5085C217.955 70.0824 217.296 69.8693 216.501 69.8693C215.7 69.8693 215.035 70.0824 214.506 70.5085C213.984 70.9347 213.594 71.5 213.339 72.2045C213.089 72.9034 212.964 73.6705 212.964 74.5057C212.964 75.3466 213.089 76.1165 213.339 76.8153C213.594 77.5142 213.984 78.0739 214.506 78.4943C215.035 78.9148 215.7 79.125 216.501 79.125ZM238.379 63.5455V81H235.737V66.1875H235.634L231.458 68.9148V66.392L235.813 63.5455H238.379ZM249.177 81.2898C247.83 81.2841 246.68 80.929 245.725 80.2244C244.771 79.5199 244.041 78.4943 243.535 77.1477C243.029 75.8011 242.776 74.179 242.776 72.2812C242.776 70.3892 243.029 68.7727 243.535 67.4318C244.046 66.0909 244.779 65.0682 245.734 64.3636C246.694 63.6591 247.842 63.3068 249.177 63.3068C250.512 63.3068 251.657 63.6619 252.612 64.3722C253.566 65.0767 254.296 66.0994 254.802 67.4403C255.313 68.7756 255.569 70.3892 255.569 72.2812C255.569 74.1847 255.316 75.8097 254.81 77.1562C254.305 78.4972 253.575 79.5227 252.62 80.233C251.666 80.9375 250.518 81.2898 249.177 81.2898ZM249.177 79.0142C250.359 79.0142 251.282 78.4375 251.947 77.2841C252.617 76.1307 252.952 74.4631 252.952 72.2812C252.952 70.8324 252.799 69.608 252.492 68.608C252.191 67.6023 251.756 66.8409 251.188 66.3239C250.626 65.8011 249.955 65.5398 249.177 65.5398C248.001 65.5398 247.077 66.1193 246.407 67.2784C245.737 68.4375 245.398 70.1051 245.393 72.2812C245.393 73.7358 245.543 74.9659 245.844 75.9716C246.151 76.9716 246.586 77.7301 247.148 78.2472C247.711 78.7585 248.387 79.0142 249.177 79.0142ZM260.663 63.5455L264.84 70.3722H264.976L269.152 63.5455H272.203L266.766 72.2727L272.237 81H269.169L264.976 74.267H264.84L260.646 81H257.578L263.144 72.2727L257.612 63.5455H260.663ZM281.167 81V63.5455H283.8V78.733H291.71V81H281.167ZM300.151 81.2642C298.862 81.2642 297.751 80.9886 296.819 80.4375C295.893 79.8807 295.177 79.0994 294.671 78.0938C294.171 77.0824 293.921 75.8977 293.921 74.5398C293.921 73.1989 294.171 72.017 294.671 70.9943C295.177 69.9716 295.881 69.1733 296.785 68.5994C297.694 68.0256 298.756 67.7386 299.972 67.7386C300.711 67.7386 301.427 67.8608 302.12 68.1051C302.813 68.3494 303.435 68.733 303.987 69.2557C304.538 69.7784 304.972 70.4574 305.291 71.2926C305.609 72.1222 305.768 73.1307 305.768 74.3182V75.2216H295.362V73.3125H303.271C303.271 72.642 303.134 72.0483 302.862 71.5312C302.589 71.0085 302.205 70.5966 301.711 70.2955C301.222 69.9943 300.648 69.8438 299.989 69.8438C299.273 69.8438 298.648 70.0199 298.114 70.3722C297.586 70.7187 297.177 71.1733 296.887 71.7358C296.603 72.2926 296.461 72.8977 296.461 73.5511V75.0426C296.461 75.9176 296.614 76.6619 296.921 77.2756C297.234 77.8892 297.668 78.358 298.225 78.6818C298.782 79 299.433 79.1591 300.177 79.1591C300.66 79.1591 301.1 79.0909 301.498 78.9545C301.896 78.8125 302.239 78.6023 302.529 78.3239C302.819 78.0455 303.041 77.7017 303.194 77.2926L305.606 77.7273C305.413 78.4375 305.066 79.0597 304.566 79.5938C304.072 80.1222 303.45 80.5341 302.7 80.8295C301.955 81.1193 301.106 81.2642 300.151 81.2642ZM319.419 67.9091L314.672 81H311.945L307.189 67.9091H309.925L313.24 77.983H313.376L316.683 67.9091H319.419ZM327.011 81.2642C325.721 81.2642 324.61 80.9886 323.678 80.4375C322.752 79.8807 322.036 79.0994 321.531 78.0938C321.031 77.0824 320.781 75.8977 320.781 74.5398C320.781 73.1989 321.031 72.017 321.531 70.9943C322.036 69.9716 322.741 69.1733 323.644 68.5994C324.553 68.0256 325.616 67.7386 326.832 67.7386C327.57 67.7386 328.286 67.8608 328.979 68.1051C329.673 68.3494 330.295 68.733 330.846 69.2557C331.397 69.7784 331.832 70.4574 332.15 71.2926C332.468 72.1222 332.627 73.1307 332.627 74.3182V75.2216H322.221V73.3125H330.13C330.13 72.642 329.994 72.0483 329.721 71.5312C329.448 71.0085 329.065 70.5966 328.57 70.2955C328.082 69.9943 327.508 69.8438 326.849 69.8438C326.133 69.8438 325.508 70.0199 324.974 70.3722C324.445 70.7187 324.036 71.1733 323.746 71.7358C323.462 72.2926 323.32 72.8977 323.32 73.5511V75.0426C323.32 75.9176 323.474 76.6619 323.781 77.2756C324.093 77.8892 324.528 78.358 325.085 78.6818C325.641 79 326.292 79.1591 327.036 79.1591C327.519 79.1591 327.96 79.0909 328.357 78.9545C328.755 78.8125 329.099 78.6023 329.389 78.3239C329.678 78.0455 329.9 77.7017 330.053 77.2926L332.465 77.7273C332.272 78.4375 331.925 79.0597 331.425 79.5938C330.931 80.1222 330.309 80.5341 329.559 80.8295C328.815 81.1193 327.965 81.2642 327.011 81.2642ZM335.455 81V67.9091H337.918V69.9886H338.054C338.293 69.2841 338.713 68.7301 339.315 68.3267C339.923 67.9176 340.611 67.7131 341.378 67.7131C341.537 67.7131 341.724 67.7187 341.94 67.7301C342.162 67.7415 342.335 67.7557 342.46 67.7727V70.2102C342.358 70.1818 342.176 70.1506 341.915 70.1165C341.653 70.0767 341.392 70.0568 341.131 70.0568C340.528 70.0568 339.992 70.1847 339.52 70.4403C339.054 70.6903 338.685 71.0398 338.412 71.4886C338.139 71.9318 338.003 72.4375 338.003 73.0057V81H335.455ZM348.358 81.2898C347.528 81.2898 346.778 81.1364 346.108 80.8295C345.438 80.517 344.906 80.0653 344.514 79.4744C344.128 78.8835 343.935 78.1591 343.935 77.3011C343.935 76.5625 344.077 75.9545 344.361 75.4773C344.645 75 345.028 74.6222 345.511 74.3438C345.994 74.0653 346.534 73.8551 347.131 73.7131C347.727 73.571 348.335 73.4631 348.955 73.3892C349.739 73.2983 350.375 73.2244 350.864 73.1676C351.352 73.1051 351.707 73.0057 351.929 72.8693C352.151 72.733 352.261 72.5114 352.261 72.2045V72.1449C352.261 71.4006 352.051 70.8239 351.631 70.4148C351.216 70.0057 350.597 69.8011 349.773 69.8011C348.915 69.8011 348.239 69.9915 347.744 70.3722C347.256 70.7472 346.918 71.1648 346.73 71.625L344.335 71.0795C344.619 70.2841 345.034 69.642 345.58 69.1534C346.131 68.6591 346.764 68.3011 347.48 68.0795C348.196 67.8523 348.949 67.7386 349.739 67.7386C350.261 67.7386 350.815 67.8011 351.401 67.9261C351.992 68.0455 352.543 68.267 353.054 68.5909C353.571 68.9148 353.994 69.3778 354.324 69.9801C354.653 70.5767 354.818 71.3523 354.818 72.3068V81H352.33V79.2102H352.227C352.063 79.5398 351.815 79.8636 351.486 80.1818C351.156 80.5 350.733 80.7642 350.216 80.9744C349.699 81.1847 349.08 81.2898 348.358 81.2898ZM348.912 79.2443C349.617 79.2443 350.219 79.1051 350.719 78.8267C351.224 78.5483 351.608 78.1847 351.869 77.7358C352.136 77.2812 352.27 76.7955 352.27 76.2784V74.5909C352.179 74.6818 352.003 74.767 351.742 74.8466C351.486 74.9205 351.193 74.9858 350.864 75.0426C350.534 75.0937 350.213 75.142 349.901 75.1875C349.588 75.2273 349.327 75.2614 349.117 75.2898C348.622 75.3523 348.17 75.4574 347.761 75.6051C347.358 75.7528 347.034 75.9659 346.79 76.2443C346.551 76.517 346.432 76.8807 346.432 77.3352C346.432 77.9659 346.665 78.4432 347.131 78.767C347.597 79.0852 348.19 79.2443 348.912 79.2443ZM363.701 86.1818C362.661 86.1818 361.766 86.0455 361.016 85.7727C360.272 85.5 359.664 85.1392 359.193 84.6903C358.721 84.2415 358.369 83.75 358.136 83.2159L360.326 82.3125C360.479 82.5625 360.684 82.8267 360.94 83.1051C361.201 83.3892 361.553 83.6307 361.996 83.8295C362.445 84.0284 363.022 84.1278 363.727 84.1278C364.693 84.1278 365.491 83.892 366.121 83.4205C366.752 82.9545 367.068 82.2102 367.068 81.1875V78.6136H366.906C366.752 78.892 366.531 79.2017 366.241 79.5426C365.957 79.8835 365.565 80.179 365.065 80.429C364.565 80.679 363.914 80.804 363.113 80.804C362.079 80.804 361.147 80.5625 360.318 80.0795C359.494 79.5909 358.84 78.8722 358.357 77.9233C357.88 76.9687 357.641 75.7955 357.641 74.4034C357.641 73.0114 357.877 71.8182 358.349 70.8239C358.826 69.8295 359.479 69.0682 360.309 68.5398C361.139 68.0057 362.079 67.7386 363.13 67.7386C363.943 67.7386 364.599 67.875 365.099 68.1477C365.599 68.4148 365.988 68.7273 366.266 69.0852C366.55 69.4432 366.769 69.7585 366.923 70.0312H367.11V67.9091H369.607V81.2898C369.607 82.4148 369.346 83.3381 368.823 84.0597C368.3 84.7813 367.593 85.3153 366.701 85.6619C365.815 86.0085 364.815 86.1818 363.701 86.1818ZM363.675 78.6903C364.408 78.6903 365.028 78.5199 365.533 78.179C366.045 77.8324 366.431 77.3381 366.693 76.696C366.96 76.0483 367.093 75.2727 367.093 74.3693C367.093 73.4886 366.962 72.7131 366.701 72.0426C366.44 71.3722 366.056 70.8494 365.55 70.4744C365.045 70.0937 364.42 69.9034 363.675 69.9034C362.908 69.9034 362.269 70.1023 361.758 70.5C361.246 70.892 360.86 71.4261 360.599 72.1023C360.343 72.7784 360.215 73.5341 360.215 74.3693C360.215 75.2273 360.346 75.9801 360.607 76.6278C360.869 77.2756 361.255 77.7812 361.766 78.1449C362.283 78.5085 362.92 78.6903 363.675 78.6903ZM378.667 81.2642C377.377 81.2642 376.266 80.9886 375.335 80.4375C374.408 79.8807 373.693 79.0994 373.187 78.0938C372.687 77.0824 372.437 75.8977 372.437 74.5398C372.437 73.1989 372.687 72.017 373.187 70.9943C373.693 69.9716 374.397 69.1733 375.3 68.5994C376.21 68.0256 377.272 67.7386 378.488 67.7386C379.227 67.7386 379.943 67.8608 380.636 68.1051C381.329 68.3494 381.951 68.733 382.502 69.2557C383.053 69.7784 383.488 70.4574 383.806 71.2926C384.124 72.1222 384.283 73.1307 384.283 74.3182V75.2216H373.877V73.3125H381.786C381.786 72.642 381.65 72.0483 381.377 71.5312C381.104 71.0085 380.721 70.5966 380.227 70.2955C379.738 69.9943 379.164 69.8438 378.505 69.8438C377.789 69.8438 377.164 70.0199 376.63 70.3722C376.102 70.7187 375.693 71.1733 375.403 71.7358C375.119 72.2926 374.977 72.8977 374.977 73.5511V75.0426C374.977 75.9176 375.13 76.6619 375.437 77.2756C375.749 77.8892 376.184 78.358 376.741 78.6818C377.298 79 377.948 79.1591 378.693 79.1591C379.175 79.1591 379.616 79.0909 380.014 78.9545C380.411 78.8125 380.755 78.6023 381.045 78.3239C381.335 78.0455 381.556 77.7017 381.71 77.2926L384.121 77.7273C383.928 78.4375 383.582 79.0597 383.082 79.5938C382.587 80.1222 381.965 80.5341 381.215 80.8295C380.471 81.1193 379.621 81.2642 378.667 81.2642ZM115.251 101.273C115.251 99.1364 115.532 97.1705 116.094 95.375C116.657 93.5795 117.478 91.9233 118.558 90.4062H120.893C120.472 90.9688 120.08 91.6591 119.717 92.4773C119.353 93.2955 119.035 94.1932 118.762 95.1705C118.489 96.142 118.276 97.1506 118.123 98.196C117.969 99.2358 117.893 100.261 117.893 101.273C117.893 102.625 118.026 103.994 118.293 105.381C118.56 106.767 118.921 108.054 119.376 109.241C119.83 110.429 120.336 111.398 120.893 112.148H118.558C117.478 110.631 116.657 108.974 116.094 107.179C115.532 105.384 115.251 103.415 115.251 101.273ZM123.784 92.5455H126.98L132.537 106.114H132.742L138.298 92.5455H141.494V110H138.989V97.3693H138.827L133.679 109.974H131.599L126.452 97.3608H126.29V110H123.784V92.5455ZM148.928 110.29C148.099 110.29 147.349 110.136 146.678 109.83C146.008 109.517 145.477 109.065 145.085 108.474C144.698 107.884 144.505 107.159 144.505 106.301C144.505 105.562 144.647 104.955 144.931 104.477C145.215 104 145.599 103.622 146.082 103.344C146.565 103.065 147.104 102.855 147.701 102.713C148.298 102.571 148.906 102.463 149.525 102.389C150.309 102.298 150.945 102.224 151.434 102.168C151.923 102.105 152.278 102.006 152.499 101.869C152.721 101.733 152.832 101.511 152.832 101.205V101.145C152.832 100.401 152.621 99.8239 152.201 99.4148C151.786 99.0057 151.167 98.8011 150.343 98.8011C149.485 98.8011 148.809 98.9915 148.315 99.3722C147.826 99.7472 147.488 100.165 147.3 100.625L144.906 100.08C145.19 99.2841 145.604 98.642 146.15 98.1534C146.701 97.6591 147.335 97.3011 148.05 97.0795C148.766 96.8523 149.519 96.7386 150.309 96.7386C150.832 96.7386 151.386 96.8011 151.971 96.9261C152.562 97.0455 153.113 97.267 153.624 97.5909C154.141 97.9148 154.565 98.3778 154.894 98.9801C155.224 99.5767 155.389 100.352 155.389 101.307V110H152.9V108.21H152.798C152.633 108.54 152.386 108.864 152.056 109.182C151.727 109.5 151.303 109.764 150.786 109.974C150.269 110.185 149.65 110.29 148.928 110.29ZM149.482 108.244C150.187 108.244 150.789 108.105 151.289 107.827C151.795 107.548 152.178 107.185 152.44 106.736C152.707 106.281 152.84 105.795 152.84 105.278V103.591C152.749 103.682 152.573 103.767 152.312 103.847C152.056 103.92 151.764 103.986 151.434 104.043C151.104 104.094 150.783 104.142 150.471 104.188C150.158 104.227 149.897 104.261 149.687 104.29C149.193 104.352 148.741 104.457 148.332 104.605C147.928 104.753 147.604 104.966 147.36 105.244C147.121 105.517 147.002 105.881 147.002 106.335C147.002 106.966 147.235 107.443 147.701 107.767C148.167 108.085 148.761 108.244 149.482 108.244ZM158.783 110V96.9091H161.331V110H158.783ZM160.07 94.8892C159.626 94.8892 159.246 94.7415 158.928 94.446C158.615 94.1449 158.459 93.7869 158.459 93.3722C158.459 92.9517 158.615 92.5937 158.928 92.2983C159.246 91.9972 159.626 91.8466 160.07 91.8466C160.513 91.8466 160.891 91.9972 161.203 92.2983C161.521 92.5937 161.68 92.9517 161.68 93.3722C161.68 93.7869 161.521 94.1449 161.203 94.446C160.891 94.7415 160.513 94.8892 160.07 94.8892ZM167.308 102.227V110H164.759V96.9091H167.205V99.0398H167.367C167.668 98.3466 168.14 97.7898 168.782 97.3693C169.43 96.9489 170.245 96.7386 171.228 96.7386C172.12 96.7386 172.901 96.9261 173.572 97.3011C174.242 97.6705 174.762 98.2216 175.131 98.9545C175.501 99.6875 175.685 100.594 175.685 101.673V110H173.137V101.98C173.137 101.031 172.89 100.29 172.396 99.7557C171.901 99.2159 171.222 98.946 170.359 98.946C169.768 98.946 169.242 99.0739 168.782 99.3295C168.327 99.5852 167.967 99.9602 167.7 100.455C167.438 100.943 167.308 101.534 167.308 102.227ZM181.651 102.227V110H179.103V96.9091H181.549V99.0398H181.711C182.012 98.3466 182.484 97.7898 183.126 97.3693C183.773 96.9489 184.589 96.7386 185.572 96.7386C186.464 96.7386 187.245 96.9261 187.916 97.3011C188.586 97.6705 189.106 98.2216 189.475 98.9545C189.844 99.6875 190.029 100.594 190.029 101.673V110H187.481V101.98C187.481 101.031 187.234 100.29 186.739 99.7557C186.245 99.2159 185.566 98.946 184.702 98.946C184.112 98.946 183.586 99.0739 183.126 99.3295C182.671 99.5852 182.31 99.9602 182.043 100.455C181.782 100.943 181.651 101.534 181.651 102.227ZM199.089 110.264C197.799 110.264 196.688 109.989 195.756 109.438C194.83 108.881 194.114 108.099 193.609 107.094C193.109 106.082 192.859 104.898 192.859 103.54C192.859 102.199 193.109 101.017 193.609 99.9943C194.114 98.9716 194.819 98.1733 195.722 97.5994C196.631 97.0256 197.694 96.7386 198.91 96.7386C199.648 96.7386 200.364 96.8608 201.058 97.1051C201.751 97.3494 202.373 97.733 202.924 98.2557C203.475 98.7784 203.91 99.4574 204.228 100.293C204.546 101.122 204.705 102.131 204.705 103.318V104.222H194.299V102.312H202.208C202.208 101.642 202.072 101.048 201.799 100.531C201.526 100.009 201.143 99.5966 200.648 99.2955C200.16 98.9943 199.586 98.8438 198.927 98.8438C198.211 98.8438 197.586 99.0199 197.052 99.3722C196.523 99.7187 196.114 100.173 195.825 100.736C195.541 101.293 195.398 101.898 195.398 102.551V104.043C195.398 104.918 195.552 105.662 195.859 106.276C196.171 106.889 196.606 107.358 197.163 107.682C197.719 108 198.37 108.159 199.114 108.159C199.597 108.159 200.038 108.091 200.435 107.955C200.833 107.812 201.177 107.602 201.467 107.324C201.756 107.045 201.978 106.702 202.131 106.293L204.543 106.727C204.35 107.437 204.004 108.06 203.504 108.594C203.009 109.122 202.387 109.534 201.637 109.83C200.893 110.119 200.043 110.264 199.089 110.264ZM213.644 96.9091V98.9545H206.493V96.9091H213.644ZM208.411 93.7727H210.959V106.156C210.959 106.651 211.033 107.023 211.18 107.273C211.328 107.517 211.519 107.685 211.751 107.776C211.99 107.861 212.249 107.903 212.527 107.903C212.732 107.903 212.911 107.889 213.064 107.861C213.217 107.832 213.337 107.81 213.422 107.793L213.882 109.898C213.734 109.955 213.524 110.011 213.251 110.068C212.979 110.131 212.638 110.165 212.229 110.17C211.558 110.182 210.933 110.062 210.354 109.812C209.774 109.562 209.305 109.176 208.947 108.653C208.59 108.131 208.411 107.474 208.411 106.685V93.7727ZM221.363 102.756C221.363 104.898 221.082 106.866 220.519 108.662C219.957 110.457 219.136 112.114 218.056 113.631H215.721C216.141 113.068 216.533 112.378 216.897 111.56C217.261 110.741 217.579 109.847 217.852 108.875C218.124 107.898 218.337 106.886 218.491 105.841C218.644 104.795 218.721 103.767 218.721 102.756C218.721 101.409 218.587 100.043 218.32 98.6562C218.053 97.2699 217.693 95.983 217.238 94.7955C216.783 93.608 216.278 92.6392 215.721 91.8892H218.056C219.136 93.4062 219.957 95.0625 220.519 96.858C221.082 98.6534 221.363 100.619 221.363 102.756ZM94.8026 135.795C94.1151 135.795 93.4873 135.628 92.9191 135.293C92.3509 134.952 91.8963 134.497 91.5554 133.929C91.2202 133.361 91.0526 132.733 91.0526 132.045C91.0526 131.352 91.2202 130.724 91.5554 130.162C91.8963 129.594 92.3509 129.142 92.9191 128.807C93.4873 128.466 94.1151 128.295 94.8026 128.295C95.4958 128.295 96.1236 128.466 96.6861 128.807C97.2543 129.142 97.706 129.594 98.0412 130.162C98.3821 130.724 98.5526 131.352 98.5526 132.045C98.5526 132.733 98.3821 133.361 98.0412 133.929C97.706 134.497 97.2543 134.952 96.6861 135.293C96.1236 135.628 95.4958 135.795 94.8026 135.795ZM120.364 139H114.714V121.545H120.543C122.254 121.545 123.722 121.895 124.95 122.594C126.177 123.287 127.117 124.284 127.771 125.585C128.43 126.881 128.759 128.435 128.759 130.247C128.759 132.065 128.427 133.628 127.762 134.935C127.103 136.241 126.148 137.247 124.898 137.952C123.648 138.651 122.137 139 120.364 139ZM117.347 136.699H120.219C121.549 136.699 122.654 136.449 123.535 135.949C124.416 135.443 125.075 134.713 125.512 133.759C125.95 132.798 126.168 131.628 126.168 130.247C126.168 128.878 125.95 127.716 125.512 126.761C125.08 125.807 124.435 125.082 123.577 124.588C122.719 124.094 121.654 123.847 120.381 123.847H117.347V136.699ZM131.83 139V125.909H134.293V127.989H134.429C134.668 127.284 135.088 126.73 135.69 126.327C136.298 125.918 136.986 125.713 137.753 125.713C137.912 125.713 138.099 125.719 138.315 125.73C138.537 125.741 138.71 125.756 138.835 125.773V128.21C138.733 128.182 138.551 128.151 138.29 128.116C138.028 128.077 137.767 128.057 137.506 128.057C136.903 128.057 136.367 128.185 135.895 128.44C135.429 128.69 135.06 129.04 134.787 129.489C134.514 129.932 134.378 130.437 134.378 131.006V139H131.83ZM144.733 139.29C143.903 139.29 143.153 139.136 142.483 138.83C141.813 138.517 141.281 138.065 140.889 137.474C140.503 136.884 140.31 136.159 140.31 135.301C140.31 134.562 140.452 133.955 140.736 133.477C141.02 133 141.403 132.622 141.886 132.344C142.369 132.065 142.909 131.855 143.506 131.713C144.102 131.571 144.71 131.463 145.33 131.389C146.114 131.298 146.75 131.224 147.239 131.168C147.727 131.105 148.082 131.006 148.304 130.869C148.526 130.733 148.636 130.511 148.636 130.205V130.145C148.636 129.401 148.426 128.824 148.006 128.415C147.591 128.006 146.972 127.801 146.148 127.801C145.29 127.801 144.614 127.991 144.119 128.372C143.631 128.747 143.293 129.165 143.105 129.625L140.71 129.08C140.994 128.284 141.409 127.642 141.955 127.153C142.506 126.659 143.139 126.301 143.855 126.08C144.571 125.852 145.324 125.739 146.114 125.739C146.636 125.739 147.19 125.801 147.776 125.926C148.367 126.045 148.918 126.267 149.429 126.591C149.946 126.915 150.369 127.378 150.699 127.98C151.028 128.577 151.193 129.352 151.193 130.307V139H148.705V137.21H148.602C148.438 137.54 148.19 137.864 147.861 138.182C147.531 138.5 147.108 138.764 146.591 138.974C146.074 139.185 145.455 139.29 144.733 139.29ZM145.287 137.244C145.992 137.244 146.594 137.105 147.094 136.827C147.599 136.548 147.983 136.185 148.244 135.736C148.511 135.281 148.645 134.795 148.645 134.278V132.591C148.554 132.682 148.378 132.767 148.117 132.847C147.861 132.92 147.568 132.986 147.239 133.043C146.909 133.094 146.588 133.142 146.276 133.188C145.963 133.227 145.702 133.261 145.492 133.29C144.997 133.352 144.545 133.457 144.136 133.605C143.733 133.753 143.409 133.966 143.165 134.244C142.926 134.517 142.807 134.881 142.807 135.335C142.807 135.966 143.04 136.443 143.506 136.767C143.972 137.085 144.565 137.244 145.287 137.244ZM160.818 125.909V127.955H153.42V125.909H160.818ZM155.448 139V124.392C155.448 123.574 155.627 122.895 155.985 122.355C156.343 121.81 156.818 121.403 157.408 121.136C157.999 120.864 158.641 120.727 159.335 120.727C159.846 120.727 160.283 120.77 160.647 120.855C161.011 120.935 161.281 121.009 161.457 121.077L160.86 123.139C160.741 123.105 160.587 123.065 160.4 123.02C160.212 122.969 159.985 122.943 159.718 122.943C159.099 122.943 158.656 123.097 158.389 123.403C158.127 123.71 157.996 124.153 157.996 124.733V139H155.448ZM169.558 125.909V127.955H162.407V125.909H169.558ZM164.325 122.773H166.873V135.156C166.873 135.651 166.947 136.023 167.094 136.273C167.242 136.517 167.433 136.685 167.666 136.776C167.904 136.861 168.163 136.903 168.441 136.903C168.646 136.903 168.825 136.889 168.978 136.861C169.131 136.832 169.251 136.81 169.336 136.793L169.796 138.898C169.648 138.955 169.438 139.011 169.166 139.068C168.893 139.131 168.552 139.165 168.143 139.17C167.472 139.182 166.847 139.062 166.268 138.812C165.688 138.562 165.219 138.176 164.862 137.653C164.504 137.131 164.325 136.474 164.325 135.685V122.773ZM177.586 121.545H180.577L185.137 129.48H185.325L189.884 121.545H192.876L186.543 132.148V139H183.918V132.148L177.586 121.545ZM198.644 139.264C197.354 139.264 196.243 138.989 195.311 138.438C194.385 137.881 193.669 137.099 193.163 136.094C192.663 135.082 192.413 133.898 192.413 132.54C192.413 131.199 192.663 130.017 193.163 128.994C193.669 127.972 194.374 127.173 195.277 126.599C196.186 126.026 197.249 125.739 198.465 125.739C199.203 125.739 199.919 125.861 200.612 126.105C201.305 126.349 201.928 126.733 202.479 127.256C203.03 127.778 203.465 128.457 203.783 129.293C204.101 130.122 204.26 131.131 204.26 132.318V133.222H193.854V131.312H201.763C201.763 130.642 201.626 130.048 201.354 129.531C201.081 129.009 200.697 128.597 200.203 128.295C199.715 127.994 199.141 127.844 198.482 127.844C197.766 127.844 197.141 128.02 196.607 128.372C196.078 128.719 195.669 129.173 195.379 129.736C195.095 130.293 194.953 130.898 194.953 131.551V133.043C194.953 133.918 195.107 134.662 195.413 135.276C195.726 135.889 196.161 136.358 196.717 136.682C197.274 137 197.925 137.159 198.669 137.159C199.152 137.159 199.592 137.091 199.99 136.955C200.388 136.812 200.732 136.602 201.021 136.324C201.311 136.045 201.533 135.702 201.686 135.293L204.098 135.727C203.905 136.437 203.558 137.06 203.058 137.594C202.564 138.122 201.942 138.534 201.192 138.83C200.447 139.119 199.598 139.264 198.644 139.264ZM209.636 121.545V139H207.087V121.545H209.636ZM215.612 121.545V139H213.064V121.545H215.612ZM224.555 139.264C223.327 139.264 222.256 138.983 221.342 138.42C220.427 137.858 219.717 137.071 219.211 136.06C218.705 135.048 218.452 133.866 218.452 132.514C218.452 131.156 218.705 129.969 219.211 128.952C219.717 127.935 220.427 127.145 221.342 126.582C222.256 126.02 223.327 125.739 224.555 125.739C225.782 125.739 226.853 126.02 227.768 126.582C228.683 127.145 229.393 127.935 229.898 128.952C230.404 129.969 230.657 131.156 230.657 132.514C230.657 133.866 230.404 135.048 229.898 136.06C229.393 137.071 228.683 137.858 227.768 138.42C226.853 138.983 225.782 139.264 224.555 139.264ZM224.563 137.125C225.359 137.125 226.018 136.915 226.541 136.494C227.063 136.074 227.45 135.514 227.7 134.815C227.955 134.116 228.083 133.347 228.083 132.506C228.083 131.67 227.955 130.903 227.7 130.205C227.45 129.5 227.063 128.935 226.541 128.509C226.018 128.082 225.359 127.869 224.563 127.869C223.762 127.869 223.097 128.082 222.569 128.509C222.046 128.935 221.657 129.5 221.401 130.205C221.151 130.903 221.026 131.67 221.026 132.506C221.026 133.347 221.151 134.116 221.401 134.815C221.657 135.514 222.046 136.074 222.569 136.494C223.097 136.915 223.762 137.125 224.563 137.125ZM235.941 139L232.089 125.909H234.722L237.288 135.523H237.416L239.989 125.909H242.623L245.18 135.48H245.308L247.856 125.909H250.489L246.646 139H244.046L241.387 129.548H241.191L238.532 139H235.941ZM252.908 143.909V125.909H255.396V128.031H255.609C255.757 127.759 255.97 127.443 256.249 127.085C256.527 126.727 256.913 126.415 257.408 126.148C257.902 125.875 258.555 125.739 259.368 125.739C260.425 125.739 261.368 126.006 262.197 126.54C263.027 127.074 263.678 127.844 264.149 128.849C264.626 129.855 264.865 131.065 264.865 132.48C264.865 133.895 264.629 135.108 264.158 136.119C263.686 137.125 263.038 137.901 262.215 138.446C261.391 138.986 260.45 139.256 259.394 139.256C258.598 139.256 257.947 139.122 257.442 138.855C256.942 138.588 256.55 138.276 256.266 137.918C255.982 137.56 255.763 137.241 255.609 136.963H255.456V143.909H252.908ZM255.405 132.455C255.405 133.375 255.538 134.182 255.805 134.875C256.072 135.568 256.459 136.111 256.965 136.503C257.47 136.889 258.09 137.082 258.822 137.082C259.584 137.082 260.22 136.881 260.732 136.477C261.243 136.068 261.629 135.514 261.891 134.815C262.158 134.116 262.291 133.33 262.291 132.455C262.291 131.591 262.161 130.815 261.899 130.128C261.644 129.44 261.257 128.898 260.74 128.5C260.229 128.102 259.59 127.903 258.822 127.903C258.084 127.903 257.459 128.094 256.947 128.474C256.442 128.855 256.058 129.386 255.797 130.068C255.536 130.75 255.405 131.545 255.405 132.455ZM271.53 139.29C270.7 139.29 269.95 139.136 269.28 138.83C268.609 138.517 268.078 138.065 267.686 137.474C267.3 136.884 267.107 136.159 267.107 135.301C267.107 134.562 267.249 133.955 267.533 133.477C267.817 133 268.2 132.622 268.683 132.344C269.166 132.065 269.706 131.855 270.303 131.713C270.899 131.571 271.507 131.463 272.126 131.389C272.911 131.298 273.547 131.224 274.036 131.168C274.524 131.105 274.879 131.006 275.101 130.869C275.322 130.733 275.433 130.511 275.433 130.205V130.145C275.433 129.401 275.223 128.824 274.803 128.415C274.388 128.006 273.769 127.801 272.945 127.801C272.087 127.801 271.411 127.991 270.916 128.372C270.428 128.747 270.09 129.165 269.902 129.625L267.507 129.08C267.791 128.284 268.206 127.642 268.751 127.153C269.303 126.659 269.936 126.301 270.652 126.08C271.368 125.852 272.121 125.739 272.911 125.739C273.433 125.739 273.987 125.801 274.572 125.926C275.163 126.045 275.715 126.267 276.226 126.591C276.743 126.915 277.166 127.378 277.496 127.98C277.825 128.577 277.99 129.352 277.99 130.307V139H275.501V137.21H275.399C275.234 137.54 274.987 137.864 274.658 138.182C274.328 138.5 273.905 138.764 273.388 138.974C272.871 139.185 272.251 139.29 271.53 139.29ZM272.084 137.244C272.788 137.244 273.391 137.105 273.891 136.827C274.396 136.548 274.78 136.185 275.041 135.736C275.308 135.281 275.442 134.795 275.442 134.278V132.591C275.351 132.682 275.175 132.767 274.913 132.847C274.658 132.92 274.365 132.986 274.036 133.043C273.706 133.094 273.385 133.142 273.072 133.188C272.76 133.227 272.499 133.261 272.288 133.29C271.794 133.352 271.342 133.457 270.933 133.605C270.53 133.753 270.206 133.966 269.962 134.244C269.723 134.517 269.604 134.881 269.604 135.335C269.604 135.966 269.837 136.443 270.303 136.767C270.769 137.085 271.362 137.244 272.084 137.244ZM281.384 143.909V125.909H283.873V128.031H284.086C284.234 127.759 284.447 127.443 284.725 127.085C285.004 126.727 285.39 126.415 285.884 126.148C286.379 125.875 287.032 125.739 287.844 125.739C288.901 125.739 289.844 126.006 290.674 126.54C291.504 127.074 292.154 127.844 292.626 128.849C293.103 129.855 293.342 131.065 293.342 132.48C293.342 133.895 293.106 135.108 292.634 136.119C292.163 137.125 291.515 137.901 290.691 138.446C289.867 138.986 288.927 139.256 287.87 139.256C287.075 139.256 286.424 139.122 285.918 138.855C285.418 138.588 285.026 138.276 284.742 137.918C284.458 137.56 284.239 137.241 284.086 136.963H283.933V143.909H281.384ZM283.881 132.455C283.881 133.375 284.015 134.182 284.282 134.875C284.549 135.568 284.935 136.111 285.441 136.503C285.947 136.889 286.566 137.082 287.299 137.082C288.06 137.082 288.697 136.881 289.208 136.477C289.719 136.068 290.106 135.514 290.367 134.815C290.634 134.116 290.768 133.33 290.768 132.455C290.768 131.591 290.637 130.815 290.376 130.128C290.12 129.44 289.734 128.898 289.217 128.5C288.705 128.102 288.066 127.903 287.299 127.903C286.56 127.903 285.935 128.094 285.424 128.474C284.918 128.855 284.535 129.386 284.273 130.068C284.012 130.75 283.881 131.545 283.881 132.455ZM301.839 139.264C300.549 139.264 299.438 138.989 298.506 138.438C297.58 137.881 296.864 137.099 296.359 136.094C295.859 135.082 295.609 133.898 295.609 132.54C295.609 131.199 295.859 130.017 296.359 128.994C296.864 127.972 297.569 127.173 298.472 126.599C299.381 126.026 300.444 125.739 301.66 125.739C302.398 125.739 303.114 125.861 303.808 126.105C304.501 126.349 305.123 126.733 305.674 127.256C306.225 127.778 306.66 128.457 306.978 129.293C307.296 130.122 307.455 131.131 307.455 132.318V133.222H297.049V131.312H304.958C304.958 130.642 304.822 130.048 304.549 129.531C304.276 129.009 303.893 128.597 303.398 128.295C302.91 127.994 302.336 127.844 301.677 127.844C300.961 127.844 300.336 128.02 299.802 128.372C299.273 128.719 298.864 129.173 298.575 129.736C298.291 130.293 298.148 130.898 298.148 131.551V133.043C298.148 133.918 298.302 134.662 298.609 135.276C298.921 135.889 299.356 136.358 299.913 136.682C300.469 137 301.12 137.159 301.864 137.159C302.347 137.159 302.788 137.091 303.185 136.955C303.583 136.812 303.927 136.602 304.217 136.324C304.506 136.045 304.728 135.702 304.881 135.293L307.293 135.727C307.1 136.437 306.754 137.06 306.254 137.594C305.759 138.122 305.137 138.534 304.387 138.83C303.643 139.119 302.793 139.264 301.839 139.264ZM310.283 139V125.909H312.746V127.989H312.882C313.121 127.284 313.541 126.73 314.144 126.327C314.751 125.918 315.439 125.713 316.206 125.713C316.365 125.713 316.553 125.719 316.769 125.73C316.99 125.741 317.163 125.756 317.288 125.773V128.21C317.186 128.182 317.004 128.151 316.743 128.116C316.482 128.077 316.22 128.057 315.959 128.057C315.357 128.057 314.82 128.185 314.348 128.44C313.882 128.69 313.513 129.04 313.24 129.489C312.967 129.932 312.831 130.437 312.831 131.006V139H310.283ZM326.05 139V121.545H328.683V136.733H336.592V139H326.05ZM343.202 139.29C342.372 139.29 341.622 139.136 340.952 138.83C340.281 138.517 339.75 138.065 339.358 137.474C338.972 136.884 338.778 136.159 338.778 135.301C338.778 134.562 338.92 133.955 339.205 133.477C339.489 133 339.872 132.622 340.355 132.344C340.838 132.065 341.378 131.855 341.974 131.713C342.571 131.571 343.179 131.463 343.798 131.389C344.582 131.298 345.219 131.224 345.707 131.168C346.196 131.105 346.551 131.006 346.773 130.869C346.994 130.733 347.105 130.511 347.105 130.205V130.145C347.105 129.401 346.895 128.824 346.474 128.415C346.06 128.006 345.44 127.801 344.617 127.801C343.759 127.801 343.082 127.991 342.588 128.372C342.099 128.747 341.761 129.165 341.574 129.625L339.179 129.08C339.463 128.284 339.878 127.642 340.423 127.153C340.974 126.659 341.608 126.301 342.324 126.08C343.04 125.852 343.793 125.739 344.582 125.739C345.105 125.739 345.659 125.801 346.244 125.926C346.835 126.045 347.386 126.267 347.898 126.591C348.415 126.915 348.838 127.378 349.168 127.98C349.497 128.577 349.662 129.352 349.662 130.307V139H347.173V137.21H347.071C346.906 137.54 346.659 137.864 346.33 138.182C346 138.5 345.577 138.764 345.06 138.974C344.543 139.185 343.923 139.29 343.202 139.29ZM343.756 137.244C344.46 137.244 345.063 137.105 345.563 136.827C346.068 136.548 346.452 136.185 346.713 135.736C346.98 135.281 347.114 134.795 347.114 134.278V132.591C347.023 132.682 346.847 132.767 346.585 132.847C346.33 132.92 346.037 132.986 345.707 133.043C345.378 133.094 345.057 133.142 344.744 133.188C344.432 133.227 344.17 133.261 343.96 133.29C343.466 133.352 343.014 133.457 342.605 133.605C342.202 133.753 341.878 133.966 341.634 134.244C341.395 134.517 341.276 134.881 341.276 135.335C341.276 135.966 341.509 136.443 341.974 136.767C342.44 137.085 343.034 137.244 343.756 137.244ZM354.198 143.909C353.818 143.909 353.471 143.878 353.158 143.815C352.846 143.759 352.613 143.696 352.46 143.628L353.073 141.54C353.539 141.665 353.954 141.719 354.318 141.702C354.681 141.685 355.002 141.548 355.281 141.293C355.565 141.037 355.815 140.619 356.031 140.04L356.346 139.17L351.556 125.909H354.283L357.599 136.068H357.735L361.05 125.909H363.786L358.391 140.747C358.141 141.429 357.823 142.006 357.437 142.477C357.05 142.955 356.59 143.313 356.056 143.551C355.522 143.79 354.903 143.909 354.198 143.909ZM371.378 139.264C370.088 139.264 368.977 138.989 368.045 138.438C367.119 137.881 366.403 137.099 365.898 136.094C365.398 135.082 365.148 133.898 365.148 132.54C365.148 131.199 365.398 130.017 365.898 128.994C366.403 127.972 367.108 127.173 368.011 126.599C368.92 126.026 369.983 125.739 371.199 125.739C371.938 125.739 372.653 125.861 373.347 126.105C374.04 126.349 374.662 126.733 375.213 127.256C375.764 127.778 376.199 128.457 376.517 129.293C376.835 130.122 376.994 131.131 376.994 132.318V133.222H366.588V131.312H374.497C374.497 130.642 374.361 130.048 374.088 129.531C373.815 129.009 373.432 128.597 372.938 128.295C372.449 127.994 371.875 127.844 371.216 127.844C370.5 127.844 369.875 128.02 369.341 128.372C368.813 128.719 368.403 129.173 368.114 129.736C367.83 130.293 367.688 130.898 367.688 131.551V133.043C367.688 133.918 367.841 134.662 368.148 135.276C368.46 135.889 368.895 136.358 369.452 136.682C370.009 137 370.659 137.159 371.403 137.159C371.886 137.159 372.327 137.091 372.724 136.955C373.122 136.812 373.466 136.602 373.756 136.324C374.045 136.045 374.267 135.702 374.42 135.293L376.832 135.727C376.639 136.437 376.293 137.06 375.793 137.594C375.298 138.122 374.676 138.534 373.926 138.83C373.182 139.119 372.332 139.264 371.378 139.264ZM379.822 139V125.909H382.285V127.989H382.421C382.66 127.284 383.08 126.73 383.683 126.327C384.291 125.918 384.978 125.713 385.745 125.713C385.904 125.713 386.092 125.719 386.308 125.73C386.529 125.741 386.702 125.756 386.827 125.773V128.21C386.725 128.182 386.543 128.151 386.282 128.116C386.021 128.077 385.759 128.057 385.498 128.057C384.896 128.057 384.359 128.185 383.887 128.44C383.421 128.69 383.052 129.04 382.779 129.489C382.506 129.932 382.37 130.437 382.37 131.006V139H379.822ZM395.621 121.545V139H392.979V124.188H392.876L388.7 126.915V124.392L393.055 121.545H395.621Z" fill="#4CC9F0"/>
<line x1="94.2964" y1="7" x2="94.2964" y2="280" stroke="#0FA9D9"/>
</svg>
