<svg width="472" height="572" viewBox="0 0 472 572" fill="none" xmlns="http://www.w3.org/2000/svg">
<path d="M380.749 280L324.847 324.167V235.833L380.749 280Z" fill="#BA1E71"/>
<path fill-rule="evenodd" clip-rule="evenodd" d="M0 324L55.6901 280L0 236H324.847V324H0Z" fill="#BA1E71"/>
<path d="M127.026 294V291.443L136.628 280.932C137.755 279.701 138.683 278.631 139.412 277.722C140.142 276.803 140.681 275.941 141.032 275.136C141.392 274.322 141.571 273.47 141.571 272.58C141.571 271.557 141.325 270.671 140.833 269.923C140.35 269.175 139.687 268.598 138.844 268.19C138.001 267.783 137.054 267.58 136.003 267.58C134.886 267.58 133.91 267.812 133.077 268.276C132.253 268.73 131.614 269.369 131.16 270.193C130.714 271.017 130.492 271.983 130.492 273.091H127.14C127.14 271.386 127.533 269.89 128.319 268.602C129.105 267.314 130.175 266.311 131.529 265.591C132.892 264.871 134.422 264.511 136.117 264.511C137.821 264.511 139.332 264.871 140.648 265.591C141.964 266.311 142.997 267.281 143.745 268.503C144.493 269.724 144.867 271.083 144.867 272.58C144.867 273.65 144.673 274.696 144.285 275.719C143.906 276.732 143.243 277.864 142.296 279.114C141.358 280.354 140.056 281.869 138.39 283.659L131.856 290.648V290.875H145.378V294H127.026ZM160.733 294.398C158.593 294.398 156.77 293.815 155.265 292.651C153.759 291.476 152.608 289.777 151.813 287.551C151.017 285.316 150.62 282.617 150.62 279.455C150.62 276.311 151.017 273.626 151.813 271.401C152.618 269.166 153.773 267.461 155.279 266.287C156.794 265.103 158.612 264.511 160.733 264.511C162.855 264.511 164.668 265.103 166.174 266.287C167.689 267.461 168.844 269.166 169.64 271.401C170.445 273.626 170.847 276.311 170.847 279.455C170.847 282.617 170.449 285.316 169.654 287.551C168.858 289.777 167.708 291.476 166.202 292.651C164.696 293.815 162.874 294.398 160.733 294.398ZM160.733 291.273C162.855 291.273 164.502 290.25 165.677 288.205C166.851 286.159 167.438 283.242 167.438 279.455C167.438 276.936 167.168 274.791 166.628 273.02C166.098 271.249 165.331 269.9 164.327 268.972C163.333 268.044 162.135 267.58 160.733 267.58C158.631 267.58 156.988 268.616 155.804 270.69C154.621 272.755 154.029 275.676 154.029 279.455C154.029 281.973 154.294 284.114 154.824 285.875C155.355 287.636 156.117 288.976 157.111 289.895C158.115 290.813 159.322 291.273 160.733 291.273ZM176.245 294V291.443L185.847 280.932C186.974 279.701 187.902 278.631 188.631 277.722C189.36 276.803 189.9 275.941 190.25 275.136C190.61 274.322 190.79 273.47 190.79 272.58C190.79 271.557 190.544 270.671 190.052 269.923C189.569 269.175 188.906 268.598 188.063 268.19C187.22 267.783 186.273 267.58 185.222 267.58C184.105 267.58 183.129 267.812 182.296 268.276C181.472 268.73 180.833 269.369 180.378 270.193C179.933 271.017 179.711 271.983 179.711 273.091H176.358C176.358 271.386 176.751 269.89 177.537 268.602C178.323 267.314 179.393 266.311 180.748 265.591C182.111 264.871 183.641 264.511 185.336 264.511C187.04 264.511 188.551 264.871 189.867 265.591C191.183 266.311 192.215 267.281 192.964 268.503C193.712 269.724 194.086 271.083 194.086 272.58C194.086 273.65 193.892 274.696 193.503 275.719C193.124 276.732 192.462 277.864 191.515 279.114C190.577 280.354 189.275 281.869 187.608 283.659L181.074 290.648V290.875H194.597V294H176.245ZM209.554 294.398C207.888 294.398 206.387 294.066 205.052 293.403C203.716 292.741 202.646 291.831 201.841 290.676C201.036 289.521 200.596 288.205 200.52 286.727H203.929C204.062 288.044 204.659 289.133 205.719 289.994C206.789 290.847 208.068 291.273 209.554 291.273C210.748 291.273 211.808 290.993 212.736 290.435C213.674 289.876 214.408 289.109 214.938 288.134C215.478 287.149 215.748 286.036 215.748 284.795C215.748 283.527 215.468 282.395 214.91 281.401C214.36 280.397 213.603 279.606 212.637 279.028C211.671 278.451 210.568 278.157 209.327 278.148C208.437 278.138 207.523 278.276 206.586 278.56C205.648 278.834 204.876 279.189 204.27 279.625L200.975 279.227L202.736 264.909H217.85V268.034H205.691L204.668 276.614H204.839C205.435 276.14 206.183 275.747 207.083 275.435C207.982 275.122 208.92 274.966 209.895 274.966C211.676 274.966 213.262 275.392 214.654 276.244C216.055 277.087 217.154 278.242 217.949 279.71C218.754 281.178 219.157 282.854 219.157 284.739C219.157 286.595 218.74 288.252 217.907 289.71C217.083 291.159 215.946 292.305 214.498 293.148C213.049 293.981 211.401 294.398 209.554 294.398ZM247.129 284.909H250.993L254.231 289.17L255.084 290.307L259.913 296.727H256.049L252.868 292.466L252.072 291.386L247.129 284.909ZM261.106 279.455C261.106 282.523 260.552 285.174 259.444 287.409C258.336 289.644 256.816 291.367 254.885 292.58C252.953 293.792 250.746 294.398 248.265 294.398C245.784 294.398 243.578 293.792 241.646 292.58C239.714 291.367 238.194 289.644 237.086 287.409C235.978 285.174 235.424 282.523 235.424 279.455C235.424 276.386 235.978 273.735 237.086 271.5C238.194 269.265 239.714 267.542 241.646 266.33C243.578 265.117 245.784 264.511 248.265 264.511C250.746 264.511 252.953 265.117 254.885 266.33C256.816 267.542 258.336 269.265 259.444 271.5C260.552 273.735 261.106 276.386 261.106 279.455ZM257.697 279.455C257.697 276.936 257.276 274.81 256.433 273.077C255.6 271.344 254.468 270.032 253.038 269.142C251.618 268.252 250.027 267.807 248.265 267.807C246.504 267.807 244.908 268.252 243.478 269.142C242.058 270.032 240.926 271.344 240.084 273.077C239.25 274.81 238.834 276.936 238.834 279.455C238.834 281.973 239.25 284.099 240.084 285.832C240.926 287.565 242.058 288.877 243.478 289.767C244.908 290.657 246.504 291.102 248.265 291.102C250.027 291.102 251.618 290.657 253.038 289.767C254.468 288.877 255.6 287.565 256.433 285.832C257.276 284.099 257.697 281.973 257.697 279.455ZM265.836 288.034V285.136L278.62 264.909H280.723V269.398H279.302L269.643 284.682V284.909H286.859V288.034H265.836ZM279.53 294V287.153V285.804V264.909H282.882V294H279.53Z" fill="black"/>
<ellipse cx="78.9825" cy="280.5" rx="8.79936" ry="8.5" fill="#D9D9D9"/>
<path d="M79.7576 384.876C79.0701 384.872 78.443 384.702 77.8765 384.364C77.3099 384.021 76.8575 383.564 76.5193 382.995C76.1868 382.425 76.0222 381.796 76.0255 381.109C76.0288 380.416 76.1994 379.789 76.5374 379.228C76.881 378.661 77.3377 378.211 77.9075 377.879C78.4773 377.54 79.1059 377.373 79.7934 377.376C80.4866 377.379 81.1136 377.552 81.6745 377.895C82.241 378.233 82.6906 378.687 83.0231 379.257C83.3613 379.821 83.5288 380.449 83.5254 381.142C83.5222 381.83 83.3487 382.457 83.0051 383.024C82.6671 383.59 82.2133 384.043 81.6435 384.381C81.0794 384.714 80.4507 384.879 79.7576 384.876ZM99.6533 388.169L99.7367 370.714L102.37 370.726L102.298 385.914L110.207 385.949L110.196 388.216L99.6533 388.169ZM116.804 388.535C115.974 388.531 115.225 388.375 114.556 388.065C113.887 387.749 113.358 387.295 112.969 386.703C112.585 386.11 112.395 385.385 112.4 384.527C112.403 383.788 112.548 383.181 112.834 382.705C113.121 382.229 113.506 381.853 113.99 381.576C114.475 381.3 115.015 381.092 115.613 380.953C116.21 380.814 116.818 380.708 117.438 380.637C118.223 380.55 118.859 380.479 119.348 380.424C119.837 380.364 120.193 380.266 120.415 380.131C120.637 379.995 120.749 379.774 120.75 379.467L120.751 379.408C120.754 378.663 120.547 378.086 120.128 377.675C119.716 377.264 119.097 377.057 118.273 377.053C117.415 377.049 116.738 377.236 116.242 377.615C115.752 377.988 115.412 378.404 115.222 378.863L112.83 378.307C113.118 377.513 113.536 376.873 114.083 376.386C114.637 375.895 115.272 375.539 115.989 375.321C116.706 375.097 117.459 374.987 118.249 374.99C118.772 374.993 119.326 375.058 119.91 375.185C120.5 375.307 121.051 375.531 121.56 375.857C122.076 376.183 122.497 376.648 122.824 377.252C123.15 377.85 123.311 378.627 123.307 379.581L123.265 388.274L120.777 388.263L120.785 386.473L120.683 386.473C120.517 386.802 120.268 387.124 119.937 387.441C119.606 387.758 119.181 388.02 118.663 388.228C118.145 388.436 117.525 388.538 116.804 388.535ZM117.367 386.492C118.072 386.495 118.675 386.359 119.176 386.083C119.683 385.806 120.069 385.445 120.332 384.997C120.601 384.543 120.737 384.058 120.74 383.541L120.748 381.854C120.656 381.944 120.48 382.029 120.218 382.107C119.962 382.18 119.669 382.244 119.339 382.299C119.009 382.349 118.688 382.396 118.375 382.44C118.063 382.478 117.801 382.511 117.591 382.539C117.096 382.599 116.644 382.702 116.234 382.848C115.83 382.994 115.505 383.205 115.26 383.483C115.02 383.754 114.899 384.117 114.896 384.572C114.893 385.203 115.124 385.681 115.588 386.007C116.053 386.327 116.646 386.489 117.367 386.492ZM127.778 393.203C127.397 393.202 127.051 393.169 126.739 393.105C126.426 393.047 126.194 392.983 126.041 392.914L126.664 390.829C127.13 390.956 127.544 391.012 127.908 390.997C128.272 390.981 128.593 390.846 128.873 390.592C129.158 390.337 129.41 389.921 129.629 389.342L129.948 388.474L125.222 375.192L127.949 375.204L131.216 385.378L131.352 385.378L134.716 375.234L137.452 375.246L131.986 390.06C131.733 390.741 131.412 391.316 131.023 391.786C130.635 392.262 130.173 392.617 129.638 392.854C129.102 393.09 128.482 393.207 127.778 393.203ZM144.98 388.635C143.69 388.629 142.58 388.349 141.651 387.794C140.728 387.233 140.016 386.448 139.515 385.44C139.02 384.427 138.775 383.241 138.782 381.883C138.788 380.542 139.044 379.361 139.549 378.341C140.059 377.321 140.768 376.525 141.674 375.956C142.586 375.386 143.649 375.104 144.865 375.109C145.604 375.112 146.319 375.238 147.011 375.485C147.703 375.732 148.324 376.119 148.872 376.644C149.421 377.169 149.852 377.85 150.166 378.687C150.481 379.518 150.635 380.527 150.629 381.714L150.625 382.618L140.219 382.571L140.228 380.662L148.137 380.697C148.14 380.027 148.007 379.433 147.736 378.914C147.466 378.39 147.085 377.977 146.592 377.674C146.105 377.37 145.531 377.217 144.872 377.214C144.156 377.211 143.531 377.384 142.995 377.734C142.465 378.078 142.053 378.531 141.761 379.092C141.474 379.648 141.329 380.252 141.326 380.906L141.319 382.397C141.315 383.272 141.465 384.017 141.769 384.632C142.078 385.247 142.511 385.718 143.066 386.044C143.621 386.365 144.271 386.527 145.015 386.53C145.498 386.532 145.939 386.466 146.337 386.332C146.736 386.191 147.08 385.983 147.372 385.705C147.663 385.428 147.886 385.086 148.041 384.677L150.451 385.123C150.254 385.832 149.905 386.453 149.402 386.984C148.906 387.511 148.281 387.92 147.53 388.212C146.784 388.498 145.934 388.639 144.98 388.635ZM153.425 388.409L153.487 375.318L155.95 375.329L155.94 377.408L156.077 377.409C156.319 376.706 156.742 376.153 157.346 375.753C157.956 375.346 158.644 375.145 159.411 375.148C159.571 375.149 159.758 375.155 159.974 375.168C160.195 375.18 160.369 375.195 160.494 375.213L160.482 377.65C160.38 377.621 160.198 377.589 159.937 377.554C159.676 377.513 159.414 377.492 159.153 377.491C158.551 377.488 158.013 377.614 157.541 377.867C157.073 378.115 156.702 378.463 156.428 378.911C156.153 379.353 156.014 379.858 156.011 380.426L155.973 388.42L153.425 388.409ZM175.659 371.053L175.575 388.507L172.933 388.496L173.004 373.683L172.902 373.683L168.712 376.391L168.725 373.869L173.093 371.042L175.659 371.053ZM186.97 371.104L190.166 371.118L195.658 384.711L195.863 384.711L201.484 371.168L204.68 371.182L204.597 388.637L202.091 388.626L202.152 375.995L201.99 375.994L196.782 388.576L194.702 388.567L189.615 375.931L189.453 375.93L189.392 388.569L186.887 388.558L186.97 371.104ZM212.029 388.96C211.2 388.956 210.451 388.799 209.782 388.489C209.113 388.174 208.583 387.72 208.194 387.127C207.811 386.535 207.621 385.809 207.625 384.951C207.629 384.213 207.774 383.605 208.06 383.129C208.346 382.653 208.732 382.277 209.216 382.001C209.7 381.725 210.241 381.517 210.838 381.378C211.436 381.238 212.044 381.133 212.664 381.062C213.448 380.975 214.085 380.903 214.574 380.849C215.063 380.789 215.418 380.691 215.641 380.555C215.863 380.42 215.975 380.199 215.976 379.892L215.976 379.832C215.98 379.088 215.772 378.51 215.354 378.099C214.941 377.689 214.323 377.481 213.499 377.478C212.641 377.474 211.964 377.661 211.468 378.04C210.977 378.412 210.637 378.828 210.448 379.288L208.055 378.732C208.343 377.938 208.761 377.297 209.309 376.811C209.862 376.319 210.498 375.964 211.215 375.746C211.932 375.522 212.685 375.411 213.475 375.415C213.997 375.417 214.551 375.482 215.136 375.61C215.726 375.732 216.276 375.956 216.786 376.282C217.301 376.608 217.723 377.073 218.049 377.677C218.376 378.275 218.537 379.051 218.532 380.006L218.491 388.699L216.002 388.688L216.011 386.898L215.909 386.897C215.742 387.226 215.493 387.549 215.162 387.866C214.831 388.182 214.407 388.445 213.889 388.653C213.371 388.861 212.751 388.963 212.029 388.96ZM212.593 386.917C213.298 386.92 213.901 386.783 214.402 386.507C214.909 386.231 215.294 385.869 215.558 385.421C215.827 384.968 215.963 384.483 215.965 383.966L215.973 382.278C215.882 382.369 215.705 382.453 215.444 382.532C215.188 382.604 214.895 382.668 214.565 382.724C214.235 382.774 213.914 382.82 213.601 382.864C213.288 382.903 213.027 382.936 212.817 382.963C212.322 383.023 211.87 383.127 211.46 383.272C211.056 383.418 210.731 383.63 210.485 383.907C210.245 384.179 210.124 384.542 210.122 384.997C210.119 385.627 210.35 386.106 210.814 386.432C211.278 386.752 211.871 386.914 212.593 386.917ZM221.885 388.714L221.948 375.623L224.496 375.635L224.433 388.725L221.885 388.714ZM223.244 373.609C222.801 373.607 222.421 373.458 222.104 373.161C221.793 372.858 221.639 372.5 221.641 372.085C221.643 371.664 221.801 371.307 222.114 371.013C222.434 370.713 222.816 370.564 223.259 370.566C223.702 370.568 224.079 370.721 224.39 371.023C224.707 371.32 224.864 371.679 224.862 372.099C224.86 372.514 224.699 372.871 224.38 373.171C224.066 373.465 223.687 373.611 223.244 373.609ZM230.447 380.979L230.41 388.752L227.862 388.741L227.924 375.65L230.37 375.661L230.36 377.791L230.522 377.792C230.826 377.1 231.301 376.546 231.945 376.128C232.594 375.71 233.411 375.504 234.394 375.508C235.286 375.512 236.066 375.703 236.735 376.081C237.403 376.453 237.921 377.007 238.286 377.742C238.652 378.476 238.832 379.383 238.827 380.463L238.788 388.789L236.239 388.778L236.278 380.758C236.282 379.809 236.039 379.067 235.547 378.53C235.055 377.988 234.377 377.716 233.514 377.712C232.923 377.709 232.397 377.835 231.935 378.088C231.479 378.342 231.117 378.715 230.847 379.208C230.584 379.696 230.45 380.286 230.447 380.979ZM244.791 381.043L244.753 388.816L242.205 388.805L242.268 375.714L244.714 375.725L244.703 377.855L244.865 377.856C245.17 377.164 245.644 376.61 246.288 376.192C246.938 375.774 247.754 375.568 248.737 375.572C249.629 375.576 250.41 375.767 251.078 376.145C251.747 376.517 252.264 377.071 252.63 377.805C252.996 378.54 253.176 379.447 253.171 380.527L253.131 388.853L250.583 388.842L250.621 380.822C250.626 379.873 250.382 379.131 249.89 378.594C249.399 378.052 248.721 377.78 247.857 377.776C247.266 377.773 246.74 377.899 246.279 378.152C245.823 378.406 245.46 378.779 245.191 379.272C244.927 379.76 244.794 380.35 244.791 381.043ZM262.189 389.158C260.9 389.152 259.79 388.872 258.861 388.316C257.938 387.755 257.225 386.971 256.725 385.963C256.229 384.949 255.985 383.764 255.992 382.406C255.998 381.065 256.254 379.884 256.758 378.864C257.269 377.843 257.977 377.048 258.884 376.478C259.795 375.908 260.859 375.626 262.075 375.632C262.814 375.635 263.529 375.76 264.221 376.008C264.913 376.255 265.533 376.641 266.082 377.167C266.631 377.692 267.062 378.373 267.376 379.209C267.69 380.04 267.845 381.049 267.839 382.237L267.835 383.14L257.429 383.094L257.438 381.185L265.347 381.22C265.35 380.55 265.216 379.955 264.946 379.437C264.676 378.913 264.294 378.5 263.802 378.196C263.314 377.893 262.741 377.74 262.082 377.737C261.366 377.734 260.74 377.907 260.205 378.257C259.675 378.601 259.263 379.054 258.971 379.615C258.684 380.171 258.539 380.775 258.536 381.428L258.529 382.92C258.525 383.795 258.675 384.54 258.978 385.155C259.288 385.77 259.72 386.241 260.276 386.567C260.831 386.888 261.481 387.05 262.225 387.053C262.708 387.055 263.149 386.989 263.547 386.854C263.945 386.714 264.29 386.505 264.581 386.228C264.872 385.951 265.096 385.608 265.251 385.2L267.661 385.645C267.464 386.355 267.115 386.975 266.612 387.507C266.115 388.033 265.491 388.442 264.74 388.735C263.994 389.021 263.144 389.162 262.189 389.158ZM276.808 375.868L276.798 377.913L269.648 377.881L269.657 375.836L276.808 375.868ZM271.59 372.708L274.138 372.72L274.079 385.103C274.077 385.597 274.149 385.97 274.295 386.22C274.442 386.465 274.631 386.634 274.864 386.726C275.102 386.812 275.36 386.856 275.639 386.857C275.843 386.858 276.022 386.845 276.176 386.817C276.329 386.789 276.449 386.767 276.534 386.75L276.984 388.857C276.836 388.914 276.626 388.969 276.353 389.025C276.08 389.086 275.739 389.119 275.33 389.123C274.659 389.131 274.035 389.009 273.456 388.756C272.878 388.504 272.411 388.115 272.056 387.591C271.7 387.067 271.524 386.41 271.528 385.62L271.59 372.708ZM288.837 371.558L288.754 389.012L286.12 389L286.204 371.546L288.837 371.558ZM292.384 389.028L292.447 375.938L294.893 375.948L294.883 378.079L295.045 378.08C295.321 377.359 295.769 376.799 296.391 376.398C297.012 375.992 297.754 375.791 298.618 375.795C299.493 375.799 300.225 376.006 300.814 376.418C301.409 376.83 301.846 377.394 302.127 378.111L302.263 378.112C302.579 377.415 303.079 376.86 303.763 376.448C304.447 376.031 305.26 375.824 306.203 375.828C307.391 375.834 308.358 376.21 309.104 376.958C309.856 377.706 310.229 378.829 310.222 380.329L310.18 389.108L307.631 389.096L307.672 380.557C307.676 379.67 307.438 379.027 306.957 378.627C306.476 378.227 305.9 378.026 305.23 378.023C304.4 378.019 303.754 378.272 303.291 378.781C302.829 379.285 302.595 379.935 302.592 380.73L302.552 389.074L300.012 389.062L300.054 380.361C300.057 379.651 299.838 379.079 299.397 378.645C298.956 378.211 298.38 377.992 297.67 377.989C297.187 377.987 296.74 378.113 296.33 378.367C295.926 378.615 295.597 378.963 295.345 379.411C295.099 379.859 294.974 380.378 294.971 380.969L294.933 389.04L292.384 389.028ZM313.572 394.032L313.658 376.032L316.146 376.043L316.136 378.165L316.349 378.166C316.498 377.894 316.713 377.58 316.993 377.223C317.273 376.866 317.661 376.556 318.156 376.291C318.652 376.02 319.306 375.887 320.119 375.891C321.175 375.895 322.117 376.166 322.944 376.704C323.771 377.242 324.418 378.015 324.885 379.023C325.357 380.03 325.59 381.242 325.583 382.656C325.577 384.071 325.335 385.283 324.859 386.292C324.382 387.296 323.731 388.069 322.904 388.61C322.078 389.147 321.136 389.412 320.08 389.408C319.284 389.404 318.634 389.268 318.13 388.998C317.631 388.729 317.24 388.415 316.958 388.056C316.676 387.696 316.459 387.377 316.306 387.098L316.153 387.097L316.12 394.043L313.572 394.032ZM316.123 382.589C316.119 383.509 316.249 384.317 316.512 385.011C316.776 385.705 317.16 386.25 317.664 386.644C318.168 387.032 318.786 387.228 319.519 387.232C320.28 387.235 320.918 387.036 321.431 386.635C321.944 386.228 322.333 385.676 322.598 384.978C322.868 384.281 323.006 383.494 323.01 382.619C323.014 381.756 322.887 380.98 322.629 380.291C322.376 379.602 321.993 379.058 321.478 378.658C320.968 378.258 320.33 378.056 319.563 378.053C318.824 378.05 318.198 378.237 317.685 378.615C317.178 378.994 316.792 379.523 316.527 380.204C316.262 380.885 316.128 381.68 316.123 382.589ZM331.039 371.746L330.956 389.2L328.407 389.189L328.491 371.735L331.039 371.746ZM340.025 389.505C338.735 389.499 337.625 389.219 336.696 388.663C335.773 388.102 335.061 387.318 334.56 386.31C334.065 385.297 333.82 384.111 333.827 382.753C333.833 381.412 334.089 380.231 334.594 379.211C335.104 378.19 335.813 377.395 336.719 376.825C337.631 376.256 338.694 375.973 339.91 375.979C340.649 375.982 341.364 376.107 342.056 376.355C342.748 376.602 343.369 376.989 343.917 377.514C344.466 378.039 344.897 378.72 345.211 379.556C345.526 380.387 345.68 381.397 345.674 382.584L345.67 383.487L335.264 383.441L335.273 381.532L343.182 381.567C343.185 380.897 343.052 380.302 342.781 379.784C342.511 379.26 342.13 378.847 341.637 378.543C341.149 378.24 340.576 378.087 339.917 378.084C339.201 378.081 338.576 378.254 338.04 378.604C337.51 378.948 337.098 379.401 336.806 379.962C336.519 380.518 336.374 381.122 336.371 381.776L336.364 383.267C336.36 384.142 336.51 384.887 336.814 385.502C337.123 386.117 337.556 386.588 338.111 386.914C338.666 387.235 339.316 387.397 340.06 387.4C340.543 387.402 340.984 387.336 341.382 387.201C341.781 387.061 342.125 386.852 342.416 386.575C342.708 386.298 342.931 385.955 343.086 385.547L345.496 385.992C345.299 386.702 344.95 387.322 344.447 387.854C343.95 388.38 343.326 388.79 342.575 389.082C341.829 389.368 340.979 389.509 340.025 389.505ZM348.47 389.278L348.532 376.188L350.978 376.199L350.968 378.329L351.13 378.33C351.406 377.61 351.855 377.049 352.476 376.648C353.097 376.242 353.84 376.041 354.703 376.045C355.578 376.049 356.31 376.256 356.899 376.668C357.494 377.08 357.932 377.644 358.212 378.362L358.349 378.362C358.665 377.665 359.164 377.11 359.848 376.698C360.532 376.281 361.345 376.074 362.289 376.079C363.476 376.084 364.443 376.46 365.189 377.208C365.942 377.956 366.314 379.08 366.307 380.579L366.265 389.358L363.717 389.346L363.757 380.807C363.762 379.92 363.523 379.277 363.042 378.877C362.561 378.478 361.985 378.276 361.315 378.273C360.485 378.269 359.839 378.522 359.377 379.032C358.914 379.535 358.681 380.185 358.677 380.98L358.637 389.324L356.097 389.312L356.139 380.611C356.142 379.901 355.924 379.329 355.482 378.895C355.041 378.461 354.466 378.243 353.755 378.239C353.273 378.237 352.826 378.363 352.416 378.617C352.011 378.865 351.683 379.213 351.43 379.661C351.184 380.109 351.059 380.628 351.057 381.219L351.018 389.29L348.47 389.278ZM375.321 389.662C374.031 389.657 372.922 389.376 371.993 388.821C371.069 388.26 370.357 387.475 369.856 386.468C369.361 385.454 369.117 384.268 369.123 382.91C369.13 381.569 369.385 380.389 369.89 379.368C370.401 378.348 371.109 377.553 372.015 376.983C372.927 376.413 373.991 376.131 375.207 376.136C375.945 376.139 376.661 376.265 377.353 376.512C378.045 376.76 378.665 377.146 379.214 377.671C379.762 378.196 380.194 378.877 380.508 379.714C380.822 380.545 380.976 381.554 380.971 382.741L380.966 383.645L370.56 383.598L370.569 381.689L378.478 381.725C378.482 381.054 378.348 380.46 378.078 379.942C377.808 379.418 377.426 379.004 376.933 378.701C376.446 378.397 375.873 378.244 375.214 378.241C374.498 378.238 373.872 378.412 373.336 378.761C372.806 379.106 372.395 379.558 372.102 380.12C371.816 380.675 371.671 381.28 371.668 381.933L371.661 383.424C371.656 384.299 371.806 385.044 372.11 385.659C372.42 386.274 372.852 386.745 373.407 387.071C373.963 387.392 374.612 387.554 375.357 387.557C375.84 387.56 376.28 387.493 376.679 387.359C377.077 387.218 377.422 387.01 377.713 386.733C378.004 386.456 378.227 386.113 378.383 385.704L380.793 386.15C380.596 386.859 380.246 387.48 379.744 388.012C379.247 388.538 378.623 388.947 377.871 389.239C377.126 389.526 376.276 389.667 375.321 389.662ZM386.352 381.675L386.314 389.447L383.766 389.436L383.829 376.345L386.275 376.356L386.265 378.487L386.427 378.487C386.731 377.796 387.205 377.241 387.849 376.823C388.499 376.406 389.315 376.199 390.298 376.203C391.19 376.207 391.971 376.398 392.639 376.776C393.308 377.149 393.825 377.702 394.191 378.437C394.557 379.171 394.737 380.078 394.732 381.158L394.692 389.485L392.144 389.473L392.182 381.453C392.187 380.505 391.943 379.762 391.451 379.226C390.96 378.684 390.282 378.411 389.418 378.407C388.828 378.404 388.301 378.53 387.84 378.783C387.384 379.037 387.022 379.41 386.752 379.904C386.488 380.391 386.355 380.981 386.352 381.675ZM404.283 376.436L404.273 378.482L397.123 378.45L397.133 376.404L404.283 376.436ZM399.065 373.277L401.613 373.288L401.554 385.671C401.552 386.166 401.624 386.538 401.771 386.789C401.917 387.034 402.107 387.202 402.339 387.294C402.577 387.381 402.836 387.424 403.114 387.426C403.319 387.426 403.498 387.413 403.651 387.385C403.805 387.358 403.924 387.335 404.01 387.319L404.46 389.426C404.312 389.482 404.101 389.538 403.828 389.593C403.555 389.655 403.214 389.687 402.805 389.691C402.134 389.7 401.51 389.577 400.932 389.325C400.353 389.072 399.886 388.684 399.531 388.16C399.176 387.635 399 386.978 399.003 386.188L399.065 373.277ZM410.848 389.846C410.018 389.843 409.269 389.686 408.6 389.376C407.931 389.061 407.402 388.607 407.013 388.014C406.629 387.421 406.439 386.696 406.443 385.838C406.447 385.099 406.592 384.492 406.878 384.016C407.165 383.54 407.55 383.164 408.034 382.888C408.519 382.612 409.059 382.404 409.657 382.264C410.254 382.125 410.862 382.02 411.482 381.949C412.267 381.861 412.903 381.79 413.392 381.736C413.881 381.675 414.237 381.577 414.459 381.442C414.681 381.307 414.793 381.085 414.794 380.779L414.795 380.719C414.798 379.975 414.591 379.397 414.172 378.986C413.759 378.575 413.141 378.368 412.317 378.364C411.459 378.36 410.782 378.548 410.286 378.926C409.796 379.299 409.456 379.715 409.266 380.174L406.874 379.618C407.162 378.824 407.579 378.184 408.127 377.698C408.681 377.206 409.316 376.851 410.033 376.632C410.75 376.408 411.503 376.298 412.293 376.302C412.816 376.304 413.369 376.369 413.954 376.496C414.544 376.618 415.094 376.842 415.604 377.169C416.12 377.495 416.541 377.96 416.868 378.563C417.194 379.162 417.355 379.938 417.351 380.892L417.309 389.585L414.821 389.574L414.829 387.785L414.727 387.784C414.561 388.113 414.312 388.436 413.981 388.752C413.65 389.069 413.225 389.331 412.707 389.539C412.189 389.747 411.569 389.85 410.848 389.846ZM411.411 387.803C412.116 387.807 412.719 387.67 413.22 387.394C413.727 387.118 414.112 386.756 414.376 386.308C414.645 385.855 414.781 385.37 414.783 384.853L414.792 383.165C414.7 383.256 414.524 383.34 414.262 383.418C414.006 383.491 413.713 383.555 413.383 383.61C413.053 383.66 412.732 383.707 412.419 383.751C412.107 383.789 411.845 383.822 411.635 383.85C411.14 383.91 410.688 384.013 410.278 384.159C409.874 384.305 409.549 384.517 409.304 384.794C409.064 385.066 408.943 385.429 408.94 385.883C408.937 386.514 409.168 386.992 409.632 387.318C410.097 387.638 410.69 387.8 411.411 387.803ZM426.877 376.537L426.867 378.582L419.716 378.551L419.726 376.505L426.877 376.537ZM421.659 373.377L424.207 373.389L424.148 385.772C424.145 386.266 424.218 386.639 424.364 386.89C424.511 387.135 424.7 387.303 424.933 387.395C425.171 387.481 425.429 387.525 425.708 387.526C425.912 387.527 426.091 387.514 426.245 387.486C426.398 387.458 426.518 387.436 426.603 387.419L427.053 389.527C426.905 389.583 426.695 389.639 426.422 389.694C426.149 389.756 425.808 389.788 425.398 389.792C424.728 389.8 424.104 389.678 423.525 389.426C422.947 389.173 422.48 388.785 422.125 388.26C421.769 387.736 421.593 387.079 421.597 386.289L421.659 373.377ZM429.633 389.64L429.695 376.55L432.244 376.561L432.181 389.652L429.633 389.64ZM430.992 374.536C430.549 374.534 430.169 374.384 429.852 374.087C429.541 373.785 429.387 373.426 429.389 373.011C429.391 372.591 429.549 372.234 429.862 371.94C430.182 371.64 430.563 371.491 431.007 371.493C431.45 371.495 431.827 371.647 432.138 371.95C432.455 372.247 432.612 372.605 432.61 373.026C432.608 373.44 432.447 373.798 432.128 374.097C431.814 374.391 431.435 374.537 430.992 374.536ZM441.122 389.956C439.895 389.95 438.825 389.664 437.913 389.098C437.001 388.531 436.295 387.741 435.794 386.727C435.293 385.714 435.046 384.531 435.052 383.179C435.059 381.821 435.317 380.634 435.828 379.62C436.338 378.605 437.052 377.818 437.97 377.26C438.887 376.701 439.96 376.425 441.187 376.43C442.414 376.436 443.484 376.722 444.396 377.288C445.308 377.855 446.014 378.648 446.515 379.667C447.016 380.687 447.263 381.875 447.257 383.233C447.25 384.585 446.992 385.766 446.481 386.775C445.971 387.784 445.257 388.568 444.339 389.126C443.422 389.685 442.35 389.961 441.122 389.956ZM441.141 387.817C441.937 387.82 442.597 387.613 443.121 387.195C443.646 386.777 444.035 386.219 444.288 385.521C444.547 384.823 444.679 384.054 444.683 383.213C444.687 382.378 444.563 381.61 444.31 380.91C444.064 380.205 443.68 379.638 443.16 379.209C442.639 378.781 441.981 378.565 441.185 378.561C440.384 378.558 439.718 378.768 439.188 379.191C438.663 379.615 438.271 380.179 438.012 380.882C437.759 381.58 437.63 382.346 437.626 383.182C437.622 384.023 437.744 384.793 437.99 385.493C438.243 386.193 438.629 386.754 439.15 387.177C439.676 387.6 440.34 387.813 441.141 387.817ZM452.656 381.97L452.618 389.743L450.07 389.732L450.133 376.641L452.579 376.652L452.569 378.782L452.731 378.783C453.035 378.091 453.509 377.537 454.153 377.119C454.803 376.701 455.619 376.495 456.602 376.499C457.494 376.503 458.275 376.694 458.943 377.072C459.612 377.444 460.129 377.998 460.495 378.732C460.861 379.467 461.041 380.374 461.036 381.454L460.996 389.78L458.448 389.769L458.486 381.749C458.491 380.8 458.247 380.058 457.755 379.521C457.264 378.979 456.586 378.707 455.722 378.703C455.132 378.7 454.605 378.826 454.144 379.079C453.688 379.333 453.326 379.706 453.056 380.199C452.792 380.687 452.659 381.277 452.656 381.97Z" fill="#BA1E71"/>
<line x1="78.823" y1="278.997" x2="78.823" y2="380.001" stroke="#0FA9D9"/>
</svg>
